<svg id="ca764b75-c9ea-431e-ae27-5af58493767c" data-name="Layer 1" xmlns="http://www.w3.org/2000/svg" xmlns:xlink="http://www.w3.org/1999/xlink" viewBox="0 0 1854.93 2106.39"><defs><clipPath id="06cde2b1-83fd-4da6-bcd7-39f15ecccd5c"><path d="M1780.66,789.66c12.54,88.2,111.36,855.81-347.93,1154.57-119.49,77.72-235.55,96.91-348.27,115.55-139.64,23.09-484.16,80.06-763.61-134.5C145.29,1790.48-38.52,1522.87,28,1305.13,84.32,1121,261.91,1149.56,340.65,939c78.55-210.08-62.75-333.24,28.58-549.52,60.18-142.51,176.38-218.9,226.88-252.1C864.2-38.9,1278.87-31,1532.57,192.83,1719.27,357.55,1750.74,579,1780.66,789.66Z" style="fill:none"/></clipPath><radialGradient id="9080c15e-0716-46c4-85df-f9cedf955e52" cx="418.46" cy="776.66" r="1116.28" gradientTransform="matrix(-0.01, 1, -1.86, -0.01, 1863.39, 368.21)" gradientUnits="userSpaceOnUse"><stop offset="0" stop-color="#00d9ff" stop-opacity="0.8"/><stop offset="1" stop-color="#1f2042" stop-opacity="0.98"/></radialGradient><radialGradient id="edf01304-2e3f-4761-a58a-b50db6eda8bd" cx="591.71" cy="617.09" r="876.74" gradientTransform="matrix(-0.01, 1, -1.86, -0.01, 1741.55, 33.34)" gradientUnits="userSpaceOnUse"><stop offset="0" stop-color="#ff9d00" stop-opacity="0.8"/><stop offset="1" stop-color="#ff00a6" stop-opacity="0.98"/></radialGradient><linearGradient id="74e48143-0919-469b-9906-d18cee3e137e" x1="379.67" y1="773.61" x2="1165.67" y2="773.61" gradientUnits="userSpaceOnUse"><stop offset="0" stop-color="#fff" stop-opacity="0.7"/><stop offset="1" stop-color="#fff" stop-opacity="0"/></linearGradient><linearGradient id="36b8a577-ac31-42ac-92eb-a6af97cbecfe" x1="370.52" y1="2230.77" x2="935.17" y2="1252.76" gradientUnits="userSpaceOnUse"><stop offset="0" stop-color="#1f2042" stop-opacity="0.4"/><stop offset="1" stop-color="#1f2042" stop-opacity="0.6"/></linearGradient><linearGradient id="58fbf54c-e185-4e9b-ba65-2db27e457662" x1="-603.5" y1="574.34" x2="697.11" y2="574.34" gradientTransform="matrix(-1, 0, 0, 1, 905.48, 0)" gradientUnits="userSpaceOnUse"><stop offset="0" stop-color="#fff" stop-opacity="0.2"/><stop offset="1" stop-color="#fff" stop-opacity="0"/></linearGradient><linearGradient id="b4434fd8-d4b8-43e0-8e7e-0ab7503a722e" x1="472.54" y1="750.87" x2="1779.53" y2="750.87" gradientUnits="userSpaceOnUse"><stop offset="0" stop-color="#fff" stop-opacity="0.15"/><stop offset="1" stop-color="#fff" stop-opacity="0"/></linearGradient><linearGradient id="e7980dbf-10fb-4648-b3c8-ba8f6133d7ac" x1="554.32" y1="2279.35" x2="897.95" y2="1265.84" gradientUnits="userSpaceOnUse"><stop offset="0" stop-color="#dbdfef" stop-opacity="0.2"/><stop offset="1" stop-color="#00178a" stop-opacity="0.1"/></linearGradient><radialGradient id="c51b5439-d8e2-4e63-9169-df71b5146bce" cx="896.15" cy="1013.83" r="1136.38" gradientTransform="translate(0 688.37) scale(1 0.32)" gradientUnits="userSpaceOnUse"><stop offset="0" stop-color="#2ea8ff" stop-opacity="0.3"/><stop offset="1" stop-color="#0095ff" stop-opacity="0.2"/></radialGradient><linearGradient id="af5cac08-256a-41c6-8289-6e798ce9c2bf" x1="2394.74" y1="923.33" x2="3098.7" y2="923.33" gradientTransform="matrix(-1, 0, 0, 1, 3528.77, 0)" gradientUnits="userSpaceOnUse"><stop offset="0" stop-color="#0095ff" stop-opacity="0"/><stop offset="1" stop-color="#0095ff" stop-opacity="0.2"/></linearGradient><radialGradient id="d438138c-1127-45a3-8ef1-edf70eb4e8f7" cx="866.46" cy="839.52" r="148.69" gradientUnits="userSpaceOnUse"><stop offset="0" stop-color="#2ea8ff" stop-opacity="0.3"/><stop offset="1" stop-color="#0095ff" stop-opacity="0.3"/></radialGradient><radialGradient id="d1216d24-6062-45b6-9d33-be8496196e95" cx="791.13" cy="1030.74" r="706.9" gradientTransform="translate(0 699.86) scale(1 0.32)" gradientUnits="userSpaceOnUse"><stop offset="0" stop-color="#2ea8ff" stop-opacity="0.8"/><stop offset="1" stop-color="#0095ff" stop-opacity="0.6"/></radialGradient><linearGradient id="73d7afb5-a64d-4681-93df-8d16fa02b666" x1="1861.31" y1="806.77" x2="2258.04" y2="806.77" gradientTransform="matrix(-1, 0, 0, 1, 3528.77, 0)" gradientUnits="userSpaceOnUse"><stop offset="0" stop-color="#6bc1ff" stop-opacity="0.7"/><stop offset="1" stop-color="#59baff" stop-opacity="0.5"/></linearGradient><linearGradient id="43ca0e9d-1649-4e9d-8c1c-5c37be9dff9d" x1="1769.34" y1="806.77" x2="2215.97" y2="806.77" gradientTransform="matrix(-1, 0, 0, 1, 3528.77, 0)" gradientUnits="userSpaceOnUse"><stop offset="0" stop-color="#57b9ff" stop-opacity="0.6"/><stop offset="1" stop-color="#6bc1ff" stop-opacity="0.3"/></linearGradient><linearGradient id="45a14ade-1e19-4af1-9791-0f99f35e9b9e" x1="1368.94" y1="826.26" x2="1919.12" y2="826.26" gradientUnits="userSpaceOnUse"><stop offset="0" stop-color="#6bc1ff" stop-opacity="0.7"/><stop offset="1" stop-color="#59baff" stop-opacity="0.4"/></linearGradient><linearGradient id="00a3a79e-260a-4b5e-961b-db5b739dd74e" x1="1476.3" y1="718.32" x2="1669.67" y2="718.32" gradientUnits="userSpaceOnUse"><stop offset="0" stop-color="#73c5ff" stop-opacity="0.6"/><stop offset="1" stop-color="#4ab4ff" stop-opacity="0.3"/></linearGradient><linearGradient id="de626590-798b-4134-b157-5193ae6096f0" x1="1279.1" y1="781.67" x2="1477.62" y2="781.67" gradientUnits="userSpaceOnUse"><stop offset="0" stop-color="#87cdff" stop-opacity="0.9"/><stop offset="1" stop-color="#6bc1ff" stop-opacity="0.6"/></linearGradient><radialGradient id="3212b96a-994b-49a3-aff0-3964f4ccf517" cx="1354.09" cy="672.68" r="255.01" gradientTransform="translate(978.04 -737.09) rotate(53.2) scale(1 0.81)" gradientUnits="userSpaceOnUse"><stop offset="0" stop-color="#01f" stop-opacity="0.3"/><stop offset="1" stop-color="#01f" stop-opacity="0"/></radialGradient><linearGradient id="a49b5cd6-517c-4b31-b06f-9b57bfb818ea" x1="1068.11" y1="821.09" x2="1382.11" y2="821.09" gradientUnits="userSpaceOnUse"><stop offset="0" stop-color="#abdcff"/><stop offset="1" stop-color="#6bc1ff" stop-opacity="0.65"/></linearGradient><linearGradient id="a97a3fdd-1037-4814-b4cb-31baeafb0e50" x1="1037.94" y1="1101.8" x2="1397.24" y2="479.48" gradientUnits="userSpaceOnUse"><stop offset="0" stop-color="#bde3ff" stop-opacity="0.9"/><stop offset="1" stop-color="#6bc1ff" stop-opacity="0.7"/></linearGradient><radialGradient id="7e05c57e-85b8-4b82-aac6-7839bcd8512c" cx="815.11" cy="1149.89" r="869.02" gradientTransform="translate(0 625.18) scale(1 0.46)" gradientUnits="userSpaceOnUse"><stop offset="0" stop-color="#0095ff" stop-opacity="0.3"/><stop offset="1" stop-color="#0095ff" stop-opacity="0"/></radialGradient><radialGradient id="153d88ba-081f-4005-94ed-cb60562f6606" cx="1033.12" cy="1707.02" r="258.92" gradientUnits="userSpaceOnUse"><stop offset="0" stop-color="#1f2042" stop-opacity="0.3"/><stop offset="1" stop-color="#1f2042" stop-opacity="0"/></radialGradient><radialGradient id="176ace39-84c2-4851-847c-44df4953befa" cx="864.11" cy="1753.34" r="264.01" gradientUnits="userSpaceOnUse"><stop offset="0" stop-color="#1f2042" stop-opacity="0.7"/><stop offset="1" stop-color="#1f2042" stop-opacity="0.02"/></radialGradient><radialGradient id="0f0c05a3-1f05-4c24-97e2-b0e424db0d27" cx="856.11" cy="1714.23" r="466.74" gradientUnits="userSpaceOnUse"><stop offset="0" stop-color="#fff"/><stop offset="0.19" stop-color="#f5fbff"/><stop offset="1" stop-color="#0095ff" stop-opacity="0.5"/></radialGradient><linearGradient id="e0092b0d-0bf8-4052-9674-0b8ff9b7d191" x1="748.72" y1="1667.46" x2="1167.32" y2="1667.46" gradientTransform="matrix(1, 0, 0, 1, 0, 0)" xlink:href="#58fbf54c-e185-4e9b-ba65-2db27e457662"/><radialGradient id="be3e610a-3229-4c43-9ac4-03e822644aef" cx="1119.5" cy="1261.41" r="81.61" gradientTransform="translate(-202.23 209.77) rotate(-10)" xlink:href="#153d88ba-081f-4005-94ed-cb60562f6606"/><radialGradient id="d985f159-78b2-45cc-9ad5-b631efa36980" cx="1069.5" cy="1277.35" r="78.65" gradientTransform="translate(-202.23 209.77) rotate(-10)" xlink:href="#176ace39-84c2-4851-847c-44df4953befa"/><radialGradient id="666b1c79-7f37-46d4-9d06-04d834722817" cx="1059.72" cy="1264.78" r="139.99" gradientUnits="userSpaceOnUse"><stop offset="0.19" stop-color="#e3f3ff"/><stop offset="1" stop-color="#57b9ff" stop-opacity="0.5"/></radialGradient><linearGradient id="3257285a-4e58-4c86-81fd-7232ee8f667b" x1="1033.5" y1="1252.63" x2="1159.08" y2="1252.63" gradientTransform="matrix(1, 0, 0, 1, 0, 0)" xlink:href="#58fbf54c-e185-4e9b-ba65-2db27e457662"/><radialGradient id="2d6a3d7e-170d-452b-a628-1c61d3760bae" cx="1059.72" cy="1264.78" r="139.99" xlink:href="#666b1c79-7f37-46d4-9d06-04d834722817"/><linearGradient id="cd992047-b858-4fb6-ae0e-99af2b736cf3" x1="1033.5" y1="1252.63" x2="1159.08" y2="1252.63" gradientTransform="matrix(1, 0, 0, 1, 0, 0)" xlink:href="#58fbf54c-e185-4e9b-ba65-2db27e457662"/><radialGradient id="afc16046-0eb8-4305-acd2-cc801bdce978" cx="66.11" cy="1327.34" r="194" xlink:href="#153d88ba-081f-4005-94ed-cb60562f6606"/><radialGradient id="14b6e450-70f9-4f6f-bbc3-45262b2bfddd" cx="-72.35" cy="1356.05" r="214.46" xlink:href="#176ace39-84c2-4851-847c-44df4953befa"/><radialGradient id="fe306f74-6b4f-4b96-8c8e-340fd4e4dbcd" cx="-106.98" cy="1297.18" r="386.03" gradientTransform="translate(-169.05 43.55) rotate(-8)" xlink:href="#666b1c79-7f37-46d4-9d06-04d834722817"/><linearGradient id="16ba0ae9-2242-4f0a-800e-e2deb413a50f" x1="-179.86" y1="1274.35" x2="169.2" y2="1274.35" gradientTransform="translate(-169.05 43.55) rotate(-8)" xlink:href="#58fbf54c-e185-4e9b-ba65-2db27e457662"/><radialGradient id="93e11f46-5f20-47f3-a623-16566abad258" cx="580.66" cy="1217.15" r="46.54" xlink:href="#153d88ba-081f-4005-94ed-cb60562f6606"/><radialGradient id="cb3f22d3-fca7-47a4-88d1-32403a7dec46" cx="555.26" cy="1227.29" r="40.56" xlink:href="#176ace39-84c2-4851-847c-44df4953befa"/><radialGradient id="33fa733a-eab6-49f1-b0f2-8c620ba94e2f" cx="553.95" cy="1335.61" r="69.43" gradientTransform="translate(-326.76 80.53) rotate(-15)" xlink:href="#666b1c79-7f37-46d4-9d06-04d834722817"/><linearGradient id="a4ae7683-f024-491f-b5db-be4d4cfb91ec" x1="541.01" y1="1328.61" x2="602.97" y2="1328.61" gradientTransform="translate(-326.76 80.53) rotate(-15)" xlink:href="#58fbf54c-e185-4e9b-ba65-2db27e457662"/><radialGradient id="6931bcf3-22d8-4d15-90f4-9bd8b2fe39b4" cx="247.92" cy="1780.89" r="127.15" xlink:href="#153d88ba-081f-4005-94ed-cb60562f6606"/><radialGradient id="cbb6cd05-66c9-4e24-be4b-ddabff9b99b9" cx="165.16" cy="1803.74" r="129.31" xlink:href="#176ace39-84c2-4851-847c-44df4953befa"/><linearGradient id="84f195f1-3a08-43c9-bb8e-46b6990f4517" x1="9.91" y1="1742.48" x2="171.58" y2="1785.8" gradientTransform="translate(-326.76 80.53) rotate(-15)" gradientUnits="userSpaceOnUse"><stop offset="0" stop-color="#def1ff"/><stop offset="1" stop-color="#d1d4ff"/></linearGradient><radialGradient id="5bd4c06f-6834-4955-8de0-120788b68912" cx="152.08" cy="1785.43" r="234.24" xlink:href="#666b1c79-7f37-46d4-9d06-04d834722817"/><linearGradient id="0fee9ee2-7882-4ce0-bcda-e6d55bdfe835" x1="108.5" y1="1761.06" x2="317.24" y2="1761.06" gradientTransform="matrix(1, 0, 0, 1, 0, 0)" xlink:href="#58fbf54c-e185-4e9b-ba65-2db27e457662"/><radialGradient id="006a03ee-c6f0-4a54-b2c6-1e102a2226dc" cx="850.37" cy="1124.59" r="774.56" gradientTransform="translate(0 604.5) scale(1 0.46)" gradientUnits="userSpaceOnUse"><stop offset="0" stop-color="#d1ecff" stop-opacity="0.8"/><stop offset="1" stop-color="#0095ff" stop-opacity="0.6"/></radialGradient><radialGradient id="68f41d9b-f37f-4a7c-9c8f-377b1df694b7" cx="897.56" cy="923.86" r="709.6" gradientTransform="translate(0 496.6) scale(1 0.46)" gradientUnits="userSpaceOnUse"><stop offset="0" stop-color="#e5f4ff" stop-opacity="0.2"/><stop offset="1" stop-color="#fff" stop-opacity="0"/></radialGradient><radialGradient id="eaeec07c-009b-4dd5-a6a1-44c1fb05add2" cx="429.45" cy="907.13" r="0.02" gradientTransform="translate(0 487.61) scale(1 0.46)" gradientUnits="userSpaceOnUse"><stop offset="0" stop-color="#69c0ff" stop-opacity="0.8"/><stop offset="1" stop-color="#0095ff" stop-opacity="0.6"/></radialGradient><radialGradient id="63ac4b7b-2b89-444c-aa24-bb6f47cbba43" cx="427.67" cy="1116.57" r="116.36" gradientTransform="translate(0 758.14) scale(1 0.32)" gradientUnits="userSpaceOnUse"><stop offset="0" stop-color="#00178a" stop-opacity="0.3"/><stop offset="1" stop-color="#00178a" stop-opacity="0"/></radialGradient><linearGradient id="55a9fcde-1491-427a-b73b-130a58023ee4" x1="354.01" y1="1058.94" x2="493.69" y2="1058.94" gradientUnits="userSpaceOnUse"><stop offset="0" stop-color="#01f" stop-opacity="0"/><stop offset="0.82" stop-color="#01f" stop-opacity="0.1"/></linearGradient><linearGradient id="1963d859-604b-4bff-b426-e99f83ebdef0" x1="365.63" y1="1058.94" x2="505.32" y2="1058.94" gradientUnits="userSpaceOnUse"><stop offset="0" stop-color="#fff"/><stop offset="0.65" stop-color="#fff"/><stop offset="1" stop-color="#d9efff"/></linearGradient><linearGradient id="454b687c-577b-47aa-86d9-175ba087333b" x1="372.26" y1="1004.95" x2="456.65" y2="1078.3" gradientUnits="userSpaceOnUse"><stop offset="0" stop-color="#fff" stop-opacity="0.2"/><stop offset="1" stop-color="#0095ff" stop-opacity="0.2"/></linearGradient><linearGradient id="64f63ec8-07bf-4157-adcb-8f4a2a9c807d" x1="461.97" y1="1062.13" x2="453.5" y2="1063.58" gradientUnits="userSpaceOnUse"><stop offset="0" stop-color="#0095ff" stop-opacity="0.5"/><stop offset="1" stop-color="#0095ff" stop-opacity="0"/></linearGradient><linearGradient id="ff6f8961-e46c-474d-95f4-64e76ec6f157" x1="416.04" y1="1021.43" x2="420.38" y2="1025.2" xlink:href="#454b687c-577b-47aa-86d9-175ba087333b"/><linearGradient id="30cbb2a3-337b-4518-8b6e-6bcd15b84e68" x1="458.84" y1="1038.67" x2="469.67" y2="1048.91" gradientUnits="userSpaceOnUse"><stop offset="0" stop-color="#0095ff" stop-opacity="0"/><stop offset="1" stop-color="#0095ff" stop-opacity="0.5"/></linearGradient><linearGradient id="b1190aaf-4b8c-48e9-9aaa-701ef23afeb4" x1="453.65" y1="1079.08" x2="441.69" y2="1081.12" xlink:href="#30cbb2a3-337b-4518-8b6e-6bcd15b84e68"/><linearGradient id="69f2ca9a-f8fe-42d8-b9f4-92a5466423bb" x1="291.38" y1="122.42" x2="1592.23" y2="122.42" gradientUnits="userSpaceOnUse"><stop offset="0" stop-color="#fff" stop-opacity="0.5"/><stop offset="1" stop-color="#fff" stop-opacity="0"/></linearGradient><linearGradient id="7e91a2c3-1dd5-451e-8914-37705a2679a8" x1="13.04" y1="444.44" x2="1964.34" y2="444.44" xlink:href="#74e48143-0919-469b-9906-d18cee3e137e"/></defs><title>bear</title><g style="clip-path:url(#06cde2b1-83fd-4da6-bcd7-39f15ecccd5c)"><path d="M641.61,1354.84v220s55,34,156,34,110-16,110-16l-49-238" style="fill:#fff;stroke:#000;stroke-miterlimit:10"/><path d="M596.11,137.34c-250.21,46.6-287.09,98.09-302,122C175.29,449.9,562.82,746.7,460,971.58,367.9,1173.12-6.12,1073.5-86.56,1262.5c-86.81,204,265.29,530.85,407.42,662.78,133.54,124,543.15,504.2,738.07,390C1244.69,2206.53,981,1799,1215,1385.23c205.18-362.93,567.6-333.74,615.06-624.06,38-232.15-150.84-461.68-297.44-568.34C1281,9.79,987.29,64.49,596.11,137.34Z" style="fill:#00d9ff"/><path d="M596.11,137.34c-250.21,46.6-287.09,98.09-302,122C175.29,449.9,562.82,746.7,460,971.58,367.9,1173.12-6.12,1073.5-86.56,1262.5c-86.81,204,265.29,530.85,407.42,662.78,133.54,124,543.15,504.2,738.07,390C1244.69,2206.53,981,1799,1215,1385.23c205.18-362.93,567.6-333.74,615.06-624.06,38-232.15-150.84-461.68-297.44-568.34C1281,9.79,987.29,64.49,596.11,137.34Z" style="fill:url(#9080c15e-0716-46c4-85df-f9cedf955e52)"/><path d="M1884.09,678.1c65.91,233.3,5.66,441-29.16,561.06-13.67,47.13-65.71,216.42-198.86,405-100.24,142-227,321.57-448.64,413.92C788,2232.89,364.7,1955.48,320.85,1925.28,115,1783.49-152.92,1491.83-86.56,1262.5-34.34,1082.05,184.07,1132.06,255,928.28c71.86-206.61-65-510,39.16-668.94,4.11-6.27,7.8-11.22,7.8-11.22,16.44-11,42.4-28.51,74-50.28C558.74,71.77,610.71,22.63,660-9c271.22-174,707.05,25.5,834.88,84,41.26,18.89,78.55,39.94,115.72,72.76,74.32,65.62,102.45,137.91,151.79,254.27C1872.67,662.21,1868.17,621.75,1884.09,678.1Z" style="fill:#1f2042"/><path d="M1884.09,678.1c65.91,233.3,5.66,441-29.16,561.06-13.67,47.13-65.71,216.42-198.86,405-100.24,142-227,321.57-448.64,413.92C788,2232.89,364.7,1955.48,320.85,1925.28,115,1783.49-152.92,1491.83-86.56,1262.5-34.34,1082.05,184.07,1132.06,255,928.28c71.86-206.61-65-510,39.16-668.94,4.11-6.27,7.8-11.22,7.8-11.22,16.44-11,42.4-28.51,74-50.28C558.74,71.77,610.71,22.63,660-9c271.22-174,707.05,25.5,834.88,84,41.26,18.89,78.55,39.94,115.72,72.76,74.32,65.62,102.45,137.91,151.79,254.27C1872.67,662.21,1868.17,621.75,1884.09,678.1Z" style="fill:url(#edf01304-2e3f-4761-a58a-b50db6eda8bd)"/><path d="M547.08,695.34C374,680.1,287,552,248.11,585.34c-35.55,30.42,5.6,174.29,96.58,263,230.33,224.56,770.39,86.32,789.94-46.4,9.28-63-95.72-145.13-192.25-170C790.43,592.68,727,711.18,547.08,695.34Z" style="fill:url(#74e48143-0919-469b-9906-d18cee3e137e)"/><path d="M1104.11,829.34c-232.83,4.26-396.8,62-644.08,142.24C114.35,1083.72-51.2,1164.7-86.56,1262.5-161.21,1469,88.73,1725,269.13,1909.77c148.14,151.72,439.45,450.06,789.8,405.55,109.76-13.94,185.88-64.76,234.11-94.47,220.69-136,307.25-345.6,410-604.42,121.58-306.43,182.37-459.65,124.32-572.59C1711.35,818.23,1296.05,825.83,1104.11,829.34Z" style="fill:#0095ff"/><path d="M1104.11,829.34c-232.83,4.26-396.8,62-644.08,142.24C114.35,1083.72-51.2,1164.7-86.56,1262.5-161.21,1469,88.73,1725,269.13,1909.77c148.14,151.72,439.45,450.06,789.8,405.55,109.76-13.94,185.88-64.76,234.11-94.47,220.69-136,307.25-345.6,410-604.42,121.58-306.43,182.37-459.65,124.32-572.59C1711.35,818.23,1296.05,825.83,1104.11,829.34Z" style="fill:#00178a"/><path d="M1104.11,829.34c-232.83,4.26-396.8,62-644.08,142.24C114.35,1083.72-51.2,1164.7-86.56,1262.5-161.21,1469,88.73,1725,269.13,1909.77c148.14,151.72,439.45,450.06,789.8,405.55,109.76-13.94,185.88-64.76,234.11-94.47,220.69-136,307.25-345.6,410-604.42,121.58-306.43,182.37-459.65,124.32-572.59C1711.35,818.23,1296.05,825.83,1104.11,829.34Z" style="fill:url(#36b8a577-ac31-42ac-92eb-a6af97cbecfe)"/><path d="M1754.18,212.08c-126.61-35-183.39,88.74-398,82-166.17-5.22-199.83-81.53-340-58-139.77,23.46-143,105.48-266,130-194.11,38.69-278.51-147.1-466-138-208,10.09-429.66,254.63-396,414,44.91,212.59,541.1,259.64,798,284,363.87,34.5,1202,45.71,1304-276C2041.22,489.05,1904.92,253.74,1754.18,212.08Z" style="fill:url(#58fbf54c-e185-4e9b-ba65-2db27e457662)"/><path d="M231.68,492.08c126.61-35,183.39,88.74,398,82,166.17-5.22,199.83-81.53,340-58,139.77,23.46,143,105.48,266,130,194.11,38.69,278.51-147.1,466-138,219.83,10.66,446.06,286.45,396,414-44.64,113.76-289.4,59.2-1019.54,69.11C321,1001.46,65.88,1067.16-4.32,930.08-72.74,796.48,68.51,537.18,231.68,492.08Z" style="fill:url(#b4434fd8-d4b8-43e0-8e7e-0ab7503a722e)"/><path d="M-103.89,1148.91c152.33,65.31,280.13,87.1,370.17,94.67,112.3,9.44,178.15-2.76,454.35-6.24,230-2.9,258.09,4.49,262.38,19.4,12.73,44.2-182.64,156.07-358.9,206.6-133.39,38.24-408.72,85.16-795.93-81Q-137.86,1265.61-103.89,1148.91Zm98.87,761c49.31,42.81,267.89,232.51,572.34,227.72,453.57-7.13,686.72-439.47,942.79-326.29,120,53,158.91,187.76,203.57,169.09,51.11-21.36,49.9-218.85-38-364-91-150.32-272.27-255.65-460.75-266.72-333.31-19.59-395.7,247.47-763.75,281-379.44,34.56-634-221.6-698.25-139C-300.19,1560-157.9,1777.22-5,1909.91Z" style="fill:url(#e7980dbf-10fb-4648-b3c8-ba8f6133d7ac)"/><path d="M1112.26,792.37c-25.23-23.55-34.24-39.77-59.47-63.32-22.35,32.87-60.92,58.4-83.26,91.27L946,806.74l-21.9,18.76L870,782.28l-40.67,24.13-57.64-39.27-73.44,32.24-56.47-32.6-30.41,47-47.47-17.89-85.16,83.84L448.5,849.41l-75.69,19.47-28.12-20.55L97.06,1068.93H1597.52c-53.84-125.44-323.29-250.88-377.12-376.31Z" style="fill:#1f2042"/><path d="M1112.26,792.37c-25.23-23.55-34.24-39.77-59.47-63.32-22.35,32.87-60.92,58.4-83.26,91.27L946,806.74l-21.9,18.76L870,782.28l-40.67,24.13-57.64-39.27-73.44,32.24-56.47-32.6-30.41,47-47.47-17.89-85.16,83.84L448.5,849.41l-75.69,19.47-28.12-20.55L97.06,1068.93H1597.52c-53.84-125.44-323.29-250.88-377.12-376.31Z" style="opacity:0.7000000000000001;fill:url(#c51b5439-d8e2-4e63-9169-df71b5146bce)"/><path d="M304.67,1016.78c-9.05-45,16.08-113.2,56.36-128.45C404.28,872,442.61,925.17,493.41,906c45.17-17,64.13-77.62,72.75-73.4,6.62,3.24-7.22,37.73.65,41.94,10.42,5.58,35.15-54.59,81.27-60.29,26.11-3.24,32.93,14.22,60,8.65,33.83-7,49-39.52,59.25-34.21,10.1,5.21-6.58,35.7,6.56,49.8,15.83,17,51.29-14.64,112.06-10.48,44.51,3.05,50.32,21.74,80.79,16,43.91-8.33,41.78-49,80.33-62.68,64-22.67,122.09,70.83,195.4,50.66,26.77-7.37,44.86-26.94,55.73-41.8,28.44,26.11,61.38,52.21,94.93,78.32,10,69.4-66.53,144.16-150.44,200.44H332.86C318,1052.25,308.28,1034.73,304.67,1016.78Z" style="opacity:0.4;fill:url(#af5cac08-256a-41c6-8289-6e798ce9c2bf)"/><polygon points="664.22 880.67 808.43 866.13 889.76 897.12 1068.7 866.13 1056.41 832.31 1045.6 798.23 1039.7 815.27 1031.42 781.92 1024.3 832.31 1020.04 798.23 1013.41 849.41 1007.75 820 1000.87 856.37 991.7 790.81 981.54 851.79 976.3 831.78 967.78 861.62 959.91 820.75 952.05 861.29 948.45 839.52 941.89 866.13 938.29 835.79 933.21 860.63 928.27 852.44 922.13 866.13 919.13 821.82 913.37 866.13 907.62 842.49 901.14 876.03 894.71 828.16 888.89 866.13 883.57 847.39 876.68 873.41 870.13 821.82 864.23 861.94 858.01 842.49 851.12 866.13 847.19 825.36 840.72 860.63 834.29 842.49 829.17 859.98 823.6 847.39 816.91 858.97 808.85 818.14 801.32 850.8 796.07 828.16 789.04 847.39 781.98 802.96 773.14 847.39 765.6 827.67 761.22 847.39 755.11 803.29 747.58 835.79 738.89 820.75 730.75 834.86 725.29 801.65 717.1 834.44 709.38 804.47 664.22 880.67" style="fill:#1f2042"/><polygon points="664.22 880.67 808.43 866.13 889.76 897.12 1068.7 866.13 1056.41 832.31 1045.6 798.23 1039.7 815.27 1031.42 781.92 1024.3 832.31 1020.04 798.23 1013.41 849.41 1007.75 820 1000.87 856.37 991.7 790.81 981.54 851.79 976.3 831.78 967.78 861.62 959.91 820.75 952.05 861.29 948.45 839.52 941.89 866.13 938.29 835.79 933.21 860.63 928.27 852.44 922.13 866.13 919.13 821.82 913.37 866.13 907.62 842.49 901.14 876.03 894.71 828.16 888.89 866.13 883.57 847.39 876.68 873.41 870.13 821.82 864.23 861.94 858.01 842.49 851.12 866.13 847.19 825.36 840.72 860.63 834.29 842.49 829.17 859.98 823.6 847.39 816.91 858.97 808.85 818.14 801.32 850.8 796.07 828.16 789.04 847.39 781.98 802.96 773.14 847.39 765.6 827.67 761.22 847.39 755.11 803.29 747.58 835.79 738.89 820.75 730.75 834.86 725.29 801.65 717.1 834.44 709.38 804.47 664.22 880.67" style="fill:url(#d438138c-1127-45a3-8ef1-edf70eb4e8f7)"/><path d="M1254.31,738.23c-56.48,9.49-171.92,92.27-286.56,135.5-24.59,9.27-59.84,21.09-100.64,12.61-33.59-7-35.26-20.31-68.7-26.6-45.51-8.56-58.32,13.14-113.3,11.6-51.29-1.44-51.36-20.63-85.34-17.11-61.13,6.34-68,77.19-126,84.87-65.72,8.7-99.39-42.93-155.32-53.74C254.71,873,154.12,897,.11,1077.87H1707.33C1494.87,777.24,1350.83,722,1254.31,738.23Z" style="fill:#1f2042"/><path d="M1254.31,738.23c-56.48,9.49-171.92,92.27-286.56,135.5-24.59,9.27-59.84,21.09-100.64,12.61-33.59-7-35.26-20.31-68.7-26.6-45.51-8.56-58.32,13.14-113.3,11.6-51.29-1.44-51.36-20.63-85.34-17.11-61.13,6.34-68,77.19-126,84.87-65.72,8.7-99.39-42.93-155.32-53.74C254.71,873,154.12,897,.11,1077.87H1707.33C1494.87,777.24,1350.83,722,1254.31,738.23Z" style="opacity:0.67;fill:url(#d1216d24-6062-45b6-9d33-be8496196e95)"/><polygon points="1625.79 667.46 1566.08 649.04 1614.38 714.34 1625.79 667.46" style="fill:#00178a"/><polygon points="1625.79 667.46 1566.08 649.04 1614.38 714.34 1625.79 667.46" style="fill:#d9efff;opacity:0.9"/><g id="9c03ac86-97be-43ab-adf9-77aae0cfcfc7" data-name="mountain2"><path d="M1398.3,615.76l28.6,28,59.66-67,32.37,12,20,26.3h0l31.35,41.25h0l44.11,58,21.77-14.83h0s178.77,273.41,237.38,337.25h-95l-367.11-89.18q-78.93-82.1-157.85-164.21l-1.3-.62-23.92-11.55Z" style="fill:#00178a"/><path d="M1398.3,615.76l28.6,28,59.66-67,32.37,12,20,26.3h0l31.35,41.25h0l44.11,58,21.77-14.83h0s178.77,273.41,237.38,337.25h-95l-367.11-89.18q-78.93-82.1-157.85-164.21l-1.3-.62-23.92-11.55Z" style="opacity:0.9;fill:url(#73d7afb5-a64d-4681-93df-8d16fa02b666)"/><path d="M1426.9,643.8l351.66,393h95c-51.29-55.86-247.74-369.3-247.74-369.3l-11.41,46.88-44.11-58-31.35-41.25h0l-20-26.3-32.37-12Z" style="fill:#00178a"/><path d="M1426.9,643.8l351.66,393h95c-51.29-55.86-247.74-369.3-247.74-369.3l-11.41,46.88-44.11-58-31.35-41.25h0l-20-26.3-32.37-12Z" style="fill:url(#43ca0e9d-1649-4e9d-8c1c-5c37be9dff9d)"/><polygon points="1228.38 771.2 1252.3 782.75 1253.6 783.37 1494.48 899.64 1569.67 935.93 1569.67 935.93 1778.56 1036.76 1426.9 643.8 1398.3 615.76 1228.38 771.2" style="fill:#00178a"/><polygon points="1228.38 771.2 1252.3 782.75 1253.6 783.37 1494.48 899.64 1569.67 935.93 1569.67 935.93 1778.56 1036.76 1426.9 643.8 1398.3 615.76 1228.38 771.2" style="fill:url(#45a14ade-1e19-4af1-9791-0f99f35e9b9e)"/><polyline points="1518.93 588.76 1620.27 859.87 1426.9 643.8 1486.56 576.77" style="fill:#00178a"/><polyline points="1518.93 588.76 1620.27 859.87 1426.9 643.8 1486.56 576.77" style="fill:url(#00a3a79e-260a-4b5e-961b-db5b739dd74e)"/><polygon points="1426.9 643.8 1388.68 703.21 1426.9 801.93 1411.45 947.58 1263.12 787.96 1228.38 771.2 1398.3 615.76 1426.9 643.8" style="fill:#00178a"/><polygon points="1426.9 643.8 1388.68 703.21 1426.9 801.93 1411.45 947.58 1263.12 787.96 1228.38 771.2 1398.3 615.76 1426.9 643.8" style="fill:url(#de626590-798b-4134-b157-5193ae6096f0)"/></g><polygon points="908.08 1024.79 1503.29 1024.79 1389.63 834.9 1338.66 654.26 1298.55 617.39 1205.68 646.25 1195.46 638.12 1127.15 714.71 1078.86 803.57 971.08 917.11 908.08 1024.79" style="fill:#00178a"/><polygon points="908.08 1024.79 1503.29 1024.79 1389.63 834.9 1338.66 654.26 1298.55 617.39 1205.68 646.25 1195.46 638.12 1127.15 714.71 1078.86 803.57 971.08 917.11 908.08 1024.79" style="fill:url(#3212b96a-994b-49a3-aff0-3964f4ccf517)"/><polygon points="908.08 1024.79 1503.29 1024.79 1389.63 834.9 1338.66 654.26 1298.55 617.39 1205.68 646.25 1195.46 638.12 1127.15 714.71 1078.86 803.57 971.08 917.11 908.08 1024.79" style="fill:url(#a49b5cd6-517c-4b31-b06f-9b57bfb818ea)"/><polyline points="1338.66 652.62 1298.55 615.76 1275.26 622.99 1195.46 636.48 1127.15 713.07 1078.86 801.93 971.08 915.47 908.08 1023.15 1167.37 1023.15 1289.48 969.71" style="fill:#00178a"/><polyline points="1338.66 652.62 1298.55 615.76 1275.26 622.99 1195.46 636.48 1127.15 713.07 1078.86 801.93 971.08 915.47 908.08 1023.15 1167.37 1023.15 1289.48 969.71" style="fill:url(#a97a3fdd-1037-4814-b4cb-31baeafb0e50)"/><path d="M1793.61,1075.84c-128.27,120.6-241.47,156.35-319,167.5-220.21,31.66-315.86-111.77-599-79.5-87.82,10-98,26-246,44.63-112.71,14.18-210.22,25.87-331.61,12.64-73.13-8-180.75-27.79-305.44-82.27" style="fill:url(#7e05c57e-85b8-4b82-aac6-7839bcd8512c)"/><path d="M1827.31,1043.84h-63.06c6.61,7.26,13,14.85,19,22.32C1798.65,1058.75,1813.34,1051.27,1827.31,1043.84Z" style="fill:#fff;stroke:#000;stroke-miterlimit:10"/><path d="M748.87,1667.43c9.6-25.38,69-11.59,210.28-16.77,134.57-4.93,190.42-21.48,207.56,8.08,16.59,28.63-17.12,76.32-23.53,85.39-35,49.47-90.3,61.66-112.16,66.48-110.21,24.3-198.65-43.78-216.24-57.32C796.08,1738.9,738.58,1694.64,748.87,1667.43Z" style="fill:url(#153d88ba-081f-4005-94ed-cb60562f6606)"/><path d="M748.87,1667.43c9.6-25.38,69-11.59,210.28-16.77,134.57-4.93,190.42-21.48,207.56,8.08,16.59,28.63-17.12,76.32-23.53,85.39-35,49.47-90.3,61.66-112.16,66.48-110.21,24.3-198.65-43.78-216.24-57.32C796.08,1738.9,738.58,1694.64,748.87,1667.43Z" style="fill:url(#176ace39-84c2-4851-847c-44df4953befa)"/><path d="M748.87,1667.43c-4.39-31.29,88.93-91.57,195.46-97.93,93.88-5.6,212.93,29.8,222.38,89.24,4.89,30.77-20.88,59.19-27,65.69-30.47,32.32-71.07,36-127,39.66-53.63,3.48-134.74,7.63-211.12-41.54C772.58,1703.9,751.84,1688.63,748.87,1667.43Z" style="fill:#00178a"/><path d="M748.87,1667.43c-4.39-31.29,88.93-91.57,195.46-97.93,93.88-5.6,212.93,29.8,222.38,89.24,4.89,30.77-20.88,59.19-27,65.69-30.47,32.32-71.07,36-127,39.66-53.63,3.48-134.74,7.63-211.12-41.54C772.58,1703.9,751.84,1688.63,748.87,1667.43Z" style="fill:url(#0f0c05a3-1f05-4c24-97e2-b0e424db0d27)"/><path d="M748.87,1667.43c-4.39-31.29,88.93-91.57,195.46-97.93,93.88-5.6,212.93,29.8,222.38,89.24,4.89,30.77-20.88,59.19-27,65.69-30.47,32.32-71.07,36-127,39.66-53.63,3.48-134.74,7.63-211.12-41.54C772.58,1703.9,751.84,1688.63,748.87,1667.43Z" style="fill:url(#e0092b0d-0bf8-4052-9674-0b8ff9b7d191)"/><path d="M1033.55,1252.81c2.88-7.61,20.71-3.47,63.08-5,40.37-1.48,57.13-6.44,62.27,2.43,5,8.58-5.14,22.89-7.06,25.61-10.49,14.84-27.09,18.5-33.65,20-33.06,7.28-59.59-13.14-64.87-17.2C1047.71,1274.25,1030.46,1261,1033.55,1252.81Z" style="fill:url(#be3e610a-3229-4c43-9ac4-03e822644aef)"/><path d="M1033.55,1252.81c2.88-7.61,20.71-3.47,63.08-5,40.37-1.48,57.13-6.44,62.27,2.43,5,8.58-5.14,22.89-7.06,25.61-10.49,14.84-27.09,18.5-33.65,20-33.06,7.28-59.59-13.14-64.87-17.2C1047.71,1274.25,1030.46,1261,1033.55,1252.81Z" style="fill:url(#d985f159-78b2-45cc-9ad5-b631efa36980)"/><path d="M1033.55,1252.81c-1.32-9.39,26.68-27.47,58.64-29.38,28.16-1.68,63.87,8.94,66.71,26.78,1.47,9.22-6.26,17.75-8.1,19.7-9.55,10.13-22.57,10.94-38.11,11.9-15.93,1-27.51-1.85-50.68-7.51a47.79,47.79,0,0,1-12.66-5C1044,1266.29,1034.24,1257.79,1033.55,1252.81Z" style="fill:#00178a"/><path d="M1033.55,1252.81c-1.32-9.39,26.68-27.47,58.64-29.38,28.16-1.68,63.87,8.94,66.71,26.78,1.47,9.22-6.26,17.75-8.1,19.7-9.55,10.13-22.57,10.94-38.11,11.9-15.93,1-27.51-1.85-50.68-7.51a47.79,47.79,0,0,1-12.66-5C1044,1266.29,1034.24,1257.79,1033.55,1252.81Z" style="fill:url(#666b1c79-7f37-46d4-9d06-04d834722817)"/><path d="M1033.55,1252.81c-1.32-9.39,26.68-27.47,58.64-29.38,28.16-1.68,63.87,8.94,66.71,26.78,1.47,9.22-6.26,17.75-8.1,19.7-9.55,10.13-22.57,10.94-38.11,11.9-15.93,1-27.51-1.85-50.68-7.51a47.79,47.79,0,0,1-12.66-5C1044,1266.29,1034.24,1257.79,1033.55,1252.81Z" style="fill:url(#3257285a-4e58-4c86-81fd-7232ee8f667b)"/><path d="M1033.55,1252.81c-1.32-9.39,26.68-27.47,58.64-29.38,28.16-1.68,63.87,8.94,66.71,26.78,1.47,9.22-6.26,17.75-8.1,19.7-9.55,10.13-22.57,10.94-38.11,11.9-15.93,1-27.51-1.85-50.68-7.51a47.79,47.79,0,0,1-12.66-5C1044,1266.29,1034.24,1257.79,1033.55,1252.81Z" style="fill:#00178a"/><path d="M1033.55,1252.81c-1.32-9.39,26.68-27.47,58.64-29.38,28.16-1.68,63.87,8.94,66.71,26.78,1.47,9.22-6.26,17.75-8.1,19.7-9.55,10.13-22.57,10.94-38.11,11.9-15.93,1-27.51-1.85-50.68-7.51a47.79,47.79,0,0,1-12.66-5C1044,1266.29,1034.24,1257.79,1033.55,1252.81Z" style="fill:url(#2d6a3d7e-170d-452b-a628-1c61d3760bae)"/><path d="M1033.55,1252.81c-1.32-9.39,26.68-27.47,58.64-29.38,28.16-1.68,63.87,8.94,66.71,26.78,1.47,9.22-6.26,17.75-8.1,19.7-9.55,10.13-22.57,10.94-38.11,11.9-15.93,1-27.51-1.85-50.68-7.51a47.79,47.79,0,0,1-12.66-5C1044,1266.29,1034.24,1257.79,1033.55,1252.81Z" style="fill:url(#cd992047-b858-4fb6-ae0e-99af2b736cf3)"/><path d="M-144.28,1331.71a180.62,180.62,0,0,0,46.39,32.63c5.37,2.68,108,52.39,198.68,18.87a161.37,161.37,0,0,0,20.15-9.07s4.39-2.35,8.41-4.83c12.88-7.94,52.86-48.76,49.76-64-3.89-19.15-82.27-28.23-346.87-3.68C-168.13,1308.38-160.18,1316.16-144.28,1331.71Z" style="fill:url(#afc16046-0eb8-4305-acd2-cc801bdce978)"/><path d="M-144.28,1331.71a180.62,180.62,0,0,0,46.39,32.63c5.37,2.68,108,52.39,198.68,18.87a161.37,161.37,0,0,0,20.15-9.07s4.39-2.35,8.41-4.83c12.88-7.94,52.86-48.76,49.76-64-3.89-19.15-82.27-28.23-346.87-3.68C-168.13,1308.38-160.18,1316.16-144.28,1331.71Z" style="fill:url(#14b6e450-70f9-4f6f-bbc3-45262b2bfddd)"/><path d="M50.11,1355.34c-99.55,13.82-218.59-8.29-222.24-41.36-.07-.71-.08-1.24-.08-1.55.29-29.39,97.28-56.5,170.34-59.09,84.52-3,180.91,25.26,180.87,51.79C179,1330.1,93.55,1349.31,50.11,1355.34Z" style="fill:#00178a"/><path d="M50.11,1355.34c-99.55,13.82-218.59-8.29-222.24-41.36-.07-.71-.08-1.24-.08-1.55.29-29.39,97.28-56.5,170.34-59.09,84.52-3,180.91,25.26,180.87,51.79C179,1330.1,93.55,1349.31,50.11,1355.34Z" style="fill:url(#fe306f74-6b4f-4b96-8c8e-340fd4e4dbcd)"/><path d="M50.11,1355.34c-99.55,13.82-218.59-8.29-222.24-41.36-.07-.71-.08-1.24-.08-1.55.29-29.39,97.28-56.5,170.34-59.09,84.52-3,180.91,25.26,180.87,51.79C179,1330.1,93.55,1349.31,50.11,1355.34Z" style="fill:url(#16ba0ae9-2242-4f0a-800e-e2deb413a50f)"/><path d="M537.94,1217.42c-1.79,7.39,9.14,15.66,14.1,18.6,13.12,7.77,32.56,6.7,42.6-5.4.58-.69,9.9-12.17,5.7-19.8C592.51,1196.56,541.45,1203,537.94,1217.42Z" style="fill:url(#93e11f46-5f20-47f3-a623-16566abad258)"/><path d="M537.94,1217.42c-1.79,7.39,9.14,15.66,14.1,18.6,13.12,7.77,32.56,6.7,42.6-5.4.58-.69,9.9-12.17,5.7-19.8C592.51,1196.56,541.45,1203,537.94,1217.42Z" style="fill:url(#cb3f22d3-fca7-47a4-88d1-32403a7dec46)"/><path d="M538,1217.53c-1.18-4.78,12.64-16.12,29.34-18.11,13.36-1.59,30.93,2.52,33,11.35,1,4.4-2,8.57-3.17,10.16-9.76,13.34-34.78,12-50.55,4.15C542.37,1223,538.82,1220.84,538,1217.53Z" style="fill:#00178a"/><path d="M538,1217.53c-1.18-4.78,12.64-16.12,29.34-18.11,13.36-1.59,30.93,2.52,33,11.35,1,4.4-2,8.57-3.17,10.16-9.76,13.34-34.78,12-50.55,4.15C542.37,1223,538.82,1220.84,538,1217.53Z" style="fill:url(#33fa733a-eab6-49f1-b0f2-8c620ba94e2f)"/><path d="M538,1217.53c-1.18-4.78,12.64-16.12,29.34-18.11,13.36-1.59,30.93,2.52,33,11.35,1,4.4-2,8.57-3.17,10.16-9.76,13.34-34.78,12-50.55,4.15C542.37,1223,538.82,1220.84,538,1217.53Z" style="fill:url(#a4ae7683-f024-491f-b5db-be4d4cfb91ec)"/><path d="M109.82,1768c-5.2,11.89,3.17,25.74,4.37,27.76,13.26,22.26,49.26,22.07,60,26.3,17.2,6.8,93.46,19.7,122.09,7.31,3.33-1.44,11.77-5.1,16.3-13.66a29.74,29.74,0,0,0,3-13.45c-.82-22.2-79.06-59.39-159.43-52.94C123.62,1752,113.39,1759.87,109.82,1768Z" style="fill:url(#6931bcf3-22d8-4d15-90f4-9bd8b2fe39b4)"/><path d="M109.82,1768c-5.2,11.89,3.17,25.74,4.37,27.76,13.26,22.26,49.26,22.07,60,26.3,17.2,6.8,93.46,19.7,122.09,7.31,3.33-1.44,11.77-5.1,16.3-13.66a29.74,29.74,0,0,0,3-13.45c-.82-22.2-79.06-59.39-159.43-52.94C123.62,1752,113.39,1759.87,109.82,1768Z" style="fill:url(#cbb6cd05-66c9-4e24-be4b-ddabff9b99b9)"/><path d="M108.78,1770.55c-5.13-24.72,57-76.74,117.33-67.21,66.46,10.49,92.36,89.5,91.06,101.59a18.37,18.37,0,0,1-4.62,10.8c-4.29,4.15-10.07,4.09-11,4.18-11.68,1.19-142.57-23.52-159.65-28.2C111.77,1783.45,109.75,1775.21,108.78,1770.55Z" style="fill:url(#84f195f1-3a08-43c9-bb8e-46b6990f4517)"/><path d="M108.78,1770.55c-4.22-20.31,40.64-64,94-68a95,95,0,0,1,23.29.81c65.45,10.56,92.71,86.2,91.06,101.59a18.37,18.37,0,0,1-4.62,10.8c-4.29,4.15-10.07,4.09-11,4.18-11.68,1.19-142.57-23.52-159.65-28.2C111.77,1783.45,109.75,1775.21,108.78,1770.55Z" style="fill:#00178a"/><path d="M108.78,1770.55c-4.22-20.31,40.64-64,94-68a95,95,0,0,1,23.29.81c65.45,10.56,92.71,86.2,91.06,101.59a18.37,18.37,0,0,1-4.62,10.8c-4.29,4.15-10.07,4.09-11,4.18-11.68,1.19-142.57-23.52-159.65-28.2C111.77,1783.45,109.75,1775.21,108.78,1770.55Z" style="fill:url(#5bd4c06f-6834-4955-8de0-120788b68912)"/><path d="M108.78,1770.55c-4.22-20.31,40.64-64,94-68a95,95,0,0,1,23.29.81c65.45,10.56,92.71,86.2,91.06,101.59a18.37,18.37,0,0,1-4.62,10.8c-4.29,4.15-10.07,4.09-11,4.18-11.68,1.19-142.57-23.52-159.65-28.2C111.77,1783.45,109.75,1775.21,108.78,1770.55Z" style="fill:url(#0fee9ee2-7882-4ce0-bcda-e6d55bdfe835)"/><path d="M-16.93,1130.21c114.65-3.54,194,5.29,246.54,14.63,30.24,5.37,44.43,9.62,74,11,69.12,3.22,122.25,5.43,150,4,136.39-7,316.64-34.34,423-41.38,186.69-12.34,220.38,32.39,400.51,41.38,135.38,6.75,331.62-8.45,577.77-116-18.85-9.19-47.07-22.66-81.74-38.1-109.91-49-166.2-73.54-231.83-77.77-43.17-2.79-73.73,4.8-118.87,12.66-174.59,30.39-191.72,62.06-281.42,56.73-41.69-2.48-98.89-5.88-158.12-37.84C956.76,945.38,928.68,927.6,879.28,910c-17.72-6.32-38.91-11.28-66.25-13.51a384,384,0,0,0-104.28,6.25c-63.44,12.57-70.08,30.75-113.1,40.39-105.39,23.64-154.76-65.43-222.32-32.41-44.62,21.8-41.89,69.83-103.56,92.4-27.75,10.15-50.57,5.84-63.21,8.4-29.46,6-60.67,18.5-90.19,33.31C52,1077.15-4.37,1120.34-16.93,1130.21Z" style="fill:#00178a"/><path d="M-16.93,1130.21c114.65-3.54,194,5.29,246.54,14.63,30.24,5.37,44.43,9.62,74,11,69.12,3.22,122.25,5.43,150,4,136.39-7,316.64-34.34,423-41.38,186.69-12.34,220.38,32.39,400.51,41.38,135.38,6.75,331.62-8.45,577.77-116-18.85-9.19-47.07-22.66-81.74-38.1-109.91-49-166.2-73.54-231.83-77.77-43.17-2.79-73.73,4.8-118.87,12.66-174.59,30.39-191.72,62.06-281.42,56.73-41.69-2.48-98.89-5.88-158.12-37.84C956.76,945.38,928.68,927.6,879.28,910c-17.72-6.32-38.91-11.28-66.25-13.51a384,384,0,0,0-104.28,6.25c-63.44,12.57-70.08,30.75-113.1,40.39-105.39,23.64-154.76-65.43-222.32-32.41-44.62,21.8-41.89,69.83-103.56,92.4-27.75,10.15-50.57,5.84-63.21,8.4-29.46,6-60.67,18.5-90.19,33.31C52,1077.15-4.37,1120.34-16.93,1130.21Z" style="fill:url(#006a03ee-c6f0-4a54-b2c6-1e102a2226dc)"/><path d="M1326.1,1160.27c-17.18.22-33.51,0-48.95-.43-191.67-5.76-209.93-54-400.51-41.38-97.26,6.44-256.22,29.82-387,39.14-145.31-63.07-171.83-90.22-168.35-103.3,5.05-19,74.57-13.89,140.79-11.33,58.74,2.27,114.87,2.57,121.14-17.6,8.47-27.25-78.17-78.62-153.77-118.24,44.86,12.85,91.43,52.78,166.17,36,43-9.64,49.66-27.82,113.1-40.39A384,384,0,0,1,813,896.5c27.34,2.23,48.53,7.19,66.25,13.51,71.64,46.49,85.13,70,80.84,82.8-6.15,18.4-49.14,15.33-52,30.34-2.92,15.16,37.45,36.17,80,54.19C1062.68,1105.62,1174.56,1140.27,1326.1,1160.27Z" style="fill:url(#68f41d9b-f37f-4a7c-9c8f-377b1df694b7)"/><path d="M429.47,907.13h0Z" style="fill:url(#eaeec07c-009b-4dd5-a6a1-44c1fb05add2)"/><path d="M346.86,1078.34c1.12,7.84,10.31,12.65,17.33,16.33,15.32,8,22.87,4.33,36.51,12.24,8.5,4.92,9.44,8.6,15.18,12.93,24.82,18.71,79.17,4.23,82.64-14.5,2-10.63-12.65-21.38-25.24-30.63-30.72-22.56-81-39.24-111.09-18.7C360.08,1057.44,345.31,1067.51,346.86,1078.34Z" style="opacity:0.7000000000000001;fill:url(#63ac4b7b-2b89-444c-aa24-bb6f47cbba43)"/><path d="M493.61,1035.84c-.31-2.86-1.52-4.94-6.56-11.08a5.42,5.42,0,0,1-1.29.56c-1.77.51-4.11,0-4.38-1s1.31-2.37,2.89-2.88c-3.08-3.71-4.74-5.67-5.66-6.58a89.89,89.89,0,0,0-6.72-6.22,10.44,10.44,0,0,0,3.72-5.78c.84-3.88-.67-9.17-4-10-2.75-.68-5.66,1.93-7,4a9.58,9.58,0,0,0-1.34,6.46,25.05,25.05,0,0,0-4.66-1.46,27.21,27.21,0,0,0-12.32.38,7.88,7.88,0,0,0-.91-.8c-2-1.49-5.6-2.94-7.95-1.36-1.9,1.28-2.36,4.15-1.81,6.91a40.41,40.41,0,0,0-9,7.87,35.64,35.64,0,0,0-4.13,6.09,40.08,40.08,0,0,0-15.87-5.09c-18.91-1.8-36.29,10.9-45,25-13,21.12-5.61,43.7-4.48,47a9.94,9.94,0,0,0,3.48,6c3.84,3,8.92,1.75,11.69.08.56-.34,3.64-2.19,3.31-4.08-.27-1.59-2.9-2.89-5-3h0a22.55,22.55,0,0,1,5-12,22.26,22.26,0,0,1,12.05-7.25,45.75,45.75,0,0,1,13.95,16.25c7.44,14.91,3.34,29.3,12.6,36.92a21.11,21.11,0,0,0,8.4,4.08,18.65,18.65,0,0,0,9.8-.83c2-1.22,3.35-3.23,3.2-5.17-.21-2.88-3.67-5.68-8-5-4.6-10.26-3-22,4-30a25.32,25.32,0,0,1,9-6.53c3.39,10.59,8.55,20.73,17.08,28.54a20.25,20.25,0,0,0,10.8,4.54,22.48,22.48,0,0,0,11.06-1.45c1-.63,3.26-2.33,3.29-4.52.05-3-4.19-6.56-10.87-6.77-6.72-18.27-11.57-24.41-11.44-40.64a22.85,22.85,0,0,1,5.06-4.17,23.35,23.35,0,0,1,8-3c.62.44,5.51,3.8,11,2,5.31-1.74,7.27-7,8-9A15.22,15.22,0,0,0,493.61,1035.84Zm-26.85-5.52c-1.77.51-4.11,0-4.38-1s1.44-2.48,3.08-2.94,4.11,0,4.38,1S468.4,1029.86,466.76,1030.32Zm17.85,18.52c-4.51,0-8.86-7-7-11,2.07-4.43,11.68-4.75,14-1S489.56,1048.87,484.61,1048.84Zm-41,36.51" style="fill:url(#55a9fcde-1491-427a-b73b-130a58023ee4)"/><path d="M493.61,1035.84c-.31-2.86-1.52-4.94-6.56-11.08a5.42,5.42,0,0,1-1.29.56c-1.77.51-4.11,0-4.38-1s1.31-2.37,2.89-2.88c-3.08-3.71-4.74-5.67-5.66-6.58a89.89,89.89,0,0,0-6.72-6.22,10.44,10.44,0,0,0,3.72-5.78c.84-3.88-.67-9.17-4-10-2.75-.68-5.66,1.93-7,4a9.58,9.58,0,0,0-1.34,6.46,25.05,25.05,0,0,0-4.66-1.46,27.21,27.21,0,0,0-12.32.38,7.88,7.88,0,0,0-.91-.8c-2-1.49-5.6-2.94-7.95-1.36-1.9,1.28-2.36,4.15-1.81,6.91a40.41,40.41,0,0,0-9,7.87,35.64,35.64,0,0,0-4.13,6.09,40.08,40.08,0,0,0-15.87-5.09c-18.91-1.8-36.29,10.9-45,25-13,21.12-5.61,43.7-4.48,47a9.94,9.94,0,0,0,3.48,6c3.84,3,8.92,1.75,11.69.08.56-.34,3.64-2.19,3.31-4.08-.27-1.59-2.9-2.89-5-3h0a22.55,22.55,0,0,1,5-12,22.26,22.26,0,0,1,12.05-7.25,45.75,45.75,0,0,1,13.95,16.25c7.44,14.91,3.34,29.3,12.6,36.92a21.11,21.11,0,0,0,8.4,4.08,18.65,18.65,0,0,0,9.8-.83c2-1.22,3.35-3.23,3.2-5.17-.21-2.88-3.67-5.68-8-5-4.6-10.26-3-22,4-30a25.32,25.32,0,0,1,9-6.53c3.39,10.59,8.55,20.73,17.08,28.54a20.25,20.25,0,0,0,10.8,4.54,22.48,22.48,0,0,0,11.06-1.45c1-.63,3.26-2.33,3.29-4.52.05-3-4.19-6.56-10.87-6.77-6.72-18.27-11.57-24.41-11.44-40.64a22.85,22.85,0,0,1,5.06-4.17,23.35,23.35,0,0,1,8-3c.62.44,5.51,3.8,11,2,5.31-1.74,7.27-7,8-9A15.22,15.22,0,0,0,493.61,1035.84Zm-26.85-5.52c-1.77.51-4.11,0-4.38-1s1.44-2.48,3.08-2.94,4.11,0,4.38,1S468.4,1029.86,466.76,1030.32Zm17.85,18.52c-4.51,0-8.86-7-7-11,2.07-4.43,11.68-4.75,14-1S489.56,1048.87,484.61,1048.84Zm-41,36.51" style="fill:url(#1963d859-604b-4bff-b426-e99f83ebdef0)"/><path d="M493.61,1035.84c-.31-2.86-1.52-4.94-6.56-11.08a5.42,5.42,0,0,1-1.29.56c-1.77.51-4.11,0-4.38-1s1.31-2.37,2.89-2.88c-3.08-3.71-4.74-5.67-5.66-6.58a89.89,89.89,0,0,0-6.72-6.22,10.44,10.44,0,0,0,3.72-5.78c.84-3.88-.67-9.17-4-10-2.75-.68-5.66,1.93-7,4a9.58,9.58,0,0,0-1.34,6.46,25.05,25.05,0,0,0-4.66-1.46,27.21,27.21,0,0,0-12.32.38,7.88,7.88,0,0,0-.91-.8c-2-1.49-5.6-2.94-7.95-1.36-1.9,1.28-2.36,4.15-1.81,6.91a40.41,40.41,0,0,0-9,7.87,35.64,35.64,0,0,0-4.13,6.09,40.08,40.08,0,0,0-15.87-5.09c-18.91-1.8-36.29,10.9-45,25-13,21.12-5.61,43.7-4.48,47a9.94,9.94,0,0,0,3.48,6c3.84,3,8.92,1.75,11.69.08.56-.34,3.64-2.19,3.31-4.08-.27-1.59-2.9-2.89-5-3h0a22.55,22.55,0,0,1,5-12,22.26,22.26,0,0,1,12.05-7.25,45.75,45.75,0,0,1,13.95,16.25c7.44,14.91,3.34,29.3,12.6,36.92a21.11,21.11,0,0,0,8.4,4.08,18.65,18.65,0,0,0,9.8-.83c2-1.22,3.35-3.23,3.2-5.17-.21-2.88-3.67-5.68-8-5-4.6-10.26-3-22,4-30a25.32,25.32,0,0,1,9-6.53c3.39,10.59,8.55,20.73,17.08,28.54a20.25,20.25,0,0,0,10.8,4.54,22.48,22.48,0,0,0,11.06-1.45c1-.63,3.26-2.33,3.29-4.52.05-3-4.19-6.56-10.87-6.77-6.72-18.27-11.57-24.41-11.44-40.64a22.85,22.85,0,0,1,5.06-4.17,23.35,23.35,0,0,1,8-3c.62.44,5.51,3.8,11,2,5.31-1.74,7.27-7,8-9A15.22,15.22,0,0,0,493.61,1035.84Zm-26.85-5.52c-1.77.51-4.11,0-4.38-1s1.44-2.48,3.08-2.94,4.11,0,4.38,1S468.4,1029.86,466.76,1030.32Zm17.85,18.52c-4.51,0-8.86-7-7-11,2.07-4.43,11.68-4.75,14-1S489.56,1048.87,484.61,1048.84Zm-41,36.51" style="fill:url(#454b687c-577b-47aa-86d9-175ba087333b)"/><path d="M460.61,1060.38a16.48,16.48,0,0,0-2,1.63,17.93,17.93,0,0,0-4.5,6.83,24.8,24.8,0,0,1,6.44-11.83C460.54,1058.18,460.56,1059.31,460.61,1060.38Z" style="fill:url(#64f63ec8-07bf-4157-adcb-8f4a2a9c807d)"/><path d="M422.48,1020.93a19.71,19.71,0,0,0-5.12,7.74c-.12-.63-1.28-6.86.92-9.82A41.11,41.11,0,0,1,422.48,1020.93Z" style="fill:url(#ff6f8961-e46c-474d-95f4-64e76ec6f157)"/><path d="M473.61,1049.84a22.69,22.69,0,0,0-3.25.82,41.43,41.43,0,0,1-4.7-3.07,40.65,40.65,0,0,1-7-6.75c3,2,6.13,4,9.53,6C470.05,1047.89,471.85,1048.89,473.61,1049.84Z" style="fill:url(#30cbb2a3-337b-4518-8b6e-6bcd15b84e68)"/><path d="M443.62,1085.35c-1.13-2.63-2.12-5.32-3-8a16.93,16.93,0,0,1,11.8-.85,13.78,13.78,0,0,0-7.6,5.94A12.52,12.52,0,0,0,443.62,1085.35Z" style="fill:url(#b1190aaf-4b8c-48e9-9aaa-701ef23afeb4)"/><path d="M466.76,1030.32c-1.77.51-4.11,0-4.38-1s1.44-2.48,3.08-2.94,4.11,0,4.38,1S468.4,1029.86,466.76,1030.32Z" style="stroke:#000;stroke-miterlimit:10"/><path d="M487.05,1024.76a5.42,5.42,0,0,1-1.29.56c-1.77.51-4.11,0-4.38-1s1.31-2.37,2.89-2.88l.19-.06c1.77-.51,4.11,0,4.38,1C489,1023.13,488.17,1024.11,487.05,1024.76Z" style="stroke:#000;stroke-miterlimit:10"/><path d="M484.61,1048.84c-4.51,0-8.86-7-7-11,2.07-4.43,11.68-4.75,14-1S489.56,1048.87,484.61,1048.84Z" style="stroke:#000;stroke-miterlimit:10"/><path d="M756-21C702.86-36.86,639.66-71.22,612-45c-15.23,14.43-5.17,33.41-18.16,57.67C563.73,68.89,461.83,67,443.08,66.77,349,65.56,292.47,21.3,286.11,31.34,278.54,43.3,356.38,110,447.79,172c135.6,92,203.4,138,281,125.29,74.26-12.17,68.66-60.5,177.81-105.68,25.51-10.56,124.07-50,241.57-32.57,102.61,15.24,128.74,60.36,222.27,53.94,11.94-.82,115.06-8.66,123.24-46.87,13-60.69-208.08-223.64-434.09-212C934.51-39.51,874.72,14.53,756-21Z" style="fill:url(#69f2ca9a-f8fe-42d8-b9f4-92a5466423bb)"/><path d="M1030.11,307.34c111.42-23.73,156.14,30.19,292,52,208.47,33.47,261.46-68,401.78-14.91,145.92,55.26,221.72,214.75,201.83,239.92C1898.3,619,1641.17,349.76,1444.77,430.09c-70.25,28.74-93.15,85.74-166.66,83.25-75.92-2.57-91.6-64.75-192.6-98.51-115.18-38.51-209,13-216.3-7.93C862.44,387.45,936.89,327.19,1030.11,307.34Z" style="fill:url(#7e91a2c3-1dd5-451e-8914-37705a2679a8)"/></g></svg>