<svg id="6751546d-b510-4e78-b229-b26a7bccfd81" data-name="Layer 1" 
    xmlns="http://www.w3.org/2000/svg" viewBox="0 0 1860.14 943.19">
    <title>blob-advisors</title>
    <path d="M1216.21,294.69c-122.56-33.41-182.46,82.56-300,44-117.76-38.63-94.43-167.14-210-214-144.56-58.63-268.43,107.05-396,40C220.08,117.31,227.53,6,160.21.69,99.44-4.09,32,81.81,8.21,164.69c-38.58,134.77,79.92,181.38,84,360,3.72,162.5-88.35,232.77-40,322,32.82,60.55,105.93,84.89,162,96l1440-6c32.93-7.26,104.92-28.21,154-92,99.87-129.78,40.37-352.93-60-394-86.6-35.44-148.66,87.19-270,62C1348,485.65,1351.51,331.58,1216.21,294.69Z" style="stroke-miterlimit:10;fill: #dcf3ff"/>
</svg>