<svg id="33df0c13-b0bb-475b-8278-9521607fdef7" data-name="Layer 1" 
    xmlns="http://www.w3.org/2000/svg" 
    xmlns:xlink="http://www.w3.org/1999/xlink" viewBox="0 0 484.37 448.94">
    <defs>
        <clipPath id="bf22d659-c18c-4619-babc-95e0d54a31e1">
            <path d="M-493.9,118.25C-391.4,65.43-251.08,134.47-198,234c29.74,55.73,45.77,148,1.63,192.22-39.38,39.5-113,21.61-260.12-14.16C-568.13,384.94-583.31,364.91-589,355.8-629.44,291.73-583,164.15-493.9,118.25Z" style="fill:none"/>
        </clipPath>
        <radialGradient id="15ee2ad4-7789-42f6-8c64-7bfb655e4639" cx="-375.53" cy="279.3" r="219.89" gradientUnits="userSpaceOnUse">
            <stop offset="0.01" stop-color="#bebec8" stop-opacity="0.2"/>
            <stop offset="1" stop-color="#b5b6c1" stop-opacity="0.1"/>
        </radialGradient>
        <linearGradient id="664ca9e2-e5f3-445f-a5f3-2d3c4676745e" x1="-604.92" y1="401.58" x2="-194.16" y2="401.58" gradientUnits="userSpaceOnUse">
            <stop offset="0" stop-color="#0f6" stop-opacity="0.4"/>
            <stop offset="0.48" stop-color="#0f6" stop-opacity="0.3"/>
            <stop offset="1" stop-color="#0f6" stop-opacity="0.4"/>
        </linearGradient>
        <radialGradient id="4c55b40d-e523-4f47-9f34-d3a7f391cb8b" cx="-379.4" cy="303.5" r="361.25" gradientUnits="userSpaceOnUse">
            <stop offset="0" stop-color="#ff9d00" stop-opacity="0.5"/>
            <stop offset="1" stop-color="#ff9d00" stop-opacity="0.3"/>
        </radialGradient>
        <radialGradient id="f3e1fcbe-c959-4429-a7da-1e3df9ff9416" cx="-374.56" cy="300.59" r="216.81" gradientUnits="userSpaceOnUse">
            <stop offset="0" stop-color="#0f6" stop-opacity="0.5"/>
            <stop offset="1" stop-color="#0f6" stop-opacity="0.2"/>
        </radialGradient>
        <radialGradient id="05219dd7-ae97-4a9a-bd9e-c868a2697cc9" cx="210.47" cy="219.01" r="169.91" gradientTransform="matrix(-0.01, 1, -1.86, -0.01, 618.56, 11.37)" gradientUnits="userSpaceOnUse">
            <stop offset="0" stop-color="#ff9d00" stop-opacity="0.8"/>
            <stop offset="1" stop-color="#ff00a6" stop-opacity="0.98"/>
        </radialGradient>
        <clipPath id="c6a6a461-5b6f-48e4-98a6-0ed627195f10">
            <path d="M121.85,123.75C237.08,59.81,411.25,157.76,419,240,429.37,349.43,151.44,496.57,61.29,427.16,14.38,391,24.35,300.91,26.3,283.31,27.43,273.09,40.51,168.89,121.85,123.75Z" style="fill:none"/>
        </clipPath>
        <radialGradient id="2486a36a-7dc3-4f97-bd53-6e9282093448" cx="2612.38" cy="264.4" r="184.01" gradientTransform="matrix(-1, 0, 0, 1, 2812.14, 0)" xlink:href="#15ee2ad4-7789-42f6-8c64-7bfb655e4639"/>
        <radialGradient id="3459ace7-1e44-4211-9998-eee8a76ecc8d" cx="227.4" cy="293.66" r="62.91" gradientUnits="userSpaceOnUse">
            <stop offset="0" stop-color="#00d9ff" stop-opacity="0.2"/>
            <stop offset="1" stop-color="#00d9ff" stop-opacity="0"/>
        </radialGradient>
        <linearGradient id="961fcb54-b021-41f3-ade2-358b1f53ed5f" x1="281.18" y1="285.2" x2="418.68" y2="285.2" gradientUnits="userSpaceOnUse">
            <stop offset="0" stop-color="#0f6"/>
            <stop offset="0.85" stop-color="#0f6" stop-opacity="0.8"/>
        </linearGradient>
        <radialGradient id="2c6daf37-cf7e-415b-9346-01e940fcfd76" cx="189.16" cy="277.05" r="231.56" xlink:href="#f3e1fcbe-c959-4429-a7da-1e3df9ff9416"/>
        <linearGradient id="9cdc710f-0e20-4b5f-a3ed-e478c9756cfd" x1="1673.38" y1="232.59" x2="1544.29" y2="232.59" gradientTransform="matrix(-1, 0, 0, 1, 1631.99, 0)" gradientUnits="userSpaceOnUse">
            <stop offset="0" stop-color="#fff" stop-opacity="0"/>
            <stop offset="1" stop-color="#fff" stop-opacity="0.7"/>
        </linearGradient>
        <linearGradient id="97720d94-81b2-49ad-b7d7-74e7f3556d76" x1="1407.45" y1="145.69" x2="1264.02" y2="145.69" gradientTransform="matrix(-1, 0, 0, 1, 1631.99, 0)" gradientUnits="userSpaceOnUse">
            <stop offset="0" stop-color="#fff" stop-opacity="0.7"/>
            <stop offset="1" stop-color="#fff" stop-opacity="0"/>
        </linearGradient>
        <radialGradient id="287bd463-8e4c-4311-b16b-259d92dfd43e" cx="172.96" cy="302.73" r="170.43" gradientUnits="userSpaceOnUse">
            <stop offset="0" stop-color="#0f6" stop-opacity="0.2"/>
            <stop offset="1" stop-color="#0f6" stop-opacity="0"/>
        </radialGradient>
        <radialGradient id="cfbad100-bcc8-4197-b25c-0afba5101524" cx="161.58" cy="430.6" r="43.95" xlink:href="#f3e1fcbe-c959-4429-a7da-1e3df9ff9416"/>
        <linearGradient id="ec2a0175-914f-484a-827d-551404e46e4d" x1="348.7" y1="308.21" x2="348.7" y2="107.53" gradientUnits="userSpaceOnUse">
            <stop offset="0" stop-color="#0f6" stop-opacity="0.2"/>
            <stop offset="1" stop-color="#00d9ff"/>
        </linearGradient>
        <linearGradient id="bfaa472d-b9f6-4566-86ef-5c1388464859" x1="106.18" y1="292.39" x2="106.18" y2="198.32" gradientUnits="userSpaceOnUse">
            <stop offset="0" stop-color="#0f6" stop-opacity="0.31"/>
            <stop offset="1" stop-color="#00d9ff" stop-opacity="0.6"/>
        </linearGradient>
        <linearGradient id="5aa03a58-b3bf-4f20-add6-736282c6b6e6" x1="346.02" y1="332.48" x2="381.19" y2="332.48" gradientUnits="userSpaceOnUse">
            <stop offset="0" stop-color="#1f2042" stop-opacity="0.2"/>
            <stop offset="1" stop-color="#1f2042" stop-opacity="0"/>
        </linearGradient>
        <linearGradient id="d3baaffe-8849-429e-9fdb-8a924fd484f6" x1="11.8" y1="364.4" x2="111.08" y2="364.4" gradientUnits="userSpaceOnUse">
            <stop offset="0" stop-color="#1f2042" stop-opacity="0"/>
            <stop offset="1" stop-color="#1f2042" stop-opacity="0.2"/>
        </linearGradient>
    </defs>
    <title>ecosystem-1</title>
    <rect x="-62.61" y="6.63" width="602.97" height="499.92" style="fill:#fff"/>
    <g style="clip-path:url(#bf22d659-c18c-4619-babc-95e0d54a31e1)">
        <path d="M-1056.74,152.15c67.39,11.33,163.52,101.51,266.28,125.91,20.36,4.83,68.55,15.67,124.26-.4a215.29,215.29,0,0,0,33.1-12.6c75.26,21.33,101.44,15.5,109.33,3.46,2.54-3.87,2.6-7.48,6.74-11.65,16.18-16.29,55.61-1.82,68.51,3.07C-379.41,286.11-375,333-331.44,338.8c61.06,8.09,92.35-39.88,144.33-49.93,59.23-11.46,152.71,10.79,295.81,178.88H-1477.7C-1280.27,188.39-1146.43,137.07-1056.74,152.15Z" style="fill:#1f2042"/>
        <path d="M-1056.74,152.15c67.39,11.33,163.52,101.51,266.28,125.91,20.36,4.83,68.55,15.67,124.26-.4a215.29,215.29,0,0,0,33.1-12.6c75.26,21.33,101.44,15.5,109.33,3.46,2.54-3.87,2.6-7.48,6.74-11.65,16.18-16.29,55.61-1.82,68.51,3.07C-379.41,286.11-375,333-331.44,338.8c61.06,8.09,92.35-39.88,144.33-49.93,59.23-11.46,152.71,10.79,295.81,178.88H-1477.7C-1280.27,188.39-1146.43,137.07-1056.74,152.15Z" style="fill:url(#15ee2ad4-7789-42f6-8c64-7bfb655e4639)"/>
        <path d="M-1548.28,456.87c119.6,57.67,283.36,110.37,470.32,86.12,65.14-8.44,63.22-17.17,141.24-30.66,90.57-15.67,88.42-.72,145.94-13.2,8.53-1.85,27.18-6.22,31.55.82,4.61,7.42-10.42,21.6-6.94,26.32,6.25,8.48,60-22.27,60.3-22.42h0c237.68,15.95,329.22,29.17,343,40.07,1.38,1.1,9.33,8,20.87,9,14.09,1.21,25.2-7.16,29.3-9.92,29.39-19.73,70.22-.49,139.39-3.71,27.48-1.29,40.66-5.24,68.76-10.23,38.75-6.88,93.12-13.46,167.11-14.25q29-.31,62,.66c-2.46-1.93-6.71-5.23-12.48-9.54a443.85,443.85,0,0,0-95.82-22.4c-87.48-10.32-120.53,12.79-189.56-8.36-66.22-20.29-51.85-46.46-108.72-60.4-78-19.13-115,27.72-226.73,18.58-38.16-3.12-61.52-10.84-81.78-15.79-155-37.93-342.4,33.75-412.57,55.75l-.51.16c-113.17,35.39-286.43,56.07-543.43-18.09Z" style="fill:#fff"/>
        <path d="M-1548.28,456.87c119.6,57.67,283.36,110.37,470.32,86.12,65.14-8.44,63.22-17.17,141.24-30.66,90.57-15.67,88.42-.72,145.94-13.2,8.53-1.85,27.18-6.22,31.55.82,4.61,7.42-10.42,21.6-6.94,26.32,6.25,8.48,60-22.27,60.3-22.42h0c237.68,15.95,329.22,29.17,343,40.07,1.38,1.1,9.33,8,20.87,9,14.09,1.21,25.2-7.16,29.3-9.92,29.39-19.73,70.22-.49,139.39-3.71,27.48-1.29,40.66-5.24,68.76-10.23,38.75-6.88,93.12-13.46,167.11-14.25q29-.31,62,.66c-2.46-1.93-6.71-5.23-12.48-9.54a443.85,443.85,0,0,0-95.82-22.4c-87.48-10.32-120.53,12.79-189.56-8.36-66.22-20.29-51.85-46.46-108.72-60.4-78-19.13-115,27.72-226.73,18.58-38.16-3.12-61.52-10.84-81.78-15.79-155-37.93-342.4,33.75-412.57,55.75l-.51.16c-113.17,35.39-286.43,56.07-543.43-18.09Z" style="fill:none;stroke:#000;stroke-miterlimit:10"/>
        <path d="M-1547.06,455.37c257,74.16,430.26,53.48,543.43,18.09l.51-.16c70.17-22,257.58-93.68,412.57-55.75,14.53,3.55,30.65,8.52,52.67,12.2,14.81,2.48,25.64,3.27,29.11,3.59,52.71,4.86,153.9,40.93,226.43,56.92,9.2,2,20.5,4.29,32.27-.65,19.67-8.26,21-28.44,36.3-32.78,14.72-4.17,26.93,14.19,40.45,18.33,69,21.15,102.08-2,189.56,8.36a443.85,443.85,0,0,1,95.82,22.4C90.49,489.83,47.92,459.83.68,436.13c-27.43-13.76-56.43-25.4-83.81-30.95-11.75-2.38-32.95,1.62-58.74-7.81-57.3-21-54.77-65.6-96.23-85.86-62.78-30.68-108.65,52.08-206.58,30.12-40-9-46.15-25.85-105.1-37.53a357,357,0,0,0-96.9-5.81c-25.41,2.07-45.1,6.68-61.56,12.55-45.91,16.35-72,32.87-96.34,46-55,29.7-108.19,32.86-146.92,35.16-83.36,4.95-99.27-24.48-261.51-52.71-55.06-9.59-83.15-14.33-110.46-11.77-96.31,9.05-163.69,67.79-187.11,88.61a278.37,278.37,0,0,0-20,20C-1537.12,443.22-1542.61,449.76-1547.06,455.37Z" style="fill:#1f2042"/>
        <path d="M-1547.06,455.37c257,74.16,430.26,53.48,543.43,18.09l.51-.16c70.17-22,257.58-93.68,412.57-55.75,14.53,3.55,30.65,8.52,52.67,12.2,14.81,2.48,25.64,3.27,29.11,3.59,52.71,4.86,153.9,40.93,226.43,56.92,9.2,2,20.5,4.29,32.27-.65,19.67-8.26,21-28.44,36.3-32.78,14.72-4.17,26.93,14.19,40.45,18.33,69,21.15,102.08-2,189.56,8.36a443.85,443.85,0,0,1,95.82,22.4C90.49,489.83,47.92,459.83.68,436.13c-27.43-13.76-56.43-25.4-83.81-30.95-11.75-2.38-32.95,1.62-58.74-7.81-57.3-21-54.77-65.6-96.23-85.86-62.78-30.68-108.65,52.08-206.58,30.12-40-9-46.15-25.85-105.1-37.53a357,357,0,0,0-96.9-5.81c-25.41,2.07-45.1,6.68-61.56,12.55-45.91,16.35-72,32.87-96.34,46-55,29.7-108.19,32.86-146.92,35.16-83.36,4.95-99.27-24.48-261.51-52.71-55.06-9.59-83.15-14.33-110.46-11.77-96.31,9.05-163.69,67.79-187.11,88.61a278.37,278.37,0,0,0-20,20C-1537.12,443.22-1542.61,449.76-1547.06,455.37Z" style="opacity:0.9;fill:url(#664ca9e2-e5f3-445f-a5f3-2d3c4676745e)"/>
        <path d="M-1547.06,455.37c257,74.16,430.26,53.48,543.43,18.09l.51-.16c70.17-22,257.58-93.68,412.57-55.75,14.53,3.55,30.65,8.52,52.67,12.2,14.81,2.48,25.64,3.27,29.11,3.59,52.71,4.86,153.9,40.93,226.43,56.92,9.2,2,20.5,4.29,32.27-.65,19.67-8.26,21-28.44,36.3-32.78,14.72-4.17,26.93,14.19,40.45,18.33,69,21.15,102.08-2,189.56,8.36a443.85,443.85,0,0,1,95.82,22.4C90.49,489.83,47.92,459.83.68,436.13c-27.43-13.76-56.43-25.4-83.81-30.95-11.75-2.38-32.95,1.62-58.74-7.81-57.3-21-54.77-65.6-96.23-85.86-62.78-30.68-108.65,52.08-206.58,30.12-40-9-46.15-25.85-105.1-37.53a357,357,0,0,0-96.9-5.81c-25.41,2.07-45.1,6.68-61.56,12.55-45.91,16.35-72,32.87-96.34,46-55,29.7-108.19,32.86-146.92,35.16-83.36,4.95-99.27-24.48-261.51-52.71-55.06-9.59-83.15-14.33-110.46-11.77-96.31,9.05-163.69,67.79-187.11,88.61a278.37,278.37,0,0,0-20,20C-1537.12,443.22-1542.61,449.76-1547.06,455.37Z" style="fill:url(#4c55b40d-e523-4f47-9f34-d3a7f391cb8b)"/>
        <path d="M-1547.06,455.37c257,74.16,430.26,53.48,543.43,18.09l.51-.16c70.17-22,257.58-93.68,412.57-55.75,14.53,3.55,30.65,8.52,52.67,12.2,14.81,2.48,25.64,3.27,29.11,3.59,52.71,4.86,153.9,40.93,226.43,56.92,9.2,2,20.5,4.29,32.27-.65,19.67-8.26,21-28.44,36.3-32.78,14.72-4.17,26.93,14.19,40.45,18.33,69,21.15,102.08-2,189.56,8.36a443.85,443.85,0,0,1,95.82,22.4C90.49,489.83,47.92,459.83.68,436.13c-27.43-13.76-56.43-25.4-83.81-30.95-11.75-2.38-32.95,1.62-58.74-7.81-57.3-21-54.77-65.6-96.23-85.86-62.78-30.68-108.65,52.08-206.58,30.12-40-9-46.15-25.85-105.1-37.53a357,357,0,0,0-96.9-5.81c-25.41,2.07-45.1,6.68-61.56,12.55-45.91,16.35-72,32.87-96.34,46-55,29.7-108.19,32.86-146.92,35.16-83.36,4.95-99.27-24.48-261.51-52.71-55.06-9.59-83.15-14.33-110.46-11.77-96.31,9.05-163.69,67.79-187.11,88.61a278.37,278.37,0,0,0-20,20C-1537.12,443.22-1542.61,449.76-1547.06,455.37Z" style="fill:#1f2042"/>
        <path d="M-1547.06,455.37c257,74.16,430.26,53.48,543.43,18.09l.51-.16c70.17-22,257.58-93.68,412.57-55.75,14.53,3.55,30.65,8.52,52.67,12.2,14.81,2.48,25.64,3.27,29.11,3.59,52.71,4.86,153.9,40.93,226.43,56.92,9.2,2,20.5,4.29,32.27-.65,19.67-8.26,21-28.44,36.3-32.78,14.72-4.17,26.93,14.19,40.45,18.33,69,21.15,102.08-2,189.56,8.36a443.85,443.85,0,0,1,95.82,22.4C90.49,489.83,47.92,459.83.68,436.13c-27.43-13.76-56.43-25.4-83.81-30.95-11.75-2.38-32.95,1.62-58.74-7.81-57.3-21-54.77-65.6-96.23-85.86-62.78-30.68-108.65,52.08-206.58,30.12-40-9-46.15-25.85-105.1-37.53a357,357,0,0,0-96.9-5.81c-25.41,2.07-45.1,6.68-61.56,12.55-45.91,16.35-72,32.87-96.34,46-55,29.7-108.19,32.86-146.92,35.16-83.36,4.95-99.27-24.48-261.51-52.71-55.06-9.59-83.15-14.33-110.46-11.77-96.31,9.05-163.69,67.79-187.11,88.61a278.37,278.37,0,0,0-20,20C-1537.12,443.22-1542.61,449.76-1547.06,455.37Z" style="opacity:0.9;fill:url(#f3e1fcbe-c959-4429-a7da-1e3df9ff9416)"/>
    </g>
    <!-- <path d="M84.38,81.77C-5.43,145.12-24.95,308.69,26.8,353c30.23,25.88,73.82-.81,151,37,42,20.58,43.7,35.59,69,43,84.5,24.71,237.41-92.52,231.46-190.56C470.83,119.92,213.05-9,84.38,81.77Z" style="fill:#0030ff;opacity:0.05"/> -->
    <path d="M61.29,427.16C14.38,391,24.35,300.91,26.3,283.31c1.13-10.21,14.21-114.43,95.55-159.56C237.08,59.81,411.25,157.76,419,240,429.37,349.43,151.44,496.57,61.29,427.16Z" style="fill:#1f2042"/>
    <path d="M61.29,427.16C14.38,391,24.35,300.91,26.3,283.31c1.13-10.21,14.21-114.43,95.55-159.56C237.08,59.81,411.25,157.76,419,240,429.37,349.43,151.44,496.57,61.29,427.16Z" style="fill:url(#05219dd7-ae97-4a9a-bd9e-c868a2697cc9)"/>
    <g style="clip-path:url(#c6a6a461-5b6f-48e4-98a6-0ed627195f10)">
        <line x1="107.09" y1="280.99" x2="111.43" y2="278.52" style="fill:none;stroke:#fff;stroke-miterlimit:10;stroke-width:3px"/>
        <line x1="119.31" y1="274.03" x2="178.42" y2="240.35" style="fill:none;stroke:#fff;stroke-miterlimit:10;stroke-width:3px;stroke-dasharray:9.069754600524902,9.069754600524902"/>
        <line x1="182.36" y1="238.11" x2="186.7" y2="235.63" style="fill:none;stroke:#fff;stroke-miterlimit:10;stroke-width:3px"/>
        <line x1="107.09" y1="267.38" x2="114.47" y2="263.18" style="fill:none;stroke:#fff;stroke-miterlimit:10;stroke-width:6px"/>
        <line x1="127.44" y1="255.79" x2="172.83" y2="229.93" style="fill:none;stroke:#fff;stroke-miterlimit:10;stroke-width:6px;stroke-dasharray:14.925558090209961,14.925558090209961"/>
        <line x1="179.31" y1="226.23" x2="186.7" y2="222.02" style="fill:none;stroke:#fff;stroke-miterlimit:10;stroke-width:6px"/>
        <path d="M388.18,221.75a164.42,164.42,0,0,1-328.84,0c0-12.08-2.5-44.52,17.41-73.71,29.35-43,84.74-48.24,111.12-50.73,39.84-3.76,69.32,6.55,128.27,27.16,36.19,12.66,50.16,21.83,59.83,36.06C391.65,183.62,388.18,210,388.18,221.75Z" style="fill:#ffc05c;opacity:0.1"/>
        <circle cx="210.8" cy="215.27" r="114.18" style="fill:#ffc05c;opacity:0.1"/>
        <circle cx="210.8" cy="215.27" r="66.08" style="fill:#ffc05c;opacity:0.1"/>
        <path d="M769.81,158C713.41,167.47,633,242.94,547,263.36c-17,4-57.36,13.11-104-.34a180,180,0,0,1-27.7-10.54c-63,17.85-84.89,13-91.49,2.9-2.12-3.24-2.17-6.26-5.64-9.75-13.54-13.63-46.54-1.52-57.33,2.57-57.83,21.89-61.49,61.16-98,66C111.77,321,85.58,280.81,42.09,272.4c-49.57-9.58-127.79,9-247.55,149.7H1122.08C956.86,188.33,844.86,145.38,769.81,158Z" style="fill:#1f2042"/>
        <path d="M769.81,158C713.41,167.47,633,242.94,547,263.36c-17,4-57.36,13.11-104-.34a180,180,0,0,1-27.7-10.54c-63,17.85-84.89,13-91.49,2.9-2.12-3.24-2.17-6.26-5.64-9.75-13.54-13.63-46.54-1.52-57.33,2.57-57.83,21.89-61.49,61.16-98,66C111.77,321,85.58,280.81,42.09,272.4c-49.57-9.58-127.79,9-247.55,149.7H1122.08C956.86,188.33,844.86,145.38,769.81,158Z" style="fill:url(#2486a36a-7dc3-4f97-bd53-6e9282093448)"/>
        <path d="M594.66,248.32C583,263.78,571,271.71,563,275.91c-37.06,19.44-80.68,7.34-111.1-1-17.5-4.82-13.63-5.61-24.69-7.9-41.9-8.69-62.07,10-95.87-1.44a45.24,45.24,0,0,1-10.39-4.76c-4.39-2.82-6.49-4.78-8.13-5.95-10.75-7.71-39,.88-45.17,17.38-1.62,4.34-.26,5.32-1.26,9.13-5.62,21.44-55.37,15.34-67.25,35.34-9.42,15.87,7.19,44.45,19.87,59.63,69.88,83.59,257.57,30.92,307.81,16.82,47-13.2,145.13-41.49,145-82.31C671.66,281.66,621.45,258.79,594.66,248.32Z" style="fill:url(#3459ace7-1e44-4211-9998-eee8a76ecc8d)"/>
        <polygon points="595.04 303.69 502.97 353.68 419.66 306.29 264.69 325.75 290.07 255.9 298.48 229.4 303.07 242.65 309.51 216.71 315.04 255.9 318.36 229.4 323.51 269.19 327.91 246.32 333.26 274.61 340.39 223.63 348.29 271.04 352.37 255.48 359 278.68 365.11 246.91 371.23 278.43 374.03 261.5 379.13 282.2 381.93 258.61 385.88 277.92 389.71 271.55 394.49 282.2 396.83 247.74 401.3 282.2 405.78 263.81 410.81 289.89 415.82 252.67 420.34 282.2 424.48 267.62 429.83 287.85 434.93 247.74 439.51 278.94 444.36 263.81 449.71 282.2 452.76 250.49 457.79 277.92 462.8 263.81 466.78 277.41 471.11 267.62 476.31 276.63 482.58 255.07 488.44 280.47 492.51 262.86 497.98 277.81 503.47 243.27 510.35 277.81 516.21 262.48 519.62 277.81 524.36 243.52 530.22 268.8 536.98 257.1 543.31 268.07 547.55 242.25 553.92 267.75 558.51 249.95 595.04 303.69" style="fill:#1f2042"/>
        <polygon points="595.04 303.69 502.97 353.68 419.66 306.29 264.69 325.75 290.07 255.9 298.48 229.4 303.07 242.65 309.51 216.71 315.04 255.9 318.36 229.4 323.51 269.19 327.91 246.32 333.26 274.61 340.39 223.63 348.29 271.04 352.37 255.48 359 278.68 365.11 246.91 371.23 278.43 374.03 261.5 379.13 282.2 381.93 258.61 385.88 277.92 389.71 271.55 394.49 282.2 396.83 247.74 401.3 282.2 405.78 263.81 410.81 289.89 415.82 252.67 420.34 282.2 424.48 267.62 429.83 287.85 434.93 247.74 439.51 278.94 444.36 263.81 449.71 282.2 452.76 250.49 457.79 277.92 462.8 263.81 466.78 277.41 471.11 267.62 476.31 276.63 482.58 255.07 488.44 280.47 492.51 262.86 497.98 277.81 503.47 243.27 510.35 277.81 516.21 262.48 519.62 277.81 524.36 243.52 530.22 268.8 536.98 257.1 543.31 268.07 547.55 242.25 553.92 267.75 558.51 249.95 595.04 303.69" style="opacity:0.2;fill:url(#961fcb54-b021-41f3-ade2-358b1f53ed5f)"/>
        <path d="M1180.12,411.73c-215.06,62.06-360,44.76-454.76,15.14l-.42-.13c-58.72-18.41-215.55-78.39-345.25-46.66-12.16,3-25.65,7.14-44.08,10.22-12.81,2.14-22,2.78-24.35,3-47.93,4.63-87.86,83.29-155.79,96.05-3,.57-40.78,7.13-75.82-12.31-29.34-16.28-24.9-33.12-49.1-48.74-11.27-7.28-33.37-7.78-158.63,7A371.39,371.39,0,0,0-208.27,454c18.05-13.47,53.68-38.57,93.21-58.4,23-11.52,47.22-21.26,70.13-25.91,9.83-2,27.58,1.37,49.15-6.53,48-17.55,45.84-54.9,80.53-71.85,52.54-25.67,90.93,43.59,172.88,25.2,33.45-7.49,38.61-21.63,87.94-31.4a298.46,298.46,0,0,1,81.09-4.86c21.26,1.73,37.74,5.59,51.52,10.5,38.41,13.68,60.25,27.51,80.61,38.5,46.06,24.85,90.54,27.5,123,29.43,69.75,4.14,83.07-20.49,218.83-44.12,46.07-8,69.58-12,92.43-9.84,80.6,7.57,137,56.72,156.58,74.15a235.42,235.42,0,0,1,16.74,16.73C1171.8,401.57,1176.39,407.05,1180.12,411.73Z" style="fill:#1f2042"/>
        <path d="M1180.12,411.73c-215.06,62.06-360,44.76-454.76,15.14l-.42-.13c-58.72-18.41-215.55-78.39-345.25-46.66-12.16,3-25.65,7.14-44.08,10.22-12.81,2.14-22,2.78-24.35,3-47.93,4.63-87.86,83.29-155.79,96.05-3,.57-40.78,7.13-75.82-12.31-29.34-16.28-24.9-33.12-49.1-48.74-11.27-7.28-33.37-7.78-158.63,7A371.39,371.39,0,0,0-208.27,454c18.05-13.47,53.68-38.57,93.21-58.4,23-11.52,47.22-21.26,70.13-25.91,9.83-2,27.58,1.37,49.15-6.53,48-17.55,45.84-54.9,80.53-71.85,52.54-25.67,90.93,43.59,172.88,25.2,33.45-7.49,38.61-21.63,87.94-31.4a298.46,298.46,0,0,1,81.09-4.86c21.26,1.73,37.74,5.59,51.52,10.5,38.41,13.68,60.25,27.51,80.61,38.5,46.06,24.85,90.54,27.5,123,29.43,69.75,4.14,83.07-20.49,218.83-44.12,46.07-8,69.58-12,92.43-9.84,80.6,7.57,137,56.72,156.58,74.15a235.42,235.42,0,0,1,16.74,16.73C1171.8,401.57,1176.39,407.05,1180.12,411.73Z" style="opacity:0.9;fill:url(#2c6daf37-cf7e-415b-9346-01e940fcfd76)"/>
        <path d="M-23,236A122.84,122.84,0,0,1-8.89,225.41c6.65-4.42,18-12,30.27-12.53C31.85,212.4,35,216.6,49.51,223c26,11.39,44.45,3.14,45.86,8.56s-25.58,21.59-55.65,20.79c-18-.48-24.16-6.64-47.26-8.09a143.28,143.28,0,0,0-38.66,2.89C-34.71,244.34-27.45,239.67-23,236Z" style="fill:url(#9cdc710f-0e20-4b5f-a3ed-e478c9756cfd)"/>
        <path d="M339.22,118.94c-.65-.08-1.43-.17-2.38-.24,0,0-1.49-.11-3-.12-10.13,0-23.22,8.39-23.22,8.39-13.88,8.94-26.61-3.52-52.49.65-22.51,3.63-40.1,17.44-38.88,21.38,1.17,3.77,18.68-4.45,40.83,3.24,14.93,5.19,14.52,11.54,29.16,16.85,20.76,7.54,40.43,1.59,47.95-.68,12.44-3.77,40.41-15.22,39.32-27.76C375.34,127,340.15,119.05,339.22,118.94Z" style="fill:url(#97720d94-81b2-49ad-b7d7-74e7f3556d76)"/>
        <path d="M224.16,392.8c-3.13,12.65,8,25.86,24.15,38.81-26.45,23.65-55.39,50.71-92.84,57.74-2.62.49-31.32,5.48-61.73-5.84-11.07-9-19.41-19.69-23.81-32.39-12-34.55,4.9-84.76,36.94-105.62,40.75-26.54,100-1.67,103-11.67,1.08-3.63-5.34-11.51-46.47-31.16,21.16,9.38,44.81,18.75,74.54,16.76h0c38.47,6.77,75.6,15.89,75.6,26.71C313.59,362.22,231.6,362.66,224.16,392.8Z" style="fill:url(#287bd463-8e4c-4311-b16b-259d92dfd43e)"/>
        <path d="M330.43,500.37c-7.81,27.44-170.79,36.47-236.69-16.86,30.41,11.32,59.11,6.33,61.73,5.84,37.45-7,66.39-34.09,92.84-57.74C281.34,458.09,335.25,483.43,330.43,500.37Z" style="fill:url(#cfbad100-bcc8-4197-b25c-0afba5101524)"/>
    </g>
    <line x1="235.39" y1="223.32" x2="240.39" y2="223.32" style="fill:none;stroke:#fff;stroke-miterlimit:10;stroke-width:3px"/>
    <line x1="249.72" y1="223.32" x2="338.39" y2="223.32" style="fill:none;stroke:#fff;stroke-miterlimit:10;stroke-width:3px;stroke-dasharray:9.332756996154785,9.332756996154785"/>
    <line x1="343.05" y1="223.32" x2="348.05" y2="223.32" style="fill:none;stroke:#fff;stroke-miterlimit:10;stroke-width:3px"/>
    <line x1="235.39" y1="209.71" x2="243.89" y2="209.71" style="fill:none;stroke:#fff;stroke-miterlimit:10;stroke-width:6px"/>
    <line x1="263.02" y1="209.71" x2="329.99" y2="209.71" style="fill:none;stroke:#fff;stroke-miterlimit:10;stroke-width:6px;stroke-dasharray:19.132064819335938,19.132064819335938"/>
    <line x1="339.55" y1="209.71" x2="348.05" y2="209.71" style="fill:none;stroke:#fff;stroke-miterlimit:10;stroke-width:6px"/>
    <rect x="347.43" y="107.53" width="2.54" height="200.68" style="fill:#1f2042"/>
    <rect x="347.43" y="107.53" width="2.54" height="200.68" style="fill:url(#ec2a0175-914f-484a-827d-551404e46e4d)"/>
    <polygon points="355.35 102.74 353.9 101.47 358.96 101.47 365.28 93.64 417.75 100.12 418.39 102.74 355.35 102.74" style="fill:#1f2042"/>
    <polygon points="355.35 102.74 353.9 101.47 358.96 101.47 365.28 93.64 417.75 100.12 418.39 102.74 355.35 102.74" style="fill:#00d9ff;opacity:0.6000000000000001"/>
    <polygon points="355.35 102.74 353.9 104.02 358.96 104.01 365.28 111.85 417.75 105.36 418.39 102.74 355.35 102.74" style="fill:#1f2042"/>
    <polygon points="355.35 102.74 353.9 104.02 358.96 104.01 365.28 111.85 417.75 105.36 418.39 102.74 355.35 102.74" style="fill:#00d9ff;opacity:0.6000000000000001"/>
    <polygon points="355.35 102.74 353.9 101.47 358.96 101.47 365.28 93.64 417.75 100.12 418.39 102.74 355.35 102.74" style="fill:#1f2042"/>
    <polygon points="355.35 102.74 353.9 101.47 358.96 101.47 365.28 93.64 417.75 100.12 418.39 102.74 355.35 102.74" style="fill:#00d9ff;opacity:0.8"/>
    <polygon points="342.05 102.74 343.5 101.47 338.44 101.47 332.12 93.64 279.65 100.12 279.01 102.74 342.05 102.74" style="fill:#1f2042"/>
    <polygon points="342.05 102.74 343.5 101.47 338.44 101.47 332.12 93.64 279.65 100.12 279.01 102.74 342.05 102.74" style="fill:#00d9ff;opacity:0.6000000000000001"/>
    <polygon points="342.05 102.74 343.5 104.02 338.44 104.01 332.12 111.85 279.65 105.36 279.01 102.74 342.05 102.74" style="fill:#1f2042"/>
    <polygon points="342.05 102.74 343.5 104.02 338.44 104.01 332.12 111.85 279.65 105.36 279.01 102.74 342.05 102.74" style="fill:#00d9ff;opacity:0.6000000000000001"/>
    <polygon points="342.05 102.74 343.5 101.47 338.44 101.47 332.12 93.64 279.65 100.12 279.01 102.74 342.05 102.74" style="fill:#1f2042"/>
    <polygon points="342.05 102.74 343.5 101.47 338.44 101.47 332.12 93.64 279.65 100.12 279.01 102.74 342.05 102.74" style="fill:#00d9ff;opacity:0.8"/>
    <polygon points="348.7 109.39 349.98 107.94 349.97 113 357.81 119.32 351.32 171.79 348.7 172.43 348.7 109.39" style="fill:#1f2042"/>
    <polygon points="348.7 109.39 349.98 107.94 349.97 113 357.81 119.32 351.32 171.79 348.7 172.43 348.7 109.39" style="fill:#00d9ff;opacity:0.6000000000000001"/>
    <polygon points="348.7 109.39 347.43 107.94 347.43 113 339.59 119.32 346.08 171.79 348.7 172.43 348.7 109.39" style="fill:#1f2042"/>
    <polygon points="348.7 109.39 347.43 107.94 347.43 113 339.59 119.32 346.08 171.79 348.7 172.43 348.7 109.39" style="fill:#00d9ff;opacity:0.6000000000000001"/>
    <polygon points="348.7 109.39 349.98 107.94 349.97 113 357.81 119.32 351.32 171.79 348.7 172.43 348.7 109.39" style="fill:#1f2042"/>
    <polygon points="348.7 109.39 349.98 107.94 349.97 113 357.81 119.32 351.32 171.79 348.7 172.43 348.7 109.39" style="fill:#00d9ff;opacity:0.8"/>
    <polygon points="348.7 96.09 349.98 97.54 349.97 92.48 357.81 86.16 351.32 33.7 348.7 33.05 348.7 96.09" style="fill:#1f2042"/>
    <polygon points="348.7 96.09 349.98 97.54 349.97 92.48 357.81 86.16 351.32 33.7 348.7 33.05 348.7 96.09" style="fill:#00d9ff;opacity:0.6000000000000001"/>
    <polygon points="348.7 96.09 347.43 97.54 347.43 92.48 339.59 86.16 346.08 33.7 348.7 33.05 348.7 96.09" style="fill:#1f2042"/>
    <polygon points="348.7 96.09 347.43 97.54 347.43 92.48 339.59 86.16 346.08 33.7 348.7 33.05 348.7 96.09" style="fill:#00d9ff;opacity:0.6000000000000001"/>
    <polygon points="348.7 96.09 349.98 97.54 349.97 92.48 357.81 86.16 351.32 33.7 348.7 33.05 348.7 96.09" style="fill:#1f2042"/>
    <polygon points="348.7 96.09 349.98 97.54 349.97 92.48 357.81 86.16 351.32 33.7 348.7 33.05 348.7 96.09" style="fill:#00d9ff;opacity:0.8"/>
    <circle cx="348.7" cy="102.54" r="6.85" style="fill:#00d9ff"/>
    <circle cx="348.7" cy="102.54" r="6.85" style="fill:#fff;opacity:0.2"/>
    <circle cx="348.7" cy="102.54" r="4.5" style="fill:#00d9ff"/>
    <circle cx="348.7" cy="102.54" r="4.5" style="fill:#fff;opacity:0.9"/>
    <rect x="105.59" y="198.32" width="1.19" height="94.07" style="fill:#1f2042"/>
    <rect x="105.59" y="198.32" width="1.19" height="94.07" style="fill:url(#bfaa472d-b9f6-4566-86ef-5c1388464859)"/>
    <polygon points="109.3 196.07 108.62 195.47 110.99 195.48 113.95 191.8 138.55 194.84 138.85 196.07 109.3 196.07" style="fill:#1f2042"/>
    <polygon points="109.3 196.07 108.62 195.47 110.99 195.48 113.95 191.8 138.55 194.84 138.85 196.07 109.3 196.07" style="fill:#00d9ff;opacity:0.4"/>
    <polygon points="109.3 196.07 108.62 196.67 110.99 196.67 113.95 200.34 138.55 197.3 138.85 196.07 109.3 196.07" style="fill:#1f2042"/>
    <polygon points="109.3 196.07 108.62 196.67 110.99 196.67 113.95 200.34 138.55 197.3 138.85 196.07 109.3 196.07" style="fill:#00d9ff;opacity:0.4"/>
    <polygon points="109.3 196.07 108.62 195.47 110.99 195.48 113.95 191.16 138.55 194.2 138.85 196.07 109.3 196.07" style="fill:#1f2042"/>
    <polygon points="109.3 196.07 108.62 195.47 110.99 195.48 113.95 191.16 138.55 194.2 138.85 196.07 109.3 196.07" style="fill:#00d9ff;opacity:0.6000000000000001"/>
    <polygon points="103.06 196.07 103.75 195.47 101.38 195.48 98.41 191.8 73.82 194.84 73.52 196.07 103.06 196.07" style="fill:#1f2042"/>
    <polygon points="103.06 196.07 103.75 195.47 101.38 195.48 98.41 191.8 73.82 194.84 73.52 196.07 103.06 196.07" style="fill:#00d9ff;opacity:0.4"/>
    <polygon points="103.06 196.07 103.75 196.67 101.38 196.67 98.41 200.34 73.82 197.3 73.52 196.07 103.06 196.07" style="fill:#1f2042"/>
    <polygon points="103.06 196.07 103.75 196.67 101.38 196.67 98.41 200.34 73.82 197.3 73.52 196.07 103.06 196.07" style="fill:#00d9ff;opacity:0.4"/>
    <polygon points="103.06 196.07 103.75 195.47 101.38 195.48 98.41 191.16 73.82 194.2 73.52 196.07 103.06 196.07" style="fill:#1f2042"/>
    <polygon points="103.06 196.07 103.75 195.47 101.38 195.48 98.41 191.16 73.82 194.2 73.52 196.07 103.06 196.07" style="fill:#00d9ff;opacity:0.6000000000000001"/>
    <polygon points="106.18 199.19 106.78 198.51 106.78 200.88 110.45 203.84 107.41 228.44 106.18 228.74 106.18 199.19" style="fill:#1f2042"/>
    <polygon points="106.18 199.19 106.78 198.51 106.78 200.88 110.45 203.84 107.41 228.44 106.18 228.74 106.18 199.19" style="fill:#00d9ff;opacity:0.4"/>
    <polygon points="106.18 199.19 105.59 198.51 105.59 200.88 101.92 203.84 104.96 228.44 106.18 228.74 106.18 199.19" style="fill:#1f2042"/>
    <polygon points="106.18 199.19 105.59 198.51 105.59 200.88 101.92 203.84 104.96 228.44 106.18 228.74 106.18 199.19" style="fill:#00d9ff;opacity:0.4"/>
    <polygon points="106.18 199.19 106.78 198.51 106.78 200.88 111.1 203.84 108.06 228.44 106.18 228.74 106.18 199.19" style="fill:#1f2042"/>
    <polygon points="106.18 199.19 106.78 198.51 106.78 200.88 111.1 203.84 108.06 228.44 106.18 228.74 106.18 199.19" style="fill:#00d9ff;opacity:0.6000000000000001"/>
    <polygon points="106.18 192.95 106.78 193.63 106.78 191.26 110.45 188.3 107.41 163.71 106.18 163.4 106.18 192.95" style="fill:#1f2042"/>
    <polygon points="106.18 192.95 106.78 193.63 106.78 191.26 110.45 188.3 107.41 163.71 106.18 163.4 106.18 192.95" style="fill:#00d9ff;opacity:0.4"/>
    <polygon points="106.18 192.95 105.59 193.63 105.59 191.26 101.92 188.3 104.96 163.71 106.18 163.4 106.18 192.95" style="fill:#1f2042"/>
    <polygon points="106.18 192.95 105.59 193.63 105.59 191.26 101.92 188.3 104.96 163.71 106.18 163.4 106.18 192.95" style="fill:#00d9ff;opacity:0.4"/>
    <polygon points="106.18 192.95 106.78 193.63 106.78 191.26 111.1 188.3 108.06 163.71 106.18 163.4 106.18 192.95" style="fill:#1f2042"/>
    <polygon points="106.18 192.95 106.78 193.63 106.78 191.26 111.1 188.3 108.06 163.71 106.18 163.4 106.18 192.95" style="fill:#00d9ff;opacity:0.6000000000000001"/>
    <circle cx="106.18" cy="195.98" r="3.21" style="fill:#1f2042;opacity:0.6000000000000001"/>
    <circle cx="106.18" cy="195.98" r="3.21" style="fill:#00d9ff;opacity:0.9"/>
    <circle cx="106.18" cy="195.98" r="1.71" style="fill:#1f2042"/>
    <circle cx="106.18" cy="195.98" r="1.71" style="fill:#00d9ff"/>
    <circle cx="106.18" cy="195.98" r="1.71" style="fill:#fff;opacity:0.9"/>
    <path d="M347.33,308.41c3.9,1.46,9,4,9.34,7.6.48,5.05-8.64,7.39-10.37,13.39-1.39,4.85,1.71,13,21.39,27.33l13.5-11.23c-18.08-7-22-13-22.14-17.28-.18-5.08,4.92-8.58,3.45-13.07-1.41-4.33-7.78-6.1-12.42-6.91Z" style="fill-opacity:0.9;fill:url(#5aa03a58-b3bf-4f20-add6-736282c6b6e6)"/>
    <path d="M106.84,292.36l-1.09-.11a30.73,30.73,0,0,1,1.33,17.08c-5.19,22.46-37.48,24.85-67.77,51.72A132.1,132.1,0,0,0,11.8,395.56q13.43,20.49,26.87,41C40.61,407.2,49.81,388.19,58.3,376c20.71-29.74,52.44-40.75,52.78-66.67A36.28,36.28,0,0,0,106.84,292.36Z" style="fill-opacity:0.9;fill:url(#d3baaffe-8849-429e-9fdb-8a924fd484f6)"/>
    <circle cx="210.8" cy="215.92" r="31.87" style="fill:#1f2042"/>
    <circle cx="210.8" cy="215.92" r="31.87" style="fill:#ff9d00"/>
    <circle cx="210.8" cy="215.92" r="31.87" style="fill:#ffb43b"/>
</svg>