<svg id="54598a31-d61c-4ee2-b2b0-924659d90eac" data-name="Layer 1" 
    xmlns="http://www.w3.org/2000/svg" 
    xmlns:xlink="http://www.w3.org/1999/xlink" viewBox="0 0 558.07 441.4">
    <defs>
        <radialGradient id="cac6948d-0186-496f-bce0-7922c45aadd5" cx="292.12" cy="319.21" r="306.79" gradientTransform="matrix(-0.01, 1, -1.86, -0.01, 886.82, 31.2)" gradientUnits="userSpaceOnUse">
            <stop offset="0" stop-color="#ff9d00" stop-opacity="0.8"/>
            <stop offset="1" stop-color="#ff00a6" stop-opacity="0.98"/>
        </radialGradient>
        <clipPath id="e73dd6af-4f78-4e4d-9cd2-376ad9c90488">
            <path d="M176.3,105C278.8,52.21,419.12,121.25,472.24,220.8,502,276.53,518,368.75,473.87,413c-39.38,39.5-113,21.61-260.12-14.16-111.67-27.14-126.86-47.17-132.6-56.28C40.76,278.51,87.23,150.93,176.3,105Z" style="fill:none"/>
        </clipPath>
        <linearGradient id="eea83a8b-1c27-419c-b2c0-a816ef10a416" x1="1095.15" y1="226.1" x2="1514.79" y2="226.1" gradientTransform="matrix(-1, 0, 0, 1, 1529.25, 0)" gradientUnits="userSpaceOnUse">
            <stop offset="0" stop-color="#fff" stop-opacity="0.2"/>
            <stop offset="1" stop-color="#fff" stop-opacity="0"/>
        </linearGradient>
        <linearGradient id="a98650d2-be95-4a8b-9469-0b80ac38e9c8" x1="101.09" y1="316.44" x2="520.73" y2="316.44" gradientUnits="userSpaceOnUse">
            <stop offset="0" stop-color="#fff" stop-opacity="0.15"/>
            <stop offset="1" stop-color="#fff" stop-opacity="0"/>
        </linearGradient>
        <radialGradient id="81dae4c9-71bc-4549-88c6-6a0536f444a3" cx="294.67" cy="266.08" r="219.89" gradientUnits="userSpaceOnUse">
            <stop offset="0.01" stop-color="#bebec8" stop-opacity="0.2"/>
            <stop offset="1" stop-color="#b5b6c1" stop-opacity="0.1"/>
        </radialGradient>
        <radialGradient id="1c998a39-f068-4d27-b964-437f6869ddd8" cx="284.03" cy="306.73" r="106.04" gradientUnits="userSpaceOnUse">
            <stop offset="0" stop-color="#00d9ff" stop-opacity="0.2"/>
            <stop offset="1" stop-color="#00d9ff" stop-opacity="0"/>
        </radialGradient>
        <linearGradient id="593a4ba2-e9f6-414d-8a48-35b1c694f673" x1="196.91" y1="278.03" x2="28.43" y2="278.03" gradientUnits="userSpaceOnUse">
            <stop offset="0" stop-color="#0f6"/>
            <stop offset="0.85" stop-color="#0f6" stop-opacity="0.8"/>
        </linearGradient>
        <linearGradient id="05dad171-0fc5-4fbe-b8f6-2c77c9a7299b" x1="226.02" y1="309.58" x2="210.73" y2="330.81" gradientUnits="userSpaceOnUse">
            <stop offset="0" stop-color="#41425f" stop-opacity="0.5"/>
            <stop offset="1" stop-color="#1f2042" stop-opacity="0"/>
        </linearGradient>
        <linearGradient id="fdab0006-0cfa-4458-a87c-3b56c6db59c6" x1="65.28" y1="388.35" x2="476.04" y2="388.35" gradientUnits="userSpaceOnUse">
            <stop offset="0" stop-color="#0f6" stop-opacity="0.4"/>
            <stop offset="0.48" stop-color="#0f6" stop-opacity="0.3"/>
            <stop offset="1" stop-color="#0f6" stop-opacity="0.4"/>
        </linearGradient>
        <radialGradient id="7741cfef-af33-4205-bb7b-bbc9e3fabdda" cx="290.8" cy="290.28" r="361.25" gradientUnits="userSpaceOnUse">
            <stop offset="0" stop-color="#ff9d00" stop-opacity="0.5"/>
            <stop offset="1" stop-color="#ff9d00" stop-opacity="0.3"/>
        </radialGradient>
        <radialGradient id="8648c8e2-887f-4206-a148-ab50eb801d8f" cx="295.64" cy="287.37" r="216.81" gradientUnits="userSpaceOnUse">
            <stop offset="0" stop-color="#0f6" stop-opacity="0.5"/>
            <stop offset="1" stop-color="#0f6" stop-opacity="0.2"/>
        </radialGradient>
        <linearGradient id="f74b86cb-6e58-4824-9628-b7943655ca41" x1="314.77" y1="321.99" x2="199.1" y2="437.66" gradientUnits="userSpaceOnUse">
            <stop offset="0" stop-color="#0f6" stop-opacity="0.2"/>
            <stop offset="1" stop-color="#0f6" stop-opacity="0"/>
        </linearGradient>
        <radialGradient id="d78d5f98-0739-4ed5-b723-ba15bc8edc2f" cx="231.06" cy="328.05" r="2.54" xlink:href="#7741cfef-af33-4205-bb7b-bbc9e3fabdda"/>
        <linearGradient id="c2a5c2eb-4191-4d3f-b222-fadd962eae39" x1="504.72" y1="241.31" x2="376.16" y2="241.31" gradientUnits="userSpaceOnUse">
            <stop offset="0" stop-color="#fff" stop-opacity="0"/>
            <stop offset="1" stop-color="#fff" stop-opacity="0.7"/>
        </linearGradient>
        <linearGradient id="73658a80-1c06-4b9e-9602-218fe6afe0b1" x1="236.12" y1="158.35" x2="93.23" y2="158.35" gradientUnits="userSpaceOnUse">
            <stop offset="0" stop-color="#fff" stop-opacity="0.7"/>
            <stop offset="1" stop-color="#fff" stop-opacity="0"/>
        </linearGradient>
        <linearGradient id="d6590000-33ca-491e-a73a-3f76e9660359" x1="7727.09" y1="-7827.33" x2="7727.09" y2="-7827.75" gradientTransform="matrix(-12.74, 0, 0, 12.74, 98654.9, 99919.93)" gradientUnits="userSpaceOnUse">
            <stop offset="0" stop-color="#00d9ff" stop-opacity="0.6"/>
            <stop offset="1" stop-color="#00d9ff"/>
        </linearGradient>
        <linearGradient id="6973af33-747c-485b-b9e3-349fc294ad40" x1="7727.3" y1="-7827.33" x2="7727.3" y2="-7828.18" gradientTransform="matrix(-12.74, 0, 0, 12.74, 98654.9, 99919.93)" gradientUnits="userSpaceOnUse">
            <stop offset="0" stop-color="#1f2042" stop-opacity="0.6"/>
            <stop offset="1" stop-color="#1f2042"/>
        </linearGradient>
        <linearGradient id="c2e0723b-0afb-4fcb-9996-edd4fa7ec292" x1="7727.04" y1="-7819.23" x2="7727.04" y2="-7826.04" gradientTransform="matrix(-12.74, 0, 0, 12.74, 98654.9, 99919.93)" gradientUnits="userSpaceOnUse">
            <stop offset="0" stop-color="#3e405d"/>
            <stop offset="1" stop-color="#1f2042"/>
        </linearGradient>
        <linearGradient id="ce2aebd4-d66b-4e73-b537-94060d7987ad" x1="7727.04" y1="-7819.23" x2="7727.04" y2="-7826.04" gradientTransform="matrix(-12.74, 0, 0, 12.74, 98654.9, 99919.93)" gradientUnits="userSpaceOnUse">
            <stop offset="0" stop-color="#00d9ff" stop-opacity="0"/>
            <stop offset="1" stop-color="#00d9ff" stop-opacity="0.2"/>
        </linearGradient>
        <linearGradient id="1491b6d3-c8d9-4cdd-843e-1edfb4e83c81" x1="7727.04" y1="-7819.23" x2="7727.04" y2="-7826.04" gradientTransform="matrix(-12.74, 0, 0, 12.74, 98654.9, 99919.93)" gradientUnits="userSpaceOnUse">
            <stop offset="0.19" stop-color="#ff9d00" stop-opacity="0"/>
            <stop offset="1" stop-color="#ff9d00" stop-opacity="0.1"/>
        </linearGradient>
        <linearGradient id="2f0e93ec-1a8c-4e90-98d5-99d74321228b" x1="7725.27" y1="-7826.66" x2="7726.06" y2="-7826.66" gradientTransform="matrix(-12.74, 0, 0, 12.74, 98654.9, 99919.93)" gradientUnits="userSpaceOnUse">
            <stop offset="0" stop-color="#00d9ff"/>
            <stop offset="1" stop-color="#00d9ff" stop-opacity="0.6"/>
        </linearGradient>
        <linearGradient id="d55376bb-307f-4aa1-8fe9-eb229c9c44c3" x1="7725.94" y1="-7826.08" x2="7728.19" y2="-7826.08" gradientTransform="matrix(-12.74, 0, 0, 12.74, 98654.9, 99919.93)" gradientUnits="userSpaceOnUse">
            <stop offset="0" stop-color="#00d9ff" stop-opacity="0.5"/>
            <stop offset="1" stop-color="#00d9ff" stop-opacity="0.15"/>
        </linearGradient>
        <linearGradient id="a42b7814-4af1-4369-ad9e-c344f116f7b5" x1="7725.39" y1="-7826.75" x2="7728.19" y2="-7826.75" gradientTransform="matrix(-12.74, 0, 0, 12.74, 98654.9, 99919.93)" gradientUnits="userSpaceOnUse">
            <stop offset="0" stop-color="#00d9ff" stop-opacity="0.9"/>
            <stop offset="1" stop-color="#00d9ff" stop-opacity="0.3"/>
        </linearGradient>
        <linearGradient id="7c620aba-cbde-47ee-8f41-8facda86fdca" x1="7726.06" y1="-7825.89" x2="7727.94" y2="-7825.89" gradientTransform="matrix(-12.74, 0, 0, 12.74, 98654.9, 99919.93)" gradientUnits="userSpaceOnUse">
            <stop offset="0" stop-color="#00d9ff" stop-opacity="0.4"/>
            <stop offset="1" stop-color="#00d9ff" stop-opacity="0.15"/>
        </linearGradient>
        <linearGradient id="165fb7ef-d3cb-4f7a-aa2b-3a89e14206ac" x1="-102953.58" y1="-110802.07" x2="-102923.19" y2="-110802.07" gradientTransform="translate(103163.38 111019.82)" gradientUnits="userSpaceOnUse">
            <stop offset="0" stop-color="#00d9ff" stop-opacity="0.6"/>
            <stop offset="1" stop-color="#00d9ff" stop-opacity="0"/>
        </linearGradient>
        <linearGradient id="f6f93ba9-b316-4330-aed3-c6afc54779c4" x1="405.46" y1="303.39" x2="479.67" y2="426.65" gradientUnits="userSpaceOnUse">
            <stop offset="0" stop-color="#1f2042" stop-opacity="0.2"/>
            <stop offset="1" stop-color="#1f2042" stop-opacity="0"/>
        </linearGradient>
        <radialGradient id="09ba8c2c-7306-402a-843a-944ac778e0b6" cx="413.34" cy="107.85" r="81.7" xlink:href="#81dae4c9-71bc-4549-88c6-6a0536f444a3"/>
        <linearGradient id="7370dc84-d137-431d-b445-292d885f6cff" x1="407.89" y1="51.24" x2="407.89" y2="38.2" gradientUnits="userSpaceOnUse">
            <stop offset="0" stop-color="#00d9ff" stop-opacity="0.4"/>
            <stop offset="1" stop-color="#00d9ff" stop-opacity="0.3"/>
        </linearGradient>
        <linearGradient id="2352046c-df7a-4080-bddc-8fa730ed3b1f" x1="406.49" y1="303.32" x2="406.49" y2="91.41" gradientUnits="userSpaceOnUse">
            <stop offset="0" stop-color="#0f6" stop-opacity="0.2"/>
            <stop offset="1" stop-color="#00d9ff" stop-opacity="0.2"/>
        </linearGradient>
        <linearGradient id="7770e270-4226-46d2-9d8a-fdcf6d0b05d7" x1="351.24" y1="72.09" x2="375.97" y2="72.09" gradientUnits="userSpaceOnUse">
            <stop offset="0" stop-color="#1f2042" stop-opacity="0.5"/>
            <stop offset="1" stop-color="#1f2042" stop-opacity="0.7"/>
        </linearGradient>
        <linearGradient id="ca2d50c9-0daf-41ee-9e93-788bd1d68398" x1="372.1" y1="90.17" x2="442.05" y2="90.17" gradientUnits="userSpaceOnUse">
            <stop offset="0" stop-color="#1f2042" stop-opacity="0.7"/>
            <stop offset="1" stop-color="#1f2042" stop-opacity="0.5"/>
        </linearGradient>
        <linearGradient id="09949284-d730-4aac-95c2-41c19d9505e4" x1="355.09" y1="69.22" x2="442.04" y2="69.22" gradientUnits="userSpaceOnUse">
            <stop offset="0" stop-color="#00d9ff" stop-opacity="0.2"/>
            <stop offset="1" stop-color="#00d9ff" stop-opacity="0.7"/>
        </linearGradient>
        <linearGradient id="968c5fb4-9d73-4752-95b8-d333f4642ad7" x1="375.83" y1="96.13" x2="434.3" y2="96.13" gradientUnits="userSpaceOnUse">
            <stop offset="0" stop-color="#3a3b59" stop-opacity="0.9"/>
            <stop offset="1" stop-color="#1f2042" stop-opacity="0.6"/>
        </linearGradient>
        <linearGradient id="acc4d55f-5b8b-4427-8e0f-823d03cc0def" x1="364.37" y1="69.05" x2="438.57" y2="69.05" gradientUnits="userSpaceOnUse">
            <stop offset="0" stop-color="#fff" stop-opacity="0"/>
            <stop offset="1" stop-color="#fff" stop-opacity="0.6"/>
        </linearGradient>
        <clipPath id="227f8966-1b24-4911-b8aa-5e551b1e4cff">
            <path d="M792.05,110.53c115.24-63.94,289.4,34,297.17,116.26,10.35,109.42-267.58,256.56-357.73,187.15-46.91-36.12-36.94-126.25-35-143.85C697.63,259.87,710.71,155.67,792.05,110.53Z" style="fill:none"/>
        </clipPath>
        <radialGradient id="e0a41bdb-986e-4f3b-af5f-644bbc79df8f" cx="3282.59" cy="251.18" r="184.01" gradientTransform="matrix(-1, 0, 0, 1, 4152.54, 0)" xlink:href="#81dae4c9-71bc-4549-88c6-6a0536f444a3"/>
        <radialGradient id="008e2720-bc7f-42cd-ab85-3704631f1b4c" cx="859.36" cy="263.83" r="231.56" xlink:href="#8648c8e2-887f-4206-a148-ab50eb801d8f"/>
    </defs>
    <title>ecosystem-2</title>
    <!-- <path d="M137,63.76c-88.38,49-158.15,169-123.2,265.43,2.91,8.05,28.12,74.45,91.61,96.68,107.32,37.58,190.27-98.7,324.72-64.67,50.49,12.78,73.53,40.43,97.57,26.5,36-20.87,32.68-112,4.8-174.44C476.41,87.61,279.62-15.27,137,63.76Z" style="fill:#0030ff;opacity:0.05"/> -->
    <rect x="408.01" y="16.56" width="12.81" height="12.81" style="fill:#ff22ae;opacity:0.1"/>
    <rect x="403.35" y="11.9" width="22.13" height="22.13" style="fill:#ff22ae;opacity:0.05"/>
    <rect x="398.48" y="7.03" width="31.87" height="31.87" style="fill:#ff22ae;opacity:0.05"/>
    <path d="M176.3,105C278.8,52.21,419.12,121.25,472.24,220.8,502,276.53,518,368.75,473.87,413c-39.38,39.5-113,21.61-260.12-14.16-111.67-27.14-126.86-47.17-132.6-56.28C40.76,278.51,87.23,150.93,176.3,105Z" style="fill:#1f2042"/>
    <path d="M176.3,105C278.8,52.21,419.12,121.25,472.24,220.8,502,276.53,518,368.75,473.87,413c-39.38,39.5-113,21.61-260.12-14.16-111.67-27.14-126.86-47.17-132.6-56.28C40.76,278.51,87.23,150.93,176.3,105Z" style="fill:url(#cac6948d-0186-496f-bce0-7922c45aadd5)"/>
    <rect x="213.6" y="192.8" width="12.11" height="12.11" style="fill:#ff00a6;opacity:0.1"/>
    <g style="clip-path:url(#e73dd6af-4f78-4e4d-9cd2-376ad9c90488)">
        <path d="M513.21,109.21C472.36,97.92,454,137.85,384.8,135.67,331.18,134,320.32,109.37,275.1,117S229,151,189.27,158.9c-62.63,12.48-89.86-47.46-150.35-44.52C-28.21,117.63-99.71,196.53-88.85,248c14.49,68.6,174.58,83.78,257.47,91.64,117.4,11.13,387.84,14.74,420.74-89C605.82,198.58,561.85,122.66,513.21,109.21Z" style="fill:url(#eea83a8b-1c27-419c-b2c0-a816ef10a416)"/>
        <path d="M22,199.56C62.83,188.27,81.15,228.19,150.39,226c53.62-1.68,64.48-26.3,109.7-18.71s46.14,34,85.83,41.94c62.63,12.49,89.86-47.46,150.35-44.52C563.4,208,634.9,286.88,624,338.3c-14.49,68.59-174.58,83.77-257.47,91.63-117.4,11.13-387.84,14.75-420.74-89.05C-70.63,288.92-26.66,213,22,199.56Z" style="fill:url(#a98650d2-be95-4a8b-9469-0b80ac38e9c8)"/>
        <path d="M-386.54,138.93C-319.15,150.26-223,240.44-120.26,264.84c20.36,4.83,68.55,15.67,124.26-.4a215.29,215.29,0,0,0,33.1-12.6c75.26,21.32,101.45,15.5,109.33,3.46,2.54-3.87,2.6-7.48,6.74-11.65,16.18-16.29,55.62-1.82,68.51,3.07,69.11,26.17,73.47,73.09,117.08,78.86,61.06,8.09,92.35-39.88,144.33-49.93,59.23-11.46,152.71,10.79,295.81,178.88H-807.5C-610.07,175.17-476.23,123.85-386.54,138.93Z" style="fill:#1f2042"/>
        <path d="M-386.54,138.93C-319.15,150.26-223,240.44-120.26,264.84c20.36,4.83,68.55,15.67,124.26-.4a215.29,215.29,0,0,0,33.1-12.6c75.26,21.32,101.45,15.5,109.33,3.46,2.54-3.87,2.6-7.48,6.74-11.65,16.18-16.29,55.62-1.82,68.51,3.07,69.11,26.17,73.47,73.09,117.08,78.86,61.06,8.09,92.35-39.88,144.33-49.93,59.23-11.46,152.71,10.79,295.81,178.88H-807.5C-610.07,175.17-476.23,123.85-386.54,138.93Z" style="fill:url(#81dae4c9-71bc-4549-88c6-6a0536f444a3)"/>
        <path d="M-177.23,246.86c13.88,18.48,28.32,28,37.86,33,44.29,23.24,96.42,8.77,132.77-1.23,20.91-5.76,16.28-6.71,29.5-9.45,50.08-10.38,74.18,11.94,114.56-1.72a54.19,54.19,0,0,0,12.43-5.68c5.24-3.37,7.75-5.71,9.71-7.12,12.85-9.21,46.59,1.06,54,20.77,1.94,5.18.31,6.36,1.51,10.91,6.72,25.62,66.16,18.33,80.37,42.24,11.26,19-8.59,53.11-23.75,71.25-83.51,99.89-307.79,36.95-367.83,20.1-56.2-15.77-173.43-49.58-173.25-98.35C-269.26,286.71-209.25,259.37-177.23,246.86Z" style="fill:url(#1c998a39-f068-4d27-b964-437f6869ddd8)"/>
        <polygon points="-190.6 300.13 -80.57 359.87 18.98 303.24 204.17 326.5 173.84 243.01 163.79 211.35 158.31 227.18 150.62 196.19 144 243.01 140.04 211.35 133.88 258.9 128.62 231.57 122.23 265.37 113.7 204.45 104.27 261.11 99.39 242.52 91.48 270.25 84.17 232.27 76.86 269.94 73.51 249.72 67.42 274.44 64.07 246.25 59.35 269.33 54.77 261.72 49.06 274.44 46.27 233.26 40.92 274.44 35.57 252.47 29.56 283.64 23.57 239.16 18.17 274.44 13.22 257.03 6.83 281.2 0.74 233.26 -4.74 270.55 -10.53 252.47 -16.92 274.44 -20.58 236.56 -26.59 269.33 -32.56 252.47 -37.32 268.72 -42.5 257.03 -48.71 267.79 -56.2 242.03 -63.2 272.38 -68.08 251.34 -74.61 269.21 -81.17 227.92 -89.39 269.21 -96.39 250.89 -100.47 269.21 -106.14 228.23 -113.14 258.43 -121.21 244.45 -128.78 257.56 -133.85 226.7 -141.46 257.18 -146.94 235.91 -190.6 300.13" style="fill:#1f2042"/>
        <polygon points="-190.6 300.13 -80.57 359.87 18.98 303.24 204.17 326.5 173.84 243.01 163.79 211.35 158.31 227.18 150.62 196.19 144 243.01 140.04 211.35 133.88 258.9 128.62 231.57 122.23 265.37 113.7 204.45 104.27 261.11 99.39 242.52 91.48 270.25 84.17 232.27 76.86 269.94 73.51 249.72 67.42 274.44 64.07 246.25 59.35 269.33 54.77 261.72 49.06 274.44 46.27 233.26 40.92 274.44 35.57 252.47 29.56 283.64 23.57 239.16 18.17 274.44 13.22 257.03 6.83 281.2 0.74 233.26 -4.74 270.55 -10.53 252.47 -16.92 274.44 -20.58 236.56 -26.59 269.33 -32.56 252.47 -37.32 268.72 -42.5 257.03 -48.71 267.79 -56.2 242.03 -63.2 272.38 -68.08 251.34 -74.61 269.21 -81.17 227.92 -89.39 269.21 -96.39 250.89 -100.47 269.21 -106.14 228.23 -113.14 258.43 -121.21 244.45 -128.78 257.56 -133.85 226.7 -141.46 257.18 -146.94 235.91 -190.6 300.13" style="opacity:0.2;fill:url(#593a4ba2-e9f6-414d-8a48-35b1c694f673)"/>
        <path d="M-878.07,443.65C-758.48,501.32-594.71,554-407.76,529.77c65.15-8.45,63.22-17.17,141.24-30.66,90.57-15.67,88.42-.72,145.94-13.2,8.54-1.85,27.18-6.22,31.55.82,4.61,7.42-10.41,21.59-6.94,26.32,6.25,8.48,60.05-22.27,60.3-22.42h0c237.69,15.95,329.22,29.17,343,40.07,1.38,1.1,9.34,8,20.87,9,14.09,1.21,25.2-7.16,29.31-9.92,29.38-19.74,70.21-.49,139.38-3.72,27.48-1.28,40.66-5.23,68.76-10.22,38.75-6.88,93.12-13.46,167.11-14.25q29-.33,62,.66c-2.46-1.93-6.71-5.23-12.48-9.54a443.71,443.71,0,0,0-95.82-22.4C599,460,565.91,483.09,496.88,461.94c-66.22-20.29-51.85-46.46-108.72-60.4-78-19.13-115,27.72-226.73,18.58-38.16-3.12-61.52-10.84-81.77-15.79-155-37.93-342.41,33.75-412.58,55.75l-.5.16c-113.18,35.39-286.44,56.07-543.44-18.09Z" style="fill:#fff"/>
        <path d="M-878.07,443.65C-758.48,501.32-594.71,554-407.76,529.77c65.15-8.45,63.22-17.17,141.24-30.66,90.57-15.67,88.42-.72,145.94-13.2,8.54-1.85,27.18-6.22,31.55.82,4.61,7.42-10.41,21.59-6.94,26.32,6.25,8.48,60.05-22.27,60.3-22.42h0c237.69,15.95,329.22,29.17,343,40.07,1.38,1.1,9.34,8,20.87,9,14.09,1.21,25.2-7.16,29.31-9.92,29.38-19.74,70.21-.49,139.38-3.72,27.48-1.28,40.66-5.23,68.76-10.22,38.75-6.88,93.12-13.46,167.11-14.25q29-.33,62,.66c-2.46-1.93-6.71-5.23-12.48-9.54a443.71,443.71,0,0,0-95.82-22.4C599,460,565.91,483.09,496.88,461.94c-66.22-20.29-51.85-46.46-108.72-60.4-78-19.13-115,27.72-226.73,18.58-38.16-3.12-61.52-10.84-81.77-15.79-155-37.93-342.41,33.75-412.58,55.75l-.5.16c-113.18,35.39-286.44,56.07-543.44-18.09Z" style="fill:none;stroke:#000;stroke-miterlimit:10"/>
        <path d="M221.58,313.77a2.11,2.11,0,0,1,1.73-.64,1.44,1.44,0,0,1,1,.64c.6,1.27-3.7,3.07-5,6.51-1.37,3.64,1.81,6,1.12,9-.6,2.62-4.1,5.46-15.82,7.08l-4.52-3.23c8.38-1.54,11.4-4.55,12.58-7.09,1.28-2.75.63-5.45,2.91-8.39A11.81,11.81,0,0,1,221.58,313.77Z" style="fill:url(#05dad171-0fc5-4fbe-b8f6-2c77c9a7299b)"/>
        <path d="M-876.86,442.15c257,74.16,430.26,53.48,543.44,18.09l.5-.16c70.17-22,257.58-93.68,412.58-55.75,14.52,3.55,30.64,8.52,52.66,12.2,14.81,2.48,25.65,3.27,29.11,3.59C214.14,425,315.33,461.05,387.86,477c9.2,2,20.5,4.29,32.27-.65,19.67-8.26,21-28.44,36.31-32.78,14.71-4.17,26.92,14.19,40.44,18.33,69,21.15,102.08-2,189.56,8.36a443.71,443.71,0,0,1,95.82,22.4c-21.57-16.09-64.14-46.09-111.38-69.79-27.43-13.76-56.43-25.4-83.81-31-11.74-2.38-33,1.62-58.74-7.81-57.3-21-54.76-65.6-96.23-85.86-62.78-30.68-108.65,52.08-206.58,30.12-40-9-46.15-25.85-105.1-37.53a357,357,0,0,0-96.9-5.81c-25.4,2.07-45.09,6.68-61.56,12.55-45.9,16.35-72,32.87-96.33,46-55,29.7-108.19,32.86-146.93,35.16-83.36,4.95-99.27-24.48-261.51-52.72-55.06-9.58-83.15-14.32-110.46-11.76-96.31,9.05-163.69,67.79-187.11,88.61a280.82,280.82,0,0,0-20,20C-866.92,430-872.41,436.54-876.86,442.15Z" style="fill:#1f2042"/>
        <path d="M-876.86,442.15c257,74.16,430.26,53.48,543.44,18.09l.5-.16c70.17-22,257.58-93.68,412.58-55.75,14.52,3.55,30.64,8.52,52.66,12.2,14.81,2.48,25.65,3.27,29.11,3.59C214.14,425,315.33,461.05,387.86,477c9.2,2,20.5,4.29,32.27-.65,19.67-8.26,21-28.44,36.31-32.78,14.71-4.17,26.92,14.19,40.44,18.33,69,21.15,102.08-2,189.56,8.36a443.71,443.71,0,0,1,95.82,22.4c-21.57-16.09-64.14-46.09-111.38-69.79-27.43-13.76-56.43-25.4-83.81-31-11.74-2.38-33,1.62-58.74-7.81-57.3-21-54.76-65.6-96.23-85.86-62.78-30.68-108.65,52.08-206.58,30.12-40-9-46.15-25.85-105.1-37.53a357,357,0,0,0-96.9-5.81c-25.4,2.07-45.09,6.68-61.56,12.55-45.9,16.35-72,32.87-96.33,46-55,29.7-108.19,32.86-146.93,35.16-83.36,4.95-99.27-24.48-261.51-52.72-55.06-9.58-83.15-14.32-110.46-11.76-96.31,9.05-163.69,67.79-187.11,88.61a280.82,280.82,0,0,0-20,20C-866.92,430-872.41,436.54-876.86,442.15Z" style="opacity:0.9;fill:url(#fdab0006-0cfa-4458-a87c-3b56c6db59c6)"/>
        <path d="M-876.86,442.15c257,74.16,430.26,53.48,543.44,18.09l.5-.16c70.17-22,257.58-93.68,412.58-55.75,14.52,3.55,30.64,8.52,52.66,12.2,14.81,2.48,25.65,3.27,29.11,3.59C214.14,425,315.33,461.05,387.86,477c9.2,2,20.5,4.29,32.27-.65,19.67-8.26,21-28.44,36.31-32.78,14.71-4.17,26.92,14.19,40.44,18.33,69,21.15,102.08-2,189.56,8.36a443.71,443.71,0,0,1,95.82,22.4c-21.57-16.09-64.14-46.09-111.38-69.79-27.43-13.76-56.43-25.4-83.81-31-11.74-2.38-33,1.62-58.74-7.81-57.3-21-54.76-65.6-96.23-85.86-62.78-30.68-108.65,52.08-206.58,30.12-40-9-46.15-25.85-105.1-37.53a357,357,0,0,0-96.9-5.81c-25.4,2.07-45.09,6.68-61.56,12.55-45.9,16.35-72,32.87-96.33,46-55,29.7-108.19,32.86-146.93,35.16-83.36,4.95-99.27-24.48-261.51-52.72-55.06-9.58-83.15-14.32-110.46-11.76-96.31,9.05-163.69,67.79-187.11,88.61a280.82,280.82,0,0,0-20,20C-866.92,430-872.41,436.54-876.86,442.15Z" style="fill:url(#7741cfef-af33-4205-bb7b-bbc9e3fabdda)"/>
        <path d="M-876.86,442.15c257,74.16,430.26,53.48,543.44,18.09l.5-.16c70.17-22,257.58-93.68,412.58-55.75,14.52,3.55,30.64,8.52,52.66,12.2,14.81,2.48,25.65,3.27,29.11,3.59C214.14,425,315.33,461.05,387.86,477c9.2,2,20.5,4.29,32.27-.65,19.67-8.26,21-28.44,36.31-32.78,14.71-4.17,26.92,14.19,40.44,18.33,69,21.15,102.08-2,189.56,8.36a443.71,443.71,0,0,1,95.82,22.4c-21.57-16.09-64.14-46.09-111.38-69.79-27.43-13.76-56.43-25.4-83.81-31-11.74-2.38-33,1.62-58.74-7.81-57.3-21-54.76-65.6-96.23-85.86-62.78-30.68-108.65,52.08-206.58,30.12-40-9-46.15-25.85-105.1-37.53a357,357,0,0,0-96.9-5.81c-25.4,2.07-45.09,6.68-61.56,12.55-45.9,16.35-72,32.87-96.33,46-55,29.7-108.19,32.86-146.93,35.16-83.36,4.95-99.27-24.48-261.51-52.72-55.06-9.58-83.15-14.32-110.46-11.76-96.31,9.05-163.69,67.79-187.11,88.61a280.82,280.82,0,0,0-20,20C-866.92,430-872.41,436.54-876.86,442.15Z" style="fill:#1f2042"/>
        <path d="M-876.86,442.15c257,74.16,430.26,53.48,543.44,18.09l.5-.16c70.17-22,257.58-93.68,412.58-55.75,14.52,3.55,30.64,8.52,52.66,12.2,14.81,2.48,25.65,3.27,29.11,3.59C214.14,425,315.33,461.05,387.86,477c9.2,2,20.5,4.29,32.27-.65,19.67-8.26,21-28.44,36.31-32.78,14.71-4.17,26.92,14.19,40.44,18.33,69,21.15,102.08-2,189.56,8.36a443.71,443.71,0,0,1,95.82,22.4c-21.57-16.09-64.14-46.09-111.38-69.79-27.43-13.76-56.43-25.4-83.81-31-11.74-2.38-33,1.62-58.74-7.81-57.3-21-54.76-65.6-96.23-85.86-62.78-30.68-108.65,52.08-206.58,30.12-40-9-46.15-25.85-105.1-37.53a357,357,0,0,0-96.9-5.81c-25.4,2.07-45.09,6.68-61.56,12.55-45.9,16.35-72,32.87-96.33,46-55,29.7-108.19,32.86-146.93,35.16-83.36,4.95-99.27-24.48-261.51-52.72-55.06-9.58-83.15-14.32-110.46-11.76-96.31,9.05-163.69,67.79-187.11,88.61a280.82,280.82,0,0,0-20,20C-866.92,430-872.41,436.54-876.86,442.15Z" style="opacity:0.9;fill:url(#8648c8e2-887f-4206-a148-ab50eb801d8f)"/>
        <path d="M364.82,471.56c-8.89-2.24-18.06-4.68-27.39-7.24-63.69-17.45-134.72-40.39-176-44.2-3.46-.32-14.3-1.11-29.11-3.59-22-3.68-38.14-8.65-52.66-12.21A361.21,361.21,0,0,0,40.12,397c104.94,10,141.07,3.64,144.47-9,2.42-9-11.88-20.59-27.17-31.85-17.21-12.68-35.67-24.95-32.84-32.68,3.9-10.65,45.84-6,99.05,4.53h0l1.85.43c2.93.66,5.82,1.22,8.66,1.7h.08c46.21,7.72,80.56-7.87,111-21.51-29.76,19.6-61.8,46.27-57.43,71,3.67,20.77,30.61,26.26,51.7,42.9a66.49,66.49,0,0,1,16.06,17.75C360.45,448.25,364.05,458.41,364.82,471.56Z" style="fill:url(#f74b86cb-6e58-4824-9628-b7943655ca41)"/>
        <path d="M234.18,330.11c-2.84-.48-5.73-1-8.66-1.7l-1.85-.43Q228.86,329,234.18,330.11Z" style="fill:url(#d78d5f98-0739-4ed5-b723-ba15bc8edc2f)"/>
    </g>
    <rect x="215.87" y="195.07" width="7.57" height="7.57" style="fill:#ff00a6;opacity:0.1"/>
    <line x1="222.33" y1="291.89" x2="407.14" y2="194.56" style="fill:none;stroke:#fff;stroke-miterlimit:10;stroke-width:3px;stroke-dasharray:10"/>
    <path d="M486.38,244.66a121.85,121.85,0,0,0-14-10.5c-6.62-4.4-17.91-11.92-30.14-12.48-10.43-.48-13.53,3.71-28,10-25.93,11.35-44.26,3.13-45.67,8.53S394,261.75,424,261c17.89-.48,24.06-6.62,47.06-8.06a142.14,142.14,0,0,1,38.5,2.88C498.07,253,490.84,248.35,486.38,244.66Z" style="fill:url(#c2a5c2eb-4191-4d3f-b222-fadd962eae39)"/>
    <path d="M121.92,133.48c.65-.08,1.43-.17,2.37-.24,0,0,1.49-.11,3-.12,10.09,0,23.12,8.36,23.12,8.36,13.83,8.9,26.5-3.51,52.27.65,22.42,3.61,39.94,17.36,38.72,21.29-1.09,3.51-19.09-4.65-40.65,3.23-17,6.22-17,15.38-29,16.77-16.75,1.94-21.2-15.3-47.75-23.23-22.53-6.72-37.77-.13-39.17-5.09C82.63,147.48,119,133.84,121.92,133.48Z" style="fill:url(#73658a80-1c06-4b9e-9602-218fe6afe0b1)"/>
    <line x1="224.09" y1="305.28" x2="407.14" y2="209.4" style="fill:none;stroke:#fff;stroke-miterlimit:10;stroke-width:6px;stroke-dasharray:17"/>
    <line x1="222.33" y1="241.56" x2="407.14" y2="144.23" style="fill:none;stroke:#fff;stroke-miterlimit:10;stroke-width:3px;stroke-dasharray:10"/>
    <line x1="224.09" y1="254.94" x2="407.14" y2="159.07" style="fill:none;stroke:#fff;stroke-miterlimit:10;stroke-width:6px;stroke-dasharray:17"/>
    <polyline points="222.84 210.45 222.84 205.11 221.88 205.11 221.88 210.44" style="fill:url(#d6590000-33ca-491e-a73a-3f76e9660359)"/>
    <polyline points="220.17 210.45 220.17 199.62 219.22 199.62 219.22 210.44" style="stroke:#000;stroke-miterlimit:10;fill:url(#6973af33-747c-485b-b9e3-349fc294ad40)"/>
    <rect x="218.49" y="197.69" width="2.37" height="2.37" style="fill:#ff00a6"/>
    <rect x="221.57" y="226.91" width="2.74" height="86.8" style="fill:url(#c2e0723b-0afb-4fcb-9996-edd4fa7ec292)"/>
    <rect x="221.57" y="226.91" width="2.74" height="86.8" style="fill:url(#ce2aebd4-d66b-4e73-b537-94060d7987ad)"/>
    <rect x="221.57" y="226.91" width="2.74" height="86.8" style="fill:url(#1491b6d3-c8d9-4cdd-843e-1edfb4e83c81)"/>
    <polygon points="235.44 225.22 237.02 227.57 245.57 212.75 244.01 210.41 243.99 210.41 235.45 225.22 235.44 225.22" style="fill:#1f2042"/>
    <polygon points="235.44 225.22 237.02 227.57 245.57 212.75 244.01 210.41 243.99 210.41 235.45 225.22 235.44 225.22" style="fill:url(#2f0e93ec-1a8c-4e90-98d5-99d74321228b)"/>
    <polygon points="208.38 225.22 235.44 225.22 237.02 227.57 237.02 227.58 224.31 227.58 221.57 227.58 209.91 227.58 208.37 225.23 208.38 225.22" style="fill:#1f2042"/>
    <polygon points="208.38 225.22 235.44 225.22 237.02 227.57 237.02 227.58 224.31 227.58 221.57 227.58 209.91 227.58 208.37 225.23 208.38 225.22" style="fill:url(#d55376bb-307f-4aa1-8fe9-eb229c9c44c3)"/>
    <polygon points="208.38 225.22 235.45 225.22 243.99 210.41 234.95 210.42 225.91 210.43 225.91 210.43 222.84 210.43 221.88 210.43 220.17 210.43 219.22 210.43 216.92 210.43 213.53 216.3 216.92 210.43 214.15 215.24 211.37 220.05 208.38 225.22" style="fill:#1f2042"/>
    <polygon points="208.38 225.22 235.45 225.22 243.99 210.41 234.95 210.42 225.91 210.43 225.91 210.43 222.84 210.43 221.88 210.43 220.17 210.43 219.22 210.43 216.92 210.43 213.53 216.3 216.92 210.43 214.15 215.24 211.37 220.05 208.38 225.22" style="fill:url(#a42b7814-4af1-4369-ad9e-c344f116f7b5)"/>
    <polyline points="235.5 227.58 234.04 230.1 213 230.1 211.54 227.58" style="fill:#1f2042"/>
    <polyline points="235.5 227.58 234.04 230.1 213 230.1 211.54 227.58" style="fill:url(#7c620aba-cbde-47ee-8f41-8facda86fdca)"/>
    <path d="M225.31,222.76H209.8l.69-1.2H226m14.19-4.49h-8.45l-.69,1.2h8.45m-14.67-5.54H215.6l-.7,1.2h9.23m-1.65,3.14h-2.95l-.69,1.2h2.95M234,212.73h-2.95l-.69,1.2h2.95m2.26,7.63h-2.95l-.69,1.2h2.95" style="fill:url(#165fb7ef-d3cb-4f7a-aa2b-3a89e14206ac)"/>
    <path d="M409.48,302.48c6.9,4,16.08,10.82,20.65,21.94,6.05,14.74-.27,26.62,0,36.78.4,15.35,16.06,36.22,82.6,60.66a21,21,0,0,1-18.07,29c-71.11-45.37-84.47-72-80.66-88.41,2.13-9.19,10.92-20.62,7.1-35.49-2.86-11.08-11.3-18.59-18.07-23.23a7.37,7.37,0,0,1,2.58-1.29A7.5,7.5,0,0,1,409.48,302.48Z" style="fill-opacity:0.9;fill:url(#f6f93ba9-b316-4330-aed3-c6afc54779c4)"/>
    <g id="3fe8ac87-d08a-46be-bcc7-4baf1be83700" data-name="&lt;Group&gt;">
        <polyline points="406.73 51.24 406.73 38.2 409.06 38.2 409.06 51.2" style="fill:#1f2042"/>
        <polyline points="406.73 51.24 406.73 38.2 409.06 38.2 409.06 51.2" style="fill:#1f2042"/>
        <polyline points="413.25 51.24 413.25 24.79 415.57 24.79 415.57 51.2" style="fill:#1f2042"/>
        <rect x="411.57" y="20.08" width="5.78" height="5.78" style="fill:#1f2042"/>
        <rect x="403.15" y="91.41" width="6.68" height="211.91" style="fill:#1f2042"/>
        <polygon points="375.98 87.3 372.1 93.04 351.24 56.86 355.05 51.14 355.09 51.14 375.93 87.3 375.98 87.3" style="fill:#1f2042"/>
        <polygon points="375.98 87.3 372.1 93.04 351.24 56.86 355.05 51.14 355.09 51.14 375.93 87.3 375.98 87.3" style="fill:#1f2042"/>
        <polygon points="442.04 87.3 375.98 87.3 372.1 93.04 372.1 93.05 403.15 93.05 409.83 93.05 438.28 93.05 442.05 87.32 442.04 87.3" style="fill:#1f2042"/>
        <polygon points="442.04 87.3 375.98 87.3 372.1 93.04 372.1 93.05 403.15 93.05 409.83 93.05 438.28 93.05 442.05 87.32 442.04 87.3" style="fill:#1f2042"/>
        <polygon points="442.04 87.3 375.93 87.3 355.09 51.14 377.16 51.16 399.23 51.18 399.23 51.18 406.73 51.18 409.06 51.19 413.25 51.19 415.57 51.19 421.17 51.2 429.45 65.52 421.17 51.2 427.95 62.93 434.74 74.67 442.04 87.3" style="fill:#1f2042"/>
        <polyline points="375.83 93.05 379.38 99.2 430.75 99.2 434.3 93.05" style="fill:#1f2042"/>
        <polyline points="375.83 93.05 379.38 99.2 430.75 99.2 434.3 93.05" style="fill:#1f2042"/>
        <path d="M399,78.37h37.87l1.69,2.93H400.7m-34.64-11h20.62L385,67.4H364.37m39.19-7.67H426.1l-1.69-2.92H401.88m7.41,13.52h7.21l-1.69-2.93H407.6m-26.44-7.67h7.21l-1.69-2.92h-7.2M377.33,81.3h7.21l-1.69-2.93h-7.2" style="fill:#1f2042"/>
        <polyline points="406.73 51.24 406.73 38.2 409.06 38.2 409.06 51.2" style="fill:url(#09ba8c2c-7306-402a-843a-944ac778e0b6)"/>
        <polyline points="406.73 51.24 406.73 38.2 409.06 38.2 409.06 51.2" style="fill:url(#09ba8c2c-7306-402a-843a-944ac778e0b6)"/>
        <polyline points="413.25 51.24 413.25 24.79 415.57 24.79 415.57 51.2" style="fill:url(#09ba8c2c-7306-402a-843a-944ac778e0b6)"/>
        <rect x="411.57" y="20.08" width="5.78" height="5.78" style="fill:url(#09ba8c2c-7306-402a-843a-944ac778e0b6)"/>
        <rect x="403.15" y="91.41" width="6.68" height="211.91" style="fill:url(#09ba8c2c-7306-402a-843a-944ac778e0b6)"/>
        <polygon points="375.98 87.3 372.1 93.04 351.24 56.86 355.05 51.14 355.09 51.14 375.93 87.3 375.98 87.3" style="fill:url(#09ba8c2c-7306-402a-843a-944ac778e0b6)"/>
        <polygon points="375.98 87.3 372.1 93.04 351.24 56.86 355.05 51.14 355.09 51.14 375.93 87.3 375.98 87.3" style="fill:url(#09ba8c2c-7306-402a-843a-944ac778e0b6)"/>
        <polygon points="442.04 87.3 375.98 87.3 372.1 93.04 372.1 93.05 403.15 93.05 409.83 93.05 438.28 93.05 442.05 87.32 442.04 87.3" style="fill:url(#09ba8c2c-7306-402a-843a-944ac778e0b6)"/>
        <polygon points="442.04 87.3 375.98 87.3 372.1 93.04 372.1 93.05 403.15 93.05 409.83 93.05 438.28 93.05 442.05 87.32 442.04 87.3" style="fill:url(#09ba8c2c-7306-402a-843a-944ac778e0b6)"/>
        <polygon points="442.04 87.3 375.93 87.3 355.09 51.14 377.16 51.16 399.23 51.18 399.23 51.18 406.73 51.18 409.06 51.19 413.25 51.19 415.57 51.19 421.17 51.2 429.45 65.52 421.17 51.2 427.95 62.93 434.74 74.67 442.04 87.3" style="fill:url(#09ba8c2c-7306-402a-843a-944ac778e0b6)"/>
        <polyline points="375.83 93.05 379.38 99.2 430.75 99.2 434.3 93.05" style="fill:url(#09ba8c2c-7306-402a-843a-944ac778e0b6)"/>
        <polyline points="375.83 93.05 379.38 99.2 430.75 99.2 434.3 93.05" style="fill:url(#09ba8c2c-7306-402a-843a-944ac778e0b6)"/>
        <path d="M399,78.37h37.87l1.69,2.93H400.7m-34.64-11h20.62L385,67.4H364.37m39.19-7.67H426.1l-1.69-2.92H401.88m7.41,13.52h7.21l-1.69-2.93H407.6m-26.44-7.67h7.21l-1.69-2.92h-7.2M377.33,81.3h7.21l-1.69-2.93h-7.2" style="fill:url(#09ba8c2c-7306-402a-843a-944ac778e0b6)"/>
        <polyline points="406.73 51.24 406.73 38.2 409.06 38.2 409.06 51.2" style="fill:#1f2042"/>
        <polyline points="406.73 51.24 406.73 38.2 409.06 38.2 409.06 51.2" style="fill:url(#7370dc84-d137-431d-b445-292d885f6cff)"/>
        <polyline points="413.25 51.24 413.25 24.79 415.57 24.79 415.57 51.2" style="fill:#1f2042"/>
        <rect x="411.57" y="20.08" width="5.78" height="5.78" style="fill:#ff00a6"/>
        <rect x="403.15" y="91.41" width="6.68" height="211.91" style="fill:url(#2352046c-df7a-4080-bddc-8fa730ed3b1f)"/>
        <polygon points="375.98 87.3 372.1 93.04 351.24 56.86 355.05 51.14 355.09 51.14 375.93 87.3 375.98 87.3" style="fill:#00d9ff"/>
        <polygon points="375.98 87.3 372.1 93.04 351.24 56.86 355.05 51.14 355.09 51.14 375.93 87.3 375.98 87.3" style="fill:url(#7770e270-4226-46d2-9d8a-fdcf6d0b05d7)"/>
        <polygon points="442.04 87.3 375.98 87.3 372.1 93.04 372.1 93.05 403.15 93.05 409.83 93.05 438.28 93.05 442.05 87.32 442.04 87.3" style="fill:#00d9ff"/>
        <polygon points="442.04 87.3 375.98 87.3 372.1 93.04 372.1 93.05 403.15 93.05 409.83 93.05 438.28 93.05 442.05 87.32 442.04 87.3" style="fill:url(#ca2d50c9-0daf-41ee-9e93-788bd1d68398)"/>
        <polygon points="442.04 87.3 375.93 87.3 355.09 51.14 377.16 51.16 399.23 51.18 399.23 51.18 406.73 51.18 409.06 51.19 413.25 51.19 415.57 51.19 421.17 51.2 429.45 65.52 421.17 51.2 427.95 62.93 434.74 74.67 442.04 87.3" style="fill:url(#09949284-d730-4aac-95c2-41c19d9505e4)"/>
        <polyline points="375.83 93.05 379.38 99.2 430.75 99.2 434.3 93.05" style="fill:#00d9ff"/>
        <polyline points="375.83 93.05 379.38 99.2 430.75 99.2 434.3 93.05" style="fill:url(#968c5fb4-9d73-4752-95b8-d333f4642ad7)"/>
        <path d="M399,78.37h37.87l1.69,2.93H400.7m-34.64-11h20.62L385,67.4H364.37m39.19-7.67H426.1l-1.69-2.92H401.88m7.41,13.52h7.21l-1.69-2.93H407.6m-26.44-7.67h7.21l-1.69-2.92h-7.2M377.33,81.3h7.21l-1.69-2.93h-7.2" style="fill:url(#acc4d55f-5b8b-4427-8e0f-823d03cc0def)"/>
    </g>
    <g style="clip-path:url(#227f8966-1b24-4911-b8aa-5e551b1e4cff)">
        <path d="M1440,144.77c-56.39,9.48-136.84,84.95-222.83,105.37-17,4-57.36,13.11-104-.34a180,180,0,0,1-27.7-10.54c-63,17.85-84.89,13-91.49,2.9-2.12-3.24-2.17-6.26-5.64-9.75-13.54-13.63-46.54-1.52-57.33,2.57-57.83,21.89-61.49,61.16-98,66-51.09,6.77-77.27-33.38-120.77-41.79-49.57-9.58-127.79,9-247.54,149.7H1792.28C1627.06,175.11,1515.06,132.16,1440,144.77Z" style="fill:#1f2042"/>
        <path d="M1440,144.77c-56.39,9.48-136.84,84.95-222.83,105.37-17,4-57.36,13.11-104-.34a180,180,0,0,1-27.7-10.54c-63,17.85-84.89,13-91.49,2.9-2.12-3.24-2.17-6.26-5.64-9.75-13.54-13.63-46.54-1.52-57.33,2.57-57.83,21.89-61.49,61.16-98,66-51.09,6.77-77.27-33.38-120.77-41.79-49.57-9.58-127.79,9-247.54,149.7H1792.28C1627.06,175.11,1515.06,132.16,1440,144.77Z" style="fill:url(#e0a41bdb-986e-4f3b-af5f-644bbc79df8f)"/>
        <path d="M1850.32,398.51c-215.06,62.06-360,44.76-454.76,15.14l-.42-.13c-58.72-18.41-215.55-78.39-345.25-46.66-12.16,3-25.64,7.14-44.07,10.22-12.82,2.14-22,2.78-24.36,3-47.93,4.63-87.86,83.29-155.79,96.05-3,.57-40.78,7.13-75.82-12.31-29.34-16.28-24.9-33.12-49.1-48.74-11.27-7.28-33.37-7.78-158.63,7a370.8,370.8,0,0,0-80.19,18.75c18.06-13.47,53.68-38.58,93.21-58.4,23-11.52,47.22-21.26,70.13-25.91,9.83-2,27.58,1.37,49.15-6.53,48-17.55,45.84-54.9,80.53-71.85,52.54-25.67,90.93,43.59,172.88,25.2,33.45-7.49,38.61-21.63,87.95-31.4a298.38,298.38,0,0,1,81.08-4.86c21.26,1.73,37.74,5.59,51.52,10.5,38.41,13.68,60.25,27.51,80.61,38.5,46.06,24.85,90.54,27.5,123,29.43,69.75,4.14,83.07-20.49,218.83-44.12,46.07-8,69.58-12,92.43-9.84,80.6,7.57,137,56.72,156.58,74.15a233,233,0,0,1,16.74,16.73C1842,388.35,1846.59,393.83,1850.32,398.51Z" style="fill:#1f2042"/>
        <path d="M1850.32,398.51c-215.06,62.06-360,44.76-454.76,15.14l-.42-.13c-58.72-18.41-215.55-78.39-345.25-46.66-12.16,3-25.64,7.14-44.07,10.22-12.82,2.14-22,2.78-24.36,3-47.93,4.63-87.86,83.29-155.79,96.05-3,.57-40.78,7.13-75.82-12.31-29.34-16.28-24.9-33.12-49.1-48.74-11.27-7.28-33.37-7.78-158.63,7a370.8,370.8,0,0,0-80.19,18.75c18.06-13.47,53.68-38.58,93.21-58.4,23-11.52,47.22-21.26,70.13-25.91,9.83-2,27.58,1.37,49.15-6.53,48-17.55,45.84-54.9,80.53-71.85,52.54-25.67,90.93,43.59,172.88,25.2,33.45-7.49,38.61-21.63,87.95-31.4a298.38,298.38,0,0,1,81.08-4.86c21.26,1.73,37.74,5.59,51.52,10.5,38.41,13.68,60.25,27.51,80.61,38.5,46.06,24.85,90.54,27.5,123,29.43,69.75,4.14,83.07-20.49,218.83-44.12,46.07-8,69.58-12,92.43-9.84,80.6,7.57,137,56.72,156.58,74.15a233,233,0,0,1,16.74,16.73C1842,388.35,1846.59,393.83,1850.32,398.51Z" style="opacity:0.9;fill:url(#008e2720-bc7f-42cd-ab85-3704631f1b4c)"/>
    </g>
</svg>