<svg id="e89c525d-9ca8-4c0d-9038-2b0e17f6dae1" data-name="Layer 1" xmlns="http://www.w3.org/2000/svg" xmlns:xlink="http://www.w3.org/1999/xlink" viewBox="0 0 3179.33 1091.8"><defs><clipPath id="20cdfa2b-59e2-4456-b96d-120980b3fd04"><path id="dc13dac0-a726-418a-ab66-58c4bf1cfe8b" data-name="H8" d="M923.67,8C1303.33-11.28,1338,136.29,1686.55,87.18c124.09-17.48,221.74-50.55,384-29a1339.23,1339.23,0,0,1,310,100c518.29,240.84,730.5,750.71,796,932L2.24,1088.27c2.08-124.36,20.59-323.09,114-544.06,49.47-117,102-241.21,219.84-346.55C526.37,27.6,767.27,15.94,923.67,8Z" style="fill:none"/></clipPath><radialGradient id="a7438fc0-e2d8-4e92-aec5-7d76b30cf985" cx="727.1" cy="339.42" r="2862.14" gradientTransform="matrix(-0.01, 1, -1.86, -0.01, 1362.35, -383.29)" gradientUnits="userSpaceOnUse"><stop offset="0" stop-color="#ff9d00"/><stop offset="0.77" stop-color="#ff00a6" stop-opacity="0.98"/></radialGradient><radialGradient id="2599e000-e2f7-49f9-b79b-75f25f10cc6e" cx="993.14" cy="489.56" r="952.36" gradientUnits="userSpaceOnUse"><stop offset="0" stop-color="#ffac26" stop-opacity="0.8"/><stop offset="1" stop-color="#fff" stop-opacity="0"/></radialGradient><radialGradient id="a5466147-c489-4903-b319-6430f3e6fce0" cx="943.16" cy="387.68" r="1002.02" gradientUnits="userSpaceOnUse"><stop offset="0.06" stop-color="#ff9d00"/><stop offset="1" stop-color="#ff00a6" stop-opacity="0.98"/></radialGradient><radialGradient id="ad5aded4-a1f0-4198-96e3-db01635352cd" cx="1199.21" cy="330.74" r="1765.79" gradientUnits="userSpaceOnUse"><stop offset="0" stop-color="#fff"/><stop offset="1" stop-color="#0095ff" stop-opacity="0.5"/></radialGradient><radialGradient id="1c5ac591-86e7-4e59-8b7a-666da58992fd" cx="1109.93" cy="308.52" r="2032.92" gradientUnits="userSpaceOnUse"><stop offset="0" stop-color="#ff9d00" stop-opacity="0.8"/><stop offset="1" stop-color="#ff9d00" stop-opacity="0"/></radialGradient><radialGradient id="251b7b33-86d4-476f-a427-427a1be0e36e" cx="1173.51" cy="444.53" r="2084.06" gradientUnits="userSpaceOnUse"><stop offset="0" stop-color="#fff" stop-opacity="0.2"/><stop offset="1" stop-color="#0095ff" stop-opacity="0.8"/></radialGradient><radialGradient id="0f1b12e0-acc5-4372-815a-8264b50c8a86" cx="1173.51" cy="444.53" r="2084.06" gradientUnits="userSpaceOnUse"><stop offset="0" stop-color="#ff9d00" stop-opacity="0.2"/><stop offset="1" stop-color="#ff9d00" stop-opacity="0.1"/></radialGradient><radialGradient id="a1aaa8ac-77dd-4b32-bee4-adead0d808e2" cx="890.92" cy="450.36" r="1456.02" gradientUnits="userSpaceOnUse"><stop offset="0" stop-color="#0f6" stop-opacity="0.55"/><stop offset="1" stop-color="#0f6" stop-opacity="0.28"/></radialGradient><radialGradient id="9fda5beb-62ce-452e-b55f-f23f6f603fc5" cx="952.85" cy="499.01" r="1354.57" gradientUnits="userSpaceOnUse"><stop offset="0" stop-color="#ff9d00" stop-opacity="0.5"/><stop offset="1" stop-color="#ff9d00" stop-opacity="0.3"/></radialGradient><linearGradient id="43f8220d-bf0d-4549-b32d-92854da5fa81" x1="730.37" y1="798.22" x2="846.13" y2="597.72" gradientUnits="userSpaceOnUse"><stop offset="0" stop-color="#1f2042" stop-opacity="0.4"/><stop offset="1" stop-color="#1f2042" stop-opacity="0.6"/></linearGradient><linearGradient id="5cdff772-f293-4d21-b97a-edb5b776e40d" x1="1005.77" y1="616.16" x2="1020.49" y2="590.67" xlink:href="#43f8220d-bf0d-4549-b32d-92854da5fa81"/><linearGradient id="24772eb1-b43e-49a6-a808-74a103332740" x1="1000.36" y1="537.73" x2="987.89" y2="622.71" gradientUnits="userSpaceOnUse"><stop offset="0" stop-color="#00b0ff" stop-opacity="0.6"/><stop offset="1" stop-color="#00b0ff" stop-opacity="0.2"/></linearGradient><linearGradient id="94a113d4-859e-4c45-a87f-d2e3f39833db" x1="991.2" y1="544.85" x2="981.98" y2="607.7" xlink:href="#24772eb1-b43e-49a6-a808-74a103332740"/><linearGradient id="7825a57e-1fcc-420b-b3f1-029482881433" x1="963.01" y1="527.67" x2="954.29" y2="587.12" xlink:href="#24772eb1-b43e-49a6-a808-74a103332740"/><linearGradient id="ea472dd7-2c3e-457e-a4fa-12b17281d709" x1="931.22" y1="522.74" x2="912.07" y2="653.17" xlink:href="#24772eb1-b43e-49a6-a808-74a103332740"/><linearGradient id="548e5d35-39e8-420e-9fbe-b81c7bbf13de" x1="908.66" y1="529.45" x2="886.81" y2="678.27" xlink:href="#24772eb1-b43e-49a6-a808-74a103332740"/><linearGradient id="879722c1-ed27-4a9a-a502-a529175ab900" x1="943.3" y1="616.61" x2="934.06" y2="679.61" gradientUnits="userSpaceOnUse"><stop offset="0" stop-color="#00b0ff" stop-opacity="0.2"/><stop offset="1" stop-color="#00b0ff" stop-opacity="0.6"/></linearGradient><linearGradient id="4b664a3f-7549-4aa1-b4b6-c5e7625a6b5e" x1="885.63" y1="506.18" x2="885.63" y2="646.54" xlink:href="#24772eb1-b43e-49a6-a808-74a103332740"/><linearGradient id="9ebd49da-ac54-47a5-9a7a-f432bcb133bf" x1="883.92" y1="507.93" x2="883.92" y2="668" xlink:href="#24772eb1-b43e-49a6-a808-74a103332740"/><linearGradient id="102206fd-5a1b-4da3-afe9-1d9704f8028c" x1="878.41" y1="551.8" x2="855.3" y2="709.3" xlink:href="#24772eb1-b43e-49a6-a808-74a103332740"/><linearGradient id="42e0092d-db55-4b2a-aa93-67ab8ef94a2f" x1="880.44" y1="555.67" x2="810.11" y2="518.33" xlink:href="#24772eb1-b43e-49a6-a808-74a103332740"/><linearGradient id="32da4312-df24-4cdd-9941-4baa4ed957dc" x1="850.59" y1="577.26" x2="822.59" y2="779.26" xlink:href="#24772eb1-b43e-49a6-a808-74a103332740"/><linearGradient id="84afaa92-ac50-4727-b3ae-f8772c8d8635" x1="843.72" y1="516.59" x2="783.22" y2="627.47" xlink:href="#24772eb1-b43e-49a6-a808-74a103332740"/><linearGradient id="122f2f41-6dc8-42c5-ae36-840881b45bfa" x1="839.42" y1="552.45" x2="839.42" y2="660.36" xlink:href="#24772eb1-b43e-49a6-a808-74a103332740"/><linearGradient id="6c9c10c9-2081-4ad7-bea4-dc440acf1002" x1="845.69" y1="643.81" x2="827.1" y2="777.95" xlink:href="#24772eb1-b43e-49a6-a808-74a103332740"/><linearGradient id="f5ff026f-7b14-4595-bf74-14409f4119b9" x1="817.64" y1="588.46" x2="760.98" y2="636.79" xlink:href="#24772eb1-b43e-49a6-a808-74a103332740"/><linearGradient id="c8da81e7-dd50-4123-ba43-0875ef7a6a19" x1="796.98" y1="554.67" x2="784.57" y2="644.2" xlink:href="#24772eb1-b43e-49a6-a808-74a103332740"/><linearGradient id="52e1ff80-f007-4df8-b96d-0a25ef221f02" x1="795.74" y1="550.11" x2="795.74" y2="717.74" xlink:href="#24772eb1-b43e-49a6-a808-74a103332740"/><linearGradient id="c55439e1-68b2-4f88-82b1-25e89a5a4ad2" x1="739.49" y1="550.69" x2="739.49" y2="724.84" xlink:href="#24772eb1-b43e-49a6-a808-74a103332740"/><linearGradient id="8c58df88-5111-4c64-b2cf-6f5b280284b2" x1="696.87" y1="580.17" x2="696.87" y2="725.74" gradientUnits="userSpaceOnUse"><stop offset="0" stop-color="#00b0ff" stop-opacity="0.1"/><stop offset="1" stop-color="#00b0ff" stop-opacity="0.3"/></linearGradient><linearGradient id="64d3e582-b201-4754-b8ef-2413f75f28f4" x1="720.64" y1="548.56" x2="709.9" y2="626.01" xlink:href="#879722c1-ed27-4a9a-a502-a529175ab900"/><linearGradient id="3492e878-0092-40c7-a3cd-f4c56a0ae3f9" x1="673.18" y1="556.31" x2="673.18" y2="707.64" xlink:href="#8c58df88-5111-4c64-b2cf-6f5b280284b2"/><linearGradient id="39e2e831-4c4f-48f7-909b-d424651a2d46" x1="744.38" y1="567.18" x2="732.12" y2="589.65" xlink:href="#879722c1-ed27-4a9a-a502-a529175ab900"/><linearGradient id="2d400c77-157a-42ca-8992-eb224e1b6388" x1="966.17" y1="516.49" x2="951.51" y2="616.37" xlink:href="#24772eb1-b43e-49a6-a808-74a103332740"/><linearGradient id="d6f697ca-c5fa-4d6f-918e-c5b6157bde8a" x1="811.6" y1="597.85" x2="793.01" y2="732" xlink:href="#24772eb1-b43e-49a6-a808-74a103332740"/><linearGradient id="d565591c-35db-4ffe-9bef-2b5ad2c1121a" x1="685.38" y1="608.66" x2="685.38" y2="709.22" xlink:href="#24772eb1-b43e-49a6-a808-74a103332740"/><linearGradient id="f9872c50-103d-4c65-aa4a-7aa8e292d05a" x1="673.18" y1="556.31" x2="673.18" y2="707.64" xlink:href="#24772eb1-b43e-49a6-a808-74a103332740"/><linearGradient id="a70f4204-dbf2-42c6-9fb7-4dce09f4868d" x1="958.59" y1="518.25" x2="942.76" y2="626.1" xlink:href="#24772eb1-b43e-49a6-a808-74a103332740"/><radialGradient id="21749743-04ac-407e-a0df-3525395cea82" cx="895.16" cy="418.67" r="377.98" xlink:href="#1c5ac591-86e7-4e59-8b7a-666da58992fd"/><radialGradient id="c9221132-886d-4b8e-a297-4cc59293d1b6" cx="994.95" cy="524.45" r="1005.76" gradientUnits="userSpaceOnUse"><stop offset="0" stop-color="#59ff9c" stop-opacity="0.1"/><stop offset="1" stop-color="#a1ffc6" stop-opacity="0"/></radialGradient><linearGradient id="92170e27-d14d-4439-a977-86619bd12217" x1="877.57" y1="651.34" x2="888.23" y2="672.67" gradientUnits="userSpaceOnUse"><stop offset="0" stop-color="#0f6" stop-opacity="0.5"/><stop offset="1" stop-color="#0f6" stop-opacity="0.77"/></linearGradient><radialGradient id="52a5e609-f11a-482c-9c1f-a06b09844977" cx="881.66" cy="456.17" r="274.55" xlink:href="#9fda5beb-62ce-452e-b55f-f23f6f603fc5"/><radialGradient id="dccdb4f6-8a2f-4bc5-9101-5b9a4a7a3db7" cx="1492.66" cy="690.28" r="1025.77" gradientTransform="matrix(-1.27, 0, 0, -0.42, 3228.71, 984.72)" gradientUnits="userSpaceOnUse"><stop offset="0" stop-color="#0f6" stop-opacity="0.6"/><stop offset="1" stop-color="#0f6" stop-opacity="0.3"/></radialGradient><radialGradient id="b001cc8a-9d19-49fb-9d8c-045bdff8c2f0" cx="1499.25" cy="531.57" r="1819.24" gradientTransform="translate(2997.7 759.56) rotate(-179.8) scale(1 0.42)" gradientUnits="userSpaceOnUse"><stop offset="0" stop-color="#0f6" stop-opacity="0.5"/><stop offset="1" stop-color="#0f6" stop-opacity="0.2"/></radialGradient><radialGradient id="e9f7e7cb-7624-45ad-b173-973f3d22512d" cx="1848.56" cy="650.96" r="1382.29" gradientTransform="translate(3696.13 930.2) rotate(-179.8) scale(1 0.42)" xlink:href="#b001cc8a-9d19-49fb-9d8c-045bdff8c2f0"/><radialGradient id="93d010da-2f02-48bf-b72b-0dc97b0dce52" cx="1090.92" cy="539.83" r="1435.82" gradientTransform="translate(2181.03 769.82) rotate(-179.8) scale(1 0.42)" xlink:href="#b001cc8a-9d19-49fb-9d8c-045bdff8c2f0"/><radialGradient id="c00ffff8-04a4-4ed3-8765-f4d336ca37b9" cx="1419.33" cy="1057.33" r="3.23" gradientTransform="translate(2837.06 1505.24) rotate(-179.8) scale(1 0.42)" xlink:href="#b001cc8a-9d19-49fb-9d8c-045bdff8c2f0"/></defs><title>footer</title><g style="clip-path:url(#20cdfa2b-59e2-4456-b96d-120980b3fd04)"><g id="9f69951a-d322-4320-bf3c-5654a8eb8d30" data-name="H8"><path d="M639.48-417.56c700.16,7.23,886.9,441.21,1463.88,306.67,153.53-35.8,284.59-100.18,528.77-100.23,167.11,0,413.07-.08,611.71,155.52C3551,185,3528.33,628,3517.42,841.4c-5.82,114-25.12,529.68-254.51,625-51.77,21.51-102.08,23.59-140.64,20.65-2059.38,2.82-3384.7,4.63-3385.58,4.62a5.89,5.89,0,0,0-1.49.13l-.21,0-.1,0-4,.78c-242.49,46.61-402.47-39.48-402.47-39.48-117-63-172.46-167.53-193.79-209.07-100.59-195.84-52.11-397-5.19-573.12C-839.65,555.1-756.65,258.16-499,3.16-92.23-399.45,468.83-419.32,639.48-417.56Z" style="fill:#1f2042"/><path d="M639.48-417.56c700.16,7.23,886.9,441.21,1463.88,306.67,153.53-35.8,284.59-100.18,528.77-100.23,167.11,0,413.07-.08,611.71,155.52C3551,185,3528.33,628,3517.42,841.4c-5.82,114-25.12,529.68-254.51,625-51.77,21.51-102.08,23.59-140.64,20.65-2059.38,2.82-3384.7,4.63-3385.58,4.62a5.89,5.89,0,0,0-1.49.13l-.21,0-.1,0-4,.78c-242.49,46.61-402.47-39.48-402.47-39.48-117-63-172.46-167.53-193.79-209.07-100.59-195.84-52.11-397-5.19-573.12C-839.65,555.1-756.65,258.16-499,3.16-92.23-399.45,468.83-419.32,639.48-417.56Z" style="fill:url(#a7438fc0-e2d8-4e92-aec5-7d76b30cf985)"/></g><path d="M2435.59,1058c-30,12.44-59.08,13.65-81.4,11.94L395,1072.58a3.65,3.65,0,0,0-.87.07l-.11,0h-.06l-2.3.45c-140.33,27-232.91-22.85-232.91-22.85C91,1013.84,58.89,953.34,46.55,929.3c-62.45-121.6-26.36-251.81-3-331.66,1.43-4.89,1.6-5.2,3.12-10.49,25.72-89.75,23.78-162,17.54-210.48,19.34-9.11,51.73-21.22,91-19.14,99.73,5.31,149.77,97.43,211.39,141.65,123.54,88.65,277.12-36.26,507.65-66.85,438.89-58.24,540.34,196.82,862.7,93.9,231.13-73.8,268.44-236,446.7-227.55,166.42,7.9,296.43,157,382.57,287.73a560.51,560.51,0,0,1,16.7,109.86C2588.35,810.39,2558.76,1006.78,2435.59,1058Z" style="fill:url(#2599e000-e2f7-49f9-b79b-75f25f10cc6e)"/><circle cx="944.04" cy="447.09" r="238.24" style="fill:#ffc261;opacity:0.1"/><circle cx="944.04" cy="447.09" r="343.06" style="fill:#ffc261;opacity:0.1"/><circle cx="944.04" cy="447.09" r="494" style="fill:#ffc261;opacity:0.1"/><circle cx="944.04" cy="447.09" r="165.44" style="fill:url(#a5466147-c489-4903-b319-6430f3e6fce0)"/><path d="M182.26,453.1C248,443,280.31,529,406.66,572.18c153,52.32,285-11.68,399.18-45.23,429.81-126.23,579,188.33,977.28,76.66,329.77-92.46,337-298.79,572-298.93,423.51-.27,845,716.93,719.47,870.5-70.94,86.78-284.92-45.09-639-137.22-1257.52-327.25-2256.84,426.87-2429,45.22C-100.85,845.14,51.3,473.15,182.26,453.1Z" style="fill:url(#ad5aded4-a1f0-4198-96e3-db01635352cd)"/><path d="M182.26,453.1C248,443,280.31,529,406.66,572.18c153,52.32,285-11.68,399.18-45.23,429.81-126.23,579,188.33,977.28,76.66,329.77-92.46,337-298.79,572-298.93,423.51-.27,845,716.93,719.47,870.5-70.94,86.78-284.92-45.09-639-137.22-1257.52-327.25-2256.84,426.87-2429,45.22C-100.85,845.14,51.3,473.15,182.26,453.1Z" style="fill:url(#1c5ac591-86e7-4e59-8b7a-666da58992fd)"/><path d="M212.55,591.18c78.66-21.13,120.47,64.08,242,72,79.8,5.2,91.69-29.59,233.05-76.25,208.51-68.82,368.31-54.7,412.81-49.31,13.33,1.62,221.94,27.94,224.58,80.17,3.25,64.35-292.73,106.77-288.25,139.25,6.14,44.53,591.24,165.05,968.93-111.86,157.57-115.53,184.64-115.15,294.88-132,435.69-66.6,927.56,445.34,860,582-38.14,77.16-226.43-22.34-725-57.22-685.37-48-1043.21,90.17-1967.9,90.17h0c-135.23-60.19-379-172-382.93-332.94C82.83,715.27,136.6,611.59,212.55,591.18Z" style="fill:url(#251b7b33-86d4-476f-a427-427a1be0e36e)"/><path d="M212.55,591.18c78.66-21.13,120.47,64.08,242,72,79.8,5.2,91.69-29.59,233.05-76.25,208.51-68.82,368.31-54.7,412.81-49.31,13.33,1.62,221.94,27.94,224.58,80.17,3.25,64.35-292.73,106.77-288.25,139.25,6.14,44.53,591.24,165.05,968.93-111.86,157.57-115.53,184.64-115.15,294.88-132,435.69-66.6,927.56,445.34,860,582-38.14,77.16-226.43-22.34-725-57.22-685.37-48-1043.21,90.17-1967.9,90.17h0c-135.23-60.19-379-172-382.93-332.94C82.83,715.27,136.6,611.59,212.55,591.18Z" style="fill:url(#0f1b12e0-acc5-4372-815a-8264b50c8a86)"/><path d="M344.69,1069.64c-16.49,3.27-124,23.07-186-39.35-94.77-95.42-14-313.33,85.72-344.62C290.06,671.34,312,704.79,381,719.06c145,30,228.27-80.52,396.86-139.06,225.89-78.44,470.19-16.21,474.29,29.16,4.62,51.15-273.24,100.57-267.22,155.18,8.77,79.5,611,64,612.85,108.94,1.06,26.39-206,47.09-204.63,61.36,2.13,22,497.08,10.6,501-42,1.6-21.62-81.14-36-78.59-47.64,4.13-18.77,233.67-39.31,348.89,96.87,43.94,51.93,57.66,110.58,62.69,145.05" style="fill:#1f2042"/><path d="M344.69,1069.64c-16.49,3.27-124,23.07-186-39.35-94.77-95.42-14-313.33,85.72-344.62C290.06,671.34,312,704.79,381,719.06c145,30,228.27-80.52,396.86-139.06,225.89-78.44,470.19-16.21,474.29,29.16,4.62,51.15-273.24,100.57-267.22,155.18,8.77,79.5,611,64,612.85,108.94,1.06,26.39-206,47.09-204.63,61.36,2.13,22,497.08,10.6,501-42,1.6-21.62-81.14-36-78.59-47.64,4.13-18.77,233.67-39.31,348.89,96.87,43.94,51.93,57.66,110.58,62.69,145.05" style="opacity:0.9;fill:url(#a1aaa8ac-77dd-4b32-bee4-adead0d808e2)"/><path d="M344.69,1069.64c-16.49,3.27-124,23.07-186-39.35-94.77-95.42-14-313.33,85.72-344.62C290.06,671.34,312,704.79,381,719.06c145,30,228.27-80.52,396.86-139.06,225.89-78.44,470.19-16.21,474.29,29.16,4.62,51.15-273.24,100.57-267.22,155.18,8.77,79.5,611,64,612.85,108.94,1.06,26.39-206,47.09-204.63,61.36,2.13,22,497.08,10.6,501-42,1.6-21.62-81.14-36-78.59-47.64,4.13-18.77,233.67-39.31,348.89,96.87,43.94,51.93,57.66,110.58,62.69,145.05" style="fill:url(#9fda5beb-62ce-452e-b55f-f23f6f603fc5)"/><path d="M2027.33,1086.93a257.93,257.93,0,0,1-21.78-15.89" style="fill:none;stroke:#000;stroke-miterlimit:10"/><path d="M593.88,664.36l-.33.21" style="fill:none;stroke:#000;stroke-miterlimit:10"/><polygon points="1040.86 582.21 1016.62 568.22 982.6 517.5 969.24 525.21 952.11 501.4 939.83 564.38 915.25 549.67 901.97 509.85 869.29 493.72 869.29 530.75 853.05 521.37 839.19 504.48 818.73 542.87 824.34 593.56 807.95 585.91 790.08 549.67 769.37 535.23 750.21 568.41 729.25 567.25 729.25 578.97 729.25 606.21 704.83 542.87 670.27 578.2 641.52 712.38 709.61 730.29 796.76 717.12 1032.69 598.71 1040.86 582.21" style="fill:#0095ff"/><polygon points="1040.86 582.21 1016.62 568.22 982.6 517.5 969.24 525.21 952.11 501.4 939.83 564.38 915.25 549.67 901.97 509.85 869.29 493.72 869.29 530.75 853.05 521.37 839.19 504.48 818.73 542.87 824.34 593.56 807.95 585.91 790.08 549.67 769.37 535.23 750.21 568.41 729.25 567.25 729.25 578.97 729.25 606.21 704.83 542.87 670.27 578.2 641.52 712.38 709.61 730.29 796.76 717.12 1032.69 598.71 1040.86 582.21" style="fill:#00178a"/><polygon points="1040.86 582.21 1016.62 568.22 982.6 517.5 969.24 525.21 952.11 501.4 939.83 564.38 915.25 549.67 901.97 509.85 869.29 493.72 869.29 530.75 853.05 521.37 839.19 504.48 818.73 542.87 824.34 593.56 807.95 585.91 790.08 549.67 769.37 535.23 750.21 568.41 729.25 567.25 729.25 578.97 729.25 606.21 704.83 542.87 670.27 578.2 641.52 712.38 709.61 730.29 796.76 717.12 1032.69 598.71 1040.86 582.21" style="fill:url(#43f8220d-bf0d-4549-b32d-92854da5fa81)"/><polygon points="1040.86 582.21 1032.68 598.71 1006.19 612.01 1016.62 568.21 1040.86 582.21" style="fill:#0095ff"/><polygon points="1040.86 582.21 1032.68 598.71 1006.19 612.01 1016.62 568.21 1040.86 582.21" style="fill:#00178a"/><polygon points="1040.86 582.21 1032.68 598.71 1006.19 612.01 1016.62 568.21 1040.86 582.21" style="fill:url(#5cdff772-f293-4d21-b97a-edb5b776e40d)"/><polygon points="1016.62 568.21 1006.19 612.01 982.6 517.5 1016.62 568.21" style="fill:#0095ff"/><polygon points="1016.62 568.21 1006.19 612.01 982.6 517.5 1016.62 568.21" style="fill:#00178a"/><polygon points="1016.62 568.21 1006.19 612.01 982.6 517.5 1016.62 568.21" style="fill:url(#24772eb1-b43e-49a6-a808-74a103332740)"/><polygon points="1006.19 612.01 984.68 622.8 969.71 603.3 969.24 525.21 982.6 517.5 1006.19 612.01" style="fill:#0095ff"/><polygon points="1006.19 612.01 984.68 622.8 969.71 603.3 969.24 525.21 982.6 517.5 1006.19 612.01" style="fill:#00178a"/><polygon points="1006.19 612.01 984.68 622.8 969.71 603.3 969.24 525.21 982.6 517.5 1006.19 612.01" style="opacity:0.5;fill:url(#94a113d4-859e-4c45-a87f-d2e3f39833db)"/><polygon points="969.71 603.3 939.83 564.37 952.11 501.4 969.71 603.3" style="fill:#0095ff"/><polygon points="969.71 603.3 939.83 564.37 952.11 501.4 969.71 603.3" style="fill:#00178a"/><polygon points="969.71 603.3 939.83 564.37 952.11 501.4 969.71 603.3" style="opacity:0.5;fill:url(#7825a57e-1fcc-420b-b3f1-029482881433)"/><polygon points="939.83 564.37 903.39 612.01 915.25 549.67 939.83 564.37" style="fill:#0095ff"/><polygon points="939.83 564.37 903.39 612.01 915.25 549.67 939.83 564.37" style="fill:#00178a"/><polygon points="939.83 564.37 903.39 612.01 915.25 549.67 939.83 564.37" style="opacity:0.8;fill:url(#ea472dd7-2c3e-457e-a4fa-12b17281d709)"/><polygon points="915.25 549.67 903.39 612.01 895.98 650.93 901.97 509.85 915.25 549.67" style="fill:#0095ff"/><polygon points="915.25 549.67 903.39 612.01 895.98 650.93 901.97 509.85 915.25 549.67" style="fill:#00178a"/><polygon points="915.25 549.67 903.39 612.01 895.98 650.93 901.97 509.85 915.25 549.67" style="fill:url(#548e5d35-39e8-420e-9fbe-b81c7bbf13de)"/><polygon points="984.68 622.8 898.54 666.03 895.98 650.93 903.39 612.01 984.68 622.8" style="fill:#0095ff"/><polygon points="984.68 622.8 898.54 666.03 895.98 650.93 903.39 612.01 984.68 622.8" style="fill:#00178a"/><polygon points="984.68 622.8 898.54 666.03 895.98 650.93 903.39 612.01 984.68 622.8" style="opacity:0.5;fill:url(#879722c1-ed27-4a9a-a502-a529175ab900)"/><polygon points="901.97 509.85 895.98 650.93 869.29 493.72 901.97 509.85" style="fill:#0095ff"/><polygon points="901.97 509.85 895.98 650.93 869.29 493.72 901.97 509.85" style="fill:#00178a"/><polygon points="901.97 509.85 895.98 650.93 869.29 493.72 901.97 509.85" style="opacity:0.5;fill:url(#4b664a3f-7549-4aa1-b4b6-c5e7625a6b5e)"/><polygon points="898.54 666.03 884.65 673.01 869.29 530.75 869.29 493.72 895.98 650.93 898.54 666.03" style="fill:#0095ff"/><polygon points="898.54 666.03 884.65 673.01 869.29 530.75 869.29 493.72 895.98 650.93 898.54 666.03" style="fill:#00178a"/><polygon points="898.54 666.03 884.65 673.01 869.29 530.75 869.29 493.72 895.98 650.93 898.54 666.03" style="opacity:0.35000000000000003;fill:url(#9ebd49da-ac54-47a5-9a7a-f432bcb133bf)"/><polygon points="884.65 673.01 868.86 680.93 860.1 663.73 853.05 560.88 869.29 530.75 884.65 673.01" style="fill:#0095ff"/><polygon points="884.65 673.01 868.86 680.93 860.1 663.73 853.05 560.88 869.29 530.75 884.65 673.01" style="fill:#00178a"/><polygon points="884.65 673.01 868.86 680.93 860.1 663.73 853.05 560.88 869.29 530.75 884.65 673.01" style="fill:url(#102206fd-5a1b-4da3-afe9-1d9704f8028c)"/><polygon points="869.29 530.75 853.05 560.88 853.05 521.37 869.29 530.75" style="fill:#0095ff"/><polygon points="869.29 530.75 853.05 560.88 853.05 521.37 869.29 530.75" style="fill:#00178a"/><polygon points="869.29 530.75 853.05 560.88 853.05 521.37 869.29 530.75" style="fill:url(#42e0092d-db55-4b2a-aa93-67ab8ef94a2f)"/><polygon points="860.1 663.73 833.52 555.7 839.19 504.47 853.05 521.37 853.05 560.88 860.1 663.73" style="fill:#0095ff"/><polygon points="860.1 663.73 833.52 555.7 839.19 504.47 853.05 521.37 853.05 560.88 860.1 663.73" style="fill:#00178a"/><polygon points="860.1 663.73 833.52 555.7 839.19 504.47 853.05 521.37 853.05 560.88 860.1 663.73" style="fill:url(#32da4312-df24-4cdd-9941-4baa4ed957dc)"/><polygon points="839.19 504.47 833.52 555.7 818.73 542.87 839.19 504.47" style="fill:#0095ff"/><polygon points="839.19 504.47 833.52 555.7 818.73 542.87 839.19 504.47" style="fill:#00178a"/><polygon points="839.19 504.47 833.52 555.7 818.73 542.87 839.19 504.47" style="opacity:0.5;fill:url(#84afaa92-ac50-4727-b3ae-f8772c8d8635)"/><polygon points="860.1 663.73 824.34 593.56 818.73 542.87 833.52 555.7 860.1 663.73" style="fill:#0095ff"/><polygon points="860.1 663.73 824.34 593.56 818.73 542.87 833.52 555.7 860.1 663.73" style="fill:#00178a"/><polygon points="860.1 663.73 824.34 593.56 818.73 542.87 833.52 555.7 860.1 663.73" style="opacity:0.5;fill:url(#122f2f41-6dc8-42c5-ae36-840881b45bfa)"/><polygon points="868.86 680.93 833.52 698.67 824.34 593.56 860.1 663.73 868.86 680.93" style="fill:#0095ff"/><polygon points="868.86 680.93 833.52 698.67 824.34 593.56 860.1 663.73 868.86 680.93" style="fill:#00178a"/><polygon points="868.86 680.93 833.52 698.67 824.34 593.56 860.1 663.73 868.86 680.93" style="fill:url(#6c9c10c9-2081-4ad7-bea4-dc440acf1002)"/><polygon points="824.34 593.56 773.1 616.62 807.95 585.91 824.34 593.56" style="fill:#0095ff"/><polygon points="824.34 593.56 773.1 616.62 807.95 585.91 824.34 593.56" style="fill:#00178a"/><polygon points="824.34 593.56 773.1 616.62 807.95 585.91 824.34 593.56" style="fill:url(#f5ff026f-7b14-4595-bf74-14409f4119b9)"/><polygon points="807.95 585.91 773.1 616.62 790.07 549.67 807.95 585.91" style="fill:#0095ff"/><polygon points="807.95 585.91 773.1 616.62 790.07 549.67 807.95 585.91" style="fill:#00178a"/><polygon points="807.95 585.91 773.1 616.62 790.07 549.67 807.95 585.91" style="fill:url(#c8da81e7-dd50-4123-ba43-0875ef7a6a19)"/><polygon points="833.52 698.67 807.6 711.68 796.76 717.12 757.95 722.98 769.37 535.23 790.07 549.67 773.1 616.62 833.52 698.67" style="fill:#0095ff"/><polygon points="833.52 698.67 807.6 711.68 796.76 717.12 757.95 722.98 769.37 535.23 790.07 549.67 773.1 616.62 833.52 698.67" style="fill:#00178a"/><polygon points="833.52 698.67 807.6 711.68 796.76 717.12 757.95 722.98 769.37 535.23 790.07 549.67 773.1 616.62 833.52 698.67" style="opacity:0.5;fill:url(#52e1ff80-f007-4df8-b96d-0a25ef221f02)"/><polygon points="769.37 535.23 757.95 722.98 757.95 722.99 709.61 730.29 752.21 580.51 750.21 568.41 769.37 535.23" style="fill:#0095ff"/><polygon points="769.37 535.23 757.95 722.98 757.95 722.99 709.61 730.29 752.21 580.51 750.21 568.41 769.37 535.23" style="fill:#00178a"/><polygon points="769.37 535.23 757.95 722.98 757.95 722.99 709.61 730.29 752.21 580.51 750.21 568.41 769.37 535.23" style="opacity:0.2;fill:url(#c55439e1-68b2-4f88-82b1-25e89a5a4ad2)"/><polygon points="752.21 580.51 709.61 730.29 641.52 712.37 729.24 606.21 729.24 567.25 752.21 580.51" style="fill:#0095ff"/><polygon points="752.21 580.51 709.61 730.29 641.52 712.37 729.24 606.21 729.24 567.25 752.21 580.51" style="fill:#00178a"/><polygon points="752.21 580.51 709.61 730.29 641.52 712.37 729.24 606.21 729.24 567.25 752.21 580.51" style="opacity:0.2;fill:url(#8c58df88-5111-4c64-b2cf-6f5b280284b2)"/><polygon points="729.24 606.21 704.83 599.73 704.83 542.87 729.24 606.21" style="fill:#0095ff"/><polygon points="729.24 606.21 704.83 599.73 704.83 542.87 729.24 606.21" style="fill:#00178a"/><polygon points="729.24 606.21 704.83 599.73 704.83 542.87 729.24 606.21" style="fill:url(#64d3e582-b201-4754-b8ef-2413f75f28f4)"/><polygon points="704.83 542.87 687.6 586.93 641.52 712.37 670.27 578.2 704.83 542.87" style="fill:#0095ff"/><polygon points="704.83 542.87 687.6 586.93 641.52 712.37 670.27 578.2 704.83 542.87" style="fill:#00178a"/><polygon points="704.83 542.87 687.6 586.93 641.52 712.37 670.27 578.2 704.83 542.87" style="opacity:0.2;fill:url(#3492e878-0092-40c7-a3cd-f4c56a0ae3f9)"/><polygon points="752.21 580.51 729.24 567.25 750.21 568.41 752.21 580.51" style="fill:#0095ff"/><polygon points="752.21 580.51 729.24 567.25 750.21 568.41 752.21 580.51" style="fill:#00178a"/><polygon points="752.21 580.51 729.24 567.25 750.21 568.41 752.21 580.51" style="opacity:0.5;fill:url(#39e2e831-4c4f-48f7-909b-d424651a2d46)"/><polygon points="969.71 603.3 952.11 501.4 969.24 525.21 969.71 603.3" style="fill:#0095ff"/><polygon points="969.71 603.3 952.11 501.4 969.24 525.21 969.71 603.3" style="fill:#00178a"/><polygon points="969.71 603.3 952.11 501.4 969.24 525.21 969.71 603.3" style="fill:url(#2d400c77-157a-42ca-8992-eb224e1b6388)"/><polygon points="833.52 698.67 773.1 616.62 824.34 593.56 833.52 698.67" style="fill:#0095ff"/><polygon points="833.52 698.67 773.1 616.62 824.34 593.56 833.52 698.67" style="fill:#00178a"/><polygon points="833.52 698.67 773.1 616.62 824.34 593.56 833.52 698.67" style="fill:url(#d6f697ca-c5fa-4d6f-918e-c5b6157bde8a)"/><polygon points="729.24 606.21 641.52 712.37 704.83 599.73 729.24 606.21" style="fill:#0095ff"/><polygon points="729.24 606.21 641.52 712.37 704.83 599.73 729.24 606.21" style="fill:#00178a"/><polygon points="729.24 606.21 641.52 712.37 704.83 599.73 729.24 606.21" style="opacity:0.5;fill:url(#d565591c-35db-4ffe-9bef-2b5ad2c1121a)"/><polygon points="704.83 542.87 704.83 599.73 641.52 712.37 687.6 586.93 704.83 542.87" style="fill:#0095ff"/><polygon points="704.83 542.87 704.83 599.73 641.52 712.37 687.6 586.93 704.83 542.87" style="fill:#00178a"/><polygon points="704.83 542.87 704.83 599.73 641.52 712.37 687.6 586.93 704.83 542.87" style="opacity:0.2;fill:url(#f9872c50-103d-4c65-aa4a-7aa8e292d05a)"/><polygon points="984.68 622.8 903.39 612.01 939.83 564.37 969.71 603.3 984.68 622.8" style="fill:#0095ff"/><polygon points="984.68 622.8 903.39 612.01 939.83 564.37 969.71 603.3 984.68 622.8" style="fill:#00178a"/><polygon points="984.68 622.8 903.39 612.01 939.83 564.37 969.71 603.3 984.68 622.8" style="opacity:0.8;fill:url(#a70f4204-dbf2-42c6-9fb7-4dce09f4868d)"/><polygon points="1016.62 568.21 982.6 517.5 969.24 525.21 952.11 501.4 939.83 564.37 915.25 549.67 901.97 509.85 869.29 493.72 869.29 530.75 853.05 521.37 839.19 504.47 818.73 542.87 824.34 593.56 807.95 585.91 790.07 549.67 769.37 535.23 750.21 568.41 729.24 567.25 729.24 606.21 704.83 542.87 670.27 578.2 641.52 712.37 709.61 730.29 757.95 722.99 757.95 722.98 796.76 717.12 807.6 711.68 833.52 698.67 868.86 680.93 884.65 673.01 898.54 666.03 984.68 622.8 1006.19 612.01 1032.68 598.71 1040.86 582.21 1016.62 568.21" style="fill:url(#21749743-04ac-407e-a0df-3525395cea82)"/><path d="M529.88,1060.71c16.49,5,79.66,26.11,157.31,10.93l1.36-.27c472.2-93.19,1038.53-3.52,1040.57-52.73.56-13.5-176.58-44.56-471-114.38-309.73-73.45-388-104.19-388.27-138.41-.58-68.7,313.24-111.42,307.83-160.41-2.48-22.45-70.59-33.71-131.55-39.78L1036.75,553l-5.13,11.34-7.21-13.41-6.2,29-3.7-15.56-5.77,29.14-4.92-12.55-6,21.67-8-29.5L981,608.81l-4.57-7.92L969,619.94l-6.84-17.44-6.84,24.24-3.14-9.54-5.7,16.53-3.14-13.94-4.42,15-4.29-2-5.34,9.73-2.62-21.35-5,25.24-5-9.56-5.63,20-5.6-21.65-5.06,22L895.76,650l-6,16.37-5.7-23.51L878.93,666l-5.41-7.21-6,15.16-3.42-19.13-5.63,20.92-5.6-6.44-4.46,11.23-4.84-4-5.82,8.89-7-17.33-6.56,20.07-4.56-9.27-6.12,13-6.14-19.62-7.7,26.67-6.56-6.76-3.81,12L784,684.32l-6.56,20-7.56-3.86-7.09,10.84L758,696.7l-7.13,20.42-6.72-11.92q-5,10.68-10,21.38l-24.55,3.71a225.14,225.14,0,0,0-68.09-17.92C422.53,691,247,1012.84,233.7,1038,405.36,1036.1,487.42,1047.87,529.88,1060.71Z" style="opacity:0.9;fill:url(#c9221132-886d-4b8e-a297-4cc59293d1b6)"/><path d="M1032.68,599.71l-237,119.8-86.12,11.78,24.55-3.71q5-10.7,10-21.39l6.72,11.93L758,697.7l4.74,14.59,7.09-10.84,7.56,3.86,6.56-20,5.31,19.88,3.81-12,6.56,6.76,7.7-26.67,6.14,19.62,6.12-13,4.56,9.26,6.56-20.06,7,17.33,5.82-8.89,4.84,4,4.46-11.23,5.6,6.44,5.63-20.92L867.53,675l6-15.16,5.42,7.21,5.13-23.16,5.71,23.51,6-16.37,4.64,7.23,5.06-22,5.6,21.65,5.63-20,5,9.55,5-25.24,2.61,21.36,5.35-9.73,4.29,2,4.42-15,3.14,13.94,5.7-16.53,3.13,9.54,6.85-24.24L969,620.94l7.41-19.05,4.57,7.92,8.83-35.72,8,29.5,6-21.67,4.92,12.55,5.77-29.14,3.7,15.56,6.2-29,7.2,13.41,5.14-11.34c3.13,4.22,3.27,22.44,6.41,26.66C1044.21,580.72,1032.68,599.71,1032.68,599.71Z" style="fill:#1f2042"/><path d="M1032.68,599.71l-237,119.8-86.12,11.78,24.55-3.71q5-10.7,10-21.39l6.72,11.93L758,697.7l4.74,14.59,7.09-10.84,7.56,3.86,6.56-20,5.31,19.88,3.81-12,6.56,6.76,7.7-26.67,6.14,19.62,6.12-13,4.56,9.26,6.56-20.06,7,17.33,5.82-8.89,4.84,4,4.46-11.23,5.6,6.44,5.63-20.92L867.53,675l6-15.16,5.42,7.21,5.13-23.16,5.71,23.51,6-16.37,4.64,7.23,5.06-22,5.6,21.65,5.63-20,5,9.55,5-25.24,2.61,21.36,5.35-9.73,4.29,2,4.42-15,3.14,13.94,5.7-16.53,3.13,9.54,6.85-24.24L969,620.94l7.41-19.05,4.57,7.92,8.83-35.72,8,29.5,6-21.67,4.92,12.55,5.77-29.14,3.7,15.56,6.2-29,7.2,13.41,5.14-11.34c3.13,4.22,3.27,22.44,6.41,26.66C1044.21,580.72,1032.68,599.71,1032.68,599.71Z" style="opacity:0.6000000000000001;fill:url(#92170e27-d14d-4439-a977-86619bd12217)"/><path d="M1032.68,599.71l-237,119.8-86.12,11.78,24.55-3.71q5-10.7,10-21.39l6.72,11.93L758,697.7l4.74,14.59,7.09-10.84,7.56,3.86,6.56-20,5.31,19.88,3.81-12,6.56,6.76,7.7-26.67,6.14,19.62,6.12-13,4.56,9.26,6.56-20.06,7,17.33,5.82-8.89,4.84,4,4.46-11.23,5.6,6.44,5.63-20.92L867.53,675l6-15.16,5.42,7.21,5.13-23.16,5.71,23.51,6-16.37,4.64,7.23,5.06-22,5.6,21.65,5.63-20,5,9.55,5-25.24,2.61,21.36,5.35-9.73,4.29,2,4.42-15,3.14,13.94,5.7-16.53,3.13,9.54,6.85-24.24L969,620.94l7.41-19.05,4.57,7.92,8.83-35.72,8,29.5,6-21.67,4.92,12.55,5.77-29.14,3.7,15.56,6.2-29,7.2,13.41,5.14-11.34c3.13,4.22,3.27,22.44,6.41,26.66C1044.21,580.72,1032.68,599.71,1032.68,599.71Z" style="fill:url(#52a5e609-f11a-482c-9c1f-a06b09844977)"/><polygon points="1965.4 822.58 1953.37 869.44 1936.66 802.29 1925.55 870.3 1908.93 841.4 1891.22 872.22 1875.85 805.64 1863.39 895.96 1854.46 855.59 1839.09 895.96 1821.04 804.97 1806.65 895.96 1792.3 856.59 1781.61 902.95 1766.24 836.06 1749.8 892.83 1736.16 869.12 1724.8 894.9 1714.36 859.07 1701.24 896.24 1688.04 824 1680.02 907.5 1665.99 859.07 1653.29 898.92 1641.26 816.75 1627.89 922.4 1613.86 869.12 1603 907.5 1591.13 829.74 1578.01 927.78 1564.8 859.07 1553.06 907.5 1541.32 816.75 1535.19 907.5 1522.67 879.46 1512.6 896.24 1502.25 845.37 1494.89 907.5 1481.53 853 1474.18 897.58 1458.14 814.56 1442.1 898.25 1424.72 837.14 1414.03 878.12 1393.31 753.25 1381.94 834.78 1354.22 793.82 1343.94 833.85 1335.5 768.44 1331.73 798.67 1325.48 773.53 1321.3 799.09 1312.29 735.04 1295.4 803.34 1283.37 768.44 1271.43 806.21 1264.66 776.88 1253.06 861.05 1251.69 864.84 1243.27 826.83 1227.9 867.21 1209.86 776.21 1195.47 867.21 1181.12 827.83 1170.42 874.19 1155.05 807.3 1138.61 864.07 1124.98 840.36 1113.62 866.14 1103.17 830.31 1090.05 867.48 1076.86 795.24 1068.84 878.75 1054.8 830.31 1042.1 870.16 1030.07 787.99 1016.71 893.65 1002.67 840.36 991.81 878.75 979.95 800.98 966.82 899.02 953.62 830.31 941.88 878.75 930.14 787.99 924.01 878.75 911.48 850.7 901.42 867.48 891.06 816.61 883.71 878.75 870.34 824.25 862.99 868.82 846.95 785.8 830.91 869.49 813.53 808.38 802.84 849.36 782.12 724.49 763.41 858.76 749.37 784.26 737.84 844.49 724.31 739.68 715.62 809.48 701.1 706.28 684.21 774.58 672.18 739.68 650.13 809.48 583.55 993.47 990.04 952.21 1208.54 1067.03 1319.6 1006.48 1601.22 970.97 1819.73 1095.79 2061.24 964.12 1965.4 822.58" style="fill:#1f2042"/><polygon points="1965.4 822.58 1953.37 869.44 1936.66 802.29 1925.55 870.3 1908.93 841.4 1891.22 872.22 1875.85 805.64 1863.39 895.96 1854.46 855.59 1839.09 895.96 1821.04 804.97 1806.65 895.96 1792.3 856.59 1781.61 902.95 1766.24 836.06 1749.8 892.83 1736.16 869.12 1724.8 894.9 1714.36 859.07 1701.24 896.24 1688.04 824 1680.02 907.5 1665.99 859.07 1653.29 898.92 1641.26 816.75 1627.89 922.4 1613.86 869.12 1603 907.5 1591.13 829.74 1578.01 927.78 1564.8 859.07 1553.06 907.5 1541.32 816.75 1535.19 907.5 1522.67 879.46 1512.6 896.24 1502.25 845.37 1494.89 907.5 1481.53 853 1474.18 897.58 1458.14 814.56 1442.1 898.25 1424.72 837.14 1414.03 878.12 1393.31 753.25 1381.94 834.78 1354.22 793.82 1343.94 833.85 1335.5 768.44 1331.73 798.67 1325.48 773.53 1321.3 799.09 1312.29 735.04 1295.4 803.34 1283.37 768.44 1271.43 806.21 1264.66 776.88 1253.06 861.05 1251.69 864.84 1243.27 826.83 1227.9 867.21 1209.86 776.21 1195.47 867.21 1181.12 827.83 1170.42 874.19 1155.05 807.3 1138.61 864.07 1124.98 840.36 1113.62 866.14 1103.17 830.31 1090.05 867.48 1076.86 795.24 1068.84 878.75 1054.8 830.31 1042.1 870.16 1030.07 787.99 1016.71 893.65 1002.67 840.36 991.81 878.75 979.95 800.98 966.82 899.02 953.62 830.31 941.88 878.75 930.14 787.99 924.01 878.75 911.48 850.7 901.42 867.48 891.06 816.61 883.71 878.75 870.34 824.25 862.99 868.82 846.95 785.8 830.91 869.49 813.53 808.38 802.84 849.36 782.12 724.49 763.41 858.76 749.37 784.26 737.84 844.49 724.31 739.68 715.62 809.48 701.1 706.28 684.21 774.58 672.18 739.68 650.13 809.48 583.55 993.47 990.04 952.21 1208.54 1067.03 1319.6 1006.48 1601.22 970.97 1819.73 1095.79 2061.24 964.12 1965.4 822.58" style="opacity:0.6000000000000001;fill:url(#dccdb4f6-8a2f-4bc5-9101-5b9a4a7a3db7)"/><path d="M-10.29,1038c-10.95-47.12-7.84-195.32,62.5-229.31,104-50.26,283.58,176.5,363.73,124.4,52.94-34.42-3.42-145.45,46.85-186.1,80.62-65.18,289.46,225.36,550.87,195.19,173.06-20,206.93-161.78,342.5-130.56,98.43,22.67,133.16,109.53,308.28,154.38,44.58,11.42,66.74,17.65,93.18,16.68,156.73-5.75,220.32-180.71,312.93-160.47,60.1,13.13,51.19,85.92,114.67,112.67,115.49,48.67,242.13-155.44,403.33-195.66,122.7-30.61,319.71,20.19,640,402C693.28,1360.45,34.47,1230.62-10.29,1038Z" style="fill:#1f2042"/><path d="M-10.29,1038c-10.95-47.12-7.84-195.32,62.5-229.31,104-50.26,283.58,176.5,363.73,124.4,52.94-34.42-3.42-145.45,46.85-186.1,80.62-65.18,289.46,225.36,550.87,195.19,173.06-20,206.93-161.78,342.5-130.56,98.43,22.67,133.16,109.53,308.28,154.38,44.58,11.42,66.74,17.65,93.18,16.68,156.73-5.75,220.32-180.71,312.93-160.47,60.1,13.13,51.19,85.92,114.67,112.67,115.49,48.67,242.13-155.44,403.33-195.66,122.7-30.61,319.71,20.19,640,402C693.28,1360.45,34.47,1230.62-10.29,1038Z" style="opacity:0.6000000000000001;fill:url(#b001cc8a-9d19-49fb-9d8c-045bdff8c2f0)"/><path d="M3173.55,1085.27c-176.7,57.67-433.28,112.64-735,77.91a1656,1656,0,0,1-223.72-41.52c23-19.33,45.46-41.52,72.26-41.52-68.8-45.47-176.48-101.7-312-108-157.49-7.32-195.08,60.13-364.48,57-185.26-3.43-188.46-88.54-382.48-91.5-149.1-2.27-195.25,46.61-321,19.5-98.6-21.25-171.9-73.23-218.86-114.43C780,899.88,891,956.29,1013.66,942.14c173.06-20,206.92-161.78,342.5-130.56,98.43,22.67,133.16,109.53,308.27,154.38,44.59,11.42,66.75,17.65,93.19,16.68,156.73-5.75,220.32-180.71,312.93-160.47,59.86,13.08,48.85,89.57,114.67,112.67,98.21,34.47,202.18-76.94,304.36-118.69C2604.94,769,2805.31,781.48,3173.55,1085.27Z" style="fill:#1f2042"/><path d="M3173.55,1085.27c-176.7,57.67-433.28,112.64-735,77.91a1656,1656,0,0,1-223.72-41.52c23-19.33,45.46-41.52,72.26-41.52-68.8-45.47-176.48-101.7-312-108-157.49-7.32-195.08,60.13-364.48,57-185.26-3.43-188.46-88.54-382.48-91.5-149.1-2.27-195.25,46.61-321,19.5-98.6-21.25-171.9-73.23-218.86-114.43C780,899.88,891,956.29,1013.66,942.14c173.06-20,206.92-161.78,342.5-130.56,98.43,22.67,133.16,109.53,308.27,154.38,44.59,11.42,66.75,17.65,93.19,16.68,156.73-5.75,220.32-180.71,312.93-160.47,59.86,13.08,48.85,89.57,114.67,112.67,98.21,34.47,202.18-76.94,304.36-118.69C2604.94,769,2805.31,781.48,3173.55,1085.27Z" style="opacity:0.6000000000000001;fill:url(#e9f7e7cb-7624-45ad-b173-973f3d22512d)"/><path d="M2386.55,1101.18l-171.72,20.48s-119.69,13.67-238.64,25.57c-1172.32,117.31-1892.27,189.36-2003.64-62-43.83-99,7.7-245.59,79.66-276.53C164,760.58,340.14,982.31,415.94,933c52.94-34.41-3.42-145.45,46.85-186.09,42.8-34.61,121.75,31.06,225.51,95.76,47,41.2,120.26,93.18,218.86,114.43,125.74,27.11,171.89-21.77,321-19.5,194,3,197.22,88.07,382.48,91.5,149.52,2.77,282.47-43.57,364.48-57C2067.7,957,2202.67,970.87,2386.55,1101.18Z" style="fill:#1f2042"/><path d="M2386.55,1101.18l-171.72,20.48s-119.69,13.67-238.64,25.57c-1172.32,117.31-1892.27,189.36-2003.64-62-43.83-99,7.7-245.59,79.66-276.53C164,760.58,340.14,982.31,415.94,933c52.94-34.41-3.42-145.45,46.85-186.09,42.8-34.61,121.75,31.06,225.51,95.76,47,41.2,120.26,93.18,218.86,114.43,125.74,27.11,171.89-21.77,321-19.5,194,3,197.22,88.07,382.48,91.5,149.52,2.77,282.47-43.57,364.48-57C2067.7,957,2202.67,970.87,2386.55,1101.18Z" style="opacity:0.6000000000000001;fill:url(#93d010da-2f02-48bf-b72b-0dc97b0dce52)"/><path d="M1422.52,1057.47l-6,.64,2-.57Z" style="fill:url(#c00ffff8-04a4-4ed3-8765-f4d336ca37b9)"/><path d="M2730.55,665.18c-53.49-37.51-108.82-74.45-164.38-108.77" style="fill:none"/><path d="M-101.45,325.18c102.23-20.12,186.12-21.55,254.76-13" style="fill:none"/></g></svg>