<?xml version="1.0" encoding="utf-8"?>
<!-- Generator: Adobe Illustrator 22.0.0, SVG Export Plug-In . SVG Version: 6.00 Build 0)  -->
<svg version="1.1" id="_x34_3a40609-ed80-4dc2-845f-f8edf8e3a421"
	 xmlns="http://www.w3.org/2000/svg" xmlns:xlink="http://www.w3.org/1999/xlink" x="0px" y="0px" viewBox="0 0 1904.5 1436.5"
	 style="enable-background:new 0 0 1904.5 1436.5;" xml:space="preserve">
<style type="text/css">
	.st0{fill:#ECF8FF;enable-background:new    ;}
	.st1{fill:none;}
	.st2{clip-path:url(#SVGID_2_);}
	.st3{fill:url(#SVGID_3_);}
	.st4{fill:#1F2042;}
	.st5{fill:url(#SVGID_4_);}
	.st6{opacity:0.4;fill:url(#SVGID_5_);enable-background:new    ;}
	.st7{fill:url(#SVGID_6_);}
	.st8{fill:url(#SVGID_7_);}
	.st9{fill:url(#SVGID_8_);}
	.st10{fill:url(#SVGID_9_);}
	.st11{fill:url(#SVGID_10_);}
	.st12{fill:url(#SVGID_11_);}
	.st13{fill:url(#SVGID_12_);}
	.st14{fill:url(#SVGID_13_);}
	.st15{fill:url(#SVGID_14_);}
	.st16{opacity:0.7;fill:url(#SVGID_15_);enable-background:new    ;}
	.st17{opacity:0.28;fill:#FF9D00;enable-background:new    ;}
	.st18{opacity:0.2;fill:#FF9D00;enable-background:new    ;}
	.st19{opacity:0.3;fill:#1F2042;enable-background:new    ;}
	.st20{fill:url(#SVGID_16_);}
	.st21{fill:#FFFFFF;}
	.st22{fill:url(#SVGID_17_);}
	.st23{fill:url(#SVGID_18_);}
	.st24{opacity:0.1;fill:#FF9D00;enable-background:new    ;}
	.st25{fill:url(#SVGID_19_);}
	.st26{fill:#FFFFFF;stroke:#000000;stroke-miterlimit:10;}
	.st27{fill:none;stroke:#000000;stroke-width:3;stroke-miterlimit:10;}
	.st28{fill:url(#SVGID_20_);}
	.st29{fill:url(#SVGID_21_);}
	.st30{fill:url(#SVGID_22_);}
	.st31{fill:url(#SVGID_23_);}
	.st32{fill:url(#SVGID_24_);}
	.st33{fill:url(#SVGID_25_);}
	.st34{fill:url(#SVGID_26_);}
	.st35{fill:url(#SVGID_27_);}
	.st36{opacity:5.000000e-02;fill:#FF9D00;enable-background:new    ;}
	.st37{opacity:9.000000e-02;fill:#00D9FF;enable-background:new    ;}
	.st38{fill:url(#SVGID_28_);}
	.st39{fill:url(#SVGID_29_);}
	.st40{fill:url(#SVGID_30_);}
	.st41{fill:url(#SVGID_31_);}
	.st42{fill:url(#SVGID_32_);}
	.st43{fill:url(#SVGID_33_);}
	.st44{fill:url(#SVGID_34_);}
	.st45{fill:url(#SVGID_35_);}
	.st46{fill:url(#SVGID_36_);}
	.st47{fill:url(#SVGID_37_);}
	.st48{fill:#FFFC69;}
	.st49{opacity:0.9;fill:#FF9D00;enable-background:new    ;}
	.st50{opacity:0.3;fill:#FFFC69;enable-background:new    ;}
	.st51{opacity:0.3;fill:#FF9D00;enable-background:new    ;}
	.st52{fill:url(#SVGID_38_);}
	.st53{fill:url(#SVGID_39_);}
	.st54{fill:url(#SVGID_40_);}
	.st55{fill:url(#SVGID_41_);}
	.st56{clip-path:url(#SVGID_43_);}
	.st57{fill:url(#SVGID_44_);}
	.st58{fill:url(#SVGID_45_);}
	.st59{fill:url(#SVGID_46_);}
	.st60{fill:url(#SVGID_47_);}
	.st61{fill:url(#SVGID_48_);}
	.st62{fill:url(#SVGID_49_);}
	.st63{display:none;fill:#606060;}
</style>
<title>hero</title>
<path class="st0" d="M1365.9-194c11.7,61.6-162.9,94.1-182,226C1162,183,1401.1,241.1,1491.4,468.5c69.4,174.8,40.4,410.2-86,560.1
	c-137.9,163.3-299.5-9.1-787.9,117.9c-109.9,28.6-275,81.5-316,22c-26.7-38.8,25.7-85.4,2-146c-44-112.7-278.1-85.5-293-161
	c-9.1-45.8,75.7-63.2,112-147c54.1-124.9-71.6-231.3-88-383C8.3,88.1,279.3-125.2,321.9-158C721.6-466.6,1342.9-315.3,1365.9-194z"
	/>
<path class="st1" d="M168.4,837c27.3-30.9,79.8-64,84.8-125.4c3-36-11.9-63-20.7-81.1c-42-86.7-79.3-248.9-21.3-337.9
	c44.9-69,153-103.2,235.1-80.3c99.3,27.7,91.2,125.6,204.8,187.1c20.9,11.5,43.3,20,66.5,25.3c96.9,22.4,153.8-23.8,216.5-32.5
	c168.7-23.3,227.3,246.3,429.8,254.2c113.1,4.4,151.9-77.3,282.9-51.4c20.1,4,95.5,19.9,155.3,81.6
	c98.2,101.2,103.3,272.3,41.9,394.3c-81.4,161.6-255.6,199.4-294,206.3c-131.6,23.6-164.8-38-309.6-43
	c-224.2-7.8-261,135.9-508.4,176c-46.8,7.6-367.7,59.6-520.7-136C110.5,1145.4,86,930.6,168.4,837z"/>
<path class="st1" d="M168.4,837c-1-42,79.1-56.5,84.8-125.4c2.9-34.8-11.1-60.2-20.7-81.2c-48-105.2-27.2-283,42.3-327.2
	c84.9-54,193.4,122.1,442.8,121.4c124.1-0.2,120.8-19.2,216.5-32.4c168.7-23.3,227.3,246.3,429.8,254.2
	c113.1,4.4,151.9-77.3,282.9-51.4c20.1,4,95.5,19.9,155.3,81.6c98.2,101.2,103.3,272.3,41.9,394.3
	c-81.4,161.6-255.6,199.4-294,206.3c-131.6,23.6-164.8-38-309.6-43c-224.2-7.8-261,135.9-508.4,176c-12,1.9-16.5,2.6-18.1,2.8
	c-182.2,22.2-383-114.7-392.4-246.4c-5.8-81.4,65.3-108.2,45.2-172C337.7,902.4,169.9,899.1,168.4,837z"/>
<g>
	<defs>
		<path id="SVGID_1_" d="M168.4,837c-1.1-47,87-68,84.8-125.4c-1.4-35.3-36-50.9-64-81.2c-91.5-98.7-82.8-320.4,8.2-386.4
			c73-52.9,145.8,32.9,248.8-16.2C573,167.5,558.6-7.7,633.7-16.9c78-9.5,91.3,180.9,260.4,279c150,87.1,236.6-6.5,360.8,88.5
			c120.4,92.1,98.7,225.7,207.6,253.5c67.9,17.3,100.6-28.6,196.7-6.3c12,2.8,86.3,20.5,143,78.9c98.2,101.2,103.3,272.3,41.9,394.3
			c-81.4,161.6-255.6,199.4-294,206.3c-131.6,23.6-164.8-38-309.6-43c-224.2-7.8-261,135.9-508.4,176c-12,1.9-16.5,2.6-18.1,2.8
			c-182.2,22.2-383-114.7-392.4-246.4c-5.8-81.4,65.3-108.2,45.2-172C337.7,902.4,169.9,899.1,168.4,837z"/>
	</defs>
	<clipPath id="SVGID_2_">
		<use xlink:href="#SVGID_1_"  style="overflow:visible;"/>
	</clipPath>
	<g class="st2">
		
			<radialGradient id="SVGID_3_" cx="928.312" cy="743.6364" r="1730.8199" gradientTransform="matrix(1 0 0 -1 0 1309.0127)" gradientUnits="userSpaceOnUse">
			<stop  offset="0" style="stop-color:#FFFC69;stop-opacity:0.2"/>
			<stop  offset="1" style="stop-color:#FFFC69;stop-opacity:0"/>
		</radialGradient>
		<rect x="34.7" y="432.2" class="st3" width="1995.2" height="942.6"/>
		<rect x="34.7" y="-17.3" class="st4" width="1995.2" height="1390.2"/>
		
			<radialGradient id="SVGID_4_" cx="1022.2418" cy="-436.2171" r="614.99" gradientTransform="matrix(-1.000000e-02 1.451 1.86 2.181920e-02 1724.9152 -608.1401)" gradientUnits="userSpaceOnUse">
			<stop  offset="0" style="stop-color:#FF9D00;stop-opacity:0.8"/>
			<stop  offset="1" style="stop-color:#FF00A6;stop-opacity:0.98"/>
		</radialGradient>
		<rect x="34.7" y="1.1" class="st5" width="1995.2" height="1371.8"/>
		
			<radialGradient id="SVGID_5_" cx="892.6019" cy="552.4664" r="1149.99" gradientTransform="matrix(1 0 0 -1 0 1309.0127)" gradientUnits="userSpaceOnUse">
			<stop  offset="0" style="stop-color:#FFFFFF;stop-opacity:0.2"/>
			<stop  offset="1" style="stop-color:#FF9D00;stop-opacity:0.2"/>
		</radialGradient>
		<circle class="st6" cx="864.1" cy="908.8" r="766.3"/>
		
			<radialGradient id="SVGID_6_" cx="883.9019" cy="505.9564" r="798.61" gradientTransform="matrix(1 0 0 -1 0 1309.0127)" gradientUnits="userSpaceOnUse">
			<stop  offset="0" style="stop-color:#FFFFFF;stop-opacity:0.2"/>
			<stop  offset="1" style="stop-color:#FFD48F;stop-opacity:0.3"/>
		</radialGradient>
		<circle class="st7" cx="864.1" cy="908.8" r="532.2"/>
		
			<radialGradient id="SVGID_7_" cx="888.4019" cy="473.7164" r="422.16" gradientTransform="matrix(1 0 0 -1 0 1309.0127)" gradientUnits="userSpaceOnUse">
			<stop  offset="0" style="stop-color:#FFFFFF;stop-opacity:0.4"/>
			<stop  offset="1" style="stop-color:#FFE9C7;stop-opacity:0.3"/>
		</radialGradient>
		<circle class="st8" cx="864.1" cy="908.8" r="422.4"/>
		
			<radialGradient id="SVGID_8_" cx="867.6519" cy="402.2063" r="314.02" gradientTransform="matrix(1 0 0 -1 0 1309.0127)" gradientUnits="userSpaceOnUse">
			<stop  offset="0" style="stop-color:#FFFFFF;stop-opacity:0.3"/>
			<stop  offset="1" style="stop-color:#FFE1B0;stop-opacity:0.4"/>
		</radialGradient>
		<circle class="st9" cx="864.1" cy="908.8" r="320.8"/>
		
			<radialGradient id="SVGID_9_" cx="1006.9119" cy="523.1163" r="490.97" gradientTransform="matrix(1 0 0 -1 0 1309.0127)" gradientUnits="userSpaceOnUse">
			<stop  offset="0" style="stop-color:#FF9D00"/>
			<stop  offset="1" style="stop-color:#FF9D00;stop-opacity:0.2"/>
		</radialGradient>
		<circle class="st10" cx="864.1" cy="908.8" r="222.8"/>
		
			<linearGradient id="SVGID_10_" gradientUnits="userSpaceOnUse" x1="819.6623" y1="340.2861" x2="360.1723" y2="-279.1239" gradientTransform="matrix(1 0 0 -1 0 1309.0127)">
			<stop  offset="0" style="stop-color:#FFFFFF"/>
			<stop  offset="1" style="stop-color:#FFFFFF;stop-opacity:0.2"/>
		</linearGradient>
		<circle class="st11" cx="864.1" cy="908.8" r="222.8"/>
		
			<linearGradient id="SVGID_11_" gradientUnits="userSpaceOnUse" x1="1211.3419" y1="324.9483" x2="2046.6494" y2="324.9483" gradientTransform="matrix(1 0 0 -1 0 1309.0127)">
			<stop  offset="0" style="stop-color:#FF9D00;stop-opacity:0"/>
			<stop  offset="1" style="stop-color:#FF9D00;stop-opacity:0.7"/>
		</linearGradient>
		<path class="st12" d="M1910.8,728.2c-31-154.6-54.2-180.4-70.4-180.9c-58.7-1.7-93.1,348.3-153.4,346.9
			c-50.1-1.2-58.9-242.8-126.2-248.7c-36.7-3.2-45.3,77.9-119.8,172.5c-118.3,150.4-239.1,129-285.8,238
			c-38.9,90.8-2.2,216,64.8,283c177.4,177.2,666.9,45.2,750.1-194.2C1985.5,1100.3,1960.6,976.3,1910.8,728.2z"/>
		
			<linearGradient id="SVGID_12_" gradientUnits="userSpaceOnUse" x1="-241.6081" y1="482.8123" x2="750.7966" y2="482.8123" gradientTransform="matrix(1 0 0 -1 0 1309.0127)">
			<stop  offset="0" style="stop-color:#FF9D00;stop-opacity:0.7"/>
			<stop  offset="1" style="stop-color:#FF9D00;stop-opacity:0"/>
		</linearGradient>
		<path class="st13" d="M-69.1,716C-22.1,458.6,8.2,363,48,361c60-3.1,93.6,206.8,177.3,207.1c66.8,0.2,106.6-126.5,142.2-115.9
			c47.9,14.3,3.2,246.1,52.3,261.7c48.5,15.4,134.7-184.6,190.3-168.6c59.5,17.1,20.4,263.9,86.8,282.6
			c39.4,11.1,73.9-70.1,110.8-59.5c56.3,16.1,87.8,237.7-12.2,331.3c-57.9,54.2-136.1,46.5-220.5,47
			c-419.4,2.8-590.7,220.3-679.7,117.1C-156.7,1203.3-128.2,1040-69.1,716z"/>
		<path class="st1" d="M1096.4,1317.1c-4.7,11.2-6.3,21.3-3,30c27,70.6,388.3,52.6,617.8-30H1096.4z"/>
		<path class="st1" d="M1158.9,1020.2l65.2-44.4l83.1,36.5l63.9-36.9l34.4,53.1l53.7-20.2l96.3,94.8l34.2-34.2l85.6,22l31.8-23.2
			l169,150.6c12.4-15.7,20.2-32.2,22.2-49.7c13.3-110.9-203.6-233.5-363.8-271.3c-182.6-43.1-400.8-1.7-422.6,76.4
			c-1.7,6.1-2.6,13.8-2.8,22.4l3.8-3L1158.9,1020.2z"/>
		<path class="st4" d="M838.9,1004.4c28.5-26.6,38.7-45,67.3-71.6c25.3,37.2,68.9,66,94.2,103.2l26.6-15.3l24.8,21.2l61.2-48.9
			l46,27.3l65.2-44.4l83.1,36.5l63.9-36.9l34.4,53.1l53.7-20.2l96.3,94.8l34.2-34.2l85.6,22l31.8-23.2l280.1,249.5h-1697
			c60.9-141.9,365.6-283.7,426.5-425.6L838.9,1004.4z"/>
		
			<linearGradient id="SVGID_13_" gradientUnits="userSpaceOnUse" x1="898.4518" y1="204.6765" x2="1812.7119" y2="204.6765" gradientTransform="matrix(1 0 0 -1 0 1309.0127)">
			<stop  offset="0" style="stop-color:#00FF66;stop-opacity:0.4"/>
			<stop  offset="0.48" style="stop-color:#00FF66;stop-opacity:0.3"/>
			<stop  offset="1" style="stop-color:#00FF66;stop-opacity:0"/>
		</linearGradient>
		<path class="st14" d="M838.9,1004.4c28.5-26.6,38.7-45,67.3-71.6c25.3,37.2,68.9,66,94.2,103.2l26.6-15.3l24.8,21.2l61.2-48.9
			l46,27.3l65.2-44.4l83.1,36.5l63.9-36.9l34.4,53.1l53.7-20.2l96.3,94.8l34.2-34.2l85.6,22l31.8-23.2l280.1,249.5h-1697
			c60.9-141.9,365.6-283.7,426.5-425.6L838.9,1004.4z"/>
		
			<linearGradient id="SVGID_14_" gradientUnits="userSpaceOnUse" x1="962.6719" y1="156.5737" x2="1627.562" y2="156.5737" gradientTransform="matrix(1 0 0 -1 0 1309.0127)">
			<stop  offset="0" style="stop-color:#00FF66;stop-opacity:5.000000e-02"/>
			<stop  offset="1" style="stop-color:#00FF66;stop-opacity:0.1"/>
		</linearGradient>
		<path class="st15" d="M1752.3,1258.2c10.2-50.9-18.2-128-63.7-145.3c-48.9-18.5-92.3,41.7-149.7,20c-51.1-19.2-72.5-87.8-82.3-83
			c-7.5,3.7,8.2,42.7-0.7,47.4c-11.8,6.3-39.8-61.7-91.9-68.2c-29.5-3.7-37.2,16.1-67.9,9.8c-38.3-7.9-55.4-44.7-67-38.7
			c-11.4,5.9,7.4,40.4-7.4,56.3c-17.9,19.2-58-16.6-126.8-11.9c-50.3,3.4-56.9,24.6-91.4,18c-49.7-9.4-47.3-55.4-90.8-70.9
			c-72.3-25.6-138.1,80.1-221,57.3c-30.3-8.3-50.7-30.5-63-47.3c-32.2,29.5-69.4,59.1-107.3,88.6c-11.3,78.5,75.2,163,170.1,226.7
			h1029C1737.3,1298.3,1748.2,1278.5,1752.3,1258.2z"/>
		<polygon class="st4" points="1331,1108.8 1167.9,1092.3 1075.9,1127.4 873.5,1092.3 887.4,1054.1 899.6,1015.5 906.3,1034.8 
			915.7,997.1 923.7,1054.1 928.5,1015.5 936,1073.4 942.4,1040.1 950.2,1081.3 960.6,1007.1 972.1,1076.1 978,1053.5 987.6,1087.2 
			996.5,1041 1005.4,1086.8 1009.5,1062.2 1016.9,1092.3 1021,1058 1026.7,1086.1 1032.3,1076.8 1039.3,1092.3 1042.7,1042.2 
			1049.2,1092.3 1055.7,1065.6 1063,1103.5 1070.3,1049.4 1076.9,1092.3 1082.9,1071.1 1090.7,1100.5 1098.1,1042.2 1104.8,1087.6 
			1111.8,1065.6 1119.6,1092.3 1124,1046.2 1131.3,1086.1 1138.6,1065.6 1144.4,1085.3 1150.7,1071.1 1158.3,1084.2 1167.4,1038 
			1175.9,1075 1181.8,1049.4 1189.8,1071.1 1197.8,1020.9 1207.8,1071.1 1216.3,1048.8 1221.3,1071.1 1228.2,1021.2 1236.7,1058 
			1246.5,1041 1255.7,1056.9 1261.9,1019.4 1271.2,1056.5 1279.9,1022.6 		"/>
		
			<linearGradient id="SVGID_15_" gradientUnits="userSpaceOnUse" x1="915.2018" y1="246.7964" x2="1372.6719" y2="246.7964" gradientTransform="matrix(1 0 0 -1 0 1309.0127)">
			<stop  offset="0" style="stop-color:#00FF66;stop-opacity:0.7"/>
			<stop  offset="1" style="stop-color:#00FF66;stop-opacity:0.65"/>
		</linearGradient>
		<polygon class="st16" points="1331,1108.8 1167.9,1092.3 1075.9,1127.4 873.5,1092.3 887.4,1054.1 899.6,1015.5 906.3,1034.8 
			915.7,997.1 923.7,1054.1 928.5,1015.5 936,1073.4 942.4,1040.1 950.2,1081.3 960.6,1007.1 972.1,1076.1 978,1053.5 987.6,1087.2 
			996.5,1041 1005.4,1086.8 1009.5,1062.2 1016.9,1092.3 1021,1058 1026.7,1086.1 1032.3,1076.8 1039.3,1092.3 1042.7,1042.2 
			1049.2,1092.3 1055.7,1065.6 1063,1103.5 1070.3,1049.4 1076.9,1092.3 1082.9,1071.1 1090.7,1100.5 1098.1,1042.2 1104.8,1087.6 
			1111.8,1065.6 1119.6,1092.3 1124,1046.2 1131.3,1086.1 1138.6,1065.6 1144.4,1085.3 1150.7,1071.1 1158.3,1084.2 1167.4,1038 
			1175.9,1075 1181.8,1049.4 1189.8,1071.1 1197.8,1020.9 1207.8,1071.1 1216.3,1048.8 1221.3,1071.1 1228.2,1021.2 1236.7,1058 
			1246.5,1041 1255.7,1056.9 1261.9,1019.4 1271.2,1056.5 1279.9,1022.6 		"/>
		<g id="acb52e0a-4cfc-4982-977c-fedccc0ee0c1">
			<rect x="1330.4" y="1013.3" class="st4" width="1.1" height="85.4"/>
			<rect x="1330.4" y="1013.3" class="st17" width="1.1" height="85.4"/>
			<polygon class="st4" points="1333.8,1011.3 1333.2,1010.7 1335.3,1010.7 1338,1007.4 1360.4,1010.1 1360.6,1011.3 			"/>
			<polygon class="st18" points="1333.8,1011.3 1333.2,1010.7 1335.3,1010.7 1338,1007.4 1360.4,1010.1 1360.6,1011.3 			"/>
			<polygon class="st4" points="1333.8,1011.3 1333.2,1011.8 1335.3,1011.8 1338,1015.1 1360.4,1012.4 1360.6,1011.3 			"/>
			<polygon class="st4" points="1333.8,1011.3 1333.2,1010.7 1335.3,1010.7 1338,1007.4 1360.4,1010.1 1360.6,1011.3 			"/>
			<polygon class="st4" points="1328.1,1011.3 1328.8,1010.7 1326.6,1010.7 1323.9,1007.4 1301.6,1010.1 1301.3,1011.3 			"/>
			<polygon class="st18" points="1328.1,1011.3 1328.8,1010.7 1326.6,1010.7 1323.9,1007.4 1301.6,1010.1 1301.3,1011.3 			"/>
			<polygon class="st4" points="1328.1,1011.3 1328.8,1011.8 1326.6,1011.8 1323.9,1015.1 1301.6,1012.4 1301.3,1011.3 			"/>
			<polygon class="st4" points="1328.1,1011.3 1328.8,1010.7 1326.6,1010.7 1323.9,1007.4 1301.6,1010.1 1301.3,1011.3 			"/>
			<polygon class="st4" points="1331,1014.1 1331.5,1013.5 1331.5,1015.6 1334.8,1018.3 1332.1,1040.6 1331,1040.9 			"/>
			<polygon class="st18" points="1331,1014.1 1331.5,1013.5 1331.5,1015.6 1334.8,1018.3 1332.1,1040.6 1331,1040.9 			"/>
			<polygon class="st4" points="1331,1014.1 1330.4,1013.5 1330.4,1015.6 1327.1,1018.3 1329.9,1040.6 1331,1040.9 			"/>
			<polygon class="st4" points="1331,1014.1 1331.5,1013.5 1331.5,1015.6 1334.8,1018.3 1332.1,1040.6 1331,1040.9 			"/>
			<polygon class="st4" points="1331,1008.4 1331.5,1009 1331.5,1006.9 1334.8,1004.2 1332.1,981.9 1331,981.6 			"/>
			<polygon class="st18" points="1331,1008.4 1331.5,1009 1331.5,1006.9 1334.8,1004.2 1332.1,981.9 1331,981.6 			"/>
			<polygon class="st4" points="1331,1008.4 1330.4,1009 1330.4,1006.9 1327.1,1004.2 1329.9,981.9 1331,981.6 			"/>
			<path class="st19" d="M1333.8,1011.3l-0.6-0.5h2.1l2.7-3.3l22.3,2.8l0.3,1.1H1333.8z M1328.1,1011.3l0.6,0.5h-2.2l-2.7,3.3
				l-22.3-2.8l-0.3-1.1H1328.1z M1331,1014.1l0.5-0.6v2.2l3.3,2.7l-2.8,22.3l-1.1,0.3V1014.1z M1331,1008.4l-0.5,0.6v-2.2l-3.3-2.7
				l2.8-22.3l1.1-0.3V1008.4z"/>
			<polygon class="st4" points="1331,1008.4 1331.5,1009 1331.5,1006.9 1334.8,1004.2 1332.1,981.9 1331,981.6 			"/>
			<radialGradient id="SVGID_16_" cx="1333.012" cy="1011.0063" r="117.75" gradientUnits="userSpaceOnUse">
				<stop  offset="0" style="stop-color:#00D9FF;stop-opacity:0.2"/>
				<stop  offset="1" style="stop-color:#00D9FF;stop-opacity:0"/>
			</radialGradient>
			<path class="st20" d="M1333.8,1011.3l-0.6,0.5h2.1l2.7,3.3l22.3-2.8l0.3-1.1H1333.8z M1328.1,1011.3l0.6-0.5h-2.2l-2.7-3.3
				l-22.3,2.8l-0.3,1.1H1328.1z M1331,1014.1l-0.5-0.6v2.2l-3.3,2.7l2.8,22.3l1.1,0.3V1014.1z M1331,1008.4l0.5,0.6v-2.2l3.3-2.7
				l-2.8-22.3l-1.1-0.3V1008.4z"/>
			<circle class="st4" cx="1331" cy="1011.2" r="2.9"/>
			<circle class="st21" cx="1331" cy="1011.2" r="2.1"/>
		</g>
		<path class="st4" d="M678.3,943.1c82,13.8,199,123.6,324.1,153.2c24.8,5.9,83.4,19.1,151.2-0.5c13.8-4,27.3-9.1,40.3-15.3
			c91.6,26,123.5,18.9,133.1,4.2c3.1-4.7,3.2-9.1,8.2-14.2c19.7-19.8,67.7-2.2,83.4,3.7c84.1,31.8,89.4,89,142.5,96
			c74.3,9.8,112.4-48.5,175.7-60.8c72.1-13.9,185.9,13.1,360,217.7H165.9C406.2,987.2,569.1,924.8,678.3,943.1z"/>
		
			<radialGradient id="SVGID_17_" cx="1699.4635" cy="-863.0316" r="1172.26" gradientTransform="matrix(-1 9.599216e-03 4.895600e-03 0.51 2628.8728 1404.7977)" gradientUnits="userSpaceOnUse">
			<stop  offset="0" style="stop-color:#00D9FF;stop-opacity:0.5"/>
			<stop  offset="1" style="stop-color:#00D9FF;stop-opacity:0.2"/>
		</radialGradient>
		<path class="st22" d="M678.3,943.1c82,13.8,199,123.6,324.1,153.2c24.8,5.9,83.4,19.1,151.2-0.5c13.8-4,27.3-9.1,40.3-15.3
			c91.6,26,123.5,18.9,133.1,4.2c3.1-4.7,3.2-9.1,8.2-14.2c19.7-19.8,67.7-2.2,83.4,3.7c84.1,31.8,89.4,89,142.5,96
			c74.3,9.8,112.4-48.5,175.7-60.8c72.1-13.9,185.9,13.1,360,217.7H165.9C406.2,987.2,569.1,924.8,678.3,943.1z"/>
		
			<radialGradient id="SVGID_18_" cx="1119.1119" cy="229.0664" r="469.13" gradientTransform="matrix(1 0 0 -1 0 1309.0127)" gradientUnits="userSpaceOnUse">
			<stop  offset="0" style="stop-color:#1F2042;stop-opacity:0.3"/>
			<stop  offset="1" style="stop-color:#1F2042;stop-opacity:0"/>
		</radialGradient>
		<path class="st23" d="M933,1074.5c16.9,22.5,34.5,34,46.1,40.1c53.9,28.3,117.4,10.7,161.6-1.5c25.4-7,19.8-8.2,35.9-11.5
			c61-12.6,90.3,14.5,139.4-2.1c5.3-1.7,10.4-4,15.1-6.9c6.4-4.1,9.4-6.9,11.8-8.7c15.6-11.2,56.7,1.3,65.7,25.3
			c2.4,6.3,0.4,7.7,1.8,13.3c8.2,31.2,80.5,22.3,97.8,51.4c13.7,23.1-10.4,64.6-28.9,86.7c-101.6,121.6-374.6,45-447.7,24.5
			c-68.4-19.2-211.1-60.3-210.9-119.7C821,1123,894.1,1089.7,933,1074.5z"/>
		<rect x="1447.8" y="1004.7" class="st4" width="2.4" height="191.3"/>
		<rect x="1447.8" y="1004.7" class="st17" width="2.4" height="191.3"/>
		<polygon class="st4" points="1455.4,1000.1 1454,998.9 1458.8,998.9 1464.8,991.4 1514.8,997.6 1515.5,1000.1 		"/>
		<polygon class="st24" points="1455.4,1000.1 1454,998.9 1458.8,998.9 1464.8,991.4 1514.8,997.6 1515.5,1000.1 		"/>
		<polygon class="st4" points="1455.4,1000.1 1454,1001.3 1458.8,1001.3 1464.8,1008.8 1514.8,1002.6 1515.5,1000.1 		"/>
		<polygon class="st4" points="1455.4,1000.1 1454,998.9 1458.8,998.9 1464.8,991.4 1514.8,997.6 1515.5,1000.1 		"/>
		<polygon class="st4" points="1442.7,1000.1 1444.1,998.9 1439.2,998.9 1433.2,991.4 1383.2,997.6 1382.6,1000.1 		"/>
		<polygon class="st24" points="1442.7,1000.1 1444.1,998.9 1439.2,998.9 1433.2,991.4 1383.2,997.6 1382.6,1000.1 		"/>
		<polygon class="st4" points="1442.7,1000.1 1444.1,1001.3 1439.2,1001.3 1433.2,1008.8 1383.2,1002.6 1382.6,1000.1 		"/>
		<polygon class="st4" points="1442.7,1000.1 1444.1,998.9 1439.2,998.9 1433.2,991.4 1383.2,997.6 1382.6,1000.1 		"/>
		<polygon class="st4" points="1449,1006.4 1450.2,1005.1 1450.2,1009.9 1457.7,1015.9 1451.5,1065.9 1449,1066.5 		"/>
		<polygon class="st24" points="1449,1006.4 1450.2,1005.1 1450.2,1009.9 1457.7,1015.9 1451.5,1065.9 1449,1066.5 		"/>
		<polygon class="st4" points="1449,1006.4 1447.8,1005.1 1447.8,1009.9 1440.3,1015.9 1446.5,1065.9 1449,1066.5 		"/>
		<polygon class="st4" points="1449,1006.4 1450.2,1005.1 1450.2,1009.9 1457.7,1015.9 1451.5,1065.9 1449,1066.5 		"/>
		<polygon class="st4" points="1449,993.8 1450.2,995.1 1450.2,990.3 1457.7,984.3 1451.5,934.3 1449,933.7 		"/>
		<polygon class="st24" points="1449,993.8 1450.2,995.1 1450.2,990.3 1457.7,984.3 1451.5,934.3 1449,933.7 		"/>
		<polygon class="st4" points="1449,993.8 1447.8,995.1 1447.8,990.3 1440.3,984.3 1446.5,934.3 1449,933.7 		"/>
		<path class="st19" d="M1455.4,1000.1l-1.4-1.2h4.8l6-7.5l50,6.2l0.6,2.5H1455.4z M1442.7,1000.1l1.4,1.2l-4.8,0l-6,7.5l-50-6.2
			l-0.6-2.5H1442.7z M1449,1006.4l1.2-1.4v4.8l7.5,6l-6.2,50l-2.5,0.6V1006.4z M1449,993.8l-1.2,1.4l0-4.8l-7.5-6l6.2-50l2.5-0.6
			V993.8z"/>
		<polygon class="st4" points="1449,993.8 1450.2,995.1 1450.2,990.3 1457.7,984.3 1451.5,934.3 1449,933.7 		"/>
		<radialGradient id="SVGID_19_" cx="1449.0219" cy="1000.0964" r="66.43" gradientUnits="userSpaceOnUse">
			<stop  offset="0" style="stop-color:#00D9FF;stop-opacity:0.2"/>
			<stop  offset="1" style="stop-color:#00D9FF;stop-opacity:0"/>
		</radialGradient>
		<path class="st25" d="M1455.4,1000.1l-1.4,1.2l4.8,0l6,7.5l50-6.2l0.6-2.5H1455.4z M1442.7,1000.1l1.4-1.2h-4.8l-6-7.5l-50,6.2
			l-0.6,2.5H1442.7z M1449,1006.4l-1.2-1.4l0,4.8l-7.5,6l6.2,50l2.5,0.6V1006.4z M1449,993.8l1.2,1.4v-4.8l7.5-6l-6.2-50l-2.5-0.6
			V993.8z"/>
		<circle class="st4" cx="1449" cy="999.9" r="6.5"/>
		<circle class="st21" cx="1449" cy="999.9" r="4.8"/>
		<polygon class="st26" points="508.9,600.8 508.8,600.9 508.8,600.7 		"/>
		<line class="st27" x1="632.7" y1="1229.2" x2="632.6" y2="1227.8"/>
		<line class="st27" x1="456.3" y1="1034.9" x2="476.1" y2="1056.9"/>
		<polygon class="st26" points="509,600.9 508.9,600.8 509,600.7 		"/>
		<polygon class="st4" points="258.1,863.1 325.7,842.3 271.1,916.1 		"/>
		
			<linearGradient id="SVGID_20_" gradientUnits="userSpaceOnUse" x1="253.7131" y1="413.6242" x2="460.233" y2="523.4343" gradientTransform="matrix(1 0 0 -1 0 1309.0127)">
			<stop  offset="0" style="stop-color:#00D9FF;stop-opacity:0.3"/>
			<stop  offset="1" style="stop-color:#00D9FF;stop-opacity:0"/>
		</linearGradient>
		<polygon class="st28" points="258.1,863.1 325.7,842.3 271.1,916.1 		"/>
		<line class="st27" x1="668.2" y1="1156.3" x2="668.2" y2="1155"/>
		
			<linearGradient id="SVGID_21_" gradientUnits="userSpaceOnUse" x1="1158.1676" y1="477.7427" x2="1826.8379" y2="477.7427" gradientTransform="matrix(1 0 0 -1 0 1309.0127)">
			<stop  offset="0" style="stop-color:#FFFFFF;stop-opacity:0.8"/>
			<stop  offset="1" style="stop-color:#FFD48F;stop-opacity:0"/>
		</linearGradient>
		<path class="st29" d="M1158.2,868.5c1.1-17.5,84-0.6,175.3-49.3c74.8-40,78.5-83,134.2-90.3c46.4-6.1,65.8,18,136.4,48.9
			c126.2,55.2,215.5,15.2,222.4,41.5c10.3,39.3-181.8,156.1-269.8,100.8c-25.1-15.8-24.8-43.8-53.4-51.9
			c-35.8-10.2-53.4,25.6-118.7,41.4c-45.6,11-83.4,4.8-117.7-0.8C1227.8,902.4,1157.2,884.7,1158.2,868.5z"/>
		
			<linearGradient id="SVGID_22_" gradientUnits="userSpaceOnUse" x1="1005.0394" y1="769.078" x2="379.2514" y2="769.078" gradientTransform="matrix(1 0 0 -1 0 1309.0127)">
			<stop  offset="0" style="stop-color:#FFFFFF;stop-opacity:0.8"/>
			<stop  offset="1" style="stop-color:#FFFFFF;stop-opacity:0"/>
		</linearGradient>
		<path class="st30" d="M522.7,516.9c33.3,6.7,55.4,30.1,84.5,20.8c35.5-11.4,27.7-64.4,62.3-81.5c34-16.9,70.3,20.3,136.4,48.9
			c124.5,53.9,217.7,18.1,222.4,41.5c5.2,26-105.4,93.8-214.6,79.5c-47-6.2-49.7-21.8-108.6-30.5c-62.1-9.2-100.8-3-175.8,12.7
			c-42.4,8.8-105.8,17.9-187.4,14C427.3,524.4,484.6,509.3,522.7,516.9z"/>
		<g id="_x33_dbeca25-7912-48ee-bfdd-1bb9554fdc81">
			<path class="st4" d="M515.4,804.6l-32.3,31.7l-67.5-75.8L379,774.1l-22.6,29.8l0,0l-35.5,46.7l0,0l-49.9,65.6l-24.6-16.8l0,0
				c0,0-202.2,309.2-268.5,381.4H85.4l415.2-100.9c59.5-61.9,119-123.8,178.5-185.7l1.4-0.7l27.1-13.1L515.4,804.6z"/>
			
				<linearGradient id="SVGID_23_" gradientUnits="userSpaceOnUse" x1="284.5731" y1="77.6057" x2="527.1531" y2="497.7657" gradientTransform="matrix(1 0 0 -1 0 1309.0127)">
				<stop  offset="0" style="stop-color:#00D9FF;stop-opacity:0"/>
				<stop  offset="1" style="stop-color:#00D9FF;stop-opacity:0.2"/>
			</linearGradient>
			<path class="st31" d="M515.4,804.6l-32.3,31.7l-67.5-75.8L379,774.1l-22.6,29.8l0,0l-35.5,46.7l0,0l-49.9,65.6l-24.6-16.8l0,0
				c0,0-202.2,309.2-268.5,381.4H85.4l415.2-100.9c59.5-61.9,119-123.8,178.5-185.7l1.4-0.7l27.1-13.1L515.4,804.6z"/>
			<path class="st4" d="M483.1,836.3L85.4,1280.8H-22c58-63.2,280.2-417.7,280.2-417.7l12.9,53l49.9-65.6l35.5-46.7l0,0l22.6-29.8
				l36.6-13.6L483.1,836.3z"/>
			
				<linearGradient id="SVGID_24_" gradientUnits="userSpaceOnUse" x1="-5.1825" y1="155.3659" x2="733.4075" y2="548.086" gradientTransform="matrix(1 0 0 -1 0 1309.0127)">
				<stop  offset="0" style="stop-color:#FF9D00;stop-opacity:0"/>
				<stop  offset="1" style="stop-color:#00D9FF;stop-opacity:0.3"/>
			</linearGradient>
			<path class="st32" d="M483.1,836.3L85.4,1280.8H-22c58-63.2,280.2-417.7,280.2-417.7l12.9,53l49.9-65.6l35.5-46.7l0,0l22.6-29.8
				l36.6-13.6L483.1,836.3z"/>
			
				<linearGradient id="SVGID_25_" gradientUnits="userSpaceOnUse" x1="-0.6871" y1="90.9744" x2="608.9155" y2="415.1105" gradientTransform="matrix(1 0 0 -1 0 1309.0127)">
				<stop  offset="0" style="stop-color:#FF9D00;stop-opacity:0"/>
				<stop  offset="1" style="stop-color:#FF9D00;stop-opacity:5.000000e-02"/>
			</linearGradient>
			<polygon class="st33" points="707.6,980.4 680.6,993.5 679.1,994.2 406.7,1125.7 321.6,1166.7 321.6,1166.7 85.4,1280.8 
				483.1,836.3 515.4,804.6 			"/>
			
				<radialGradient id="SVGID_26_" cx="418.3181" cy="-122.6865" r="297.06" gradientTransform="matrix(0.3931 0.9195 0.7724 -0.3302 477.2867 369.4974)" gradientUnits="userSpaceOnUse">
				<stop  offset="0" style="stop-color:#00D9FF;stop-opacity:0.5"/>
				<stop  offset="1" style="stop-color:#00D9FF;stop-opacity:0"/>
			</radialGradient>
			<polyline class="st34" points="379,774.1 264.4,1080.7 483.1,836.3 415.6,760.5 			"/>
			
				<radialGradient id="SVGID_27_" cx="1584.9966" cy="-40.5225" r="285.61" gradientTransform="matrix(-0.74 -0.68 -0.31 0.34 1797.1178 1976.8323)" gradientUnits="userSpaceOnUse">
				<stop  offset="0" style="stop-color:#00D9FF;stop-opacity:0.2"/>
				<stop  offset="1" style="stop-color:#00D9FF;stop-opacity:0"/>
			</radialGradient>
			<polygon class="st35" points="483.1,836.3 526.3,903.5 483.1,1015.2 500.6,1179.9 668.3,999.4 707.6,980.4 515.4,804.6 			"/>
		</g>
		<polygon class="st4" points="932.5,1155 1066.4,1227.8 1187.6,1158.8 1413,1187.1 1376,1085.5 1363.8,1047 1357.1,1066.3 
			1347.8,1028.5 1339.7,1085.5 1334.9,1047 1327.4,1104.9 1321,1071.6 1313.2,1112.7 1302.9,1038.6 1291.4,1107.5 1285.4,1084.9 
			1275.8,1118.7 1266.9,1072.4 1258,1118.3 1253.9,1093.7 1246.5,1123.8 1242.4,1089.5 1236.7,1117.6 1231.1,1108.3 1224.2,1123.8 
			1220.8,1073.7 1214.3,1123.8 1207.8,1097 1200.4,1135 1193.2,1080.8 1186.6,1123.8 1180.6,1102.6 1172.8,1132 1165.4,1073.7 
			1158.7,1119 1151.6,1097 1143.9,1123.8 1139.4,1077.7 1132.1,1117.6 1124.8,1097 1119,1116.8 1112.7,1102.6 1105.2,1115.7 
			1096.1,1084.3 1087.5,1121.3 1081.6,1095.7 1073.6,1117.4 1065.7,1067.2 1055.7,1117.4 1047.1,1095.1 1042.2,1117.4 
			1035.3,1067.5 1026.8,1104.3 1016.9,1087.3 1007.7,1103.2 1001.6,1065.7 992.3,1102.8 985.6,1076.9 		"/>
		<polygon class="st36" points="932.5,1155 1066.4,1227.8 1187.6,1158.8 1413,1187.1 1376,1085.5 1363.8,1047 1357.1,1066.3 
			1347.8,1028.5 1339.7,1085.5 1334.9,1047 1327.4,1104.9 1321,1071.6 1313.2,1112.7 1302.9,1038.6 1291.4,1107.5 1285.4,1084.9 
			1275.8,1118.7 1266.9,1072.4 1258,1118.3 1253.9,1093.7 1246.5,1123.8 1242.4,1089.5 1236.7,1117.6 1231.1,1108.3 1224.2,1123.8 
			1220.8,1073.7 1214.3,1123.8 1207.8,1097 1200.4,1135 1193.2,1080.8 1186.6,1123.8 1180.6,1102.6 1172.8,1132 1165.4,1073.7 
			1158.7,1119 1151.6,1097 1143.9,1123.8 1139.4,1077.7 1132.1,1117.6 1124.8,1097 1119,1116.8 1112.7,1102.6 1105.2,1115.7 
			1096.1,1084.3 1087.5,1121.3 1081.6,1095.7 1073.6,1117.4 1065.7,1067.2 1055.7,1117.4 1047.1,1095.1 1042.2,1117.4 
			1035.3,1067.5 1026.8,1104.3 1016.9,1087.3 1007.7,1103.2 1001.6,1065.7 992.3,1102.8 985.6,1076.9 		"/>
		<polygon class="st37" points="932.5,1155 1066.4,1227.8 1187.6,1158.8 1413,1187.1 1376,1085.5 1363.8,1047 1357.1,1066.3 
			1347.8,1028.5 1339.7,1085.5 1334.9,1047 1327.4,1104.9 1321,1071.6 1313.2,1112.7 1302.9,1038.6 1291.4,1107.5 1285.4,1084.9 
			1275.8,1118.7 1266.9,1072.4 1258,1118.3 1253.9,1093.7 1246.5,1123.8 1242.4,1089.5 1236.7,1117.6 1231.1,1108.3 1224.2,1123.8 
			1220.8,1073.7 1214.3,1123.8 1207.8,1097 1200.4,1135 1193.2,1080.8 1186.6,1123.8 1180.6,1102.6 1172.8,1132 1165.4,1073.7 
			1158.7,1119 1151.6,1097 1143.9,1123.8 1139.4,1077.7 1132.1,1117.6 1124.8,1097 1119,1116.8 1112.7,1102.6 1105.2,1115.7 
			1096.1,1084.3 1087.5,1121.3 1081.6,1095.7 1073.6,1117.4 1065.7,1067.2 1055.7,1117.4 1047.1,1095.1 1042.2,1117.4 
			1035.3,1067.5 1026.8,1104.3 1016.9,1087.3 1007.7,1103.2 1001.6,1065.7 992.3,1102.8 985.6,1076.9 		"/>
		<rect x="1185.3" y="784.2" class="st4" width="4.5" height="357.5"/>
		<rect x="1185.3" y="784.2" class="st17" width="4.5" height="357.5"/>
		<polygon class="st4" points="1199.4,775.6 1196.8,773.3 1205.8,773.4 1217.1,759.4 1310.5,771 1311.7,775.6 		"/>
		<polygon class="st19" points="1199.4,775.6 1196.8,773.3 1205.8,773.4 1217.1,759.4 1310.5,771 1311.7,775.6 		"/>
		<polygon class="st4" points="1199.4,775.6 1196.8,777.9 1205.8,777.9 1217.1,791.8 1310.5,780.3 1311.7,775.6 		"/>
		<polygon class="st19" points="1199.4,775.6 1196.8,777.9 1205.8,777.9 1217.1,791.8 1310.5,780.3 1311.7,775.6 		"/>
		<polygon class="st4" points="1199.4,775.6 1196.8,773.3 1205.8,773.4 1217.1,759.4 1310.5,771 1311.7,775.6 		"/>
		<polygon class="st4" points="1175.7,775.6 1178.3,773.3 1169.3,773.4 1158,759.4 1064.5,771 1063.4,775.6 		"/>
		<polygon class="st19" points="1175.7,775.6 1178.3,773.3 1169.3,773.4 1158,759.4 1064.5,771 1063.4,775.6 		"/>
		<polygon class="st4" points="1175.7,775.6 1178.3,777.9 1169.3,777.9 1158,791.8 1064.5,780.3 1063.4,775.6 		"/>
		<polygon class="st19" points="1175.7,775.6 1178.3,777.9 1169.3,777.9 1158,791.8 1064.5,780.3 1063.4,775.6 		"/>
		<polygon class="st4" points="1175.7,775.6 1178.3,773.3 1169.3,773.4 1158,759.4 1064.5,771 1063.4,775.6 		"/>
		<polygon class="st4" points="1187.5,787.5 1189.8,784.9 1189.8,793.9 1203.8,805.1 1192.2,898.6 1187.5,899.8 		"/>
		<polygon class="st19" points="1187.5,787.5 1189.8,784.9 1189.8,793.9 1203.8,805.1 1192.2,898.6 1187.5,899.8 		"/>
		<polygon class="st4" points="1187.5,787.5 1185.3,784.9 1185.3,793.9 1171.3,805.1 1182.9,898.6 1187.5,899.8 		"/>
		<polygon class="st4" points="1187.5,787.5 1189.8,784.9 1189.8,793.9 1203.8,805.1 1192.2,898.6 1187.5,899.8 		"/>
		<polygon class="st19" points="1187.5,787.5 1189.8,784.9 1189.8,793.9 1203.8,805.1 1192.2,898.6 1187.5,899.8 		"/>
		<polygon class="st4" points="1187.5,763.8 1189.8,766.4 1189.8,757.3 1203.8,746.1 1192.2,652.6 1187.5,651.5 		"/>
		<polygon class="st19" points="1187.5,763.8 1189.8,766.4 1189.8,757.3 1203.8,746.1 1192.2,652.6 1187.5,651.5 		"/>
		<polygon class="st4" points="1187.5,763.8 1185.3,766.4 1185.3,757.3 1171.3,746.1 1182.9,652.6 1187.5,651.5 		"/>
		<polygon class="st19" points="1187.5,763.8 1185.3,766.4 1185.3,757.3 1171.3,746.1 1182.9,652.6 1187.5,651.5 		"/>
		<polygon class="st4" points="1187.5,763.8 1189.8,766.4 1189.8,757.3 1203.8,746.1 1192.2,652.6 1187.5,651.5 		"/>
		<radialGradient id="SVGID_28_" cx="1247.512" cy="683.173" r="269.5445" gradientUnits="userSpaceOnUse">
			<stop  offset="0" style="stop-color:#00D9FF;stop-opacity:0.2"/>
			<stop  offset="1" style="stop-color:#00D9FF;stop-opacity:0"/>
		</radialGradient>
		<path class="st38" d="M1199.4,775.6l-2.6-2.3l9,0l11.3-14l93.5,11.6l1.2,4.7H1199.4z M1175.7,775.6l2.6-2.3l-9,0l-11.3-14
			l-93.5,11.6l-1.2,4.7H1175.7z M1187.5,787.5l-2.3-2.6l0,9l-14,11.2l11.6,93.5l4.7,1.2V787.5z M1187.5,763.8l2.3,2.6l0-9l14-11.2
			l-11.6-93.5l-4.7-1.2V763.8z"/>
		<circle class="st4" cx="1187.5" cy="775.3" r="12.2"/>
		<circle class="st21" cx="1187.5" cy="775.3" r="8.9"/>
		<g id="e2af6eec-1616-44e6-b8e3-acd7388eb210">
			<polygon class="st4" points="1069.9,1267.2 396.7,1267.2 525.2,1052.5 582.9,848.2 628.3,806.5 733.3,839.1 744.8,829.9 
				822.1,916.5 876.7,1017 998.6,1145.4 			"/>
			
				<radialGradient id="SVGID_29_" cx="837.2119" cy="409.2464" r="423.57" gradientTransform="matrix(1 0 0 -1 0 1309.0127)" gradientUnits="userSpaceOnUse">
				<stop  offset="0" style="stop-color:#00D9FF;stop-opacity:0.2"/>
				<stop  offset="1" style="stop-color:#00D9FF;stop-opacity:5.000000e-02"/>
			</radialGradient>
			<polygon class="st39" points="1069.9,1267.2 396.7,1267.2 525.2,1052.5 582.9,848.2 628.3,806.5 733.3,839.1 744.8,829.9 
				822.1,916.5 876.7,1017 998.6,1145.4 			"/>
			
				<radialGradient id="SVGID_30_" cx="738.4207" cy="-48.1973" r="288.42" gradientTransform="matrix(0.599 0.8007 0.6486 -0.4852 488.2844 255.6295)" gradientUnits="userSpaceOnUse">
				<stop  offset="0" style="stop-color:#00D9FF;stop-opacity:0.3"/>
				<stop  offset="1" style="stop-color:#00D9FF;stop-opacity:0"/>
			</radialGradient>
			<polygon class="st40" points="1069.9,1267.2 396.7,1267.2 525.2,1052.5 582.9,848.2 628.3,806.5 733.3,839.1 744.8,829.9 
				822.1,916.5 876.7,1017 998.6,1145.4 			"/>
			
				<radialGradient id="SVGID_31_" cx="822.7619" cy="402.5763" r="454.64" gradientTransform="matrix(1 0 0 -1 0 1309.0127)" gradientUnits="userSpaceOnUse">
				<stop  offset="0" style="stop-color:#00D9FF;stop-opacity:0"/>
				<stop  offset="1" style="stop-color:#00D9FF;stop-opacity:5.000000e-02"/>
			</radialGradient>
			<polyline class="st41" points="582.9,846.3 628.3,804.6 654.6,812.8 744.8,828.1 822.1,914.7 876.7,1015.2 998.6,1143.6 
				1069.9,1265.4 776.6,1265.4 638.5,1204.9 			"/>
			
				<radialGradient id="SVGID_32_" cx="841.6619" cy="424.8064" r="325.71" gradientTransform="matrix(1 0 0 -1 0 1309.0127)" gradientUnits="userSpaceOnUse">
				<stop  offset="0" style="stop-color:#00D9FF;stop-opacity:5.000000e-02"/>
				<stop  offset="1" style="stop-color:#FF9D00;stop-opacity:0"/>
			</radialGradient>
			<polygon class="st42" points="918.9,1265.4 776.6,1265.4 664.4,1104.5 628.3,804.6 654.6,812.8 733.3,837.2 798,986.4 
				798,1098.5 			"/>
			
				<radialGradient id="SVGID_33_" cx="834.9819" cy="374.0264" r="380.17" gradientTransform="matrix(1 0 0 -1 0 1309.0127)" gradientUnits="userSpaceOnUse">
				<stop  offset="0" style="stop-color:#00D9FF;stop-opacity:0.15"/>
				<stop  offset="1" style="stop-color:#00D9FF;stop-opacity:0"/>
			</radialGradient>
			<polygon class="st43" points="1069.9,1265.4 918.9,1265.4 798,1098.5 798,986.4 733.3,837.2 744.8,828.1 822.1,914.7 
				876.7,1015.2 998.6,1143.6 			"/>
			
				<linearGradient id="SVGID_34_" gradientUnits="userSpaceOnUse" x1="882.5633" y1="141.9757" x2="945.8632" y2="261.1357" gradientTransform="matrix(1 0 0 -1 0 1309.0127)">
				<stop  offset="0" style="stop-color:#FF9D00;stop-opacity:0"/>
				<stop  offset="1" style="stop-color:#FF9D00;stop-opacity:5.000000e-02"/>
			</linearGradient>
			<polyline class="st44" points="818.3,1093.1 998.6,1143.6 876.7,1015.2 			"/>
		</g>
		<path class="st4" d="M125.9,1264.4c28.5-25.3,110.5-96.8,227.7-107.8c33.2-3.1,67.4,2.7,134.5,14.3
			c197.5,34.4,216.8,70.2,318.3,64.2c47.2-2.8,111.8-6.7,178.8-42.8c29.6-16,61.4-36.1,117.2-56c20-7.1,44-12.8,74.9-15.3
			c39.4-3,79.1-0.6,117.9,7.1c71.8,14.2,79.3,34.8,127.9,45.7c119.2,26.7,175-74,251.4-36.7c50.5,24.7,47.4,79,117.1,104.5
			c31.4,11.5,57.2,6.6,71.5,9.5c115.9,23.5,201.4,86.7,255.7,136.6c-165-0.9,181.6,78.5,0,87.2c-523.1,25.2-1614,2.5-2089.1,0
			c-54.7-0.3,59.5-98.1,4.8-98.3C58.9,1334.5,89.7,1296.7,125.9,1264.4z"/>
		
			<radialGradient id="SVGID_35_" cx="1103.692" cy="1018.7064" r="1748" gradientTransform="matrix(1 0 0 -1 0 1309.0127)" gradientUnits="userSpaceOnUse">
			<stop  offset="0" style="stop-color:#00D9FF;stop-opacity:0.1"/>
			<stop  offset="1" style="stop-color:#FF9D00;stop-opacity:0"/>
		</radialGradient>
		<path class="st45" d="M125.9,1264.4c28.5-25.3,110.5-96.8,227.7-107.8c33.2-3.1,67.4,2.7,134.5,14.3
			c197.5,34.4,216.8,70.2,318.3,64.2c47.2-2.8,111.8-6.7,178.8-42.8c29.6-16,61.4-36.1,117.2-56c20-7.1,44-12.8,74.9-15.3
			c39.4-3,79.1-0.6,117.9,7.1c71.8,14.2,79.3,34.8,127.9,45.7c119.2,26.7,175-74,251.4-36.7c50.5,24.7,47.4,79,117.1,104.5
			c31.4,11.5,57.2,6.6,71.5,9.5c115.9,23.5,201.4,86.7,255.7,136.6c-165-0.9,181.6,78.5,0,87.2c-523.1,25.2-1614,2.5-2089.1,0
			c-54.7-0.3,59.5-98.1,4.8-98.3C58.9,1334.5,89.7,1296.7,125.9,1264.4z"/>
		
			<radialGradient id="SVGID_36_" cx="997.5219" cy="426.1664" r="803.58" gradientTransform="matrix(1 0 0 -1 0 1309.0127)" gradientUnits="userSpaceOnUse">
			<stop  offset="0" style="stop-color:#FF9D00;stop-opacity:0.1"/>
			<stop  offset="1" style="stop-color:#00D9FF;stop-opacity:0.1"/>
		</radialGradient>
		<path class="st46" d="M125.9,1264.4c28.5-25.3,110.5-96.8,227.7-107.8c33.2-3.1,67.4,2.7,134.5,14.3
			c197.5,34.4,216.8,70.2,318.3,64.2c47.2-2.8,111.8-6.7,178.8-42.8c29.6-16,61.4-36.1,117.2-56c20-7.1,44-12.8,74.9-15.3
			c39.4-3,79.1-0.6,117.9,7.1c71.8,14.2,79.3,34.8,127.9,45.7c119.2,26.7,175-74,251.4-36.7c50.5,24.7,47.4,79,117.1,104.5
			c31.4,11.5,57.2,6.6,71.5,9.5c115.9,23.5,201.4,86.7,255.7,136.6c-165-0.9,181.6,78.5,0,87.2c-523.1,25.2-1614,2.5-2089.1,0
			c-54.7-0.3,59.5-98.1,4.8-98.3C58.9,1334.5,89.7,1296.7,125.9,1264.4z"/>
		
			<radialGradient id="SVGID_37_" cx="911.0119" cy="-172.2342" r="330.45" gradientTransform="matrix(6.123234e-17 1 3.04 -1.861463e-16 1438.4028 44.2744)" gradientUnits="userSpaceOnUse">
			<stop  offset="0" style="stop-color:#00D9FF;stop-opacity:0.3"/>
			<stop  offset="1" style="stop-color:#00D9FF;stop-opacity:0"/>
		</radialGradient>
		<path class="st47" d="M125.9,1264.4c28.5-25.3,110.5-96.8,227.7-107.8c33.2-3.1,67.4,2.7,134.5,14.3
			c197.5,34.4,216.8,70.2,318.3,64.2c47.2-2.8,111.8-6.7,178.8-42.8c29.6-16,61.4-36.1,117.2-56c20-7.1,44-12.8,74.9-15.3
			c39.4-3,79.1-0.6,117.9,7.1c71.8,14.2,79.3,34.8,127.9,45.7c119.2,26.7,175-74,251.4-36.7c50.5,24.7,47.4,79,117.1,104.5
			c31.4,11.5,57.2,6.6,71.5,9.5c115.9,23.5,255.7,136.6,255.7,136.6v87.2H34.7v-98.3C34.7,1376.6,80.6,1304.7,125.9,1264.4z"/>
		<path class="st48" d="M1064,716.6c0.5,1.8,0.8,3.6,0.8,5.5l-5.5,0.8l2.5,2.1l0.3,3.7l4.2-3.8c1.2,2.4,2,5.1,2.4,7.8
			c0.8,6.5-0.7,13-4.2,18.5c1.7-2.6,4.6-3.3,6.2-2.2c0.9,0.7,1.5,1.9,1.5,3.1c0.7-0.3,1.4-0.8,2.1-1.2c8.4-6.7,2.9-25.5,2.2-28
			l2.2-1.9c4.7-1,5.8-2.7,6.2-3.8v-0.1l-5.6-2.2l-6.6-0.3c-0.9-2.6-4.8-13.6-15.6-18.1c-2.4-1-5-1.6-7.6-1.8l3.8,4.2l-5.3,0.6
			C1050.9,700.8,1061.1,706,1064,716.6z"/>
		<path class="st49" d="M1064,716.6c0.5,1.8,0.8,3.6,0.8,5.5l-5.5,0.8l2.5,2.1l0.3,3.7l4.2-3.8c1.2,2.4,2,5.1,2.4,7.8
			c0.8,6.5-0.7,13-4.2,18.5c1.7-2.6,4.6-3.3,6.2-2.2c0.9,0.7,1.5,1.9,1.5,3.1c0.7-0.3,1.4-0.8,2.1-1.2c8.4-6.7,2.9-25.5,2.2-28
			l2.2-1.9c4.7-1,5.8-2.7,6.2-3.8v-0.1l-5.6-2.2l-6.6-0.3c-0.9-2.6-4.8-13.6-15.6-18.1c-2.4-1-5-1.6-7.6-1.8l3.8,4.2l-5.3,0.6
			C1050.9,700.8,1061.1,706,1064,716.6z"/>
		<path class="st50" d="M1013.1,779.8c0.5,1,0.8,2,1,3l-3,1l1.6,0.9c0.2,0.7,0.3,1.4,0.5,2.1l2-2.6c0.9,1.3,1.6,2.7,2.1,4.2
			c1.1,3.6,0.9,7.4-0.5,10.9c0.7-1.6,2.3-2.3,3.3-1.9c0.6,0.3,1,0.9,1.2,1.6c0.4-0.3,0.7-0.6,1-0.9c4.1-4.6-0.9-14.7-1.6-16.1l1-1.3
			c2.5-1,3-2.1,3.1-2.8v0l-3.4-0.7l-3.8,0.5c-0.8-1.4-4.1-7.2-10.7-8.7c-1.5-0.3-3-0.4-4.5-0.2l2.6,2l-2.9,0.9
			C1004.1,772.2,1010.4,774.1,1013.1,779.8z"/>
		<path class="st51" d="M1013.1,779.8c0.5,1,0.8,2,1,3l-3,1l1.6,0.9c0.2,0.7,0.3,1.4,0.5,2.1l2-2.6c0.9,1.3,1.6,2.7,2.1,4.2
			c1.1,3.6,0.9,7.4-0.5,10.9c0.7-1.6,2.3-2.3,3.3-1.9c0.6,0.3,1,0.9,1.2,1.6c0.4-0.3,0.7-0.6,1-0.9c4.1-4.6-0.9-14.7-1.6-16.1l1-1.3
			c2.5-1,3-2.1,3.1-2.8v0l-3.4-0.7l-3.8,0.5c-0.8-1.4-4.1-7.2-10.7-8.7c-1.5-0.3-3-0.4-4.5-0.2l2.6,2l-2.9,0.9
			C1004.1,772.2,1010.4,774.1,1013.1,779.8z"/>
		
			<radialGradient id="SVGID_38_" cx="1151.532" cy="101.6963" r="467.98" gradientTransform="matrix(1 0 0 -1 0 1309.0127)" gradientUnits="userSpaceOnUse">
			<stop  offset="0" style="stop-color:#1F2042;stop-opacity:0.2"/>
			<stop  offset="1" style="stop-color:#1F2042;stop-opacity:0"/>
		</radialGradient>
		<path class="st52" d="M2119,1387.7c10.6,18.2,27.1,52.7,17.3,87.2c-65.8,230.3-1213.8,134-1225.6,9.2
			c-2.2-23.8,35.7-61,79.2-103.6c39.8-39,66.3-51.7,100.8-98c23.9-32.1,26.6-46.6,38.6-63.8c26.1-37.4,87.2-73.8,242.8-64.6
			c15.2,7.5,28.8,14.6,51.2,19.6c119.2,26.7,175-74,251.4-36.7c50.5,24.7,47.4,79,117.1,104.5c31.4,11.5,57.2,6.6,71.5,9.5
			C1979.2,1274.6,2064.7,1337.8,2119,1387.7z"/>
		
			<radialGradient id="SVGID_39_" cx="1067.052" cy="-57.4137" r="27.88" gradientTransform="matrix(1 0 0 -1 0 1309.0127)" gradientUnits="userSpaceOnUse">
			<stop  offset="0" style="stop-color:#FFFC69;stop-opacity:0.1"/>
			<stop  offset="1" style="stop-color:#FF9D00;stop-opacity:0"/>
		</radialGradient>
		<path class="st53" d="M1079.3,1382.1l-8.7,6.8c-5.3-2.1-10.8-4.4-16.1-6.9L1079.3,1382.1z"/>
		<path class="st1" d="M34.7,1376.6c24.2-42,55-79.9,91.2-112.1c28.5-25.3,110.5-96.8,227.7-107.8c33.2-3.1,67.4,2.7,134.5,14.3
			c197.5,34.4,216.8,70.2,318.3,64.2c47.2-2.8,111.8-6.7,178.8-42.8c10-5.4,20.3-11.3,31.7-17.5c-10-70.8-426.9-245.2-753.4-70.2
			C126,1178.4-17.2,1325.7,12,1389.6c10.2,22.3,39.1,29.4,62.4,34.4c207.5,44.9,507.9,49,697.3-37.4l13.4-6.1L34.7,1376.6z"/>
		
			<radialGradient id="SVGID_40_" cx="799.312" cy="-390.333" r="503.69" gradientTransform="matrix(6.123234e-17 1 1.78 -1.089936e-16 1499.5006 283.4944)" gradientUnits="userSpaceOnUse">
			<stop  offset="0" style="stop-color:#1F2042;stop-opacity:0.7"/>
			<stop  offset="1" style="stop-color:#1F2042;stop-opacity:0"/>
		</radialGradient>
		<path class="st54" d="M806.4,1235.1c-101.5,6-120.8-29.8-318.3-64.2c-67-11.7-101.2-17.4-134.5-14.3
			c-117.2,11-199.2,82.5-227.7,107.8c-36.2,32.2-67,70.1-91.2,112.1c46.7,22.9,322.1,154.7,538.9,98.3c8-2.1,6.5-2,273.8-112.1
			c15.1-6.2,46.1-19,80.6-45.6c29.4-22.7,54.7-50.2,74.9-81.3l0,0c0.1,0,19.7-21,14-61c-11.4,6.2-21.7,12.1-31.7,17.5
			C918.2,1228.4,853.5,1232.3,806.4,1235.1z"/>
		<path class="st1" d="M34.7,1376.6c24.2-42,55-79.9,91.2-112.1c28.5-25.3,110.5-96.8,227.7-107.8c26.6-2.5,53.8,0.7,97.8,8
			c-6.8-37.7-146.6-72.6-259.9-29.6C72.2,1180.3-27.8,1316,5.3,1385.7c36.1,76,220.7,50,307.9,25c13.1-3.8,50.8-14.6,84.7-32.2
			L34.7,1376.6z"/>
		
			<radialGradient id="SVGID_41_" cx="480.3919" cy="111.3463" r="409.1" gradientTransform="matrix(1 0 0 -1 0 1309.0127)" gradientUnits="userSpaceOnUse">
			<stop  offset="0" style="stop-color:#1F2042;stop-opacity:0.3"/>
			<stop  offset="1" style="stop-color:#1F2042;stop-opacity:0"/>
		</radialGradient>
		<path class="st55" d="M563.8,1335.5c12.8-26.6,40.3-22,62.2-58.9c11-18.4,20-46.2,15.6-70.8c-36.7-10.6-84.1-22.8-153.6-34.9
			c-29.7-5.2-53-9.2-72.6-11.8c-87.7,23.9-168.9,77.1-173,147.5c-1.5,26.9,8.7,51,22.3,71.2l298.8,1.6
			C558.3,1364.7,556.9,1349.8,563.8,1335.5z"/>
	</g>
</g>
<g>
	<defs>
		<path id="SVGID_42_" d="M168.4,837c34.4-91.5,89.6-150.1,124.9-187c117.3-122.4,249.7-165.7,306.9-183.6
			c134.1-42,242.4-33,362.9-24c240.9,18.1,259.9,79.4,400.8,51c119.7-24.1,155.9-78.3,258.6-61.3c18.4,3.1,138.7,23,179.6,108
			c24.3,50.5,5.9,93.4,47.1,202.9c9.1,24.2,11.4,25.8,17.2,41.3c32.1,85.7,22.3,198.2-22.4,286.6c-82.6,163.6-262.1,200.6-294,206.3
			c-131.6,23.6-164.8-38-309.6-43c-224.2-7.8-261,135.9-508.4,176c-46.8,7.6-367.7,59.6-520.7-136
			C108.5,1142.8,124.4,954.1,168.4,837z"/>
	</defs>
	<clipPath id="SVGID_43_">
		<use xlink:href="#SVGID_42_"  style="overflow:visible;"/>
	</clipPath>
	<g class="st56">
		<path class="st4" d="M1810.7,1140.5c-24.2-31.3,19.9-79.5-0.9-105.8c-14.4-18.2-53.7-18-64.3-3.4c-9.5,13,9.1,30.5,11,71.9
			c1,21.4-3.1,37-8,56c-16.5,63.5-44.6,76.6-37.3,97.8c9.4,27.2,72.1,51.8,112.4,20.3C1861,1248,1811.6,1141.7,1810.7,1140.5z"/>
		
			<radialGradient id="SVGID_44_" cx="1648.552" cy="271.8363" r="417.72" gradientTransform="matrix(1 0 0 -1 0 1309.0127)" gradientUnits="userSpaceOnUse">
			<stop  offset="0" style="stop-color:#00D9FF;stop-opacity:0.4"/>
			<stop  offset="1" style="stop-color:#00D9FF;stop-opacity:0"/>
		</radialGradient>
		<path class="st57" d="M1810.7,1140.5c-24.2-31.3,19.9-79.5-0.9-105.8c-14.4-18.2-53.7-18-64.3-3.4c-9.5,13,9.1,30.5,11,71.9
			c1,21.4-3.1,37-8,56c-16.5,63.5-44.6,76.6-37.3,97.8c9.4,27.2,72.1,51.8,112.4,20.3C1861,1248,1811.6,1141.7,1810.7,1140.5z"/>
		<path class="st4" d="M1786.6,596.2L1660.2,1016c5.8,7.4,52,64,130.6,64.6c70.3,0.5,114.6-44.1,122.1-51.9L1786.6,596.2z"/>
		
			<radialGradient id="SVGID_45_" cx="1642.5819" cy="547.3163" r="482.96" gradientTransform="matrix(1 0 0 -1 0 1309.0127)" gradientUnits="userSpaceOnUse">
			<stop  offset="0" style="stop-color:#00D9FF;stop-opacity:0.4"/>
			<stop  offset="1" style="stop-color:#00D9FF;stop-opacity:0"/>
		</radialGradient>
		<path class="st58" d="M1786.6,596.2L1660.2,1016c5.8,7.4,52,64,130.6,64.6c70.3,0.5,114.6-44.1,122.1-51.9L1786.6,596.2z"/>
		
			<linearGradient id="SVGID_46_" gradientUnits="userSpaceOnUse" x1="1681.5033" y1="509.6001" x2="1959.0934" y2="401.7801" gradientTransform="matrix(1 0 0 -1 0 1309.0127)">
			<stop  offset="0" style="stop-color:#00D9FF;stop-opacity:0.15"/>
			<stop  offset="1" style="stop-color:#00D9FF;stop-opacity:0"/>
		</linearGradient>
		<path class="st59" d="M1692.7,1047.8c-3.7-2.9-7.5-6.1-11.3-9.6c-7.6-6.9-14.7-14.3-21.2-22.2c42.1-139.9,84.3-279.9,126.4-419.8
			c-23.1,107.4-26.7,190.5-25.4,247.3c0.9,41.8,5.5,118.7-43,178.7C1710.6,1031.6,1702.1,1040.2,1692.7,1047.8z"/>
		<path class="st4" d="M1597.8,1022.2c-11.4,15.7,10.6,35.1,13.7,89.9c1.2,21.3,2.6,45.8-10,70c-10.8,20.7-25.1,28.3-56.7,51.1
			c-19,13.8-46.5,34.7-78.9,63.4c8.1,8.4,21,18.7,37.8,20.5c23.6,2.5,42.3-13,56.2-22.8c19.6-13.7,51.1-21.9,111.6-42.2
			c33.9-11.3,55.7-14.1,57.8-26.7c1-5.7-2.8-10.4-13.4-23.2c-24.3-29.4-33-38.8-36.6-43.5c-30.2-39.1,24.9-99.4-1.1-132.3
			C1660.1,1003.7,1611,1004,1597.8,1022.2z"/>
		
			<radialGradient id="SVGID_47_" cx="1473.632" cy="227.3664" r="325.93" gradientTransform="matrix(1 0 0 -1 0 1309.0127)" gradientUnits="userSpaceOnUse">
			<stop  offset="0" style="stop-color:#00D9FF;stop-opacity:0.4"/>
			<stop  offset="1" style="stop-color:#00D9FF;stop-opacity:0"/>
		</radialGradient>
		<path class="st60" d="M1597.8,1022.2c-11.4,15.7,10.6,35.1,13.7,89.9c1.2,21.3,2.6,45.8-10,70c-10.8,20.7-25.1,28.3-56.7,51.1
			c-19,13.8-46.5,34.7-78.9,63.4c8.1,8.4,21,18.7,37.8,20.5c23.6,2.5,42.3-13,56.2-22.8c19.6-13.7,51.1-21.9,111.6-42.2
			c33.9-11.3,55.7-14.1,57.8-26.7c1-5.7-2.8-10.4-13.4-23.2c-24.3-29.4-33-38.8-36.6-43.5c-30.2-39.1,24.9-99.4-1.1-132.3
			C1660.1,1003.7,1611,1004,1597.8,1022.2z"/>
		<path class="st4" d="M1649.2,478.3l-158,524.8c3.4,4.8,63.6,87.5,163.3,80.8c73.2-4.9,117.4-54.7,126-64.8
			C1736.7,838.8,1693,658.6,1649.2,478.3z"/>
		
			<radialGradient id="SVGID_48_" cx="1471.062" cy="623.6464" r="583.15" gradientTransform="matrix(1 0 0 -1 0 1309.0127)" gradientUnits="userSpaceOnUse">
			<stop  offset="0" style="stop-color:#00D9FF;stop-opacity:0.2"/>
			<stop  offset="1" style="stop-color:#00D9FF;stop-opacity:0"/>
		</radialGradient>
		<path class="st61" d="M1649.2,478.3l-158,524.8c3.4,4.8,63.6,87.5,163.3,80.8c73.2-4.9,117.4-54.7,126-64.8
			C1736.7,838.8,1693,658.6,1649.2,478.3z"/>
		
			<linearGradient id="SVGID_49_" gradientUnits="userSpaceOnUse" x1="1553.6998" y1="562.7265" x2="1652.4298" y2="524.3865" gradientTransform="matrix(1 0 0 -1 0 1309.0127)">
			<stop  offset="0" style="stop-color:#00D9FF;stop-opacity:0.4"/>
			<stop  offset="1" style="stop-color:#00D9FF;stop-opacity:0"/>
		</linearGradient>
		<path class="st62" d="M1531.9,1042.9c-4.6-3.6-9.4-7.6-14.2-12c-9.5-8.6-18.4-17.9-26.5-27.8c52.7-174.9,105.3-349.9,158-524.8
			c-28.9,134.3-33.3,238.2-31.8,309.2c1.2,52.2,6.9,148.4-53.7,223.4C1554.2,1022.6,1543.6,1033.3,1531.9,1042.9z"/>
	</g>
</g>
<rect x="-274.3" y="-304.9" class="st63" width="1061.4" height="1835.9"/>
<rect x="484.6" y="-240.4" class="st63" width="1639.4" height="172"/>
</svg>
