<svg id="689dc41c-d450-4fe1-9f3a-3cb8bc8472e4" data-name="43a40609-ed80-4dc2-845f-f8edf8e3a421" xmlns="http://www.w3.org/2000/svg" xmlns:xlink="http://www.w3.org/1999/xlink" viewBox="0 0 3808.05 2626.36"><defs><clipPath id="6319bedc-3709-453d-b297-d61fc2713383" transform="translate(131.89 315.84)"><path d="M168.4,837c-1.1-47,87-68,84.8-125.4-1.4-35.3-36-50.9-64-81.2C97.7,531.7,106.4,310,197.4,244c73-52.9,145.8,32.9,248.8-16.2C573,167.5,558.6-7.7,633.7-16.9c78-9.5,91.3,180.9,260.4,279,150,87.1,236.6-6.5,360.8,88.5,120.4,92.1,98.7,225.7,207.6,253.5,67.9,17.3,100.6-28.6,196.7-6.3,12,2.8,86.3,20.5,143,78.9,98.2,101.2,103.3,272.3,41.9,394.3-81.4,161.6-255.6,199.4-294,206.3-131.6,23.6-164.8-38-309.6-43-224.2-7.8-261,135.9-508.4,176-12,1.9-16.5,2.6-18.1,2.8-182.2,22.2-383-114.7-392.4-246.4-5.8-81.4,65.3-108.2,45.2-172C337.7,902.4,169.9,899.1,168.4,837Z" style="fill:none"/></clipPath><radialGradient id="fd1344f5-73b9-4bd3-af0c-39d6fa8f377a" cx="928.31" cy="24.36" r="1730.82" gradientTransform="translate(131.89 856.85)" gradientUnits="userSpaceOnUse"><stop offset="0" stop-color="#fffc69" stop-opacity="0.2"/><stop offset="1" stop-color="#fffc69" stop-opacity="0"/></radialGradient><radialGradient id="4ac7622a-7393-4a6b-a815-0b0791543d37" cx="1063.25" cy="1684.07" r="614.99" gradientTransform="matrix(-0.01, 1.45, -1.86, -0.02, 4178.22, -324.58)" gradientUnits="userSpaceOnUse"><stop offset="0" stop-color="#ff9d00" stop-opacity="0.8"/><stop offset="1" stop-color="#ff00a6" stop-opacity="0.98"/></radialGradient><radialGradient id="950bcc69-8058-4043-9702-54dd8b258d1d" cx="892.6" cy="215.53" r="1149.99" gradientTransform="translate(131.89 856.85)" gradientUnits="userSpaceOnUse"><stop offset="0" stop-color="#fff" stop-opacity="0.2"/><stop offset="1" stop-color="#ff9d00" stop-opacity="0.2"/></radialGradient><radialGradient id="953939cd-5884-4af9-a2ca-769578f0a745" cx="883.9" cy="262.04" r="798.61" gradientTransform="translate(131.89 856.85)" gradientUnits="userSpaceOnUse"><stop offset="0" stop-color="#fff" stop-opacity="0.2"/><stop offset="1" stop-color="#ffd48f" stop-opacity="0.3"/></radialGradient><radialGradient id="fe3ba887-5f9b-493f-aa9d-44b48e1124aa" cx="888.4" cy="294.28" r="422.16" gradientTransform="translate(131.89 856.85)" gradientUnits="userSpaceOnUse"><stop offset="0" stop-color="#fff" stop-opacity="0.4"/><stop offset="1" stop-color="#ffe9c7" stop-opacity="0.3"/></radialGradient><radialGradient id="8b83af53-dd06-45bd-b398-c781367803a4" cx="867.65" cy="365.79" r="314.02" gradientTransform="translate(131.89 856.85)" gradientUnits="userSpaceOnUse"><stop offset="0" stop-color="#fff" stop-opacity="0.3"/><stop offset="1" stop-color="#ffe1b0" stop-opacity="0.4"/></radialGradient><radialGradient id="490db6c7-6a7e-4560-bad4-0c1761bb6fdf" cx="1006.91" cy="244.88" r="490.97" gradientTransform="translate(131.89 856.85)" gradientUnits="userSpaceOnUse"><stop offset="0" stop-color="#ff9d00"/><stop offset="1" stop-color="#ff9d00" stop-opacity="0.2"/></radialGradient><linearGradient id="b0203195-46a3-466a-baba-f434b7ed2e69" x1="819.65" y1="427.71" x2="360.16" y2="1047.12" gradientTransform="translate(131.89 856.85)" gradientUnits="userSpaceOnUse"><stop offset="0" stop-color="#fff"/><stop offset="1" stop-color="#fff" stop-opacity="0.2"/></linearGradient><linearGradient id="2ce7be24-f7a3-4c70-b902-47de25e87351" x1="1211.34" y1="443" x2="2046.66" y2="443" gradientTransform="translate(0 541.01)" gradientUnits="userSpaceOnUse"><stop offset="0" stop-color="#ff9d00" stop-opacity="0"/><stop offset="1" stop-color="#ff9d00" stop-opacity="0.7"/></linearGradient><linearGradient id="96c8791c-20e7-4cca-b7e9-f7f8068e76b0" x1="-241.61" y1="285.25" x2="750.72" y2="285.25" gradientTransform="translate(0 541.01)" gradientUnits="userSpaceOnUse"><stop offset="0" stop-color="#ff9d00" stop-opacity="0.7"/><stop offset="1" stop-color="#ff9d00" stop-opacity="0"/></linearGradient><linearGradient id="2106d061-603d-4296-a91a-ff072ab898bc" x1="898.45" y1="563.49" x2="1812.71" y2="563.49" gradientTransform="translate(0 541.01)" gradientUnits="userSpaceOnUse"><stop offset="0" stop-color="#0f6" stop-opacity="0.4"/><stop offset="0.48" stop-color="#0f6" stop-opacity="0.3"/><stop offset="1" stop-color="#0f6" stop-opacity="0"/></linearGradient><linearGradient id="a55f05ac-e5da-43a3-9e16-813db8297a93" x1="962.67" y1="611.32" x2="1627.56" y2="611.32" gradientTransform="translate(0 541.01)" gradientUnits="userSpaceOnUse"><stop offset="0" stop-color="#0f6" stop-opacity="0.05"/><stop offset="1" stop-color="#0f6" stop-opacity="0.1"/></linearGradient><linearGradient id="1b914ee3-fe58-405b-ad52-2990813be219" x1="915.2" y1="521.24" x2="1372.7" y2="521.24" gradientTransform="translate(131.89 856.85)" gradientUnits="userSpaceOnUse"><stop offset="0" stop-color="#0f6" stop-opacity="0.7"/><stop offset="1" stop-color="#0f6" stop-opacity="0.65"/></linearGradient><radialGradient id="4ac432d0-41f5-4dda-8463-b5467b75c15d" cx="1333.01" cy="424.99" r="117.75" gradientTransform="matrix(1, 0, 0, -1, 0, 1436)" gradientUnits="userSpaceOnUse"><stop offset="0" stop-color="#00d9ff" stop-opacity="0.2"/><stop offset="1" stop-color="#00d9ff" stop-opacity="0"/></radialGradient><radialGradient id="dbfdacc2-b907-4bec-b740-4d2049a0b79a" cx="2234.23" cy="2624.94" r="1172.26" gradientTransform="matrix(-1, 0.01, 0, -0.51, 3172.27, 2298.24)" gradientUnits="userSpaceOnUse"><stop offset="0" stop-color="#00d9ff" stop-opacity="0.5"/><stop offset="1" stop-color="#00d9ff" stop-opacity="0.2"/></radialGradient><radialGradient id="b61ce772-fe10-4e7b-ba73-6bec3a191bd6" cx="1119.11" cy="538.93" r="469.13" gradientTransform="translate(0 541.01)" gradientUnits="userSpaceOnUse"><stop offset="0" stop-color="#1f2042" stop-opacity="0.3"/><stop offset="1" stop-color="#1f2042" stop-opacity="0"/></radialGradient><radialGradient id="a1893057-6e7b-446f-9485-3bbe962015bc" cx="1449.05" cy="435.9" r="66.42" xlink:href="#4ac432d0-41f5-4dda-8463-b5467b75c15d"/><linearGradient id="baa66f88-cdb1-40c5-b0d8-8e26e9c82b2a" x1="253.71" y1="354.38" x2="460.23" y2="244.57" gradientTransform="translate(131.89 856.85)" gradientUnits="userSpaceOnUse"><stop offset="0" stop-color="#00d9ff" stop-opacity="0.3"/><stop offset="1" stop-color="#00d9ff" stop-opacity="0"/></linearGradient><linearGradient id="e8607fdb-9092-4271-b20f-a526d031a567" x1="1158.19" y1="290.31" x2="1826.9" y2="290.31" gradientTransform="translate(0 541.01)" gradientUnits="userSpaceOnUse"><stop offset="0" stop-color="#fff" stop-opacity="0.8"/><stop offset="1" stop-color="#ffd48f" stop-opacity="0"/></linearGradient><linearGradient id="60b7c899-d3c9-4451-af2c-b941b72c2e75" x1="1005.04" y1="-1" x2="379.25" y2="-1" gradientTransform="translate(0 541.01)" gradientUnits="userSpaceOnUse"><stop offset="0" stop-color="#fff" stop-opacity="0.8"/><stop offset="1" stop-color="#fff" stop-opacity="0"/></linearGradient><linearGradient id="cf0ee597-df18-4a66-a5d0-53a58e7b59b8" x1="284.55" y1="690.38" x2="527.13" y2="270.22" gradientTransform="translate(0 541.01)" gradientUnits="userSpaceOnUse"><stop offset="0" stop-color="#00d9ff" stop-opacity="0"/><stop offset="1" stop-color="#00d9ff" stop-opacity="0.2"/></linearGradient><linearGradient id="8b02ea86-d932-4d27-8ea7-0d9dcae30b15" x1="-5.18" y1="612.63" x2="733.41" y2="219.91" gradientTransform="translate(0 541.01)" gradientUnits="userSpaceOnUse"><stop offset="0" stop-color="#ff9d00" stop-opacity="0"/><stop offset="1" stop-color="#00d9ff" stop-opacity="0.3"/></linearGradient><linearGradient id="e78f122b-d588-43a4-b263-6dbad5de2484" x1="-0.7" y1="677" x2="608.89" y2="352.88" gradientTransform="translate(131.89 856.85)" gradientUnits="userSpaceOnUse"><stop offset="0" stop-color="#ff9d00" stop-opacity="0"/><stop offset="1" stop-color="#ff9d00" stop-opacity="0.05"/></linearGradient><radialGradient id="494805b1-2671-4d2f-8402-c6f3ba8f114b" cx="274.47" cy="1362.84" r="297.06" gradientTransform="matrix(0.39, 0.92, -0.77, 0.33, 1623.62, 408.11)" gradientUnits="userSpaceOnUse"><stop offset="0" stop-color="#00d9ff" stop-opacity="0.5"/><stop offset="1" stop-color="#00d9ff" stop-opacity="0"/></radialGradient><radialGradient id="660ace50-dcd1-4423-bd5b-4411eb21cb09" cx="2275.71" cy="1281.45" r="285.61" gradientTransform="matrix(-0.74, -0.68, 0.31, -0.34, 2055.45, 3184.27)" xlink:href="#4ac432d0-41f5-4dda-8463-b5467b75c15d"/><radialGradient id="1bb8ea0f-25c3-4a39-b05c-065fed144c15" cx="1247.51" cy="752.83" r="269.54" xlink:href="#4ac432d0-41f5-4dda-8463-b5467b75c15d"/><radialGradient id="cda3c6b6-8d1d-4fbe-b5b3-438bf9878027" cx="837.21" cy="358.75" r="423.57" gradientTransform="translate(131.89 856.85)" gradientUnits="userSpaceOnUse"><stop offset="0" stop-color="#00d9ff" stop-opacity="0.2"/><stop offset="1" stop-color="#00d9ff" stop-opacity="0.05"/></radialGradient><radialGradient id="f99e8784-54f3-4c21-8b5a-86a3f06a1a1e" cx="578.82" cy="1169.11" r="288.42" gradientTransform="matrix(0.6, 0.8, -0.65, 0.49, 1442.8, 155.39)" xlink:href="#baa66f88-cdb1-40c5-b0d8-8e26e9c82b2a"/><radialGradient id="f53b514b-d29a-43a3-b373-b8efeb83a418" cx="822.76" cy="365.42" r="454.64" gradientTransform="translate(131.89 856.85)" gradientUnits="userSpaceOnUse"><stop offset="0" stop-color="#00d9ff" stop-opacity="0"/><stop offset="1" stop-color="#00d9ff" stop-opacity="0.05"/></radialGradient><radialGradient id="573f7d8b-e05b-44d9-bef1-76bdfc4f1a99" cx="841.66" cy="343.19" r="325.71" gradientTransform="translate(131.89 856.85)" gradientUnits="userSpaceOnUse"><stop offset="0" stop-color="#00d9ff" stop-opacity="0.05"/><stop offset="1" stop-color="#ff9d00" stop-opacity="0"/></radialGradient><radialGradient id="cf4451de-5d18-4558-a208-3514c2babbca" cx="834.98" cy="393.97" r="380.17" gradientTransform="translate(131.89 856.85)" gradientUnits="userSpaceOnUse"><stop offset="0" stop-color="#00d9ff" stop-opacity="0.15"/><stop offset="1" stop-color="#00d9ff" stop-opacity="0"/></radialGradient><linearGradient id="8a7dbe15-1c2a-4dd0-beab-2ecc86bb65af" x1="882.58" y1="626.03" x2="945.88" y2="506.87" xlink:href="#e78f122b-d588-43a4-b263-6dbad5de2484"/><radialGradient id="5a95848c-b1f1-4d00-9851-153ddbd6304c" cx="1103.69" cy="-250.71" r="1748" gradientTransform="translate(0 541.01)" gradientUnits="userSpaceOnUse"><stop offset="0" stop-color="#00d9ff" stop-opacity="0.1"/><stop offset="1" stop-color="#ff9d00" stop-opacity="0"/></radialGradient><radialGradient id="4c2c7122-9003-4d6a-94fa-b01c34904a7e" cx="997.52" cy="341.83" r="803.58" gradientTransform="translate(0 541.01)" gradientUnits="userSpaceOnUse"><stop offset="0" stop-color="#ff9d00" stop-opacity="0.1"/><stop offset="1" stop-color="#00d9ff" stop-opacity="0.1"/></radialGradient><radialGradient id="aea8a47a-b2b5-4a0e-a30d-ea90c3d5cb80" cx="846.01" cy="1362.72" r="330.45" gradientTransform="matrix(0, 1, -3.04, 0, 5057.48, 109.27)" xlink:href="#baa66f88-cdb1-40c5-b0d8-8e26e9c82b2a"/><radialGradient id="84c50534-8566-4aa0-82c6-3275613b5261" cx="1151.53" cy="666.3" r="467.98" gradientTransform="translate(0 541.01)" gradientUnits="userSpaceOnUse"><stop offset="0" stop-color="#1f2042" stop-opacity="0.2"/><stop offset="1" stop-color="#1f2042" stop-opacity="0"/></radialGradient><radialGradient id="a86bd74c-43b8-4467-b6bc-3e40a02267d7" cx="1067.05" cy="825.41" r="27.88" gradientTransform="translate(0 541.01)" gradientUnits="userSpaceOnUse"><stop offset="0" stop-color="#fffc69" stop-opacity="0.1"/><stop offset="1" stop-color="#ff9d00" stop-opacity="0"/></radialGradient><radialGradient id="41e41af2-5e2b-4cf7-b08a-e0c2b2df5d81" cx="734.31" cy="1643.46" r="503.69" gradientTransform="matrix(0, 1, -1.78, 0, 3730.06, 348.49)" gradientUnits="userSpaceOnUse"><stop offset="0" stop-color="#1f2042" stop-opacity="0.7"/><stop offset="1" stop-color="#1f2042" stop-opacity="0"/></radialGradient><radialGradient id="f8bff2f8-83ef-4b89-bf0f-235366c2d0ea" cx="480.39" cy="656.65" r="409.1" xlink:href="#b61ce772-fe10-4e7b-ba73-6bec3a191bd6"/><clipPath id="df972388-3ba3-491b-b419-fe5eee91f306" transform="translate(131.89 315.84)"><path d="M168.4,837c34.4-91.5,89.6-150.1,124.9-187C410.6,527.6,543,484.3,600.2,466.4c134.1-42,242.4-33,362.9-24,240.9,18.1,259.9,79.4,400.8,51,119.7-24.1,155.9-78.3,258.6-61.3,18.4,3.1,138.7,23,179.6,108,24.3,50.5,5.9,93.4,47.1,202.9,9.1,24.2,11.4,25.8,17.2,41.3,32.1,85.7,22.3,198.2-22.4,286.6-82.6,163.6-262.1,200.6-294,206.3-131.6,23.6-164.8-38-309.6-43-224.2-7.8-261,135.9-508.4,176-46.8,7.6-367.7,59.6-520.7-136C108.5,1142.8,124.4,954.1,168.4,837Z" style="fill:none"/></clipPath><radialGradient id="4ccedfc9-b760-45a3-9504-9d358eb6b300" cx="1648.55" cy="496.16" r="417.72" gradientTransform="translate(0 541.01)" gradientUnits="userSpaceOnUse"><stop offset="0" stop-color="#00d9ff" stop-opacity="0.4"/><stop offset="1" stop-color="#00d9ff" stop-opacity="0"/></radialGradient><radialGradient id="7225258b-446f-4560-bb46-7daba5237603" cx="1642.58" cy="220.68" r="482.96" xlink:href="#4ccedfc9-b760-45a3-9504-9d358eb6b300"/><linearGradient id="669fa010-ee33-45bb-b939-679fdde1e402" x1="1681.5" y1="258.4" x2="1959.09" y2="366.22" gradientTransform="translate(0 541.01)" xlink:href="#cf4451de-5d18-4558-a208-3514c2babbca"/><radialGradient id="25b08200-fb84-4dd7-95db-c158359299aa" cx="1473.63" cy="540.63" r="325.93" xlink:href="#4ccedfc9-b760-45a3-9504-9d358eb6b300"/><radialGradient id="e578215a-f896-44e1-8cd3-168223ccff44" cx="1471.06" cy="144.35" r="583.15" gradientTransform="translate(0 541.01)" xlink:href="#4ac432d0-41f5-4dda-8463-b5467b75c15d"/><linearGradient id="ab5ec8e6-0e59-43bd-b2b6-e9bd94590b97" x1="1553.7" y1="205.28" x2="1652.43" y2="243.62" gradientTransform="translate(0 541.01)" xlink:href="#4ccedfc9-b760-45a3-9504-9d358eb6b300"/></defs><title>hero</title><path d="M3199.25,115.94c-124.32.77-126.89,173.68-296.76,229.17-189.64,61.94-326.93-102.81-435-25.5-100.79,72.13-15.68,240.1-130.49,334.48-101.28,83.26-272.41,38.78-312,28.5-177.56-46.14-222.31-134.94-333.47-140.41-112.41-5.53-138.36,43.92-211,15.92-112.66-43.43-72.32-170.86-198-255-107.84-72.2-219.75-33.39-270-124.49-4.06-7.36-19.23-35.63-18-70.5C999.94-43.51,1310.29-98.23,1301.81-164c-12.23-94.86-663.89-306-1044,36C219-93.1-16.71,119,11.73,356.78c15.38,128.69,106.09,248,46.68,387.72C33.35,803.43.05,822.59,8.72,863.83,27.61,953.65,202.58,944,239.41,1052.5c22.93,67.57-28.76,107.17-2,146,41,59.5,206.1,6.6,316-22,40.13-10.44,78-18.84,113.92-25.58C627,1431.24,661.88,1518.63,707.91,1540c97.72,45.37,228-215,450.09-210,189.39,4.24,213.43,196.26,422,272,338.59,123,598-265.89,896-192,154.6,38.33,348,208.25,482,826,12.22,29.81,23.74,48.17,34.2,59.15A98.54,98.54,0,0,0,3020,2310c35,11.3,243.2-160.43,445.07-633.08,101.63-238,313.33-733.62,153-1092.11-37.75-84.41-104.29-179.47-111-189C3404,249.56,3309.42,115.26,3199.25,115.94Z" transform="translate(131.89 315.84)" style="fill:#ecf8ff"/><path d="M168.4,837c27.3-30.9,79.8-64,84.8-125.4,3-36-11.9-63-20.7-81.1-42-86.7-79.3-248.9-21.3-337.9,44.9-69,153-103.2,235.1-80.3,99.3,27.7,91.2,125.6,204.8,187.1a256.42,256.42,0,0,0,66.5,25.3c96.9,22.4,153.8-23.8,216.5-32.5,168.7-23.3,227.3,246.3,429.8,254.2,113.1,4.4,151.9-77.3,282.9-51.4,20.1,4,95.5,19.9,155.3,81.6,98.2,101.2,103.3,272.3,41.9,394.3-81.4,161.6-255.6,199.4-294,206.3-131.6,23.6-164.8-38-309.6-43-224.2-7.8-261,135.9-508.4,176-46.8,7.6-367.7,59.6-520.7-136C110.5,1145.4,86,930.6,168.4,837Z" transform="translate(131.89 315.84)" style="fill:none"/><path d="M168.4,837c-1-42,79.1-56.5,84.8-125.4,2.9-34.8-11.1-60.2-20.7-81.2-48-105.2-27.2-283,42.3-327.2,84.9-54,193.4,122.1,442.8,121.4,124.1-.2,120.8-19.2,216.5-32.4,168.7-23.3,227.3,246.3,429.8,254.2,113.1,4.4,151.9-77.3,282.9-51.4,20.1,4,95.5,19.9,155.3,81.6,98.2,101.2,103.3,272.3,41.9,394.3-81.4,161.6-255.6,199.4-294,206.3-131.6,23.6-164.8-38-309.6-43-224.2-7.8-261,135.9-508.4,176-12,1.9-16.5,2.6-18.1,2.8-182.2,22.2-383-114.7-392.4-246.4-5.8-81.4,65.3-108.2,45.2-172C337.7,902.4,169.9,899.1,168.4,837Z" transform="translate(131.89 315.84)" style="fill:none"/><g style="clip-path:url(#6319bedc-3709-453d-b297-d61fc2713383)"><rect x="166.59" y="748.04" width="1995.2" height="942.6" style="fill:url(#fd1344f5-73b9-4bd3-af0c-39d6fa8f377a)"/><rect x="166.59" y="298.54" width="1995.2" height="1390.2" style="fill:#1f2042"/><rect x="166.59" y="316.94" width="1995.2" height="1371.8" style="fill:url(#4ac7622a-7393-4a6b-a815-0b0791543d37)"/><circle cx="995.99" cy="1224.64" r="766.3" style="opacity:0.4000000059604645;isolation:isolate;fill:url(#950bcc69-8058-4043-9702-54dd8b258d1d)"/><circle cx="995.99" cy="1224.64" r="532.2" style="fill:url(#953939cd-5884-4af9-a2ca-769578f0a745)"/><circle cx="995.99" cy="1224.64" r="422.4" style="fill:url(#fe3ba887-5f9b-493f-aa9d-44b48e1124aa)"/><circle cx="995.99" cy="1224.64" r="320.8" style="fill:url(#8b83af53-dd06-45bd-b398-c781367803a4)"/><circle cx="995.99" cy="1224.64" r="222.8" style="fill:url(#490db6c7-6a7e-4560-bad4-0c1761bb6fdf)"/><circle cx="995.99" cy="1224.64" r="222.8" style="fill:url(#b0203195-46a3-466a-baba-f434b7ed2e69)"/><path d="M1910.8,728.2c-31-154.6-54.2-180.4-70.4-180.9-58.7-1.7-93.1,348.3-153.4,346.9-50.1-1.2-58.9-242.8-126.2-248.7-36.7-3.2-45.3,77.9-119.8,172.5-118.3,150.4-239.1,129-285.8,238-38.9,90.8-2.2,216,64.8,283,177.4,177.2,666.9,45.2,750.1-194.2C1985.5,1100.3,1960.6,976.3,1910.8,728.2Z" transform="translate(131.89 315.84)" style="fill:url(#2ce7be24-f7a3-4c70-b902-47de25e87351)"/><path d="M-69.1,716C-22.1,458.6,8.2,363,48,361c60-3.1,93.6,206.8,177.3,207.1,66.8.2,106.6-126.5,142.2-115.9,47.9,14.3,3.2,246.1,52.3,261.7,48.5,15.4,134.7-184.6,190.3-168.6,59.5,17.1,20.4,263.9,86.8,282.6,39.4,11.1,73.9-70.1,110.8-59.5,56.3,16.1,87.8,237.7-12.2,331.3-57.9,54.2-136.1,46.5-220.5,47-419.4,2.8-590.7,220.3-679.7,117.1C-156.7,1203.3-128.2,1040-69.1,716Z" transform="translate(131.89 315.84)" style="fill:url(#96c8791c-20e7-4cca-b7e9-f7f8068e76b0)"/><path d="M1096.4,1317.1c-4.7,11.2-6.3,21.3-3,30,27,70.6,388.3,52.6,617.8-30Z" transform="translate(131.89 315.84)" style="fill:none"/><path d="M1158.9,1020.2l65.2-44.4,83.1,36.5,63.9-36.9,34.4,53.1,53.7-20.2,96.3,94.8,34.2-34.2,85.6,22,31.8-23.2,169,150.6c12.4-15.7,20.2-32.2,22.2-49.7,13.3-110.9-203.6-233.5-363.8-271.3-182.6-43.1-400.8-1.7-422.6,76.4a94.24,94.24,0,0,0-2.8,22.4l3.8-3Z" transform="translate(131.89 315.84)" style="fill:none"/><path d="M838.9,1004.4c28.5-26.6,38.7-45,67.3-71.6,25.3,37.2,68.9,66,94.2,103.2l26.6-15.3,24.8,21.2L1113,993l46,27.3,65.2-44.4,83.1,36.5,63.9-36.9,34.4,53.1,53.7-20.2,96.3,94.8,34.2-34.2,85.6,22,31.8-23.2,280.1,249.5H290.3c60.9-141.9,365.6-283.7,426.5-425.6Z" transform="translate(131.89 315.84)" style="fill:#1f2042"/><path d="M838.9,1004.4c28.5-26.6,38.7-45,67.3-71.6,25.3,37.2,68.9,66,94.2,103.2l26.6-15.3,24.8,21.2L1113,993l46,27.3,65.2-44.4,83.1,36.5,63.9-36.9,34.4,53.1,53.7-20.2,96.3,94.8,34.2-34.2,85.6,22,31.8-23.2,280.1,249.5H290.3c60.9-141.9,365.6-283.7,426.5-425.6Z" transform="translate(131.89 315.84)" style="fill:url(#2106d061-603d-4296-a91a-ff072ab898bc)"/><path d="M1752.3,1258.2c10.2-50.9-18.2-128-63.7-145.3-48.9-18.5-92.3,41.7-149.7,20-51.1-19.2-72.5-87.8-82.3-83-7.5,3.7,8.2,42.7-.7,47.4-11.8,6.3-39.8-61.7-91.9-68.2-29.5-3.7-37.2,16.1-67.9,9.8-38.3-7.9-55.4-44.7-67-38.7-11.4,5.9,7.4,40.4-7.4,56.3-17.9,19.2-58-16.6-126.8-11.9-50.3,3.4-56.9,24.6-91.4,18-49.7-9.4-47.3-55.4-90.8-70.9-72.3-25.6-138.1,80.1-221,57.3-30.3-8.3-50.7-30.5-63-47.3-32.2,29.5-69.4,59.1-107.3,88.6-11.3,78.5,75.2,163,170.1,226.7h1029C1737.3,1298.3,1748.2,1278.5,1752.3,1258.2Z" transform="translate(131.89 315.84)" style="fill:url(#a55f05ac-e5da-43a3-9e16-813db8297a93)"/><polygon points="1462.89 1424.64 1299.79 1408.14 1207.79 1443.24 1005.39 1408.14 1019.29 1369.94 1031.49 1331.34 1038.19 1350.64 1047.59 1312.94 1055.59 1369.94 1060.39 1331.34 1067.89 1389.24 1074.29 1355.94 1082.09 1397.14 1092.49 1322.94 1103.99 1391.94 1109.89 1369.34 1119.49 1403.04 1128.39 1356.84 1137.29 1402.64 1141.39 1378.04 1148.79 1408.14 1152.89 1373.84 1158.59 1401.94 1164.19 1392.64 1171.19 1408.14 1174.59 1358.04 1181.09 1408.14 1187.59 1381.44 1194.89 1419.34 1202.19 1365.24 1208.79 1408.14 1214.79 1386.94 1222.59 1416.34 1229.99 1358.04 1236.69 1403.44 1243.69 1381.44 1251.49 1408.14 1255.89 1362.04 1263.19 1401.94 1270.49 1381.44 1276.29 1401.14 1282.59 1386.94 1290.19 1400.04 1299.29 1353.84 1307.79 1390.84 1313.69 1365.24 1321.69 1386.94 1329.69 1336.74 1339.69 1386.94 1348.19 1364.64 1353.19 1386.94 1360.09 1337.04 1368.59 1373.84 1378.39 1356.84 1387.59 1372.74 1393.79 1335.24 1403.09 1372.34 1411.79 1338.44 1462.89 1424.64" style="fill:#1f2042"/><polygon points="1462.89 1424.64 1299.79 1408.14 1207.79 1443.24 1005.39 1408.14 1019.29 1369.94 1031.49 1331.34 1038.19 1350.64 1047.59 1312.94 1055.59 1369.94 1060.39 1331.34 1067.89 1389.24 1074.29 1355.94 1082.09 1397.14 1092.49 1322.94 1103.99 1391.94 1109.89 1369.34 1119.49 1403.04 1128.39 1356.84 1137.29 1402.64 1141.39 1378.04 1148.79 1408.14 1152.89 1373.84 1158.59 1401.94 1164.19 1392.64 1171.19 1408.14 1174.59 1358.04 1181.09 1408.14 1187.59 1381.44 1194.89 1419.34 1202.19 1365.24 1208.79 1408.14 1214.79 1386.94 1222.59 1416.34 1229.99 1358.04 1236.69 1403.44 1243.69 1381.44 1251.49 1408.14 1255.89 1362.04 1263.19 1401.94 1270.49 1381.44 1276.29 1401.14 1282.59 1386.94 1290.19 1400.04 1299.29 1353.84 1307.79 1390.84 1313.69 1365.24 1321.69 1386.94 1329.69 1336.74 1339.69 1386.94 1348.19 1364.64 1353.19 1386.94 1360.09 1337.04 1368.59 1373.84 1378.39 1356.84 1387.59 1372.74 1393.79 1335.24 1403.09 1372.34 1411.79 1338.44 1462.89 1424.64" style="opacity:0.699999988079071;isolation:isolate;fill:url(#1b914ee3-fe58-405b-ad52-2990813be219)"/><g id="6df4c11e-5c8e-41c8-84d4-dc24eaa30a37" data-name="acb52e0a-4cfc-4982-977c-fedccc0ee0c1"><rect x="1462.29" y="1329.14" width="1.1" height="85.4" style="fill:#1f2042"/><rect x="1462.29" y="1329.14" width="1.1" height="85.4" style="fill:#ff9d00;opacity:0.2800000011920929;isolation:isolate"/><polygon points="1465.69 1327.14 1465.09 1326.54 1467.19 1326.54 1469.89 1323.24 1492.29 1325.94 1492.49 1327.14 1465.69 1327.14" style="fill:#1f2042"/><polygon points="1465.69 1327.14 1465.09 1326.54 1467.19 1326.54 1469.89 1323.24 1492.29 1325.94 1492.49 1327.14 1465.69 1327.14" style="fill:#ff9d00;opacity:0.20000000298023224;isolation:isolate"/><polygon points="1465.69 1327.14 1465.09 1327.64 1467.19 1327.64 1469.89 1330.94 1492.29 1328.24 1492.49 1327.14 1465.69 1327.14" style="fill:#1f2042"/><polygon points="1465.69 1327.14 1465.09 1326.54 1467.19 1326.54 1469.89 1323.24 1492.29 1325.94 1492.49 1327.14 1465.69 1327.14" style="fill:#1f2042"/><polygon points="1459.99 1327.14 1460.69 1326.54 1458.49 1326.54 1455.79 1323.24 1433.49 1325.94 1433.19 1327.14 1459.99 1327.14" style="fill:#1f2042"/><polygon points="1459.99 1327.14 1460.69 1326.54 1458.49 1326.54 1455.79 1323.24 1433.49 1325.94 1433.19 1327.14 1459.99 1327.14" style="fill:#ff9d00;opacity:0.20000000298023224;isolation:isolate"/><polygon points="1459.99 1327.14 1460.69 1327.64 1458.49 1327.64 1455.79 1330.94 1433.49 1328.24 1433.19 1327.14 1459.99 1327.14" style="fill:#1f2042"/><polygon points="1459.99 1327.14 1460.69 1326.54 1458.49 1326.54 1455.79 1323.24 1433.49 1325.94 1433.19 1327.14 1459.99 1327.14" style="fill:#1f2042"/><polygon points="1462.89 1329.94 1463.39 1329.34 1463.39 1331.44 1466.69 1334.14 1463.99 1356.44 1462.89 1356.74 1462.89 1329.94" style="fill:#1f2042"/><polygon points="1462.89 1329.94 1463.39 1329.34 1463.39 1331.44 1466.69 1334.14 1463.99 1356.44 1462.89 1356.74 1462.89 1329.94" style="fill:#ff9d00;opacity:0.20000000298023224;isolation:isolate"/><polygon points="1462.89 1329.94 1462.29 1329.34 1462.29 1331.44 1458.99 1334.14 1461.79 1356.44 1462.89 1356.74 1462.89 1329.94" style="fill:#1f2042"/><polygon points="1462.89 1329.94 1463.39 1329.34 1463.39 1331.44 1466.69 1334.14 1463.99 1356.44 1462.89 1356.74 1462.89 1329.94" style="fill:#1f2042"/><polygon points="1462.89 1324.24 1463.39 1324.84 1463.39 1322.74 1466.69 1320.04 1463.99 1297.74 1462.89 1297.44 1462.89 1324.24" style="fill:#1f2042"/><polygon points="1462.89 1324.24 1463.39 1324.84 1463.39 1322.74 1466.69 1320.04 1463.99 1297.74 1462.89 1297.44 1462.89 1324.24" style="fill:#ff9d00;opacity:0.20000000298023224;isolation:isolate"/><polygon points="1462.89 1324.24 1462.29 1324.84 1462.29 1322.74 1458.99 1320.04 1461.79 1297.74 1462.89 1297.44 1462.89 1324.24" style="fill:#1f2042"/><path d="M1333.8,1011.3l-.6-.5h2.1l2.7-3.3,22.3,2.8.3,1.1h-26.8Zm-5.7,0,.6.5h-2.2l-2.7,3.3-22.3-2.8-.3-1.1h26.9Zm2.9,2.8.5-.6v2.2l3.3,2.7-2.8,22.3-1.1.3v-26.9Zm0-5.7-.5.6v-2.2l-3.3-2.7,2.8-22.3,1.1-.3v26.9Z" transform="translate(131.89 315.84)" style="fill:#1f2042;opacity:0.30000001192092896;isolation:isolate"/><polygon points="1462.89 1324.24 1463.39 1324.84 1463.39 1322.74 1466.69 1320.04 1463.99 1297.74 1462.89 1297.44 1462.89 1324.24" style="fill:#1f2042"/><path d="M1333.8,1011.3l-.6.5h2.1l2.7,3.3,22.3-2.8.3-1.1h-26.8Zm-5.7,0,.6-.5h-2.2l-2.7-3.3-22.3,2.8-.3,1.1h26.9Zm2.9,2.8-.5-.6v2.2l-3.3,2.7,2.8,22.3,1.1.3v-26.9Zm0-5.7.5.6v-2.2l3.3-2.7-2.8-22.3-1.1-.3v26.9Z" transform="translate(131.89 315.84)" style="fill:url(#4ac432d0-41f5-4dda-8463-b5467b75c15d)"/><circle cx="1462.89" cy="1327.04" r="2.9" style="fill:#1f2042"/><circle cx="1462.89" cy="1327.04" r="2.1" style="fill:#fff"/></g><path d="M678.3,943.1c82,13.8,199,123.6,324.1,153.2,24.8,5.9,83.4,19.1,151.2-.5a265.06,265.06,0,0,0,40.3-15.3c91.6,26,123.5,18.9,133.1,4.2,3.1-4.7,3.2-9.1,8.2-14.2,19.7-19.8,67.7-2.2,83.4,3.7,84.1,31.8,89.4,89,142.5,96,74.3,9.8,112.4-48.5,175.7-60.8,72.1-13.9,185.9,13.1,360,217.7H165.9C406.2,987.2,569.1,924.8,678.3,943.1Z" transform="translate(131.89 315.84)" style="fill:#1f2042"/><path d="M678.3,943.1c82,13.8,199,123.6,324.1,153.2,24.8,5.9,83.4,19.1,151.2-.5a265.06,265.06,0,0,0,40.3-15.3c91.6,26,123.5,18.9,133.1,4.2,3.1-4.7,3.2-9.1,8.2-14.2,19.7-19.8,67.7-2.2,83.4,3.7,84.1,31.8,89.4,89,142.5,96,74.3,9.8,112.4-48.5,175.7-60.8,72.1-13.9,185.9,13.1,360,217.7H165.9C406.2,987.2,569.1,924.8,678.3,943.1Z" transform="translate(131.89 315.84)" style="fill:url(#dbfdacc2-b907-4bec-b740-4d2049a0b79a)"/><path d="M933,1074.5c16.9,22.5,34.5,34,46.1,40.1,53.9,28.3,117.4,10.7,161.6-1.5,25.4-7,19.8-8.2,35.9-11.5,61-12.6,90.3,14.5,139.4-2.1a68.77,68.77,0,0,0,15.1-6.9,129.69,129.69,0,0,0,11.8-8.7c15.6-11.2,56.7,1.3,65.7,25.3,2.4,6.3.4,7.7,1.8,13.3,8.2,31.2,80.5,22.3,97.8,51.4,13.7,23.1-10.4,64.6-28.9,86.7-101.6,121.6-374.6,45-447.7,24.5-68.4-19.2-211.1-60.3-210.9-119.7C821,1123,894.1,1089.7,933,1074.5Z" transform="translate(131.89 315.84)" style="fill:url(#b61ce772-fe10-4e7b-ba73-6bec3a191bd6)"/><rect x="1579.69" y="1320.54" width="2.4" height="191.3" style="fill:#1f2042"/><rect x="1579.69" y="1320.54" width="2.4" height="191.3" style="fill:#ff9d00;opacity:0.2800000011920929;isolation:isolate"/><polygon points="1587.29 1315.94 1585.89 1314.74 1590.69 1314.74 1596.69 1307.24 1646.69 1313.44 1647.39 1315.94 1587.29 1315.94" style="fill:#1f2042"/><polygon points="1587.29 1315.94 1585.89 1314.74 1590.69 1314.74 1596.69 1307.24 1646.69 1313.44 1647.39 1315.94 1587.29 1315.94" style="fill:#ff9d00;opacity:0.10000000149011612;isolation:isolate"/><polygon points="1587.29 1315.94 1585.89 1317.14 1590.69 1317.14 1596.69 1324.64 1646.69 1318.44 1647.39 1315.94 1587.29 1315.94" style="fill:#1f2042"/><polygon points="1587.29 1315.94 1585.89 1314.74 1590.69 1314.74 1596.69 1307.24 1646.69 1313.44 1647.39 1315.94 1587.29 1315.94" style="fill:#1f2042"/><polygon points="1574.59 1315.94 1575.99 1314.74 1571.09 1314.74 1565.09 1307.24 1515.09 1313.44 1514.49 1315.94 1574.59 1315.94" style="fill:#1f2042"/><polygon points="1574.59 1315.94 1575.99 1314.74 1571.09 1314.74 1565.09 1307.24 1515.09 1313.44 1514.49 1315.94 1574.59 1315.94" style="fill:#ff9d00;opacity:0.10000000149011612;isolation:isolate"/><polygon points="1574.59 1315.94 1575.99 1317.14 1571.09 1317.14 1565.09 1324.64 1515.09 1318.44 1514.49 1315.94 1574.59 1315.94" style="fill:#1f2042"/><polygon points="1574.59 1315.94 1575.99 1314.74 1571.09 1314.74 1565.09 1307.24 1515.09 1313.44 1514.49 1315.94 1574.59 1315.94" style="fill:#1f2042"/><polygon points="1580.89 1322.24 1582.09 1320.94 1582.09 1325.74 1589.59 1331.74 1583.39 1381.74 1580.89 1382.34 1580.89 1322.24" style="fill:#1f2042"/><polygon points="1580.89 1322.24 1582.09 1320.94 1582.09 1325.74 1589.59 1331.74 1583.39 1381.74 1580.89 1382.34 1580.89 1322.24" style="fill:#ff9d00;opacity:0.10000000149011612;isolation:isolate"/><polygon points="1580.89 1322.24 1579.69 1320.94 1579.69 1325.74 1572.19 1331.74 1578.39 1381.74 1580.89 1382.34 1580.89 1322.24" style="fill:#1f2042"/><polygon points="1580.89 1322.24 1582.09 1320.94 1582.09 1325.74 1589.59 1331.74 1583.39 1381.74 1580.89 1382.34 1580.89 1322.24" style="fill:#1f2042"/><polygon points="1580.89 1309.64 1582.09 1310.94 1582.09 1306.14 1589.59 1300.14 1583.39 1250.14 1580.89 1249.54 1580.89 1309.64" style="fill:#1f2042"/><polygon points="1580.89 1309.64 1582.09 1310.94 1582.09 1306.14 1589.59 1300.14 1583.39 1250.14 1580.89 1249.54 1580.89 1309.64" style="fill:#ff9d00;opacity:0.10000000149011612;isolation:isolate"/><polygon points="1580.89 1309.64 1579.69 1310.94 1579.69 1306.14 1572.19 1300.14 1578.39 1250.14 1580.89 1249.54 1580.89 1309.64" style="fill:#1f2042"/><path d="M1455.4,1000.1l-1.4-1.2h4.8l6-7.5,50,6.2.6,2.5Zm-12.7,0,1.4,1.2h-4.8l-6,7.5-50-6.2-.6-2.5Zm6.3,6.3,1.2-1.4v4.8l7.5,6-6.2,50-2.5.6Zm0-12.6-1.2,1.4v-4.8l-7.5-6,6.2-50,2.5-.6Z" transform="translate(131.89 315.84)" style="fill:#1f2042;opacity:0.30000001192092896;isolation:isolate"/><polygon points="1580.89 1309.64 1582.09 1310.94 1582.09 1306.14 1589.59 1300.14 1583.39 1250.14 1580.89 1249.54 1580.89 1309.64" style="fill:#1f2042"/><path d="M1455.4,1000.1l-1.4,1.2h4.8l6,7.5,50-6.2.6-2.5Zm-12.7,0,1.4-1.2h-4.8l-6-7.5-50,6.2-.6,2.5Zm6.3,6.3-1.2-1.4v4.8l-7.5,6,6.2,50,2.5.6Zm0-12.6,1.2,1.4v-4.8l7.5-6-6.2-50-2.5-.6Z" transform="translate(131.89 315.84)" style="fill:url(#a1893057-6e7b-446f-9485-3bbe962015bc)"/><circle cx="1580.89" cy="1315.74" r="6.5" style="fill:#1f2042"/><circle cx="1580.89" cy="1315.74" r="4.8" style="fill:#fff"/><polygon points="640.79 916.64 640.69 916.74 640.69 916.54 640.79 916.64" style="fill:#fff;stroke:#000;stroke-miterlimit:10"/><line x1="764.59" y1="1545.04" x2="764.49" y2="1543.64" style="fill:none;stroke:#000;stroke-miterlimit:10;stroke-width:3px"/><line x1="588.19" y1="1350.74" x2="607.99" y2="1372.74" style="fill:none;stroke:#000;stroke-miterlimit:10;stroke-width:3px"/><polygon points="640.89 916.74 640.79 916.64 640.89 916.54 640.89 916.74" style="fill:#fff;stroke:#000;stroke-miterlimit:10"/><polygon points="389.99 1178.94 457.59 1158.14 402.99 1231.94 389.99 1178.94" style="fill:#1f2042"/><polygon points="389.99 1178.94 457.59 1158.14 402.99 1231.94 389.99 1178.94" style="fill:url(#baa66f88-cdb1-40c5-b0d8-8e26e9c82b2a)"/><line x1="800.09" y1="1472.14" x2="800.09" y2="1470.84" style="fill:none;stroke:#000;stroke-miterlimit:10;stroke-width:3px"/><path d="M1158.2,868.5c1.1-17.5,84-.6,175.3-49.3,74.8-40,78.5-83,134.2-90.3,46.4-6.1,65.8,18,136.4,48.9,126.2,55.2,215.5,15.2,222.4,41.5,10.3,39.3-181.8,156.1-269.8,100.8-25.1-15.8-24.8-43.8-53.4-51.9-35.8-10.2-53.4,25.6-118.7,41.4-45.6,11-83.4,4.8-117.7-.8C1227.8,902.4,1157.2,884.7,1158.2,868.5Z" transform="translate(131.89 315.84)" style="fill:url(#e8607fdb-9092-4271-b20f-a526d031a567)"/><path d="M522.7,516.9c33.3,6.7,55.4,30.1,84.5,20.8,35.5-11.4,27.7-64.4,62.3-81.5,34-16.9,70.3,20.3,136.4,48.9,124.5,53.9,217.7,18.1,222.4,41.5,5.2,26-105.4,93.8-214.6,79.5-47-6.2-49.7-21.8-108.6-30.5-62.1-9.2-100.8-3-175.8,12.7-42.4,8.8-105.8,17.9-187.4,14C427.3,524.4,484.6,509.3,522.7,516.9Z" transform="translate(131.89 315.84)" style="fill:url(#60b7c899-d3c9-4451-af2c-b941b72c2e75)"/><g id="234aabcc-df52-4e21-b2ba-1de125184e5e" data-name="3dbeca25-7912-48ee-bfdd-1bb9554fdc81"><path d="M515.4,804.6l-32.3,31.7-67.5-75.8L379,774.1l-22.6,29.8h0l-35.5,46.7h0L271,916.2l-24.6-16.8h0S44.2,1208.6-22.1,1280.8H85.4l415.2-100.9L679.1,994.2l1.4-.7,27.1-13.1Z" transform="translate(131.89 315.84)" style="fill:#1f2042"/><path d="M515.4,804.6l-32.3,31.7-67.5-75.8L379,774.1l-22.6,29.8h0l-35.5,46.7h0L271,916.2l-24.6-16.8h0S44.2,1208.6-22.1,1280.8H85.4l415.2-100.9L679.1,994.2l1.4-.7,27.1-13.1Z" transform="translate(131.89 315.84)" style="fill:url(#cf0ee597-df18-4a66-a5d0-53a58e7b59b8)"/><path d="M483.1,836.3,85.4,1280.8H-22c58-63.2,280.2-417.7,280.2-417.7l12.9,53L321,850.5l35.5-46.7h0L379.1,774l36.6-13.6Z" transform="translate(131.89 315.84)" style="fill:#1f2042"/><path d="M483.1,836.3,85.4,1280.8H-22c58-63.2,280.2-417.7,280.2-417.7l12.9,53L321,850.5l35.5-46.7h0L379.1,774l36.6-13.6Z" transform="translate(131.89 315.84)" style="fill:url(#8b02ea86-d932-4d27-8ea7-0d9dcae30b15)"/><polygon points="839.49 1296.24 812.49 1309.34 810.99 1310.04 538.59 1441.54 453.49 1482.54 453.49 1482.54 217.29 1596.64 614.99 1152.14 647.29 1120.44 839.49 1296.24" style="fill:url(#e78f122b-d588-43a4-b263-6dbad5de2484)"/><polyline points="510.89 1089.94 396.29 1396.54 614.99 1152.14 547.49 1076.34" style="fill:url(#494805b1-2671-4d2f-8402-c6f3ba8f114b)"/><polygon points="614.99 1152.14 658.19 1219.34 614.99 1331.04 632.49 1495.74 800.19 1315.24 839.49 1296.24 647.29 1120.44 614.99 1152.14" style="fill:url(#660ace50-dcd1-4423-bd5b-4411eb21cb09)"/></g><polygon points="1064.39 1470.84 1198.29 1543.64 1319.49 1474.64 1544.89 1502.94 1507.89 1401.34 1495.69 1362.84 1488.99 1382.14 1479.69 1344.34 1471.59 1401.34 1466.79 1362.84 1459.29 1420.74 1452.89 1387.44 1445.09 1428.54 1434.79 1354.44 1423.29 1423.34 1417.29 1400.74 1407.69 1434.54 1398.79 1388.24 1389.89 1434.14 1385.79 1409.54 1378.39 1439.64 1374.29 1405.34 1368.59 1433.44 1362.99 1424.14 1356.09 1439.64 1352.69 1389.54 1346.19 1439.64 1339.69 1412.84 1332.29 1450.84 1325.09 1396.64 1318.49 1439.64 1312.49 1418.44 1304.69 1447.84 1297.29 1389.54 1290.59 1434.84 1283.49 1412.84 1275.79 1439.64 1271.29 1393.54 1263.99 1433.44 1256.69 1412.84 1250.89 1432.64 1244.59 1418.44 1237.09 1431.54 1227.99 1400.14 1219.39 1437.14 1213.49 1411.54 1205.49 1433.24 1197.59 1383.04 1187.59 1433.24 1178.99 1410.94 1174.09 1433.24 1167.19 1383.34 1158.69 1420.14 1148.79 1403.14 1139.59 1419.04 1133.49 1381.54 1124.19 1418.64 1117.49 1392.74 1064.39 1470.84" style="fill:#1f2042"/><polygon points="1064.39 1470.84 1198.29 1543.64 1319.49 1474.64 1544.89 1502.94 1507.89 1401.34 1495.69 1362.84 1488.99 1382.14 1479.69 1344.34 1471.59 1401.34 1466.79 1362.84 1459.29 1420.74 1452.89 1387.44 1445.09 1428.54 1434.79 1354.44 1423.29 1423.34 1417.29 1400.74 1407.69 1434.54 1398.79 1388.24 1389.89 1434.14 1385.79 1409.54 1378.39 1439.64 1374.29 1405.34 1368.59 1433.44 1362.99 1424.14 1356.09 1439.64 1352.69 1389.54 1346.19 1439.64 1339.69 1412.84 1332.29 1450.84 1325.09 1396.64 1318.49 1439.64 1312.49 1418.44 1304.69 1447.84 1297.29 1389.54 1290.59 1434.84 1283.49 1412.84 1275.79 1439.64 1271.29 1393.54 1263.99 1433.44 1256.69 1412.84 1250.89 1432.64 1244.59 1418.44 1237.09 1431.54 1227.99 1400.14 1219.39 1437.14 1213.49 1411.54 1205.49 1433.24 1197.59 1383.04 1187.59 1433.24 1178.99 1410.94 1174.09 1433.24 1167.19 1383.34 1158.69 1420.14 1148.79 1403.14 1139.59 1419.04 1133.49 1381.54 1124.19 1418.64 1117.49 1392.74 1064.39 1470.84" style="fill:#ff9d00;opacity:0.05000000074505806;isolation:isolate"/><polygon points="1064.39 1470.84 1198.29 1543.64 1319.49 1474.64 1544.89 1502.94 1507.89 1401.34 1495.69 1362.84 1488.99 1382.14 1479.69 1344.34 1471.59 1401.34 1466.79 1362.84 1459.29 1420.74 1452.89 1387.44 1445.09 1428.54 1434.79 1354.44 1423.29 1423.34 1417.29 1400.74 1407.69 1434.54 1398.79 1388.24 1389.89 1434.14 1385.79 1409.54 1378.39 1439.64 1374.29 1405.34 1368.59 1433.44 1362.99 1424.14 1356.09 1439.64 1352.69 1389.54 1346.19 1439.64 1339.69 1412.84 1332.29 1450.84 1325.09 1396.64 1318.49 1439.64 1312.49 1418.44 1304.69 1447.84 1297.29 1389.54 1290.59 1434.84 1283.49 1412.84 1275.79 1439.64 1271.29 1393.54 1263.99 1433.44 1256.69 1412.84 1250.89 1432.64 1244.59 1418.44 1237.09 1431.54 1227.99 1400.14 1219.39 1437.14 1213.49 1411.54 1205.49 1433.24 1197.59 1383.04 1187.59 1433.24 1178.99 1410.94 1174.09 1433.24 1167.19 1383.34 1158.69 1420.14 1148.79 1403.14 1139.59 1419.04 1133.49 1381.54 1124.19 1418.64 1117.49 1392.74 1064.39 1470.84" style="fill:#00d9ff;opacity:0.09000000357627869;isolation:isolate"/><rect x="1317.19" y="1100.04" width="4.5" height="357.5" style="fill:#1f2042"/><rect x="1317.19" y="1100.04" width="4.5" height="357.5" style="fill:#ff9d00;opacity:0.2800000011920929;isolation:isolate"/><polygon points="1331.29 1091.44 1328.69 1089.14 1337.69 1089.24 1348.99 1075.24 1442.39 1086.84 1443.59 1091.44 1331.29 1091.44" style="fill:#1f2042"/><polygon points="1331.29 1091.44 1328.69 1089.14 1337.69 1089.24 1348.99 1075.24 1442.39 1086.84 1443.59 1091.44 1331.29 1091.44" style="fill:#1f2042;opacity:0.30000001192092896;isolation:isolate"/><polygon points="1331.29 1091.44 1328.69 1093.74 1337.69 1093.74 1348.99 1107.64 1442.39 1096.14 1443.59 1091.44 1331.29 1091.44" style="fill:#1f2042"/><polygon points="1331.29 1091.44 1328.69 1093.74 1337.69 1093.74 1348.99 1107.64 1442.39 1096.14 1443.59 1091.44 1331.29 1091.44" style="fill:#1f2042;opacity:0.30000001192092896;isolation:isolate"/><polygon points="1331.29 1091.44 1328.69 1089.14 1337.69 1089.24 1348.99 1075.24 1442.39 1086.84 1443.59 1091.44 1331.29 1091.44" style="fill:#1f2042"/><polygon points="1307.59 1091.44 1310.19 1089.14 1301.19 1089.24 1289.89 1075.24 1196.39 1086.84 1195.29 1091.44 1307.59 1091.44" style="fill:#1f2042"/><polygon points="1307.59 1091.44 1310.19 1089.14 1301.19 1089.24 1289.89 1075.24 1196.39 1086.84 1195.29 1091.44 1307.59 1091.44" style="fill:#1f2042;opacity:0.30000001192092896;isolation:isolate"/><polygon points="1307.59 1091.44 1310.19 1093.74 1301.19 1093.74 1289.89 1107.64 1196.39 1096.14 1195.29 1091.44 1307.59 1091.44" style="fill:#1f2042"/><polygon points="1307.59 1091.44 1310.19 1093.74 1301.19 1093.74 1289.89 1107.64 1196.39 1096.14 1195.29 1091.44 1307.59 1091.44" style="fill:#1f2042;opacity:0.30000001192092896;isolation:isolate"/><polygon points="1307.59 1091.44 1310.19 1089.14 1301.19 1089.24 1289.89 1075.24 1196.39 1086.84 1195.29 1091.44 1307.59 1091.44" style="fill:#1f2042"/><polygon points="1319.39 1103.34 1321.69 1100.74 1321.69 1109.74 1335.69 1120.94 1324.09 1214.44 1319.39 1215.64 1319.39 1103.34" style="fill:#1f2042"/><polygon points="1319.39 1103.34 1321.69 1100.74 1321.69 1109.74 1335.69 1120.94 1324.09 1214.44 1319.39 1215.64 1319.39 1103.34" style="fill:#1f2042;opacity:0.30000001192092896;isolation:isolate"/><polygon points="1319.39 1103.34 1317.19 1100.74 1317.19 1109.74 1303.19 1120.94 1314.79 1214.44 1319.39 1215.64 1319.39 1103.34" style="fill:#1f2042"/><polygon points="1319.39 1103.34 1321.69 1100.74 1321.69 1109.74 1335.69 1120.94 1324.09 1214.44 1319.39 1215.64 1319.39 1103.34" style="fill:#1f2042"/><polygon points="1319.39 1103.34 1321.69 1100.74 1321.69 1109.74 1335.69 1120.94 1324.09 1214.44 1319.39 1215.64 1319.39 1103.34" style="fill:#1f2042;opacity:0.30000001192092896;isolation:isolate"/><polygon points="1319.39 1079.64 1321.69 1082.24 1321.69 1073.14 1335.69 1061.94 1324.09 968.44 1319.39 967.34 1319.39 1079.64" style="fill:#1f2042"/><polygon points="1319.39 1079.64 1321.69 1082.24 1321.69 1073.14 1335.69 1061.94 1324.09 968.44 1319.39 967.34 1319.39 1079.64" style="fill:#1f2042;opacity:0.30000001192092896;isolation:isolate"/><polygon points="1319.39 1079.64 1317.19 1082.24 1317.19 1073.14 1303.19 1061.94 1314.79 968.44 1319.39 967.34 1319.39 1079.64" style="fill:#1f2042"/><polygon points="1319.39 1079.64 1317.19 1082.24 1317.19 1073.14 1303.19 1061.94 1314.79 968.44 1319.39 967.34 1319.39 1079.64" style="fill:#1f2042;opacity:0.30000001192092896;isolation:isolate"/><polygon points="1319.39 1079.64 1321.69 1082.24 1321.69 1073.14 1335.69 1061.94 1324.09 968.44 1319.39 967.34 1319.39 1079.64" style="fill:#1f2042"/><path d="M1199.4,775.6l-2.6-2.3h9l11.3-14,93.5,11.6,1.2,4.7Zm-23.7,0,2.6-2.3h-9l-11.3-14-93.5,11.6-1.2,4.7Zm11.8,11.9-2.3-2.6v9l-14,11.2,11.6,93.5,4.7,1.2V787.5Zm0-23.7,2.3,2.6v-9l14-11.2-11.6-93.5-4.7-1.2V763.8Z" transform="translate(131.89 315.84)" style="fill:url(#1bb8ea0f-25c3-4a39-b05c-065fed144c15)"/><circle cx="1319.39" cy="1091.14" r="12.2" style="fill:#1f2042"/><circle cx="1319.39" cy="1091.14" r="8.9" style="fill:#fff"/><g id="1c53b3e2-f7d4-4d08-af34-03045a462797" data-name="e2af6eec-1616-44e6-b8e3-acd7388eb210"><polygon points="1201.79 1583.04 528.59 1583.04 657.09 1368.34 714.79 1164.04 760.19 1122.34 865.19 1154.94 876.69 1145.74 953.99 1232.34 1008.59 1332.84 1130.49 1461.24 1201.79 1583.04" style="fill:#1f2042"/><polygon points="1201.79 1583.04 528.59 1583.04 657.09 1368.34 714.79 1164.04 760.19 1122.34 865.19 1154.94 876.69 1145.74 953.99 1232.34 1008.59 1332.84 1130.49 1461.24 1201.79 1583.04" style="fill:url(#cda3c6b6-8d1d-4fbe-b5b3-438bf9878027)"/><polygon points="1201.79 1583.04 528.59 1583.04 657.09 1368.34 714.79 1164.04 760.19 1122.34 865.19 1154.94 876.69 1145.74 953.99 1232.34 1008.59 1332.84 1130.49 1461.24 1201.79 1583.04" style="fill:url(#f99e8784-54f3-4c21-8b5a-86a3f06a1a1e)"/><polyline points="714.79 1162.14 760.19 1120.44 786.49 1128.64 876.69 1143.94 953.99 1230.54 1008.59 1331.04 1130.49 1459.44 1201.79 1581.24 908.49 1581.24 770.39 1520.74" style="fill:url(#f53b514b-d29a-43a3-b373-b8efeb83a418)"/><polygon points="1050.79 1581.24 908.49 1581.24 796.29 1420.34 760.19 1120.44 786.49 1128.64 865.19 1153.04 929.89 1302.24 929.89 1414.34 1050.79 1581.24" style="fill:url(#573f7d8b-e05b-44d9-bef1-76bdfc4f1a99)"/><polygon points="1201.79 1581.24 1050.79 1581.24 929.89 1414.34 929.89 1302.24 865.19 1153.04 876.69 1143.94 953.99 1230.54 1008.59 1331.04 1130.49 1459.44 1201.79 1581.24" style="fill:url(#cf4451de-5d18-4558-a208-3514c2babbca)"/><polyline points="950.19 1408.94 1130.49 1459.44 1008.59 1331.04" style="fill:url(#8a7dbe15-1c2a-4dd0-beab-2ecc86bb65af)"/></g><path d="M125.9,1264.4c28.5-25.3,110.5-96.8,227.7-107.8,33.2-3.1,67.4,2.7,134.5,14.3,197.5,34.4,216.8,70.2,318.3,64.2,47.2-2.8,111.8-6.7,178.8-42.8,29.6-16,61.4-36.1,117.2-56,20-7.1,44-12.8,74.9-15.3a435.94,435.94,0,0,1,117.9,7.1c71.8,14.2,79.3,34.8,127.9,45.7,119.2,26.7,175-74,251.4-36.7,50.5,24.7,47.4,79,117.1,104.5,31.4,11.5,57.2,6.6,71.5,9.5,115.9,23.5,201.4,86.7,255.7,136.6-165-.9,181.6,78.5,0,87.2-523.1,25.2-1614,2.5-2089.1,0-54.7-.3,59.5-98.1,4.8-98.3A458,458,0,0,1,125.9,1264.4Z" transform="translate(131.89 315.84)" style="fill:#1f2042"/><path d="M125.9,1264.4c28.5-25.3,110.5-96.8,227.7-107.8,33.2-3.1,67.4,2.7,134.5,14.3,197.5,34.4,216.8,70.2,318.3,64.2,47.2-2.8,111.8-6.7,178.8-42.8,29.6-16,61.4-36.1,117.2-56,20-7.1,44-12.8,74.9-15.3a435.94,435.94,0,0,1,117.9,7.1c71.8,14.2,79.3,34.8,127.9,45.7,119.2,26.7,175-74,251.4-36.7,50.5,24.7,47.4,79,117.1,104.5,31.4,11.5,57.2,6.6,71.5,9.5,115.9,23.5,201.4,86.7,255.7,136.6-165-.9,181.6,78.5,0,87.2-523.1,25.2-1614,2.5-2089.1,0-54.7-.3,59.5-98.1,4.8-98.3A458,458,0,0,1,125.9,1264.4Z" transform="translate(131.89 315.84)" style="fill:url(#5a95848c-b1f1-4d00-9851-153ddbd6304c)"/><path d="M125.9,1264.4c28.5-25.3,110.5-96.8,227.7-107.8,33.2-3.1,67.4,2.7,134.5,14.3,197.5,34.4,216.8,70.2,318.3,64.2,47.2-2.8,111.8-6.7,178.8-42.8,29.6-16,61.4-36.1,117.2-56,20-7.1,44-12.8,74.9-15.3a435.94,435.94,0,0,1,117.9,7.1c71.8,14.2,79.3,34.8,127.9,45.7,119.2,26.7,175-74,251.4-36.7,50.5,24.7,47.4,79,117.1,104.5,31.4,11.5,57.2,6.6,71.5,9.5,115.9,23.5,201.4,86.7,255.7,136.6-165-.9,181.6,78.5,0,87.2-523.1,25.2-1614,2.5-2089.1,0-54.7-.3,59.5-98.1,4.8-98.3A458,458,0,0,1,125.9,1264.4Z" transform="translate(131.89 315.84)" style="fill:url(#4c2c7122-9003-4d6a-94fa-b01c34904a7e)"/><path d="M125.9,1264.4c28.5-25.3,110.5-96.8,227.7-107.8,33.2-3.1,67.4,2.7,134.5,14.3,197.5,34.4,216.8,70.2,318.3,64.2,47.2-2.8,111.8-6.7,178.8-42.8,29.6-16,61.4-36.1,117.2-56,20-7.1,44-12.8,74.9-15.3a435.94,435.94,0,0,1,117.9,7.1c71.8,14.2,79.3,34.8,127.9,45.7,119.2,26.7,175-74,251.4-36.7,50.5,24.7,47.4,79,117.1,104.5,31.4,11.5,57.2,6.6,71.5,9.5,115.9,23.5,255.7,136.6,255.7,136.6v87.2H34.7v-98.3S80.6,1304.7,125.9,1264.4Z" transform="translate(131.89 315.84)" style="fill:url(#aea8a47a-b2b5-4a0e-a30d-ea90c3d5cb80)"/><path d="M1064,716.6a20.32,20.32,0,0,1,.8,5.5l-5.5.8,2.5,2.1.3,3.7,4.2-3.8a26.19,26.19,0,0,1,2.4,7.8,28,28,0,0,1-4.2,18.5c1.7-2.6,4.6-3.3,6.2-2.2a4,4,0,0,1,1.5,3.1,22.47,22.47,0,0,0,2.1-1.2c8.4-6.7,2.9-25.5,2.2-28l2.2-1.9c4.7-1,5.8-2.7,6.2-3.8v-.1l-5.6-2.2-6.6-.3c-.9-2.6-4.8-13.6-15.6-18.1a24.81,24.81,0,0,0-7.6-1.8l3.8,4.2-5.3.6C1050.9,700.8,1061.1,706,1064,716.6Z" transform="translate(131.89 315.84)" style="fill:#fffc69"/><path d="M1064,716.6a20.32,20.32,0,0,1,.8,5.5l-5.5.8,2.5,2.1.3,3.7,4.2-3.8a26.19,26.19,0,0,1,2.4,7.8,28,28,0,0,1-4.2,18.5c1.7-2.6,4.6-3.3,6.2-2.2a4,4,0,0,1,1.5,3.1,22.47,22.47,0,0,0,2.1-1.2c8.4-6.7,2.9-25.5,2.2-28l2.2-1.9c4.7-1,5.8-2.7,6.2-3.8v-.1l-5.6-2.2-6.6-.3c-.9-2.6-4.8-13.6-15.6-18.1a24.81,24.81,0,0,0-7.6-1.8l3.8,4.2-5.3.6C1050.9,700.8,1061.1,706,1064,716.6Z" transform="translate(131.89 315.84)" style="fill:#ff9d00;opacity:0.8999999761581421;isolation:isolate"/><path d="M1013.1,779.8a11.76,11.76,0,0,1,1,3l-3,1,1.6.9c.2.7.3,1.4.5,2.1l2-2.6a16.52,16.52,0,0,1,2.1,4.2,16.33,16.33,0,0,1-.5,10.9c.7-1.6,2.3-2.3,3.3-1.9a2.48,2.48,0,0,1,1.2,1.6,9,9,0,0,0,1-.9c4.1-4.6-.9-14.7-1.6-16.1l1-1.3c2.5-1,3-2.1,3.1-2.8h0l-3.4-.7-3.8.5c-.8-1.4-4.1-7.2-10.7-8.7a13.63,13.63,0,0,0-4.5-.2l2.6,2-2.9.9C1004.1,772.2,1010.4,774.1,1013.1,779.8Z" transform="translate(131.89 315.84)" style="fill:#fffc69;opacity:0.30000001192092896;isolation:isolate"/><path d="M1013.1,779.8a11.76,11.76,0,0,1,1,3l-3,1,1.6.9c.2.7.3,1.4.5,2.1l2-2.6a16.52,16.52,0,0,1,2.1,4.2,16.33,16.33,0,0,1-.5,10.9c.7-1.6,2.3-2.3,3.3-1.9a2.48,2.48,0,0,1,1.2,1.6,9,9,0,0,0,1-.9c4.1-4.6-.9-14.7-1.6-16.1l1-1.3c2.5-1,3-2.1,3.1-2.8h0l-3.4-.7-3.8.5c-.8-1.4-4.1-7.2-10.7-8.7a13.63,13.63,0,0,0-4.5-.2l2.6,2-2.9.9C1004.1,772.2,1010.4,774.1,1013.1,779.8Z" transform="translate(131.89 315.84)" style="fill:#ff9d00;opacity:0.30000001192092896;isolation:isolate"/><path d="M2119,1387.7c10.6,18.2,27.1,52.7,17.3,87.2-65.8,230.3-1213.8,134-1225.6,9.2-2.2-23.8,35.7-61,79.2-103.6,39.8-39,66.3-51.7,100.8-98,23.9-32.1,26.6-46.6,38.6-63.8,26.1-37.4,87.2-73.8,242.8-64.6,15.2,7.5,28.8,14.6,51.2,19.6,119.2,26.7,175-74,251.4-36.7,50.5,24.7,47.4,79,117.1,104.5,31.4,11.5,57.2,6.6,71.5,9.5C1979.2,1274.6,2064.7,1337.8,2119,1387.7Z" transform="translate(131.89 315.84)" style="fill:url(#84c50534-8566-4aa0-82c6-3275613b5261)"/><path d="M1079.3,1382.1l-8.7,6.8c-5.3-2.1-10.8-4.4-16.1-6.9Z" transform="translate(131.89 315.84)" style="fill:url(#a86bd74c-43b8-4467-b6bc-3e40a02267d7)"/><path d="M34.7,1376.6a452.22,452.22,0,0,1,91.2-112.1c28.5-25.3,110.5-96.8,227.7-107.8,33.2-3.1,67.4,2.7,134.5,14.3,197.5,34.4,216.8,70.2,318.3,64.2,47.2-2.8,111.8-6.7,178.8-42.8,10-5.4,20.3-11.3,31.7-17.5-10-70.8-426.9-245.2-753.4-70.2C126,1178.4-17.2,1325.7,12,1389.6c10.2,22.3,39.1,29.4,62.4,34.4,207.5,44.9,507.9,49,697.3-37.4l13.4-6.1Z" transform="translate(131.89 315.84)" style="fill:none"/><path d="M806.4,1235.1c-101.5,6-120.8-29.8-318.3-64.2-67-11.7-101.2-17.4-134.5-14.3-117.2,11-199.2,82.5-227.7,107.8a452.22,452.22,0,0,0-91.2,112.1c46.7,22.9,322.1,154.7,538.9,98.3,8-2.1,6.5-2,273.8-112.1,15.1-6.2,46.1-19,80.6-45.6a329.3,329.3,0,0,0,74.9-81.3h0c.1,0,19.7-21,14-61-11.4,6.2-21.7,12.1-31.7,17.5C918.2,1228.4,853.5,1232.3,806.4,1235.1Z" transform="translate(131.89 315.84)" style="fill:url(#41e41af2-5e2b-4cf7-b08a-e0c2b2df5d81)"/><path d="M34.7,1376.6a452.22,452.22,0,0,1,91.2-112.1c28.5-25.3,110.5-96.8,227.7-107.8,26.6-2.5,53.8.7,97.8,8-6.8-37.7-146.6-72.6-259.9-29.6C72.2,1180.3-27.8,1316,5.3,1385.7c36.1,76,220.7,50,307.9,25,13.1-3.8,50.8-14.6,84.7-32.2Z" transform="translate(131.89 315.84)" style="fill:none"/><path d="M563.8,1335.5c12.8-26.6,40.3-22,62.2-58.9,11-18.4,20-46.2,15.6-70.8-36.7-10.6-84.1-22.8-153.6-34.9-29.7-5.2-53-9.2-72.6-11.8-87.7,23.9-168.9,77.1-173,147.5-1.5,26.9,8.7,51,22.3,71.2l298.8,1.6C558.3,1364.7,556.9,1349.8,563.8,1335.5Z" transform="translate(131.89 315.84)" style="fill:url(#f8bff2f8-83ef-4b89-bf0f-235366c2d0ea)"/></g><g style="clip-path:url(#df972388-3ba3-491b-b419-fe5eee91f306)"><path d="M1810.7,1140.5c-24.2-31.3,19.9-79.5-.9-105.8-14.4-18.2-53.7-18-64.3-3.4-9.5,13,9.1,30.5,11,71.9,1,21.4-3.1,37-8,56-16.5,63.5-44.6,76.6-37.3,97.8,9.4,27.2,72.1,51.8,112.4,20.3C1861,1248,1811.6,1141.7,1810.7,1140.5Z" transform="translate(131.89 315.84)" style="fill:#1f2042"/><path d="M1810.7,1140.5c-24.2-31.3,19.9-79.5-.9-105.8-14.4-18.2-53.7-18-64.3-3.4-9.5,13,9.1,30.5,11,71.9,1,21.4-3.1,37-8,56-16.5,63.5-44.6,76.6-37.3,97.8,9.4,27.2,72.1,51.8,112.4,20.3C1861,1248,1811.6,1141.7,1810.7,1140.5Z" transform="translate(131.89 315.84)" style="fill:url(#4ccedfc9-b760-45a3-9504-9d358eb6b300)"/><path d="M1786.6,596.2,1660.2,1016c5.8,7.4,52,64,130.6,64.6,70.3.5,114.6-44.1,122.1-51.9Z" transform="translate(131.89 315.84)" style="fill:#1f2042"/><path d="M1786.6,596.2,1660.2,1016c5.8,7.4,52,64,130.6,64.6,70.3.5,114.6-44.1,122.1-51.9Z" transform="translate(131.89 315.84)" style="fill:url(#7225258b-446f-4560-bb46-7daba5237603)"/><path d="M1692.7,1047.8c-3.7-2.9-7.5-6.1-11.3-9.6a211.62,211.62,0,0,1-21.2-22.2q63.15-209.85,126.4-419.8c-23.1,107.4-26.7,190.5-25.4,247.3.9,41.8,5.5,118.7-43,178.7A171.44,171.44,0,0,1,1692.7,1047.8Z" transform="translate(131.89 315.84)" style="fill:url(#669fa010-ee33-45bb-b939-679fdde1e402)"/><path d="M1597.8,1022.2c-11.4,15.7,10.6,35.1,13.7,89.9,1.2,21.3,2.6,45.8-10,70-10.8,20.7-25.1,28.3-56.7,51.1-19,13.8-46.5,34.7-78.9,63.4,8.1,8.4,21,18.7,37.8,20.5,23.6,2.5,42.3-13,56.2-22.8,19.6-13.7,51.1-21.9,111.6-42.2,33.9-11.3,55.7-14.1,57.8-26.7,1-5.7-2.8-10.4-13.4-23.2-24.3-29.4-33-38.8-36.6-43.5-30.2-39.1,24.9-99.4-1.1-132.3C1660.1,1003.7,1611,1004,1597.8,1022.2Z" transform="translate(131.89 315.84)" style="fill:#1f2042"/><path d="M1597.8,1022.2c-11.4,15.7,10.6,35.1,13.7,89.9,1.2,21.3,2.6,45.8-10,70-10.8,20.7-25.1,28.3-56.7,51.1-19,13.8-46.5,34.7-78.9,63.4,8.1,8.4,21,18.7,37.8,20.5,23.6,2.5,42.3-13,56.2-22.8,19.6-13.7,51.1-21.9,111.6-42.2,33.9-11.3,55.7-14.1,57.8-26.7,1-5.7-2.8-10.4-13.4-23.2-24.3-29.4-33-38.8-36.6-43.5-30.2-39.1,24.9-99.4-1.1-132.3C1660.1,1003.7,1611,1004,1597.8,1022.2Z" transform="translate(131.89 315.84)" style="fill:url(#25b08200-fb84-4dd7-95db-c158359299aa)"/><path d="M1649.2,478.3l-158,524.8c3.4,4.8,63.6,87.5,163.3,80.8,73.2-4.9,117.4-54.7,126-64.8Q1714.8,748.65,1649.2,478.3Z" transform="translate(131.89 315.84)" style="fill:#1f2042"/><path d="M1649.2,478.3l-158,524.8c3.4,4.8,63.6,87.5,163.3,80.8,73.2-4.9,117.4-54.7,126-64.8Q1714.8,748.65,1649.2,478.3Z" transform="translate(131.89 315.84)" style="fill:url(#e578215a-f896-44e1-8cd3-168223ccff44)"/><path d="M1531.9,1042.9c-4.6-3.6-9.4-7.6-14.2-12a257.75,257.75,0,0,1-26.5-27.8q79-262.35,158-524.8c-28.9,134.3-33.3,238.2-31.8,309.2,1.2,52.2,6.9,148.4-53.7,223.4A223.68,223.68,0,0,1,1531.9,1042.9Z" transform="translate(131.89 315.84)" style="fill:url(#ab5ec8e6-0e59-43bd-b2b6-e9bd94590b97)"/></g></svg>