<svg id="96034c7b-29f2-4300-9172-b8951d9cfb3f" data-name="43a40609-ed80-4dc2-845f-f8edf8e3a421" 
    xmlns="http://www.w3.org/2000/svg" 
    xmlns:xlink="http://www.w3.org/1999/xlink" viewBox="0 0 2797.61 1700.58">
    <defs>
        <clipPath id="db9c238f-3506-41f2-bc8b-a9272810fb70">
            <path d="M216.4,861c-1.1-47,87-68,84.8-125.4-1.4-35.3-36-50.9-64-81.2C145.7,555.7,154.4,334,245.4,268c73-52.9,145.8,32.9,248.8-16.2C621,191.5,606.6,16.3,681.7,7.1c78-9.5,91.3,180.9,260.4,279,150,87.1,236.6-6.5,360.8,88.5,120.4,92.1,98.7,225.7,207.6,253.5,67.9,17.3,100.6-28.6,196.7-6.3.8.19,1.88.44,3.2.77,67.46,16.56,110.25,54,139.8,78.13,5.54,4.52,72,58.56,116.34,83.89,130.52,74.46,238.45-3.56,289.49,51,49.85,53.29,10.83,196-60,289.48-190,250.78-630.61,189.29-675.55,180.73-64-12.2-87.92-18.78-87.92-18.78-64.09-16.1-81.56-26.55-144.06-28.72-224.2-7.8-261,135.9-508.4,176-12,1.9-16.5,2.6-18.1,2.8-182.2,22.2-383-114.7-392.4-246.4-5.8-81.4,65.3-108.2,45.2-172C385.7,926.4,217.9,923.1,216.4,861Z" style="fill:none"/>
        </clipPath>
        <radialGradient id="46d91632-7d0a-4d2a-b28e-959eab6eec23" cx="976.31" cy="48.36" r="1730.82" gradientTransform="translate(0 541.01)" gradientUnits="userSpaceOnUse">
            <stop offset="0" stop-color="#fffc69" stop-opacity="0.2"/>
            <stop offset="1" stop-color="#fffc69" stop-opacity="0"/>
        </radialGradient>
        <radialGradient id="482c5a54-d2e3-47ef-bc1f-ffa48172124b" cx="1124.33" cy="1821.52" r="614.99" gradientTransform="matrix(-0.01, 1.48, -2.35, -0.02, 5212.21, -732.75)" gradientUnits="userSpaceOnUse">
            <stop offset="0" stop-color="#ff9d00" stop-opacity="0.8"/>
            <stop offset="1" stop-color="#ff00a6" stop-opacity="0.98"/>
        </radialGradient>
        <radialGradient id="244f6585-4e3e-4915-ac8a-35fb03e22c89" cx="940.6" cy="239.53" r="1149.99" gradientTransform="translate(0 541.01)" gradientUnits="userSpaceOnUse">
            <stop offset="0" stop-color="#fff" stop-opacity="0.2"/>
            <stop offset="1" stop-color="#ff9d00" stop-opacity="0.2"/>
        </radialGradient>
        <radialGradient id="f323938b-1219-465a-9b15-816f54d319c6" cx="931.9" cy="286.04" r="798.61" gradientTransform="translate(0 541.01)" gradientUnits="userSpaceOnUse">
            <stop offset="0" stop-color="#fff" stop-opacity="0.2"/>
            <stop offset="1" stop-color="#ffd48f" stop-opacity="0.3"/>
        </radialGradient>
        <radialGradient id="9feb5d8a-2486-47f6-ac74-456f8c14b9db" cx="936.4" cy="318.28" r="422.16" gradientTransform="translate(0 541.01)" gradientUnits="userSpaceOnUse">
            <stop offset="0" stop-color="#fff" stop-opacity="0.4"/>
            <stop offset="1" stop-color="#ffe9c7" stop-opacity="0.3"/>
        </radialGradient>
        <radialGradient id="b174ebfb-8554-4ab5-9767-c9fdd6bfc389" cx="915.65" cy="389.79" r="314.02" gradientTransform="translate(0 541.01)" gradientUnits="userSpaceOnUse">
            <stop offset="0" stop-color="#fff" stop-opacity="0.3"/>
            <stop offset="1" stop-color="#ffe1b0" stop-opacity="0.4"/>
        </radialGradient>
        <radialGradient id="ea1a24db-b37f-4315-b023-0e330b78b3ee" cx="1054.91" cy="268.88" r="490.97" gradientTransform="translate(0 541.01)" gradientUnits="userSpaceOnUse">
            <stop offset="0" stop-color="#ff9d00"/>
            <stop offset="1" stop-color="#ff9d00" stop-opacity="0.2"/>
        </radialGradient>
        <linearGradient id="63b03d42-233d-41d0-a99d-fb3b1e380e1d" x1="867.65" y1="451.71" x2="408.16" y2="1071.12" gradientTransform="translate(0 541.01)" gradientUnits="userSpaceOnUse">
            <stop offset="0" stop-color="#fff"/>
            <stop offset="1" stop-color="#fff" stop-opacity="0.2"/>
        </linearGradient>
        <linearGradient id="4d26bce5-1741-4337-80b2-c29a87e13023" x1="1285.71" y1="482.53" x2="2416.46" y2="482.53" gradientTransform="translate(0 541.01)" gradientUnits="userSpaceOnUse">
            <stop offset="0" stop-color="#ff9d00" stop-opacity="0"/>
            <stop offset="1" stop-color="#ff9d00" stop-opacity="0.8"/>
        </linearGradient>
        <linearGradient id="68c180c8-9aae-4148-baf0-95ae71b32a0b" x1="-193.61" y1="309.25" x2="798.72" y2="309.25" gradientTransform="translate(0 541.01)" gradientUnits="userSpaceOnUse">
            <stop offset="0" stop-color="#ff9d00" stop-opacity="0.7"/>
            <stop offset="1" stop-color="#ff9d00" stop-opacity="0"/>
        </linearGradient>
        <linearGradient id="1f446814-1c15-474f-9fe0-d90beab3d0a6" x1="946.45" y1="587.49" x2="1860.71" y2="587.49" gradientTransform="translate(0 541.01)" gradientUnits="userSpaceOnUse">
            <stop offset="0" stop-color="#0f6" stop-opacity="0.4"/>
            <stop offset="0.48" stop-color="#0f6" stop-opacity="0.3"/>
            <stop offset="1" stop-color="#0f6" stop-opacity="0"/>
        </linearGradient>
        <linearGradient id="93602fef-041c-4838-bf0c-af9d8cc10b8d" x1="1010.67" y1="635.32" x2="1675.56" y2="635.32" gradientTransform="translate(0 541.01)" gradientUnits="userSpaceOnUse">
            <stop offset="0" stop-color="#0f6" stop-opacity="0.05"/>
            <stop offset="1" stop-color="#0f6" stop-opacity="0.1"/>
        </linearGradient>
        <linearGradient id="1d3b6039-8e38-4c97-bb08-c66d72bf5a04" x1="963.2" y1="545.24" x2="1420.7" y2="545.24" gradientTransform="translate(0 541.01)" gradientUnits="userSpaceOnUse">
            <stop offset="0" stop-color="#0f6" stop-opacity="0.7"/>
            <stop offset="1" stop-color="#0f6" stop-opacity="0.65"/>
        </linearGradient>
        <radialGradient id="60cfa106-e576-468a-ba88-c08b53a1d6a4" cx="1381.01" cy="448.99" r="117.75" gradientTransform="matrix(1, 0, 0, -1, 0, 1484)" gradientUnits="userSpaceOnUse">
            <stop offset="0" stop-color="#00d9ff" stop-opacity="0.2"/>
            <stop offset="1" stop-color="#00d9ff" stop-opacity="0"/>
        </radialGradient>
        <radialGradient id="3fa4f6fa-e66f-4a94-bdaf-d86110b7351f" cx="2282.23" cy="2648.94" r="1172.26" gradientTransform="matrix(-1, 0.01, 0, -0.51, 3268.39, 2334.01)" gradientUnits="userSpaceOnUse">
            <stop offset="0" stop-color="#00d9ff" stop-opacity="0.5"/>
            <stop offset="1" stop-color="#00d9ff" stop-opacity="0.2"/>
        </radialGradient>
        <radialGradient id="66f6df25-1d90-4605-b847-5850f3bda335" cx="1167.11" cy="562.93" r="469.13" gradientTransform="translate(0 541.01)" gradientUnits="userSpaceOnUse">
            <stop offset="0" stop-color="#1f2042" stop-opacity="0.3"/>
            <stop offset="1" stop-color="#1f2042" stop-opacity="0"/>
        </radialGradient>
        <radialGradient id="7583eb9e-7069-45b7-8818-5eacd707b22c" cx="1497.05" cy="459.9" r="66.42" xlink:href="#60cfa106-e576-468a-ba88-c08b53a1d6a4"/>
        <linearGradient id="484402c8-30a0-458f-bfa1-3d12168b7312" x1="301.71" y1="378.38" x2="508.23" y2="268.57" gradientTransform="translate(0 541.01)" gradientUnits="userSpaceOnUse">
            <stop offset="0" stop-color="#00d9ff" stop-opacity="0.3"/>
            <stop offset="1" stop-color="#00d9ff" stop-opacity="0"/>
        </linearGradient>
        <linearGradient id="b56e602e-a06c-4773-ae16-ecf2cdb1e6d6" x1="1206.19" y1="314.31" x2="1874.9" y2="314.31" gradientTransform="translate(0 541.01)" gradientUnits="userSpaceOnUse">
            <stop offset="0" stop-color="#fff" stop-opacity="0.8"/>
            <stop offset="1" stop-color="#ffd48f" stop-opacity="0"/>
        </linearGradient>
        <linearGradient id="be7ff7dd-83ec-4cfb-bd00-72db866984b4" x1="1053.04" y1="23" x2="427.25" y2="23" gradientTransform="translate(0 541.01)" gradientUnits="userSpaceOnUse">
            <stop offset="0" stop-color="#fff" stop-opacity="0.8"/>
            <stop offset="1" stop-color="#fff" stop-opacity="0"/>
        </linearGradient>
        <linearGradient id="90f20640-ed77-4d8d-ae86-3f60f7f1233b" x1="332.55" y1="714.38" x2="575.13" y2="294.22" gradientTransform="translate(0 541.01)" gradientUnits="userSpaceOnUse">
            <stop offset="0" stop-color="#00d9ff" stop-opacity="0"/>
            <stop offset="1" stop-color="#00d9ff" stop-opacity="0.2"/>
        </linearGradient>
        <linearGradient id="afb0fbd4-263e-4306-a49c-adc5dd5ae9cc" x1="42.82" y1="636.63" x2="781.41" y2="243.91" gradientTransform="translate(0 541.01)" gradientUnits="userSpaceOnUse">
            <stop offset="0" stop-color="#ff9d00" stop-opacity="0"/>
            <stop offset="1" stop-color="#00d9ff" stop-opacity="0.3"/>
        </linearGradient>
        <linearGradient id="24cffd30-a57e-437c-bda2-4da442007752" x1="47.3" y1="701" x2="656.89" y2="376.88" gradientTransform="translate(0 541.01)" gradientUnits="userSpaceOnUse">
            <stop offset="0" stop-color="#ff9d00" stop-opacity="0"/>
            <stop offset="1" stop-color="#ff9d00" stop-opacity="0.05"/>
        </linearGradient>
        <radialGradient id="4401b209-30c0-412e-9ff9-61f929db6bff" cx="322.47" cy="1386.84" r="297.06" gradientTransform="matrix(0.39, 0.92, -0.77, 0.33, 1539.4, 64.21)" gradientUnits="userSpaceOnUse">
            <stop offset="0" stop-color="#00d9ff" stop-opacity="0.5"/>
            <stop offset="1" stop-color="#00d9ff" stop-opacity="0"/>
        </radialGradient>
        <radialGradient id="dfcc973d-c782-420d-a8d9-380d483ebaeb" cx="2323.71" cy="1305.45" r="285.61" gradientTransform="matrix(-0.74, -0.68, 0.31, -0.34, 1999.64, 2933.23)" xlink:href="#60cfa106-e576-468a-ba88-c08b53a1d6a4"/>
        <radialGradient id="a8517369-d4fb-40dd-8897-77e3c95c370c" cx="1295.51" cy="776.83" r="269.54" xlink:href="#60cfa106-e576-468a-ba88-c08b53a1d6a4"/>
        <radialGradient id="6b9873c4-19f8-463e-bd08-05469fb843c6" cx="885.21" cy="382.75" r="423.57" gradientTransform="translate(0 541.01)" gradientUnits="userSpaceOnUse">
            <stop offset="0" stop-color="#00d9ff" stop-opacity="0.2"/>
            <stop offset="1" stop-color="#00d9ff" stop-opacity="0.05"/>
        </radialGradient>
        <radialGradient id="b185bf23-04b4-47c2-843f-2f76d1d01747" cx="626.82" cy="1193.11" r="288.42" gradientTransform="matrix(0.6, 0.8, -0.65, 0.49, 1345.72, -186.53)" xlink:href="#484402c8-30a0-458f-bfa1-3d12168b7312"/>
        <radialGradient id="c14b0429-479f-466f-9343-9a1e3f77ead2" cx="870.76" cy="389.42" r="454.64" gradientTransform="translate(0 541.01)" gradientUnits="userSpaceOnUse">
            <stop offset="0" stop-color="#00d9ff" stop-opacity="0"/>
            <stop offset="1" stop-color="#00d9ff" stop-opacity="0.05"/>
        </radialGradient>
        <radialGradient id="0624ac82-04eb-4628-9657-da61640a99e8" cx="889.66" cy="367.19" r="325.71" gradientTransform="translate(0 541.01)" gradientUnits="userSpaceOnUse">
            <stop offset="0" stop-color="#00d9ff" stop-opacity="0.05"/>
            <stop offset="1" stop-color="#ff9d00" stop-opacity="0"/>
        </radialGradient>
        <radialGradient id="71332742-1ebb-46e6-b446-e4d99c5fcb1a" cx="882.98" cy="417.97" r="380.17" gradientTransform="translate(0 541.01)" gradientUnits="userSpaceOnUse">
            <stop offset="0" stop-color="#00d9ff" stop-opacity="0.15"/>
            <stop offset="1" stop-color="#00d9ff" stop-opacity="0"/>
        </radialGradient>
        <linearGradient id="f67cc188-d6bc-4ab4-80d4-247e19d39f69" x1="930.58" y1="650.03" x2="993.88" y2="530.87" xlink:href="#24cffd30-a57e-437c-bda2-4da442007752"/>
        <radialGradient id="86c7e43c-47f4-4e5e-b257-08309cb03a21" cx="1151.69" cy="-226.71" r="1748" gradientTransform="translate(0 541.01)" gradientUnits="userSpaceOnUse">
            <stop offset="0" stop-color="#00d9ff" stop-opacity="0.1"/>
            <stop offset="1" stop-color="#ff9d00" stop-opacity="0"/>
        </radialGradient>
        <radialGradient id="8f673efc-23ae-4912-a058-d5a9e4a5467d" cx="1045.52" cy="365.83" r="803.58" gradientTransform="translate(0 541.01)" gradientUnits="userSpaceOnUse">
            <stop offset="0" stop-color="#ff9d00" stop-opacity="0.1"/>
            <stop offset="1" stop-color="#00d9ff" stop-opacity="0.1"/>
        </radialGradient>
        <radialGradient id="0e20687e-274a-4035-a295-8dc7a76bb22b" cx="894.01" cy="1386.72" r="330.45" gradientTransform="matrix(0, 1, -3.04, 0, 5178.44, 85.27)" xlink:href="#484402c8-30a0-458f-bfa1-3d12168b7312"/>
        <radialGradient id="80b208ba-090e-4474-b110-cb5c1efd8bee" cx="1199.53" cy="690.3" r="467.98" gradientTransform="translate(0 541.01)" gradientUnits="userSpaceOnUse">
            <stop offset="0" stop-color="#1f2042" stop-opacity="0.2"/>
            <stop offset="1" stop-color="#1f2042" stop-opacity="0"/>
        </radialGradient>
        <radialGradient id="10003409-9400-45c1-9e61-9086f5d2544f" cx="1115.05" cy="849.41" r="27.88" gradientTransform="translate(0 541.01)" gradientUnits="userSpaceOnUse">
            <stop offset="0" stop-color="#fffc69" stop-opacity="0.1"/>
            <stop offset="1" stop-color="#ff9d00" stop-opacity="0"/>
        </radialGradient>
        <radialGradient id="827a6bae-d606-48c2-923e-455d6dd65c1f" cx="782.31" cy="1667.46" r="503.69" gradientTransform="matrix(0, 1, -1.78, 0, 3820.78, 324.49)" gradientUnits="userSpaceOnUse">
            <stop offset="0" stop-color="#1f2042" stop-opacity="0.7"/>
            <stop offset="1" stop-color="#1f2042" stop-opacity="0"/>
        </radialGradient>
        <radialGradient id="d40d25a1-42fc-45c9-84eb-3660a32260c6" cx="528.39" cy="680.65" r="409.1" xlink:href="#66f6df25-1d90-4605-b847-5850f3bda335"/>
        <clipPath id="2fb7b075-466c-45a2-821f-0fd0fefd0024">
            <path d="M216.4,861c34.4-91.5,89.6-150.1,124.9-187C458.6,551.6,591,508.3,648.2,490.4c134.1-42,242.4-33,362.9-24,240.9,18.1,259.9,79.4,400.8,51,119.7-24.1,155.9-78.3,258.6-61.3,18.4,3.1,138.7,23,179.6,108,24.3,50.5,5.9,93.4,47.1,202.9,0,0,3.5,9.23,7.08,17.7,24.9,58.92,490.46,134.7,506.24,215.88,19.47,100.14-631.94,278.9-812.52,300.62a693.15,693.15,0,0,1-77.62,4.5c-75.11-6.2-120.42-43.65-232-47.5-224.2-7.8-261,135.9-508.4,176-46.8,7.6-367.7,59.6-520.7-136C156.5,1166.8,172.4,978.1,216.4,861Z" style="fill:none"/>
        </clipPath>
        <radialGradient id="352fecc8-be01-46f0-ba28-a2ff79afaf0f" cx="1696.55" cy="520.16" r="417.72" gradientTransform="translate(0 541.01)" gradientUnits="userSpaceOnUse">
            <stop offset="0" stop-color="#00d9ff" stop-opacity="0.4"/>
            <stop offset="1" stop-color="#00d9ff" stop-opacity="0"/>
        </radialGradient>
        <radialGradient id="050597d4-8ab0-420e-a7e5-8b17e6a06494" cx="1690.58" cy="244.68" r="482.96" xlink:href="#352fecc8-be01-46f0-ba28-a2ff79afaf0f"/>
        <linearGradient id="90b1b743-c724-4b1f-bfa0-83dd2a09330f" x1="1729.5" y1="282.4" x2="2007.09" y2="390.22" gradientTransform="translate(0 541.01)" xlink:href="#71332742-1ebb-46e6-b446-e4d99c5fcb1a"/>
        <radialGradient id="91ecc109-8fbc-4033-8426-096b29d22142" cx="1521.63" cy="564.63" r="325.93" xlink:href="#352fecc8-be01-46f0-ba28-a2ff79afaf0f"/>
        <radialGradient id="4fda192c-544d-425e-ba61-c9c49359b2ef" cx="1519.06" cy="168.35" r="583.15" gradientTransform="translate(0 541.01)" xlink:href="#60cfa106-e576-468a-ba88-c08b53a1d6a4"/>
        <linearGradient id="2c20a200-a90d-4643-88c1-c945bc9722b6" x1="1601.7" y1="229.28" x2="1700.43" y2="267.62" gradientTransform="translate(0 541.01)" xlink:href="#352fecc8-be01-46f0-ba28-a2ff79afaf0f"/>
    </defs>
    <title>hero</title>
    <path d="M2682,526c-134.22-72.11-350.68,267.12-609,180.59-127.66-42.77-219.32-134.79-333.47-140.41-112.41-5.53-138.36,43.92-211,15.92-112.66-43.43-72.32-170.86-198-255-107.84-72.2-219.75-33.39-270-124.49-4.06-7.36-19.23-35.63-18-70.5,5.35-151.63,315.7-206.35,307.22-272.12-11.06-85.75-627.7-305.45-1044,36-422.5,346.53-258,960.71-249.09,991.83,24.6,86.23,83.34,292.17,228.69,334.67,78,22.8,192.93,10,316-22,40.13-10.44,78-18.84,113.92-25.58-50.77,272.83-6.73,359.25,40.58,389.08,80.09,50.5,179.51-54.9,374.09-74,211.35-20.74,301.64,83.25,498,136,273.59,73.5,661,31.91,896-192C2825.6,1146.63,2828.6,604.76,2682,526Z" style="fill:#d7f0ff"/>
    <path d="M216.4,861c27.3-30.9,79.8-64,84.8-125.4,3-36-11.9-63-20.7-81.1-42-86.7-79.3-248.9-21.3-337.9,44.9-69,153-103.2,235.1-80.3,99.3,27.7,91.2,125.6,204.8,187.1a256.42,256.42,0,0,0,66.5,25.3c96.9,22.4,153.8-23.8,216.5-32.5,168.7-23.3,227.3,246.3,429.8,254.2,113.1,4.4,151.9-77.3,282.9-51.4,20.1,4,95.5,19.9,155.3,81.6,98.2,101.2,103.3,272.3,41.9,394.3-81.4,161.6-255.6,199.4-294,206.3-131.6,23.6-164.8-38-309.6-43-224.2-7.8-261,135.9-508.4,176-46.8,7.6-367.7,59.6-520.7-136C158.5,1169.4,134,954.6,216.4,861Z" style="fill:none"/>
    <path d="M216.4,861c-1-42,79.1-56.5,84.8-125.4,2.9-34.8-11.1-60.2-20.7-81.2-48-105.2-27.2-283,42.3-327.2,84.9-54,193.4,122.1,442.8,121.4,124.1-.2,120.8-19.2,216.5-32.4,168.7-23.3,227.3,246.3,429.8,254.2,113.1,4.4,151.9-77.3,282.9-51.4,20.1,4,95.5,19.9,155.3,81.6,98.2,101.2,103.3,272.3,41.9,394.3-81.4,161.6-255.6,199.4-294,206.3-131.6,23.6-164.8-38-309.6-43-224.2-7.8-261,135.9-508.4,176-12,1.9-16.5,2.6-18.1,2.8-182.2,22.2-383-114.7-392.4-246.4-5.8-81.4,65.3-108.2,45.2-172C385.7,926.4,217.9,923.1,216.4,861Z" style="fill:none"/>
    <g style="clip-path:url(#db9c238f-3506-41f2-bc8b-a9272810fb70)">
        <rect x="82.7" y="456.2" width="1995.2" height="942.6" style="fill:url(#46d91632-7d0a-4d2a-b28e-959eab6eec23)"/>
        <rect x="82.7" y="-6" width="2522.81" height="1402.9" style="fill:url(#482c5a54-d2e3-47ef-bc1f-ffa48172124b)"/>
        <circle cx="912.1" cy="932.8" r="766.3" style="opacity:0.4000000059604645;isolation:isolate;fill:url(#244f6585-4e3e-4915-ac8a-35fb03e22c89)"/>
        <circle cx="912.1" cy="932.8" r="532.2" style="fill:url(#f323938b-1219-465a-9b15-816f54d319c6)"/>
        <circle cx="912.1" cy="932.8" r="422.4" style="fill:url(#9feb5d8a-2486-47f6-ac74-456f8c14b9db)"/>
        <circle cx="912.1" cy="932.8" r="320.8" style="fill:url(#b174ebfb-8554-4ab5-9767-c9fdd6bfc389)"/>
        <circle cx="912.1" cy="932.8" r="222.8" style="fill:url(#ea1a24db-b37f-4315-b023-0e330b78b3ee)"/>
        <circle cx="912.1" cy="932.8" r="222.8" style="fill:url(#63b03d42-233d-41d0-a99d-fb3b1e380e1d)"/>
        <path d="M1958.8,752.2c-67.41-67.47-44.86-180.16-70.4-180.9-58.7-1.7-93.1,348.3-153.4,346.9-50.1-1.2-58.9-242.8-126.2-248.7-36.7-3.2-45.3,77.9-119.8,172.5-118.3,150.4-239.1,129-285.8,238-39,91,3.48,213.57,64.8,283,166.4,188.4,600.25,129,841-90.94,159.75-145.91,254.38-380.61,189-456C2235.72,744.28,2057.25,850.74,1958.8,752.2Z" style="fill:url(#4d26bce5-1741-4337-80b2-c29a87e13023)"/>
        <path d="M-21.1,740C25.9,482.6,56.2,387,96,385c60-3.1,93.6,206.8,177.3,207.1,66.8.2,106.6-126.5,142.2-115.9,47.9,14.3,3.2,246.1,52.3,261.7,48.5,15.4,134.7-184.6,190.3-168.6,59.5,17.1,20.4,263.9,86.8,282.6,39.4,11.1,73.9-70.1,110.8-59.5,56.3,16.1,87.8,237.7-12.2,331.3-57.9,54.2-136.1,46.5-220.5,47C203.6,1173.5,32.3,1391-56.7,1287.8-108.7,1227.3-80.2,1064-21.1,740Z" style="fill:url(#68c180c8-9aae-4148-baf0-95ae71b32a0b)"/>
        <path d="M1144.4,1341.1c-4.7,11.2-6.3,21.3-3,30,27,70.6,388.3,52.6,617.8-30Z" style="fill:none"/>
        <path d="M1206.9,1044.2l65.2-44.4,83.1,36.5,63.9-36.9,34.4,53.1,53.7-20.2,96.3,94.8,34.2-34.2,85.6,22,31.8-23.2,169,150.6c12.4-15.7,20.2-32.2,22.2-49.7,13.3-110.9-203.6-233.5-363.8-271.3-182.6-43.1-400.8-1.7-422.6,76.4a94.24,94.24,0,0,0-2.8,22.4l3.8-3Z" style="fill:none"/>
        <path d="M886.9,1028.4c28.5-26.6,38.7-45,67.3-71.6,25.3,37.2,68.9,66,94.2,103.2l26.6-15.3,24.8,21.2L1161,1017l46,27.3,65.2-44.4,83.1,36.5,63.9-36.9,34.4,53.1,53.7-20.2,96.3,94.8,34.2-34.2,85.6,22,31.8-23.2,280.1,249.5H338.3c60.9-141.9,365.6-283.7,426.5-425.6Z" style="fill:#1f2042"/>
        <path d="M886.9,1028.4c28.5-26.6,38.7-45,67.3-71.6,25.3,37.2,68.9,66,94.2,103.2l26.6-15.3,24.8,21.2L1161,1017l46,27.3,65.2-44.4,83.1,36.5,63.9-36.9,34.4,53.1,53.7-20.2,96.3,94.8,34.2-34.2,85.6,22,31.8-23.2,280.1,249.5H338.3c60.9-141.9,365.6-283.7,426.5-425.6Z" style="fill:url(#1f446814-1c15-474f-9fe0-d90beab3d0a6)"/>
        <path d="M1800.3,1282.2c10.2-50.9-18.2-128-63.7-145.3-48.9-18.5-92.3,41.7-149.7,20-51.1-19.2-72.5-87.8-82.3-83-7.5,3.7,8.2,42.7-.7,47.4-11.8,6.3-39.8-61.7-91.9-68.2-29.5-3.7-37.2,16.1-67.9,9.8-38.3-7.9-55.4-44.7-67-38.7-11.4,5.9,7.4,40.4-7.4,56.3-17.9,19.2-58-16.6-126.8-11.9-50.3,3.4-56.9,24.6-91.4,18-49.7-9.4-47.3-55.4-90.8-70.9-72.3-25.6-138.1,80.1-221,57.3-30.3-8.3-50.7-30.5-63-47.3-32.2,29.5-69.4,59.1-107.3,88.6-11.3,78.5,75.2,163,170.1,226.7h1029C1785.3,1322.3,1796.2,1302.5,1800.3,1282.2Z" style="fill:url(#93602fef-041c-4838-bf0c-af9d8cc10b8d)"/>
        <polygon points="1379 1132.8 1215.9 1116.3 1123.9 1151.4 921.5 1116.3 935.4 1078.1 947.6 1039.5 954.3 1058.8 963.7 1021.1 971.7 1078.1 976.5 1039.5 984 1097.4 990.4 1064.1 998.2 1105.3 1008.6 1031.1 1020.1 1100.1 1026 1077.5 1035.6 1111.2 1044.5 1065 1053.4 1110.8 1057.5 1086.2 1064.9 1116.3 1069 1082 1074.7 1110.1 1080.3 1100.8 1087.3 1116.3 1090.7 1066.2 1097.2 1116.3 1103.7 1089.6 1111 1127.5 1118.3 1073.4 1124.9 1116.3 1130.9 1095.1 1138.7 1124.5 1146.1 1066.2 1152.8 1111.6 1159.8 1089.6 1167.6 1116.3 1172 1070.2 1179.3 1110.1 1186.6 1089.6 1192.4 1109.3 1198.7 1095.1 1206.3 1108.2 1215.4 1062 1223.9 1099 1229.8 1073.4 1237.8 1095.1 1245.8 1044.9 1255.8 1095.1 1264.3 1072.8 1269.3 1095.1 1276.2 1045.2 1284.7 1082 1294.5 1065 1303.7 1080.9 1309.9 1043.4 1319.2 1080.5 1327.9 1046.6 1379 1132.8" style="fill:#1f2042"/>
        <polygon points="1379 1132.8 1215.9 1116.3 1123.9 1151.4 921.5 1116.3 935.4 1078.1 947.6 1039.5 954.3 1058.8 963.7 1021.1 971.7 1078.1 976.5 1039.5 984 1097.4 990.4 1064.1 998.2 1105.3 1008.6 1031.1 1020.1 1100.1 1026 1077.5 1035.6 1111.2 1044.5 1065 1053.4 1110.8 1057.5 1086.2 1064.9 1116.3 1069 1082 1074.7 1110.1 1080.3 1100.8 1087.3 1116.3 1090.7 1066.2 1097.2 1116.3 1103.7 1089.6 1111 1127.5 1118.3 1073.4 1124.9 1116.3 1130.9 1095.1 1138.7 1124.5 1146.1 1066.2 1152.8 1111.6 1159.8 1089.6 1167.6 1116.3 1172 1070.2 1179.3 1110.1 1186.6 1089.6 1192.4 1109.3 1198.7 1095.1 1206.3 1108.2 1215.4 1062 1223.9 1099 1229.8 1073.4 1237.8 1095.1 1245.8 1044.9 1255.8 1095.1 1264.3 1072.8 1269.3 1095.1 1276.2 1045.2 1284.7 1082 1294.5 1065 1303.7 1080.9 1309.9 1043.4 1319.2 1080.5 1327.9 1046.6 1379 1132.8" style="opacity:0.699999988079071;isolation:isolate;fill:url(#1d3b6039-8e38-4c97-bb08-c66d72bf5a04)"/>
        <g id="243776f5-e934-41e9-853b-8c12de92b6fe" data-name="acb52e0a-4cfc-4982-977c-fedccc0ee0c1">
            <rect x="1378.4" y="1037.3" width="1.1" height="85.4" style="fill:#1f2042"/>
            <rect x="1378.4" y="1037.3" width="1.1" height="85.4" style="fill:#ff9d00;opacity:0.2800000011920929;isolation:isolate"/>
            <polygon points="1381.8 1035.3 1381.2 1034.7 1383.3 1034.7 1386 1031.4 1408.4 1034.1 1408.6 1035.3 1381.8 1035.3" style="fill:#1f2042"/>
            <polygon points="1381.8 1035.3 1381.2 1034.7 1383.3 1034.7 1386 1031.4 1408.4 1034.1 1408.6 1035.3 1381.8 1035.3" style="fill:#ff9d00;opacity:0.20000000298023224;isolation:isolate"/>
            <polygon points="1381.8 1035.3 1381.2 1035.8 1383.3 1035.8 1386 1039.1 1408.4 1036.4 1408.6 1035.3 1381.8 1035.3" style="fill:#1f2042"/>
            <polygon points="1381.8 1035.3 1381.2 1034.7 1383.3 1034.7 1386 1031.4 1408.4 1034.1 1408.6 1035.3 1381.8 1035.3" style="fill:#1f2042"/>
            <polygon points="1376.1 1035.3 1376.8 1034.7 1374.6 1034.7 1371.9 1031.4 1349.6 1034.1 1349.3 1035.3 1376.1 1035.3" style="fill:#1f2042"/>
            <polygon points="1376.1 1035.3 1376.8 1034.7 1374.6 1034.7 1371.9 1031.4 1349.6 1034.1 1349.3 1035.3 1376.1 1035.3" style="fill:#ff9d00;opacity:0.20000000298023224;isolation:isolate"/>
            <polygon points="1376.1 1035.3 1376.8 1035.8 1374.6 1035.8 1371.9 1039.1 1349.6 1036.4 1349.3 1035.3 1376.1 1035.3" style="fill:#1f2042"/>
            <polygon points="1376.1 1035.3 1376.8 1034.7 1374.6 1034.7 1371.9 1031.4 1349.6 1034.1 1349.3 1035.3 1376.1 1035.3" style="fill:#1f2042"/>
            <polygon points="1379 1038.1 1379.5 1037.5 1379.5 1039.6 1382.8 1042.3 1380.1 1064.6 1379 1064.9 1379 1038.1" style="fill:#1f2042"/>
            <polygon points="1379 1038.1 1379.5 1037.5 1379.5 1039.6 1382.8 1042.3 1380.1 1064.6 1379 1064.9 1379 1038.1" style="fill:#ff9d00;opacity:0.20000000298023224;isolation:isolate"/>
            <polygon points="1379 1038.1 1378.4 1037.5 1378.4 1039.6 1375.1 1042.3 1377.9 1064.6 1379 1064.9 1379 1038.1" style="fill:#1f2042"/>
            <polygon points="1379 1038.1 1379.5 1037.5 1379.5 1039.6 1382.8 1042.3 1380.1 1064.6 1379 1064.9 1379 1038.1" style="fill:#1f2042"/>
            <polygon points="1379 1032.4 1379.5 1033 1379.5 1030.9 1382.8 1028.2 1380.1 1005.9 1379 1005.6 1379 1032.4" style="fill:#1f2042"/>
            <polygon points="1379 1032.4 1379.5 1033 1379.5 1030.9 1382.8 1028.2 1380.1 1005.9 1379 1005.6 1379 1032.4" style="fill:#ff9d00;opacity:0.20000000298023224;isolation:isolate"/>
            <polygon points="1379 1032.4 1378.4 1033 1378.4 1030.9 1375.1 1028.2 1377.9 1005.9 1379 1005.6 1379 1032.4" style="fill:#1f2042"/>
            <path d="M1381.8,1035.3l-.6-.5h2.1l2.7-3.3,22.3,2.8.3,1.1h-26.8Zm-5.7,0,.6.5h-2.2l-2.7,3.3-22.3-2.8-.3-1.1h26.9Zm2.9,2.8.5-.6v2.2l3.3,2.7-2.8,22.3-1.1.3v-26.9Zm0-5.7-.5.6v-2.2l-3.3-2.7,2.8-22.3,1.1-.3v26.9Z" style="fill:#1f2042;opacity:0.30000001192092896;isolation:isolate"/>
            <polygon points="1379 1032.4 1379.5 1033 1379.5 1030.9 1382.8 1028.2 1380.1 1005.9 1379 1005.6 1379 1032.4" style="fill:#1f2042"/>
            <path d="M1381.8,1035.3l-.6.5h2.1l2.7,3.3,22.3-2.8.3-1.1h-26.8Zm-5.7,0,.6-.5h-2.2l-2.7-3.3-22.3,2.8-.3,1.1h26.9Zm2.9,2.8-.5-.6v2.2l-3.3,2.7,2.8,22.3,1.1.3v-26.9Zm0-5.7.5.6v-2.2l3.3-2.7-2.8-22.3-1.1-.3v26.9Z" style="fill:url(#60cfa106-e576-468a-ba88-c08b53a1d6a4)"/>
            <circle cx="1379" cy="1035.2" r="2.9" style="fill:#1f2042"/>
            <circle cx="1379" cy="1035.2" r="2.1" style="fill:#fff"/>
        </g>
        <path d="M726.3,967.1c82,13.8,199,123.6,324.1,153.2,24.8,5.9,83.4,19.1,151.2-.5a265.06,265.06,0,0,0,40.3-15.3c91.6,26,123.5,18.9,133.1,4.2,3.1-4.7,3.2-9.1,8.2-14.2,19.7-19.8,67.7-2.2,83.4,3.7,84.1,31.8,89.4,89,142.5,96,74.3,9.8,112.4-48.5,175.7-60.8,72.1-13.9,185.9,13.1,360,217.7H213.9C454.2,1011.2,617.1,948.8,726.3,967.1Z" style="fill:#1f2042"/>
        <path d="M726.3,967.1c82,13.8,199,123.6,324.1,153.2,24.8,5.9,83.4,19.1,151.2-.5a265.06,265.06,0,0,0,40.3-15.3c91.6,26,123.5,18.9,133.1,4.2,3.1-4.7,3.2-9.1,8.2-14.2,19.7-19.8,67.7-2.2,83.4,3.7,84.1,31.8,89.4,89,142.5,96,74.3,9.8,112.4-48.5,175.7-60.8,72.1-13.9,185.9,13.1,360,217.7H213.9C454.2,1011.2,617.1,948.8,726.3,967.1Z" style="fill:url(#3fa4f6fa-e66f-4a94-bdaf-d86110b7351f)"/>
        <path d="M981,1098.5c16.9,22.5,34.5,34,46.1,40.1,53.9,28.3,117.4,10.7,161.6-1.5,25.4-7,19.8-8.2,35.9-11.5,61-12.6,90.3,14.5,139.4-2.1a68.77,68.77,0,0,0,15.1-6.9,129.69,129.69,0,0,0,11.8-8.7c15.6-11.2,56.7,1.3,65.7,25.3,2.4,6.3.4,7.7,1.8,13.3,8.2,31.2,80.5,22.3,97.8,51.4,13.7,23.1-10.4,64.6-28.9,86.7-101.6,121.6-374.6,45-447.7,24.5-68.4-19.2-211.1-60.3-210.9-119.7C869,1147,942.1,1113.7,981,1098.5Z" style="fill:url(#66f6df25-1d90-4605-b847-5850f3bda335)"/>
        <rect x="1495.8" y="1028.7" width="2.4" height="191.3" style="fill:#1f2042"/>
        <rect x="1495.8" y="1028.7" width="2.4" height="191.3" style="fill:#ff9d00;opacity:0.2800000011920929;isolation:isolate"/>
        <polygon points="1503.4 1024.1 1502 1022.9 1506.8 1022.9 1512.8 1015.4 1562.8 1021.6 1563.5 1024.1 1503.4 1024.1" style="fill:#1f2042"/>
        <polygon points="1503.4 1024.1 1502 1022.9 1506.8 1022.9 1512.8 1015.4 1562.8 1021.6 1563.5 1024.1 1503.4 1024.1" style="fill:#ff9d00;opacity:0.10000000149011612;isolation:isolate"/>
        <polygon points="1503.4 1024.1 1502 1025.3 1506.8 1025.3 1512.8 1032.8 1562.8 1026.6 1563.5 1024.1 1503.4 1024.1" style="fill:#1f2042"/>
        <polygon points="1503.4 1024.1 1502 1022.9 1506.8 1022.9 1512.8 1015.4 1562.8 1021.6 1563.5 1024.1 1503.4 1024.1" style="fill:#1f2042"/>
        <polygon points="1490.7 1024.1 1492.1 1022.9 1487.2 1022.9 1481.2 1015.4 1431.2 1021.6 1430.6 1024.1 1490.7 1024.1" style="fill:#1f2042"/>
        <polygon points="1490.7 1024.1 1492.1 1022.9 1487.2 1022.9 1481.2 1015.4 1431.2 1021.6 1430.6 1024.1 1490.7 1024.1" style="fill:#ff9d00;opacity:0.10000000149011612;isolation:isolate"/>
        <polygon points="1490.7 1024.1 1492.1 1025.3 1487.2 1025.3 1481.2 1032.8 1431.2 1026.6 1430.6 1024.1 1490.7 1024.1" style="fill:#1f2042"/>
        <polygon points="1490.7 1024.1 1492.1 1022.9 1487.2 1022.9 1481.2 1015.4 1431.2 1021.6 1430.6 1024.1 1490.7 1024.1" style="fill:#1f2042"/>
        <polygon points="1497 1030.4 1498.2 1029.1 1498.2 1033.9 1505.7 1039.9 1499.5 1089.9 1497 1090.5 1497 1030.4" style="fill:#1f2042"/>
        <polygon points="1497 1030.4 1498.2 1029.1 1498.2 1033.9 1505.7 1039.9 1499.5 1089.9 1497 1090.5 1497 1030.4" style="fill:#ff9d00;opacity:0.10000000149011612;isolation:isolate"/>
        <polygon points="1497 1030.4 1495.8 1029.1 1495.8 1033.9 1488.3 1039.9 1494.5 1089.9 1497 1090.5 1497 1030.4" style="fill:#1f2042"/>
        <polygon points="1497 1030.4 1498.2 1029.1 1498.2 1033.9 1505.7 1039.9 1499.5 1089.9 1497 1090.5 1497 1030.4" style="fill:#1f2042"/>
        <polygon points="1497 1017.8 1498.2 1019.1 1498.2 1014.3 1505.7 1008.3 1499.5 958.3 1497 957.7 1497 1017.8" style="fill:#1f2042"/>
        <polygon points="1497 1017.8 1498.2 1019.1 1498.2 1014.3 1505.7 1008.3 1499.5 958.3 1497 957.7 1497 1017.8" style="fill:#ff9d00;opacity:0.10000000149011612;isolation:isolate"/>
        <polygon points="1497 1017.8 1495.8 1019.1 1495.8 1014.3 1488.3 1008.3 1494.5 958.3 1497 957.7 1497 1017.8" style="fill:#1f2042"/>
        <path d="M1503.4,1024.1l-1.4-1.2h4.8l6-7.5,50,6.2.6,2.5Zm-12.7,0,1.4,1.2h-4.8l-6,7.5-50-6.2-.6-2.5Zm6.3,6.3,1.2-1.4v4.8l7.5,6-6.2,50-2.5.6Zm0-12.6-1.2,1.4v-4.8l-7.5-6,6.2-50,2.5-.6Z" style="fill:#1f2042;opacity:0.30000001192092896;isolation:isolate"/>
        <polygon points="1497 1017.8 1498.2 1019.1 1498.2 1014.3 1505.7 1008.3 1499.5 958.3 1497 957.7 1497 1017.8" style="fill:#1f2042"/>
        <path d="M1503.4,1024.1l-1.4,1.2h4.8l6,7.5,50-6.2.6-2.5Zm-12.7,0,1.4-1.2h-4.8l-6-7.5-50,6.2-.6,2.5Zm6.3,6.3-1.2-1.4v4.8l-7.5,6,6.2,50,2.5.6Zm0-12.6,1.2,1.4v-4.8l7.5-6-6.2-50-2.5-.6Z" style="fill:url(#7583eb9e-7069-45b7-8818-5eacd707b22c)"/>
        <circle cx="1497" cy="1023.9" r="6.5" style="fill:#1f2042"/>
        <circle cx="1497" cy="1023.9" r="4.8" style="fill:#fff"/>
        <polygon points="556.9 624.8 556.8 624.9 556.8 624.7 556.9 624.8" style="fill:#fff;stroke:#000;stroke-miterlimit:10"/>
        <line x1="680.7" y1="1253.2" x2="680.6" y2="1251.8" style="fill:none;stroke:#000;stroke-miterlimit:10;stroke-width:3px"/>
        <line x1="504.3" y1="1058.9" x2="524.1" y2="1080.9" style="fill:none;stroke:#000;stroke-miterlimit:10;stroke-width:3px"/>
        <polygon points="557 624.9 556.9 624.8 557 624.7 557 624.9" style="fill:#fff;stroke:#000;stroke-miterlimit:10"/>
        <polygon points="306.1 887.1 373.7 866.3 319.1 940.1 306.1 887.1" style="fill:#1f2042"/>
        <polygon points="306.1 887.1 373.7 866.3 319.1 940.1 306.1 887.1" style="fill:url(#484402c8-30a0-458f-bfa1-3d12168b7312)"/>
        <line x1="716.2" y1="1180.3" x2="716.2" y2="1179" style="fill:none;stroke:#000;stroke-miterlimit:10;stroke-width:3px"/>
        <path d="M1206.2,892.5c1.1-17.5,84-.6,175.3-49.3,74.8-40,78.5-83,134.2-90.3,46.4-6.1,65.8,18,136.4,48.9,126.2,55.2,215.5,15.2,222.4,41.5,10.3,39.3-181.8,156.1-269.8,100.8-25.1-15.8-24.8-43.8-53.4-51.9-35.8-10.2-53.4,25.6-118.7,41.4-45.6,11-83.4,4.8-117.7-.8C1275.8,926.4,1205.2,908.7,1206.2,892.5Z" style="fill:url(#b56e602e-a06c-4773-ae16-ecf2cdb1e6d6)"/>
        <path d="M570.7,540.9c33.3,6.7,55.4,30.1,84.5,20.8,35.5-11.4,27.7-64.4,62.3-81.5,34-16.9,70.3,20.3,136.4,48.9,124.5,53.9,217.7,18.1,222.4,41.5,5.2,26-105.4,93.8-214.6,79.5-47-6.2-49.7-21.8-108.6-30.5-62.1-9.2-100.8-3-175.8,12.7-42.4,8.8-105.8,17.9-187.4,14C475.3,548.4,532.6,533.3,570.7,540.9Z" style="fill:url(#be7ff7dd-83ec-4cfb-bd00-72db866984b4)"/>
        <g id="65da8156-f8fb-4862-9385-f82eab90270c" data-name="3dbeca25-7912-48ee-bfdd-1bb9554fdc81">
            <path d="M563.4,828.6l-32.3,31.7-67.5-75.8L427,798.1l-22.6,29.8h0l-35.5,46.7h0L319,940.2l-24.6-16.8h0S92.2,1232.6,25.9,1304.8H133.4l415.2-100.9,178.5-185.7,1.4-.7,27.1-13.1Z" style="fill:#1f2042"/>
            <path d="M563.4,828.6l-32.3,31.7-67.5-75.8L427,798.1l-22.6,29.8h0l-35.5,46.7h0L319,940.2l-24.6-16.8h0S92.2,1232.6,25.9,1304.8H133.4l415.2-100.9,178.5-185.7,1.4-.7,27.1-13.1Z" style="fill:url(#90f20640-ed77-4d8d-ae86-3f60f7f1233b)"/>
            <path d="M531.1,860.3,133.4,1304.8H26c58-63.2,280.2-417.7,280.2-417.7l12.9,53L369,874.5l35.5-46.7h0L427.1,798l36.6-13.6Z" style="fill:#1f2042"/>
            <path d="M531.1,860.3,133.4,1304.8H26c58-63.2,280.2-417.7,280.2-417.7l12.9,53L369,874.5l35.5-46.7h0L427.1,798l36.6-13.6Z" style="fill:url(#afb0fbd4-263e-4306-a49c-adc5dd5ae9cc)"/>
            <polygon points="755.6 1004.4 728.6 1017.5 727.1 1018.2 454.7 1149.7 369.6 1190.7 369.6 1190.7 133.4 1304.8 531.1 860.3 563.4 828.6 755.6 1004.4" style="fill:url(#24cffd30-a57e-437c-bda2-4da442007752)"/>
            <polyline points="427 798.1 312.4 1104.7 531.1 860.3 463.6 784.5" style="fill:url(#4401b209-30c0-412e-9ff9-61f929db6bff)"/>
            <polygon points="531.1 860.3 574.3 927.5 531.1 1039.2 548.6 1203.9 716.3 1023.4 755.6 1004.4 563.4 828.6 531.1 860.3" style="fill:url(#dfcc973d-c782-420d-a8d9-380d483ebaeb)"/>
        </g>
        <polygon points="980.5 1179 1114.4 1251.8 1235.6 1182.8 1461 1211.1 1424 1109.5 1411.8 1071 1405.1 1090.3 1395.8 1052.5 1387.7 1109.5 1382.9 1071 1375.4 1128.9 1369 1095.6 1361.2 1136.7 1350.9 1062.6 1339.4 1131.5 1333.4 1108.9 1323.8 1142.7 1314.9 1096.4 1306 1142.3 1301.9 1117.7 1294.5 1147.8 1290.4 1113.5 1284.7 1141.6 1279.1 1132.3 1272.2 1147.8 1268.8 1097.7 1262.3 1147.8 1255.8 1121 1248.4 1159 1241.2 1104.8 1234.6 1147.8 1228.6 1126.6 1220.8 1156 1213.4 1097.7 1206.7 1143 1199.6 1121 1191.9 1147.8 1187.4 1101.7 1180.1 1141.6 1172.8 1121 1167 1140.8 1160.7 1126.6 1153.2 1139.7 1144.1 1108.3 1135.5 1145.3 1129.6 1119.7 1121.6 1141.4 1113.7 1091.2 1103.7 1141.4 1095.1 1119.1 1090.2 1141.4 1083.3 1091.5 1074.8 1128.3 1064.9 1111.3 1055.7 1127.2 1049.6 1089.7 1040.3 1126.8 1033.6 1100.9 980.5 1179" style="fill:#1f2042"/>
        <polygon points="980.5 1179 1114.4 1251.8 1235.6 1182.8 1461 1211.1 1424 1109.5 1411.8 1071 1405.1 1090.3 1395.8 1052.5 1387.7 1109.5 1382.9 1071 1375.4 1128.9 1369 1095.6 1361.2 1136.7 1350.9 1062.6 1339.4 1131.5 1333.4 1108.9 1323.8 1142.7 1314.9 1096.4 1306 1142.3 1301.9 1117.7 1294.5 1147.8 1290.4 1113.5 1284.7 1141.6 1279.1 1132.3 1272.2 1147.8 1268.8 1097.7 1262.3 1147.8 1255.8 1121 1248.4 1159 1241.2 1104.8 1234.6 1147.8 1228.6 1126.6 1220.8 1156 1213.4 1097.7 1206.7 1143 1199.6 1121 1191.9 1147.8 1187.4 1101.7 1180.1 1141.6 1172.8 1121 1167 1140.8 1160.7 1126.6 1153.2 1139.7 1144.1 1108.3 1135.5 1145.3 1129.6 1119.7 1121.6 1141.4 1113.7 1091.2 1103.7 1141.4 1095.1 1119.1 1090.2 1141.4 1083.3 1091.5 1074.8 1128.3 1064.9 1111.3 1055.7 1127.2 1049.6 1089.7 1040.3 1126.8 1033.6 1100.9 980.5 1179" style="fill:#ff9d00;opacity:0.05000000074505806;isolation:isolate"/>
        <polygon points="980.5 1179 1114.4 1251.8 1235.6 1182.8 1461 1211.1 1424 1109.5 1411.8 1071 1405.1 1090.3 1395.8 1052.5 1387.7 1109.5 1382.9 1071 1375.4 1128.9 1369 1095.6 1361.2 1136.7 1350.9 1062.6 1339.4 1131.5 1333.4 1108.9 1323.8 1142.7 1314.9 1096.4 1306 1142.3 1301.9 1117.7 1294.5 1147.8 1290.4 1113.5 1284.7 1141.6 1279.1 1132.3 1272.2 1147.8 1268.8 1097.7 1262.3 1147.8 1255.8 1121 1248.4 1159 1241.2 1104.8 1234.6 1147.8 1228.6 1126.6 1220.8 1156 1213.4 1097.7 1206.7 1143 1199.6 1121 1191.9 1147.8 1187.4 1101.7 1180.1 1141.6 1172.8 1121 1167 1140.8 1160.7 1126.6 1153.2 1139.7 1144.1 1108.3 1135.5 1145.3 1129.6 1119.7 1121.6 1141.4 1113.7 1091.2 1103.7 1141.4 1095.1 1119.1 1090.2 1141.4 1083.3 1091.5 1074.8 1128.3 1064.9 1111.3 1055.7 1127.2 1049.6 1089.7 1040.3 1126.8 1033.6 1100.9 980.5 1179" style="fill:#00d9ff;opacity:0.09000000357627869;isolation:isolate"/>
        <rect x="1233.3" y="808.2" width="4.5" height="357.5" style="fill:#1f2042"/>
        <rect x="1233.3" y="808.2" width="4.5" height="357.5" style="fill:#ff9d00;opacity:0.2800000011920929;isolation:isolate"/>
        <polygon points="1247.4 799.6 1244.8 797.3 1253.8 797.4 1265.1 783.4 1358.5 795 1359.7 799.6 1247.4 799.6" style="fill:#1f2042"/>
        <polygon points="1247.4 799.6 1244.8 797.3 1253.8 797.4 1265.1 783.4 1358.5 795 1359.7 799.6 1247.4 799.6" style="fill:#1f2042;opacity:0.30000001192092896;isolation:isolate"/>
        <polygon points="1247.4 799.6 1244.8 801.9 1253.8 801.9 1265.1 815.8 1358.5 804.3 1359.7 799.6 1247.4 799.6" style="fill:#1f2042"/>
        <polygon points="1247.4 799.6 1244.8 801.9 1253.8 801.9 1265.1 815.8 1358.5 804.3 1359.7 799.6 1247.4 799.6" style="fill:#1f2042;opacity:0.30000001192092896;isolation:isolate"/>
        <polygon points="1247.4 799.6 1244.8 797.3 1253.8 797.4 1265.1 783.4 1358.5 795 1359.7 799.6 1247.4 799.6" style="fill:#1f2042"/>
        <polygon points="1223.7 799.6 1226.3 797.3 1217.3 797.4 1206 783.4 1112.5 795 1111.4 799.6 1223.7 799.6" style="fill:#1f2042"/>
        <polygon points="1223.7 799.6 1226.3 797.3 1217.3 797.4 1206 783.4 1112.5 795 1111.4 799.6 1223.7 799.6" style="fill:#1f2042;opacity:0.30000001192092896;isolation:isolate"/>
        <polygon points="1223.7 799.6 1226.3 801.9 1217.3 801.9 1206 815.8 1112.5 804.3 1111.4 799.6 1223.7 799.6" style="fill:#1f2042"/>
        <polygon points="1223.7 799.6 1226.3 801.9 1217.3 801.9 1206 815.8 1112.5 804.3 1111.4 799.6 1223.7 799.6" style="fill:#1f2042;opacity:0.30000001192092896;isolation:isolate"/>
        <polygon points="1223.7 799.6 1226.3 797.3 1217.3 797.4 1206 783.4 1112.5 795 1111.4 799.6 1223.7 799.6" style="fill:#1f2042"/>
        <polygon points="1235.5 811.5 1237.8 808.9 1237.8 817.9 1251.8 829.1 1240.2 922.6 1235.5 923.8 1235.5 811.5" style="fill:#1f2042"/>
        <polygon points="1235.5 811.5 1237.8 808.9 1237.8 817.9 1251.8 829.1 1240.2 922.6 1235.5 923.8 1235.5 811.5" style="fill:#1f2042;opacity:0.30000001192092896;isolation:isolate"/>
        <polygon points="1235.5 811.5 1233.3 808.9 1233.3 817.9 1219.3 829.1 1230.9 922.6 1235.5 923.8 1235.5 811.5" style="fill:#1f2042"/>
        <polygon points="1235.5 811.5 1237.8 808.9 1237.8 817.9 1251.8 829.1 1240.2 922.6 1235.5 923.8 1235.5 811.5" style="fill:#1f2042"/>
        <polygon points="1235.5 811.5 1237.8 808.9 1237.8 817.9 1251.8 829.1 1240.2 922.6 1235.5 923.8 1235.5 811.5" style="fill:#1f2042;opacity:0.30000001192092896;isolation:isolate"/>
        <polygon points="1235.5 787.8 1237.8 790.4 1237.8 781.3 1251.8 770.1 1240.2 676.6 1235.5 675.5 1235.5 787.8" style="fill:#1f2042"/>
        <polygon points="1235.5 787.8 1237.8 790.4 1237.8 781.3 1251.8 770.1 1240.2 676.6 1235.5 675.5 1235.5 787.8" style="fill:#1f2042;opacity:0.30000001192092896;isolation:isolate"/>
        <polygon points="1235.5 787.8 1233.3 790.4 1233.3 781.3 1219.3 770.1 1230.9 676.6 1235.5 675.5 1235.5 787.8" style="fill:#1f2042"/>
        <polygon points="1235.5 787.8 1233.3 790.4 1233.3 781.3 1219.3 770.1 1230.9 676.6 1235.5 675.5 1235.5 787.8" style="fill:#1f2042;opacity:0.30000001192092896;isolation:isolate"/>
        <polygon points="1235.5 787.8 1237.8 790.4 1237.8 781.3 1251.8 770.1 1240.2 676.6 1235.5 675.5 1235.5 787.8" style="fill:#1f2042"/>
        <path d="M1247.4,799.6l-2.6-2.3h9l11.3-14,93.5,11.6,1.2,4.7Zm-23.7,0,2.6-2.3h-9l-11.3-14-93.5,11.6-1.2,4.7Zm11.8,11.9-2.3-2.6v9l-14,11.2,11.6,93.5,4.7,1.2V811.5Zm0-23.7,2.3,2.6v-9l14-11.2-11.6-93.5-4.7-1.2V787.8Z" style="fill:url(#a8517369-d4fb-40dd-8897-77e3c95c370c)"/>
        <circle cx="1235.5" cy="799.3" r="12.2" style="fill:#1f2042"/>
        <circle cx="1235.5" cy="799.3" r="8.9" style="fill:#fff"/>
        <g id="8c6cba78-1d3c-4c86-96e9-6c5f3ce5b9d9" data-name="e2af6eec-1616-44e6-b8e3-acd7388eb210">
            <polygon points="1117.9 1291.2 444.7 1291.2 573.2 1076.5 630.9 872.2 676.3 830.5 781.3 863.1 792.8 853.9 870.1 940.5 924.7 1041 1046.6 1169.4 1117.9 1291.2" style="fill:#1f2042"/>
            <polygon points="1117.9 1291.2 444.7 1291.2 573.2 1076.5 630.9 872.2 676.3 830.5 781.3 863.1 792.8 853.9 870.1 940.5 924.7 1041 1046.6 1169.4 1117.9 1291.2" style="fill:url(#6b9873c4-19f8-463e-bd08-05469fb843c6)"/>
            <polygon points="1117.9 1291.2 444.7 1291.2 573.2 1076.5 630.9 872.2 676.3 830.5 781.3 863.1 792.8 853.9 870.1 940.5 924.7 1041 1046.6 1169.4 1117.9 1291.2" style="fill:url(#b185bf23-04b4-47c2-843f-2f76d1d01747)"/>
            <polyline points="630.9 870.3 676.3 828.6 702.6 836.8 792.8 852.1 870.1 938.7 924.7 1039.2 1046.6 1167.6 1117.9 1289.4 824.6 1289.4 686.5 1228.9" style="fill:url(#c14b0429-479f-466f-9343-9a1e3f77ead2)"/>
            <polygon points="966.9 1289.4 824.6 1289.4 712.4 1128.5 676.3 828.6 702.6 836.8 781.3 861.2 846 1010.4 846 1122.5 966.9 1289.4" style="fill:url(#0624ac82-04eb-4628-9657-da61640a99e8)"/>
            <polygon points="1117.9 1289.4 966.9 1289.4 846 1122.5 846 1010.4 781.3 861.2 792.8 852.1 870.1 938.7 924.7 1039.2 1046.6 1167.6 1117.9 1289.4" style="fill:url(#71332742-1ebb-46e6-b446-e4d99c5fcb1a)"/>
            <polyline points="866.3 1117.1 1046.6 1167.6 924.7 1039.2" style="fill:url(#f67cc188-d6bc-4ab4-80d4-247e19d39f69)"/>
        </g>
        <path d="M173.9,1288.4c28.5-25.3,110.5-96.8,227.7-107.8,33.2-3.1,67.4,2.7,134.5,14.3,197.5,34.4,216.8,70.2,318.3,64.2,47.2-2.8,111.8-6.7,178.8-42.8,29.6-16,61.4-36.1,117.2-56,20-7.1,44-12.8,74.9-15.3a435.94,435.94,0,0,1,117.9,7.1c71.8,14.2,79.3,34.8,127.9,45.7,119.2,26.7,175-74,251.4-36.7,50.5,24.7,47.4,79,117.1,104.5,31.4,11.5,57.2,6.6,71.5,9.5,115.9,23.5,201.4,86.7,255.7,136.6-165-.9,181.6,78.5,0,87.2-523.1,25.2-1614,2.5-2089.1,0-54.7-.3,59.5-98.1,4.8-98.3A458,458,0,0,1,173.9,1288.4Z" style="fill:#1f2042"/>
        <path d="M173.9,1288.4c28.5-25.3,110.5-96.8,227.7-107.8,33.2-3.1,67.4,2.7,134.5,14.3,197.5,34.4,216.8,70.2,318.3,64.2,47.2-2.8,111.8-6.7,178.8-42.8,29.6-16,61.4-36.1,117.2-56,20-7.1,44-12.8,74.9-15.3a435.94,435.94,0,0,1,117.9,7.1c71.8,14.2,79.3,34.8,127.9,45.7,119.2,26.7,175-74,251.4-36.7,50.5,24.7,47.4,79,117.1,104.5,31.4,11.5,57.2,6.6,71.5,9.5,115.9,23.5,201.4,86.7,255.7,136.6-165-.9,181.6,78.5,0,87.2-523.1,25.2-1614,2.5-2089.1,0-54.7-.3,59.5-98.1,4.8-98.3A458,458,0,0,1,173.9,1288.4Z" style="fill:url(#86c7e43c-47f4-4e5e-b257-08309cb03a21)"/>
        <path d="M173.9,1288.4c28.5-25.3,110.5-96.8,227.7-107.8,33.2-3.1,67.4,2.7,134.5,14.3,197.5,34.4,216.8,70.2,318.3,64.2,47.2-2.8,111.8-6.7,178.8-42.8,29.6-16,61.4-36.1,117.2-56,20-7.1,44-12.8,74.9-15.3a435.94,435.94,0,0,1,117.9,7.1c71.8,14.2,79.3,34.8,127.9,45.7,119.2,26.7,175-74,251.4-36.7,50.5,24.7,47.4,79,117.1,104.5,31.4,11.5,57.2,6.6,71.5,9.5,115.9,23.5,201.4,86.7,255.7,136.6-165-.9,181.6,78.5,0,87.2-523.1,25.2-1614,2.5-2089.1,0-54.7-.3,59.5-98.1,4.8-98.3A458,458,0,0,1,173.9,1288.4Z" style="fill:url(#8f673efc-23ae-4912-a058-d5a9e4a5467d)"/>
        <path d="M173.9,1288.4c28.5-25.3,110.5-96.8,227.7-107.8,33.2-3.1,67.4,2.7,134.5,14.3,197.5,34.4,216.8,70.2,318.3,64.2,47.2-2.8,111.8-6.7,178.8-42.8,29.6-16,61.4-36.1,117.2-56,20-7.1,44-12.8,74.9-15.3a435.94,435.94,0,0,1,117.9,7.1c71.8,14.2,79.3,34.8,127.9,45.7,119.2,26.7,175-74,251.4-36.7,50.5,24.7,47.4,79,117.1,104.5,31.4,11.5,57.2,6.6,71.5,9.5,115.9,23.5,255.7,136.6,255.7,136.6v87.2H82.7v-98.3S128.6,1328.7,173.9,1288.4Z" style="fill:url(#0e20687e-274a-4035-a295-8dc7a76bb22b)"/>
        <path d="M1112,740.6a20.32,20.32,0,0,1,.8,5.5l-5.5.8,2.5,2.1.3,3.7,4.2-3.8a26.19,26.19,0,0,1,2.4,7.8,28,28,0,0,1-4.2,18.5c1.7-2.6,4.6-3.3,6.2-2.2a4,4,0,0,1,1.5,3.1,22.47,22.47,0,0,0,2.1-1.2c8.4-6.7,2.9-25.5,2.2-28l2.2-1.9c4.7-1,5.8-2.7,6.2-3.8v-.1l-5.6-2.2-6.6-.3c-.9-2.6-4.8-13.6-15.6-18.1a24.81,24.81,0,0,0-7.6-1.8l3.8,4.2-5.3.6C1098.9,724.8,1109.1,730,1112,740.6Z" style="fill:#fffc69"/>
        <path d="M1112,740.6a20.32,20.32,0,0,1,.8,5.5l-5.5.8,2.5,2.1.3,3.7,4.2-3.8a26.19,26.19,0,0,1,2.4,7.8,28,28,0,0,1-4.2,18.5c1.7-2.6,4.6-3.3,6.2-2.2a4,4,0,0,1,1.5,3.1,22.47,22.47,0,0,0,2.1-1.2c8.4-6.7,2.9-25.5,2.2-28l2.2-1.9c4.7-1,5.8-2.7,6.2-3.8v-.1l-5.6-2.2-6.6-.3c-.9-2.6-4.8-13.6-15.6-18.1a24.81,24.81,0,0,0-7.6-1.8l3.8,4.2-5.3.6C1098.9,724.8,1109.1,730,1112,740.6Z" style="fill:#ff9d00;opacity:0.8999999761581421;isolation:isolate"/>
        <path d="M1061.1,803.8a11.76,11.76,0,0,1,1,3l-3,1,1.6.9c.2.7.3,1.4.5,2.1l2-2.6a16.52,16.52,0,0,1,2.1,4.2,16.33,16.33,0,0,1-.5,10.9c.7-1.6,2.3-2.3,3.3-1.9a2.48,2.48,0,0,1,1.2,1.6,9,9,0,0,0,1-.9c4.1-4.6-.9-14.7-1.6-16.1l1-1.3c2.5-1,3-2.1,3.1-2.8h0l-3.4-.7-3.8.5c-.8-1.4-4.1-7.2-10.7-8.7a13.63,13.63,0,0,0-4.5-.2l2.6,2-2.9.9C1052.1,796.2,1058.4,798.1,1061.1,803.8Z" style="fill:#fffc69;opacity:0.30000001192092896;isolation:isolate"/>
        <path d="M1061.1,803.8a11.76,11.76,0,0,1,1,3l-3,1,1.6.9c.2.7.3,1.4.5,2.1l2-2.6a16.52,16.52,0,0,1,2.1,4.2,16.33,16.33,0,0,1-.5,10.9c.7-1.6,2.3-2.3,3.3-1.9a2.48,2.48,0,0,1,1.2,1.6,9,9,0,0,0,1-.9c4.1-4.6-.9-14.7-1.6-16.1l1-1.3c2.5-1,3-2.1,3.1-2.8h0l-3.4-.7-3.8.5c-.8-1.4-4.1-7.2-10.7-8.7a13.63,13.63,0,0,0-4.5-.2l2.6,2-2.9.9C1052.1,796.2,1058.4,798.1,1061.1,803.8Z" style="fill:#ff9d00;opacity:0.30000001192092896;isolation:isolate"/>
        <path d="M2167,1411.7c10.6,18.2,27.1,52.7,17.3,87.2-65.8,230.3-1213.8,134-1225.6,9.2-2.2-23.8,35.7-61,79.2-103.6,39.8-39,66.3-51.7,100.8-98,23.9-32.1,26.6-46.6,38.6-63.8,26.1-37.4,87.2-73.8,242.8-64.6,15.2,7.5,28.8,14.6,51.2,19.6,119.2,26.7,175-74,251.4-36.7,50.5,24.7,47.4,79,117.1,104.5,31.4,11.5,57.2,6.6,71.5,9.5C2027.2,1298.6,2112.7,1361.8,2167,1411.7Z" style="fill:url(#80b208ba-090e-4474-b110-cb5c1efd8bee)"/>
        <path d="M1127.3,1406.1l-8.7,6.8c-5.3-2.1-10.8-4.4-16.1-6.9Z" style="fill:url(#10003409-9400-45c1-9e61-9086f5d2544f)"/>
        <path d="M82.7,1400.6a452.22,452.22,0,0,1,91.2-112.1c28.5-25.3,110.5-96.8,227.7-107.8,33.2-3.1,67.4,2.7,134.5,14.3,197.5,34.4,216.8,70.2,318.3,64.2,47.2-2.8,111.8-6.7,178.8-42.8,10-5.4,20.3-11.3,31.7-17.5-10-70.8-426.9-245.2-753.4-70.2C174,1202.4,30.8,1349.7,60,1413.6c10.2,22.3,39.1,29.4,62.4,34.4,207.5,44.9,507.9,49,697.3-37.4l13.4-6.1Z" style="fill:none"/>
        <path d="M854.4,1259.1c-101.5,6-120.8-29.8-318.3-64.2-67-11.7-101.2-17.4-134.5-14.3-117.2,11-199.2,82.5-227.7,107.8a452.22,452.22,0,0,0-91.2,112.1c46.7,22.9,322.1,154.7,538.9,98.3,8-2.1,6.5-2,273.8-112.1,15.1-6.2,46.1-19,80.6-45.6a329.3,329.3,0,0,0,74.9-81.3h0c.1,0,19.7-21,14-61-11.4,6.2-21.7,12.1-31.7,17.5C966.2,1252.4,901.5,1256.3,854.4,1259.1Z" style="fill:url(#827a6bae-d606-48c2-923e-455d6dd65c1f)"/>
        <path d="M82.7,1400.6a452.22,452.22,0,0,1,91.2-112.1c28.5-25.3,110.5-96.8,227.7-107.8,26.6-2.5,53.8.7,97.8,8-6.8-37.7-146.6-72.6-259.9-29.6C120.2,1204.3,20.2,1340,53.3,1409.7c36.1,76,220.7,50,307.9,25,13.1-3.8,50.8-14.6,84.7-32.2Z" style="fill:none"/>
        <path d="M611.8,1359.5c12.8-26.6,40.3-22,62.2-58.9,11-18.4,20-46.2,15.6-70.8-36.7-10.6-84.1-22.8-153.6-34.9-29.7-5.2-53-9.2-72.6-11.8-87.7,23.9-168.9,77.1-173,147.5-1.5,26.9,8.7,51,22.3,71.2l298.8,1.6C606.3,1388.7,604.9,1373.8,611.8,1359.5Z" style="fill:url(#d40d25a1-42fc-45c9-84eb-3660a32260c6)"/>
    </g>
    <g style="clip-path:url(#2fb7b075-466c-45a2-821f-0fd0fefd0024)">
        <path d="M1858.7,1164.5c-24.2-31.3,19.9-79.5-.9-105.8-14.4-18.2-53.7-18-64.3-3.4-9.5,13,9.1,30.5,11,71.9,1,21.4-3.1,37-8,56-16.5,63.5-44.6,76.6-37.3,97.8,9.4,27.2,72.1,51.8,112.4,20.3C1909,1272,1859.6,1165.7,1858.7,1164.5Z" style="fill:#1f2042"/>
        <path d="M1858.7,1164.5c-24.2-31.3,19.9-79.5-.9-105.8-14.4-18.2-53.7-18-64.3-3.4-9.5,13,9.1,30.5,11,71.9,1,21.4-3.1,37-8,56-16.5,63.5-44.6,76.6-37.3,97.8,9.4,27.2,72.1,51.8,112.4,20.3C1909,1272,1859.6,1165.7,1858.7,1164.5Z" style="fill:url(#352fecc8-be01-46f0-ba28-a2ff79afaf0f)"/>
        <path d="M1834.6,620.2,1708.2,1040c5.8,7.4,52,64,130.6,64.6,70.3.5,114.6-44.1,122.1-51.9Z" style="fill:#1f2042"/>
        <path d="M1834.6,620.2,1708.2,1040c5.8,7.4,52,64,130.6,64.6,70.3.5,114.6-44.1,122.1-51.9Z" style="fill:url(#050597d4-8ab0-420e-a7e5-8b17e6a06494)"/>
        <path d="M1740.7,1071.8c-3.7-2.9-7.5-6.1-11.3-9.6a211.62,211.62,0,0,1-21.2-22.2q63.15-209.85,126.4-419.8c-23.1,107.4-26.7,190.5-25.4,247.3.9,41.8,5.5,118.7-43,178.7A171.44,171.44,0,0,1,1740.7,1071.8Z" style="fill:url(#90b1b743-c724-4b1f-bfa0-83dd2a09330f)"/>
        <path d="M1645.8,1046.2c-11.4,15.7,10.6,35.1,13.7,89.9,1.2,21.3,2.6,45.8-10,70-10.8,20.7-25.1,28.3-56.7,51.1-19,13.8-46.5,34.7-78.9,63.4,8.1,8.4,21,18.7,37.8,20.5,23.6,2.5,42.3-13,56.2-22.8,19.6-13.7,51.1-21.9,111.6-42.2,33.9-11.3,55.7-14.1,57.8-26.7,1-5.7-2.8-10.4-13.4-23.2-24.3-29.4-33-38.8-36.6-43.5-30.2-39.1,24.9-99.4-1.1-132.3C1708.1,1027.7,1659,1028,1645.8,1046.2Z" style="fill:#1f2042"/>
        <path d="M1645.8,1046.2c-11.4,15.7,10.6,35.1,13.7,89.9,1.2,21.3,2.6,45.8-10,70-10.8,20.7-25.1,28.3-56.7,51.1-19,13.8-46.5,34.7-78.9,63.4,8.1,8.4,21,18.7,37.8,20.5,23.6,2.5,42.3-13,56.2-22.8,19.6-13.7,51.1-21.9,111.6-42.2,33.9-11.3,55.7-14.1,57.8-26.7,1-5.7-2.8-10.4-13.4-23.2-24.3-29.4-33-38.8-36.6-43.5-30.2-39.1,24.9-99.4-1.1-132.3C1708.1,1027.7,1659,1028,1645.8,1046.2Z" style="fill:url(#91ecc109-8fbc-4033-8426-096b29d22142)"/>
        <path d="M1697.2,502.3l-158,524.8c3.4,4.8,63.6,87.5,163.3,80.8,73.2-4.9,117.4-54.7,126-64.8Q1762.8,772.65,1697.2,502.3Z" style="fill:#1f2042"/>
        <path d="M1697.2,502.3l-158,524.8c3.4,4.8,63.6,87.5,163.3,80.8,73.2-4.9,117.4-54.7,126-64.8Q1762.8,772.65,1697.2,502.3Z" style="fill:url(#4fda192c-544d-425e-ba61-c9c49359b2ef)"/>
        <path d="M1579.9,1066.9c-4.6-3.6-9.4-7.6-14.2-12a257.75,257.75,0,0,1-26.5-27.8q79-262.35,158-524.8c-28.9,134.3-33.3,238.2-31.8,309.2,1.2,52.2,6.9,148.4-53.7,223.4A223.68,223.68,0,0,1,1579.9,1066.9Z" style="fill:url(#2c20a200-a90d-4643-88c1-c945bc9722b6)"/>
    </g>
</svg>