<svg id="a6fccdd0-df17-4a99-94b2-7f0e7d887c3f" data-name="Layer 1" xmlns="http://www.w3.org/2000/svg" xmlns:xlink="http://www.w3.org/1999/xlink" viewBox="0 0 233.37 101.87"><defs><clipPath id="2c86e729-8929-42b3-99e4-c05ea1ba5c64"><path d="M-.3-.2V16.4H10.9V63.6H0V80H38.9V63.6H27.7V16.4H38.6V-.2ZM110.5,0V16.4h11.2V63.6H110.8V80h27.7V34.4L155.1,80h.3l16.2-45.6V80h28V63.6H188.4V16.4h10.9V0H168L155.1,36.6,142.1,0Z" style="fill:none"/></clipPath><clipPath id="551b555d-1284-46e0-b8a5-0f68259338dd"><path d="M44.1,0V16.4H55.3v26H98.4v-5s3.6-2.8,4.8-5.5l2.3-5.2a18.3,18.3,0,0,0,1.1-5.5l-.5-5.2s-.7-4.2-2-5.5L99.6,5.3S93.9-.2,86.4-.2H44.1ZM72.2,16.4H88.6V31.6H72.2Z" style="fill:none;clip-path:url(#2c86e729-8929-42b3-99e4-c05ea1ba5c64)"/></clipPath><clipPath id="5447b6de-3588-4622-8585-388987340656" transform="translate(13.99 10.99)"><path d="M44.1,80V63.6H55.3v-26H98.4v5s3.6,2.8,4.8,5.5l2.3,5.2a18.3,18.3,0,0,1,1.1,5.5l-.5,5.2s-.7,4.2-2,5.5l-4.5,5.2s-5.7,5.5-13.2,5.5H44.1ZM72.2,63.6H88.6V48.4H72.2Z" style="fill:none;clip-path:url(#551b555d-1284-46e0-b8a5-0f68259338dd)"/></clipPath></defs><title>logo-IBM</title><g style="clip-path:url(#5447b6de-3588-4622-8585-388987340656)"><path d="M-.3,2.7h206V13.3H-.3M-.3,24h195V34.6H-.3V45.2h195V56H-.3m0,10.6h206V77.2H-.3" transform="translate(13.99 10.99)" style="fill:none;stroke:#1f70c1;stroke-width:27.3700008392334px"/></g></svg>