<svg id="a1fe4cc3-cb64-40f3-9a15-0f7edb1df823" data-name="Layer 1" xmlns="http://www.w3.org/2000/svg" viewBox="0 0 2500 2500"><title>logo-KPMG</title><path d="M0,0H2500V2500H0Z" style="fill:#fff"/><path d="M352.4,1507.46l-29.78-72.54L300,1507.46Zm916.19,0-8.9-147.09-43.54,147.09Zm-528.85-272V805.63H243.08v434.66l16.63-55.41,3.81-12.71H407.25l-6.94,23c-10.94,36.21-26.91,89.1-44.23,146.53L519,1177.46l5.22-5.29H707.63l-33.07,30.89L449,1413.81l43.88,93.65H657.67Zm53.31-429.79v366.5H893.33c77-.93,156.73-1.89,197.41,46.38,23.17,27.5,29.76,66.09,20.17,118-8.82,47.74-50.85,158.71-250.2,158.5H795.89l-2.85,9.55v2.91h298.24l98.86-322.74,3.87-12.62h95.7V805.63Zm765.12,701.83,40.17-135.12L1511,1507.46Z" style="fill:#255398"/><path d="M1697.68,1507.46h56.82c-.13-25.16,3.77-54,13.85-87.22,20-65.7,44.3-114.91,71.36-151.8V805.63H1343V1172.1h34.74l1.54,16.13c.79,8.06,15.52,163.26,11.85,310.52,34.58-70.43,95.15-178.13,196.81-319.24l5.34-7.42h187.93l-5.52,22.17-78,313.2ZM1893,805.63v407.46c55.12-42.31,116.43-51,174.43-51,74.12,0,132.51,24.59,164.35,69.24,24.48,34.31,30.6,77,16.8,117.13l-4.15,12.06h-12.74l-97.55-.12-28.54,0,12.44-25.46c.23-.64.61-2.39.88-3.54.35-1.73.79-3.66,1.39-5.68,5.09-17.12,4.59-30.18-1.5-38.78-8.5-12-29.76-19.13-61.47-20.62-72.19-3.41-119.17,46.34-152.27,161.31-6.69,23.27-10.71,44.36-12.06,63v16.87h173.77l.66-2.14H1961.61l7.23-23.15,22.39-71.8,3.91-12.54H2233l-6.35,22.67-24.4,87h187.53V805.63Z" style="fill:#255398"/><path d="M1558.17,1507.46l40.17-135.12L1511,1507.46Z" style="fill:#255398"/><path d="M1758.39,1172.1H1593.31l-5.34,7.42c-101.66,141.1-162.23,248.81-196.81,319.24,3.67-147.26-11.07-302.45-11.85-310.52l-1.54-16.12H1194l-3.86,12.62-145.35,474.47-7.06,23.07h126.62l3.78-12.77,91.53-309.14,18.44,305.13,1,16.78H1398l5.29-8.16,195-301.79-85.34,287-6.81,22.94h147.93l3.37-13.54,118.22-474.47,5.53-22.17Z" style="fill:#255398"/><path d="M1640.17,1664.42h-110l120.8-406.35-262.58,406.35h-92.41L1271.39,1258l-120.34,406.42h-89.16L1207.23,1190h154.31s23.55,243.54,5.47,410.47c0,0,45.9-147.47,235.43-410.47h155.94Z" style="fill:#fff"/><path d="M2231.81,1231.34c-31.84-44.65-90.23-69.24-164.35-69.24-109.1,0-230,30.66-299.11,258.15-30,98.72-6,160.35,19.45,194.68,43.4,58.58,118.76,79.44,174.8,79.44,59.91,0,154.27-9.78,186.17-22.42l8.21-3.26,2.38-8.51,67.24-239.67,6.35-22.67H1995.14l-3.9,12.54-22.4,71.8-7.23,23.16h105.86l-24.87,78.46c-4.92,2-19.89,6.25-59.41,6.38-35.51.12-60.77-9.4-75-28.28-19.78-26.16-20.81-72.61-3.06-134.29,33.11-115,80.08-164.72,152.27-161.32,31.71,1.49,53,8.64,61.47,20.62,6.09,8.6,6.59,21.66,1.5,38.78-.61,2-1,4-1.39,5.68-.27,1.17-.66,2.92-.88,3.54l-12.44,25.46,28.55,0,97.54.12h12.74l4.15-12.06c13.81-40.13,7.68-82.83-16.8-117.14Z" style="fill:#255398"/><path d="M2231.73,1342.67l-97.54-.13c1.59-3.26,2.12-8,3.24-11.76,16.87-56.58-17.94-79.43-79.23-82.34-90.49-4.26-139.45,67.29-170.26,174.23-33.19,115.3-5.26,185.68,95.33,185.35,79.92-.28,75.67-16.73,75.67-16.73l32.93-103.8h-106l22.37-71.8h201.16l-67.23,239.67c-26.88,10.66-116.12,21.18-179.58,21.18-95.47,0-234.2-63.63-177.17-251.09,68.2-224.27,186.55-245.5,282-245.5,139.57,0,189.27,90,164.26,162.72Z" style="fill:#fff"/><path d="M707.64,1172.16H524.24l-5.23,5.29L356.1,1341.71c17.3-57.43,33.28-110.32,44.22-146.53l6.94-23H263.53l-3.81,12.71-142.5,474.69-6.91,23H255.19l3-14.15c1.71-6.88,32.25-108.66,65.92-220.57l90.26,223.55,4.5,11.16h156L563,1657.11,449,1413.78,674.56,1203l33.08-30.88Z" style="fill:#255398"/><path d="M240.72,1664.71H134.29L276.79,1190H383.2S242.78,1655,240.72,1664.71Zm83.08-265h-.07L531.68,1190H662.39L427.31,1409.63l119.51,255.08H430.92L323.74,1399.23l.06.47Z" style="fill:#fff"/><path d="M1090.76,1218.51c-40.69-48.29-120.36-47.31-197.42-46.38H758.83l-3.81,12.7-143.18,474.7-6.94,23H739.83l3.8-12.74L795.9,1495h64.83c199.34.22,241.38-110.76,250.2-158.5C1120.51,1284.6,1113.92,1246,1090.76,1218.51Z" style="fill:#255398"/><path d="M1093.36,1333.27c-14.15,76.57-81.06,144-232.63,143.88l-78.11,0-56.07,187.49H628.9L772.09,1190h121c109.44-1.33,227.33-3,200.3,143.29Z" style="fill:#fff"/><path d="M801.06,1407.48c35.27,0,61,.56,84.77.12,71.34-1.3,93.21-26,109.29-74.32,27.9-83.93-43.52-75.1-150.55-75l-43.51,149.18Z" style="fill:#255398"/></svg>