<svg id="1fe0ee56-3571-4c90-a982-75f83a7c6bc4" data-name="Layer 1" xmlns="http://www.w3.org/2000/svg" viewBox="0 0 910.19 500.19"><title>logo-blocktower</title><path d="M456,501q-225.26,0-450.5.09c-3.75,0-4.6-.84-4.59-4.59Q1.06,251,.91,5.5C.9,1.75,1.75.91,5.5.91q450.5.15,901,0c3.75,0,4.6.84,4.59,4.59q-.15,245.51,0,491c0,3.75-.84,4.6-4.59,4.59Q681.25,500.93,456,501Z" transform="translate(-0.91 -0.91)" style="fill:#151b24"/><path d="M569.55,239.64c1.76-6.18,3.64-12.34,5.19-18.57.58-2.33,1.46-3.93,3.93-3.14,2.63.84.6,2.75.26,3.94-2.11,7.51-4.52,14.94-6.64,22.45-.54,1.91-1.21,2.73-3.31,2.76s-2.38-1.47-2.78-2.82c-1.81-6.22-3.55-12.46-5.71-20.08-2.08,7.18-3.75,13.09-5.54,19-.52,1.72-.26,4-3.37,3.95-2.81,0-2.73-2-3.21-3.59-2.3-7.47-4.49-15-6.67-22.46-.31-1.06-1.76-2.56.44-3.13,1.72-.45,3.2-.08,3.77,2.12,1.51,5.78,3.19,11.53,4.8,17.29.23.8.45,1.59.9,3.16,2.95-6.28,3.82-12.53,5.92-18.36.6-1.66,0-4.44,3.12-4.27,2.69.14,2.23,2.59,2.72,4.15,1.83,5.83,3.47,11.72,5.18,17.58Z" transform="translate(-0.91 -0.91)" style="fill:#fcfcfc"/><path d="M243.83,232.07c0-3.82.11-7.65-.05-11.47-.09-2.21.7-2.9,2.85-2.81,4,.15,8,0,12,.07a7.16,7.16,0,0,1,7,4.72c1.09,2.79.81,5.77-1.7,7.72-1.77,1.39-1.43,1.91,0,3.17,2.6,2.25,3.61,5.17,2.26,8.51s-4.09,5.08-7.8,5c-4.64-.07-10.61,1.58-13.54-.7-3.09-2.41-.63-8.67-1-13.23C243.8,232.74,243.83,232.4,243.83,232.07Z" transform="translate(-0.91 -0.91)" style="fill:#fcfcfc"/><path d="M525,232.69c-.08,8.93-6.16,14.84-15.26,14.82s-15.4-6.21-15.25-15.37c.14-8.8,6.52-15,15.32-15C519,217.22,525.09,223.5,525,232.69Z" transform="translate(-0.91 -0.91)" style="fill:#fcfcfc"/><path d="M320.82,232.42c0-9.16,6.36-15.43,15.45-15.26,8.93.17,14.91,6.3,14.9,15.27,0,9.29-6,15.18-15.41,15.08C326.71,247.42,320.82,241.46,320.82,232.42Z" transform="translate(-0.91 -0.91)" style="fill:#fcfcfc"/><path d="M650.55,235.54l7.5,11c-3,1-4.86.51-6.34-2.11s-3.32-4.95-5-7.43c-1.4-2.12-3.57-1.61-5.43-1.34-2.28.31-1.12,2.38-1.25,3.66a54.21,54.21,0,0,0,0,6c0,1.25-.54,1.77-1.79,1.73s-2.37.1-2.37-1.66q0-13,0-25.91c0-1.76,1.3-1.6,2.45-1.6,3,0,6,0,9,0,6.14.06,9.75,2.41,10.63,6.9C658.84,229.51,656.87,232.56,650.55,235.54Z" transform="translate(-0.91 -0.91)" style="fill:#fdfdfd"/><path d="M438.89,246.6c-3.54,1.11-5.59-.08-7.41-2.45s-4.14-4.77-6.3-7.09c-.85-.91-1.46-2.68-3-2.07a3.82,3.82,0,0,0-2.35,4c.11,2,0,4,0,6,0,1.54-.71,2-2.13,2-1.64,0-1.91-.83-1.9-2.17q0-12.5,0-25c0-1.45.5-2.1,2-2.05s2,.78,2,2.19c0,3.66,0,7.31,0,11.31,6.68-3.62,8.52-13,18.65-13.88-4.27,4.63-7.47,8.38-11,11.8-1.94,1.9-1.66,3.15,0,4.92C431.29,238.12,434.91,242.22,438.89,246.6Z" transform="translate(-0.91 -0.91)" style="fill:#fbfbfb"/><path d="M385.72,247.52c-7.77-.07-13.41-3.87-15.43-10.14a15.25,15.25,0,0,1,5.52-17.29c5.79-4,13.52-3.92,18.63.2,1,.82,3.07,1.65,1.75,3.37-1.15,1.49-2.54,1-4.17-.29-5-3.87-11.23-3.26-15.23,1.1a12.17,12.17,0,0,0,0,15.94,11,11,0,0,0,15.26,1.1c1.64-1.27,3-1.75,4.16-.3,1.43,1.76-.74,2.48-1.69,3.33A12.11,12.11,0,0,1,385.72,247.52Z" transform="translate(-0.91 -0.91)" style="fill:#fbfbfb"/><path d="M579.51,195.17c-11.66,0-23.31,0-35,0-1.45,0-3.93.91-3.9-1.66s2.52-1.6,4-1.6q34.73-.09,69.45,0c1.44,0,3.91-.89,3.88,1.66s-2.52,1.58-3.95,1.59C602.49,195.21,591,195.17,579.51,195.17Z" transform="translate(-0.91 -0.91)" style="fill:#8acc00"/><path d="M464.44,234.24v-5c0-7.16,0-7.19-7.2-8-1.24-.15-2.33-.06-2.27-1.81s1.29-1.61,2.43-1.62q9.24,0,18.48,0c1.23,0,2.35,0,2.31,1.76s-1.27,1.53-2.42,1.65c-7.21.77-7.21.79-7.21,8,0,5,0,10,0,15,0,1.64-.05,3-2.32,2.82s-1.78-1.56-1.8-2.82C464.42,240.9,464.44,237.57,464.44,234.24Z" transform="translate(-0.91 -0.91)" style="fill:#f1f2f2"/><path d="M286.14,232.53c0-3.82,0-7.64,0-11.46,0-1.39-.51-3.12,1.89-3.25,2.89-.16,2.1,2,2.12,3.42.06,5.82.31,11.65-.08,17.44-.28,4.17,1.34,5.22,5.08,4.82,2.3-.24,4.65,0,7,0,1.31,0,2.27.27,2.36,1.84.11,1.8-1.11,1.71-2.29,1.71-4.49,0-9-.1-13.46.05-2.41.08-2.68-1.13-2.63-3.06C286.21,240.18,286.14,236.36,286.14,232.53Z" transform="translate(-0.91 -0.91)" style="fill:#f6f6f6"/><path d="M595.13,208.17c-6.63,0-13.27,0-19.9,0-1.33,0-3.39.56-3.18-1.87.17-2,2-1.4,3.16-1.41q19.9-.06,39.81,0c1.23,0,3-.39,3,1.63s-1.74,1.65-3,1.65C608.4,208.19,601.77,208.16,595.13,208.17Z" transform="translate(-0.91 -0.91)" style="fill:#8acc00"/><path d="M604.15,247c-3.65,0-7.31,0-11,0-.93,0-2.15.17-2.23-1.27a2,2,0,0,1,2.06-2.3q11.68-.09,23.39,0c1.2,0,1.71.83,1.69,2,0,1.35-.94,1.6-2,1.61Z" transform="translate(-0.91 -0.91)" style="fill:#7fc007"/><path d="M606,234.16c-3,0-6,0-9,0-.89,0-2.19.32-2.22-1.2,0-1.06.42-2,1.7-2q10,0,20,0a1.42,1.42,0,0,1,1.53,1.56c0,1.34-.94,1.63-2,1.64-3.34,0-6.67,0-10,0Z" transform="translate(-0.91 -0.91)" style="fill:#8acc00"/><path d="M607.75,221.17c-2.15,0-4.3.08-6.44,0-1,0-2.59.62-2.59-1.28,0-1.34.88-2,2.28-2,5,0,9.92,0,14.88,0,1,0,2,.14,2.13,1.48.1,1.69-1.12,1.78-2.32,1.79-2.64,0-5.29,0-7.94,0Z" transform="translate(-0.91 -0.91)" style="fill:#8acc00"/><path d="M528.88,191.65c1.88,1,5.73-1.38,5.73,1.7,0,3.48-3.93,1.65-6,1.67s-6.11,1.69-6-1.61C522.66,190.36,526.69,192.55,528.88,191.65Z" transform="translate(-0.91 -0.91)" style="fill:#88cb02"/><path d="M512.7,195.23c-1.35-.27-3.54.5-3.38-1.7.19-2.76,2.72-1.53,4.27-1.66,1.3-.11,3.42-.5,3.08,1.83S514.06,194.81,512.7,195.23Z" transform="translate(-0.91 -0.91)" style="fill:#82c708"/><path d="M562.31,208.2c-1.32-.3-3.42.58-3.28-1.8s2.16-1.51,3.45-1.51,3.4-.74,3.47,1.48C566,209.09,563.62,207.77,562.31,208.2Z" transform="translate(-0.91 -0.91)" style="fill:#8acc00"/><path d="M255,243.49c-6.86,0-8.93-3.05-7.13-8.29a2.36,2.36,0,0,1,.35-.86c2-2.16,12.83,0,13.77,2.78s.2,5.3-3.07,6A18.91,18.91,0,0,1,255,243.49Z" transform="translate(-0.91 -0.91)" style="fill:#161b25"/><path d="M252.8,230.16c-4.65,1.44-5.45-1.36-5.05-5.87.2-2.27.62-3.39,3.12-3.16,2,.18,4-.07,6,.07,3.05.22,5.19,1.78,5,5-.19,3-2.46,4.07-5.32,4C255.54,230.13,254.54,230.16,252.8,230.16Z" transform="translate(-0.91 -0.91)" style="fill:#181e27"/><path d="M498.84,232.62c0-7,4.11-11.65,10.62-11.78S521,225.73,521,232.51,516.27,244,509.83,244C503.18,244,498.89,239.59,498.84,232.62Z" transform="translate(-0.91 -0.91)" style="fill:#151b24"/><path d="M325,231.87c.2-6.73,4.87-11.23,11.45-11,6.38.19,10.76,5.11,10.61,11.91-.15,7-4.9,11.51-11.75,11.23C329,243.74,324.8,238.85,325,231.87Z" transform="translate(-0.91 -0.91)" style="fill:#151b24"/><path d="M644.89,232c-1.33-.67-4.27,1.37-4.69-1.3-.47-3-1.69-7.46.61-8.92,2.74-1.75,7.1-1.36,10.47.44a4.62,4.62,0,0,1,2.23,6c-1.21,3.48-4.09,4-7.28,3.81C645.9,232,645.57,232,644.89,232Z" transform="translate(-0.91 -0.91)" style="fill:#181e27"/></svg>