<?xml version="1.0" encoding="utf-8"?>
<!-- Generator: Adobe Illustrator 22.0.0, SVG Export Plug-In . SVG Version: 6.00 Build 0)  -->
<svg version="1.1" id="Layer_1" xmlns="http://www.w3.org/2000/svg" xmlns:xlink="http://www.w3.org/1999/xlink" x="0px" y="0px"
	 viewBox="0 0 252.7 63.2" style="enable-background:new 0 0 252.7 63.2;" xml:space="preserve">
<style type="text/css">
	.st0{fill:#FFFFFF;}
</style>
<g id="ENsAxR.tif">
	<g>
		<path class="st0" d="M142.1,63.2c-3.3-0.6-6.6-1.1-9.9-1.7c-0.5-0.1-1-0.2-1.4-0.4c0-4.8,0-9.5,0-14.2
			c-0.1-11.5-0.1-22.9-0.2-34.4c-0.1-4.8-0.7-5.6-5.2-7.3c-0.4-0.1-0.6-0.6-0.9-1c0.4-0.3,0.9-0.9,1.4-1c5.9-1.1,11.8-2.1,17.8-3.2
			c0,6.8,0,13.4,0,20.3c0.6-0.2,1.2-0.4,1.8-0.6c11.8-4.9,23,1,25.5,13.5c0.9,4.6,0.7,9.2-0.6,13.6c-2.6,9.1-8.9,14.2-18.1,15.9
			c-0.6,0.1-1.2,0.3-1.8,0.5C147.5,63.2,144.8,63.2,142.1,63.2z M143.8,59.6c5,1,8-0.2,10.4-4.4c3.7-6.6,4.2-13.8,3.1-21.1
			c-0.4-2.6-1.4-5.3-2.7-7.6c-1.9-3.5-5.1-4.6-9-3.8c-1.6,0.3-2.3,1-2.2,2.7c0.1,9.2,0.1,18.5,0.1,27.7
			C143.5,55.3,143.6,57.4,143.8,59.6z"/>
		<path class="st0" d="M0,1.2c17,0,33.9,0,51.3,0c0,5.5,0.1,10.8-0.1,16.1c0,0.6-1.5,1.2-2.3,1.9c-1.2-2.5-2-4.5-3.1-6.5
			c-2.7-4.9-6.7-7.5-12.4-7.4c-3.2,0.1-6.4,0-10.1,0c0,8.3,0,16.3,0,24.4c9.6,0.7,11.9,0,13.9-8.2c0.7,0,1.5,0,2.3,0
			c0,6.8,0,13.5,0,20.3c-0.8,0-1.5,0-2.2,0c-2.7-8-3-8.2-11.4-8.5c-0.9,0-1.8,0-2.9,0c-0.1,0.6-0.2,1-0.2,1.5
			c0.2,5.7,0.4,11.3,0.8,17c0.4,5.2,2,6.7,7.1,7.5c1.3,0.2,2.5,0.5,1.8,2.5c-10.7,0-21.6,0-32.5,0c0-0.7,0-1.4,0-2.2
			c6.9-1.5,8.2-2.5,8.6-8c0.9-13.5,1.1-26.9,0-40.4C8.1,5.6,5.7,3.7,0,3.8C0,2.9,0,2.1,0,1.2z"/>
		<path class="st0" d="M63.7,63.2c-1.5-0.4-2.9-0.6-4.4-1.1c-8-2.4-13.5-9.2-14-18.2c-0.2-3.8,0-7.8,1-11.5c2.7-9.7,11.3-15.3,22-15
			c16.1,0.4,22.1,12.8,20.9,25.2c-1.1,11.6-7,17.7-18.5,20.3c-0.2,0-0.4,0.2-0.5,0.3C68,63.2,65.9,63.2,63.7,63.2z M76.4,41
			c-0.1,0-0.3-0.1-0.4-0.1c-0.2-2.7-0.3-5.4-0.7-8.1c-0.5-3.6-1.3-7.1-3.6-10c-3-3.8-7.9-3.5-10.3,0.7c-0.7,1.3-1.3,2.7-1.6,4.2
			c-1.5,6.7-1.8,13.5-0.6,20.3c0.5,3.1,1.6,6.1,2.9,8.9c1.2,2.5,3.5,3.8,6.4,3.3c3.1-0.5,4.8-2.8,5.4-5.5C75,50.2,75.6,45.6,76.4,41
			z"/>
		<path class="st0" d="M194.6,63.2c-1.4-0.3-2.8-0.6-4.1-1c-8.7-2.6-14.8-10.3-15.1-19.6c-0.1-3,0.1-6.2,0.9-9.1
			c3.8-14.1,16.6-17.9,27-15.3c6.7,1.7,11.3,8,12,16c0.1,1.3,0.2,2.5,0.2,4c-9,0-17.8,0-26.5,0c-1.4,4.8,1.4,12.4,5.5,15.8
			c3.8,3.1,12.4,4.8,19.2,0c1.3,0.7,1.2,1.4,0.3,2.4c-3.3,3.5-7.3,5.5-11.9,6.4c-0.5,0.1-0.9,0.3-1.4,0.5
			C198.6,63.2,196.6,63.2,194.6,63.2z M201.9,34.8c0.6-3.4-0.3-9.3-1.7-11.9c-1.7-3.2-5-3.7-7.4-1c-3.2,3.7-4,8.2-4.3,12.9
			C193.1,34.8,197.5,34.8,201.9,34.8z"/>
		<path class="st0" d="M230.3,63.2c-3.2-0.7-6.4-1.4-9.6-2c-1.5-0.3-2-1.1-2-2.7c0.1-3,0-6-0.2-9c-0.1-1.3,0.3-2,1.7-2.1
			c1.1,2.1,2.1,4.3,3.4,6.3c2.7,4.1,6.4,6.1,11.4,5.2c2.9-0.5,4.9-2.5,5.4-5.4c0.5-2.8-0.6-5-3-6.4c-2-1.2-4.2-2-6.4-3
			c-1.6-0.7-3.2-1.3-4.7-2c-9.4-4.4-8.7-16.2-1.7-21.3c3.1-2.2,6.5-3.6,10.2-3.4c4.3,0.2,8.7,0.8,13,1.4c1.6,0.2,2.4,1,2.3,2.9
			c-0.2,2.4,0.1,4.9,0.1,7.3c0,0.7-0.5,1.4-0.8,2.1c-0.5-0.5-1.2-0.9-1.6-1.5c-1.1-1.9-2-4-3.3-5.7c-1.7-2.4-4.3-3.5-7.3-3.5
			c-2.8,0-4.9,1.4-5.9,3.9c-1,2.7-0.5,5.4,1.9,7.1c2.2,1.5,4.6,2.6,7,3.8c1.9,0.9,3.9,1.6,5.7,2.6c8.2,4.4,9.3,15.4,1.9,21.1
			c-2.4,1.9-5.8,2.6-8.7,3.9c-0.6,0.2-1.2,0.3-1.8,0.5C234.9,63.2,232.6,63.2,230.3,63.2z"/>
		<path class="st0" d="M116.6,59.8c0,0.7,0,1.2,0,1.9c-8.8,0-17.6,0-26.5,0c-0.6-1.4-0.2-2,1.3-2.3c3-0.6,4.1-1.4,4.2-4.5
			C96,48,96,41.1,96.1,34.1c0-2.4-0.2-4.7-0.5-7.1c-0.4-2.7-1.4-3.5-4-4c-0.6-0.1-1.2-0.7-1.8-1.1c0.6-0.4,1.1-1,1.7-1.1
			c5.3-1.1,10.7-2.1,16-3.1c0.4-0.1,0.8,0,1.4,0c0,3,0,5.9,0,9.2c4.2-7,9.2-11.7,18.2-8.6c-1.6,4.1-3.1,7.9-4.4,11.3
			c-3.1-0.5-5.9-1-8.8-1.3c-1-0.1-2.1,0.3-3.1,0.7c-1.4,0.5-2.2,1.3-2.1,3c0.2,7.2,0.1,14.5,0.4,21.7c0.2,4.9,1,5.3,5.8,6
			C115.5,59.7,115.9,59.7,116.6,59.8z"/>
	</g>
</g>
</svg>
