<svg id="5604e7ef-ede6-41c0-bc40-8c110f233c61" data-name="Layer 1" xmlns="http://www.w3.org/2000/svg" viewBox="0 0 378.09 377.22"><title>logo-hosho</title><path d="M200,11c92.69-5,189.32,76.54,189,188.18C388.76,303.48,304.2,388,199.71,388,95.45,388,11.06,303.14,11,198.61,10.87,87.36,107.35,6,200,11Z" transform="translate(-10.97 -10.78)" style="fill:#303037"/><path d="M291,167.69c0,32.16-.07,64.33.09,96.5,0,3.84-.85,5-4.84,4.91-11-.3-22-.26-33,0-3.56.08-4.36-.94-4.33-4.4.16-23.67,0-47.34.19-71,0-4.11-1.27-4.79-5-4.77-26.17.15-52.34,0-78.5.16-3.56,0-4.85-.58-4.74-4.52.32-11,.28-22,0-33-.09-3.69.79-4.7,4.59-4.67,26.17.19,52.33,0,78.5.21,4.21,0,5.14-1.06,5.1-5.17-.21-23.67,0-47.34-.22-71,0-4.33,1.24-5.15,5.25-5q15.74.45,31.49,0c4.19-.12,5.55.68,5.51,5.29C290.88,103.35,291,135.52,291,167.69Z" transform="translate(-10.97 -10.78)" style="fill:#fefefe"/><path d="M153,63.22V225.47c0,13.49-.1,27,.07,40.47.05,3.21-.74,4.2-4.07,4.14-11.82-.21-23.64-.17-35.47,0-2.81,0-3.59-.76-3.59-3.58q.12-76.7,0-153.37c0-1.52.05-2.88,1.2-4.13C124.87,94.06,138.51,79.09,153,63.22Z" transform="translate(-10.97 -10.78)" style="fill:#fefefe"/><path d="M180.6,306.41c0,15.14-5.45,19.9-20.46,17.82-7.61-1.05-11.07-5-11.16-12.65,0-3.65-.06-7.3,0-10.95a15.48,15.48,0,0,1,.57-4.41c1.9-6,9.32-9.11,18.6-7.92,8.16,1,12,4.63,12.41,11.64C180.69,302.09,180.6,304.25,180.6,306.41Z" transform="translate(-10.97 -10.78)" style="fill:#fafafa"/><path d="M202.49,324.51c-4.68-.13-9.41-.17-13.3-3.3-1-.78-3-1.6-1.56-3.41,1-1.23,2.2-1.17,3.84-.07,5.84,3.93,12.34,3.24,18.75,1.71a4.53,4.53,0,0,0,3.73-4.7,5.16,5.16,0,0,0-3.25-5.14,20.18,20.18,0,0,0-8.79-1.5,21.19,21.19,0,0,1-10.21-1.91,8.82,8.82,0,0,1-2.12-14.6c5.67-5,20.91-4.59,26.16.85.86.89,2.89,1.83,1.4,3.55-1.32,1.52-2.46,1-4-.45-4-3.86-15.24-4.59-19.84-1.67-3.59,2.26-3.42,6.85.38,8.82,2.59,1.34,5.45,1.43,8.3,1.4a23.71,23.71,0,0,1,10.23,1.84c3.83,1.74,6,4.63,5.87,9-.15,4.19-2.57,6.67-6.25,8.19C208.82,324.37,205.65,324.39,202.49,324.51Z" transform="translate(-10.97 -10.78)" style="fill:#fbfbfb"/><path d="M294,306.45c0,.16,0,.33,0,.49,0,15.07-8.69,21.28-23.32,16.68-4.95-1.56-8-4.82-8.19-10.08-.22-4.81-.06-9.63,0-14.44a9.64,9.64,0,0,1,.36-2c1.54-6.49,8.58-9.9,18.39-8.9,8.41.85,12.6,4.69,12.77,11.73C294,302.13,294,304.29,294,306.45Z" transform="translate(-10.97 -10.78)" style="fill:#fafafa"/><path d="M228.19,290.93A26.17,26.17,0,0,1,246.58,289c6,1.52,9.06,5.2,9.16,11.4.1,6.83,0,13.66,0,20.49,0,1.46.33,3.14-2.06,3.14s-2-1.76-2-3.15c0-6.66-.08-13.33,0-20,.06-4.58-2.14-7.09-6.51-8.08a23.68,23.68,0,0,0-8.42-.46c-6.52.9-8.6,3.33-8.63,9.9,0,6.16,0,12.33,0,18.49,0,1.31.71,3.18-1.8,3.28-2.76.12-2.22-1.85-2.22-3.41q0-19.25,0-38.49c0-1.65-.34-3.5,2.33-3.34,2.5.16,1.66,2.07,1.71,3.37C228.27,284.92,228.19,287.69,228.19,290.93Z" transform="translate(-10.97 -10.78)" style="fill:#fafafa"/><path d="M114.85,290.92A25.8,25.8,0,0,1,133,289c6.16,1.52,9.13,5,9.25,11.28.13,6.82.06,13.65,0,20.47,0,1.33.68,3.18-1.8,3.3-2.74.14-2.26-1.79-2.26-3.38,0-6.49-.16-13,0-19.47.15-5.13-2.32-7.63-7.13-8.51a23.16,23.16,0,0,0-8.42-.18c-6.11,1.11-7.79,3.15-7.81,9.43s0,12.65,0,19c0,1.45.35,3.11-2,3.14s-2-1.67-2-3.08q0-19.47,0-38.95c0-1.35-.57-3.18,1.88-3.23,2.72,0,2.17,1.92,2.2,3.5C114.88,284.92,114.85,287.57,114.85,290.92Z" transform="translate(-10.97 -10.78)" style="fill:#fbfbfb"/><path d="M176.45,306.37v1c0,11.63-7.09,16.44-18.21,12.29-3.21-1.19-5.3-3.29-5.21-7.06.11-4.16.07-8.32,0-12.48a6.56,6.56,0,0,1,3-5.95c4-2.71,13.75-2.58,17.75.13a5.85,5.85,0,0,1,2.64,5.08c0,2.33,0,4.66,0,7Z" transform="translate(-10.97 -10.78)" style="fill:#303037"/><path d="M290,306.61v1.5c0,10.26-3.08,13.07-13.57,12.36-7.56-.51-9.87-3-9.92-10.61q0-3.5,0-7c0-7.63,2.39-10.2,9.92-10.62a25.2,25.2,0,0,1,5.95.34c6,1.09,7.57,3,7.62,9C290,303.28,290,305,290,306.61Z" transform="translate(-10.97 -10.78)" style="fill:#303037"/></svg>