<svg id="f50bce86-4235-42df-83ae-c1480b69c6bb" data-name="Layer 1" 
    xmlns="http://www.w3.org/2000/svg" viewBox="0 0 930.77 224.91">
    <title>logo</title>
    <g id="3f949037-2746-40ff-8166-28ecc0e34d01" data-name="green">
        <path d="M112.43,0c62.36.06,113.81,50.06,112.42,115.36-1.26,59.35-49.17,111.06-115.71,109.52C50.27,223.51-2.2,175.9.07,107.83,2,49.6,49,.38,112.43,0Z" transform="translate(0)" style="fill:#505c41"/>
        <path d="M267.49,88.08c-2.1-5.34-3.53-6.39-6.87-7.34a15.2,15.2,0,0,0-3.62-.38c-.57,0-.76-.29-.76-.67,0-.57.95-.67,2.48-.67,4.57,0,9.72.29,10.86.29s5.06-.29,8.68-.29c1.71,0,2.57.19,2.57.67s-.28.67-.95.67a11.09,11.09,0,0,0-3.62.47A1.91,1.91,0,0,0,275,82.74a28.39,28.39,0,0,0,1.9,6.1l19.45,50.62c5.53-12.78,18.3-46,20.4-52.91a13.65,13.65,0,0,0,.86-3.62,2.35,2.35,0,0,0-1.24-2.19,12,12,0,0,0-3.63-.38c-.57,0-1-.1-1-.58s.57-.76,2.09-.76c3.82,0,8.2.29,9.34.29.58,0,4.68-.29,7.44-.29,1.05,0,1.62.19,1.62.67s-.38.67-1.14.67a8.64,8.64,0,0,0-4.58,1.14c-1.24.86-2.67,2.48-5.24,9-1,2.67-5.82,14.11-10.68,25.83-5.81,13.92-10.1,24.21-12.29,28.88-2.67,5.72-3,7.25-4,7.25s-1.62-1.33-3.43-5.91Z" transform="translate(0)" style="fill:#505c41"/>
        <path d="M364.43,106.67c0-14.87,0-17.54-.19-20.59-.19-3.25-1-4.77-4.1-5.44a21.48,21.48,0,0,0-2.77-.28c-.66-.1-1.24-.19-1.24-.58,0-.57.48-.76,1.53-.76,2.19,0,4.76,0,10.77.29.67,0,19.64,0,21.83-.1a15.46,15.46,0,0,0,4.38-.57,2.3,2.3,0,0,1,1.05-.38c.29,0,.38.38.38.86a39.9,39.9,0,0,0-.76,4.48c-.09,1.43-.19,3.24-.38,5.72-.1,1-.38,1.62-.76,1.62-.57,0-.77-.48-.77-1.24a9.63,9.63,0,0,0-.47-3.15c-.67-2.19-2.67-3.14-6.87-3.52-1.62-.2-12-.29-13.05-.29-.39,0-.58.29-.58,1V110c0,.67.1,1,.58,1,1.24,0,13,0,15.15-.19,2.58-.19,3.81-.47,4.77-1.62.47-.57.76-1,1.14-1s.48.19.48.76-.48,2.2-.76,5.34-.29,5.15-.39,6.48c-.09,1-.28,1.43-.66,1.43-.57,0-.67-.76-.67-1.52a9,9,0,0,0-.38-2.67c-.38-1.43-1.53-2.77-5-3.15-2.57-.28-12-.47-13.63-.47a.6.6,0,0,0-.67.52.66.66,0,0,0,0,.14v8.39c0,3.24-.09,14.3,0,16.3.19,3.91.77,6,3.15,7,1.62.67,4.19.86,7.91.86a31.36,31.36,0,0,0,8.58-.86c3.05-1,4.1-3,4.86-7,.19-1.05.38-1.43.86-1.43s.57.76.57,1.43a92.75,92.75,0,0,1-1.24,9.24c-.66,2.48-1.43,2.48-5.15,2.48-7.05,0-10.19-.19-13.91-.28s-8.2-.29-11.92-.29c-2.29,0-4.57.38-7.05.29-1,0-1.53-.2-1.53-.77,0-.28.48-.47,1.05-.57a12.4,12.4,0,0,0,2.19-.29c2-.47,3.25-1.81,3.44-9,.09-3.71.19-8.57.19-17.06Z" transform="translate(0)" style="fill:#505c41"/>
        <path d="M438.59,106.67c0-14.87,0-17.54-.2-20.59-.19-3.25-.95-4.77-4.09-5.44a17.69,17.69,0,0,0-3.25-.28c-.38,0-.76-.19-.76-.58,0-.57.48-.76,1.53-.76,4.29,0,10.29.29,10.77.29,1.05,0,8.29-.29,11.25-.29,6,0,12.39.57,17.44,4.2a16.66,16.66,0,0,1,6.58,13c0,7-3,14.11-11.54,22,7.82,10,14.3,18.49,19.83,24.4,5.15,5.43,9.25,6.48,11.63,6.86a22,22,0,0,0,3.72.29c.47,0,.86.29.86.57,0,.57-.58.77-2.29.77H493.3c-5.34,0-7.72-.48-10.2-1.82-4.1-2.19-7.43-6.86-12.87-14-4-5.24-8.48-11.63-10.39-14.11a1.56,1.56,0,0,0-1.24-.57l-11.72-.19c-.48,0-.67.29-.67.76v2.29c0,9.15,0,16.68.48,20.69.28,2.76.85,4.86,3.71,5.24a40.93,40.93,0,0,0,4.29.38c.58,0,.77.29.77.57,0,.48-.48.77-1.53.77-5.24,0-11.25-.29-11.72-.29-.1,0-6.1.29-9,.29-1,0-1.53-.2-1.53-.77,0-.28.19-.57.76-.57a14.56,14.56,0,0,0,2.86-.38c1.91-.38,2.39-2.48,2.77-5.24.48-4,.48-11.54.48-20.69Zm7.62,8.29a1.25,1.25,0,0,0,.67,1.14c1.43.86,5.81,1.53,10,1.53a12.4,12.4,0,0,0,7.15-1.81c3.33-2.29,5.81-7.44,5.81-14.68,0-11.92-6.29-19.07-16.49-19.07a29.8,29.8,0,0,0-6.39.57,1.15,1.15,0,0,0-.76,1.15Z" transform="translate(0)" style="fill:#505c41"/>
        <path d="M528.57,106.67c0-14.87,0-17.54-.19-20.59-.19-3.25-1.15-4.87-3.25-5.34a12.15,12.15,0,0,0-3-.38c-.38,0-.76-.19-.76-.58,0-.57.47-.76,1.52-.76,3.15,0,9.15.29,9.63.29S539,79,541.86,79c1,0,1.53.19,1.53.76,0,.39-.38.58-.77.58a14.59,14.59,0,0,0-2.38.28c-2.57.48-3.33,2.1-3.53,5.44-.19,3-.19,5.72-.19,20.59v16.77c0,9.15,0,16.68.48,20.69.29,2.76.86,4.86,3.72,5.24,1.33.19,3.33.38,3.91.38.85,0,1.14.29,1.14.57,0,.48-.38.77-1.43.77-5.24,0-11.34-.29-11.82-.29s-6.48.29-9.34.29c-1,0-1.53-.2-1.53-.77,0-.28.19-.57,1-.57a13.87,13.87,0,0,0,2.48-.29c1.91-.38,2.48-2.57,2.86-5.33.48-4,.48-11.54.48-20.69Z" transform="translate(0)" style="fill:#505c41"/>
        <path d="M588.62,106.67c0-14.87,0-17.54-.19-20.59-.19-3.25-.67-4.77-3.82-5.44a17.58,17.58,0,0,0-3.24-.28c-.66,0-1-.19-1-.58,0-.57.48-.76,1.53-.76,4.29,0,10.29.29,10.77.29,1.14,0,7.15-.29,12.87-.29,9.44,0,26.88-.86,38.22,10.87,4.77,5,9.25,12.87,9.25,24.21A39,39,0,0,1,642.66,141c-4.09,4.29-12.67,11-28.88,11-4.1,0-9.15-.28-13.25-.57s-7.43-.57-7.91-.57c-.19,0-1.81,0-3.81.09s-4.1.2-5.53.2c-1,0-1.53-.2-1.53-.77,0-.28.19-.57,1-.57a21.72,21.72,0,0,0,2.67-.38c1.9-.38,2.38-2.48,2.76-5.24.48-4,.48-11.54.48-20.69Zm8,10.29c0,10.1.1,18.87.19,20.68.1,2.39.29,6.2,1.05,7.25,1.24,1.81,5,3.81,16.21,3.81,8.86,0,17.06-3.24,22.68-8.86,5-4.86,7.63-14,7.63-22.78,0-12.11-5.24-19.93-9.15-24-9-9.43-19.83-10.77-31.17-10.77a25.34,25.34,0,0,0-6.2.67,1.71,1.71,0,0,0-1.14,1.91c-.1,3.24-.1,13-.1,20.3Z" transform="translate(0)" style="fill:#505c41"/>
        <path d="M692.71,106.67c0-14.87,0-17.54-.2-20.59-.19-3.25-1.14-4.87-3.24-5.34a12.17,12.17,0,0,0-2.95-.38c-.38,0-.76-.19-.76-.58,0-.57.47-.76,1.52-.76,3.15,0,9.15.29,9.63.29s6.48-.29,9.34-.29c1.05,0,1.53.19,1.53.76,0,.39-.39.58-.77.58a14.59,14.59,0,0,0-2.38.28c-2.57.48-3.34,2.1-3.53,5.44-.19,3-.19,5.72-.19,20.59v16.77c0,9.15,0,16.68.48,20.69.28,2.76.86,4.86,3.72,5.24,1.33.19,3.33.38,3.9.38.86,0,1.15.29,1.15.57,0,.48-.38.77-1.43.77-5.24,0-11.34-.29-11.82-.29s-6.48.29-9.34.29c-1,0-1.53-.2-1.53-.77,0-.28.19-.57,1-.57a13.87,13.87,0,0,0,2.48-.29c1.91-.38,2.48-2.57,2.86-5.33.48-4,.48-11.54.48-20.69Z" transform="translate(0)" style="fill:#505c41"/>
        <path d="M754.57,120c0,13.73,3,19.64,7.15,23.54,4.67,4.39,9,5.25,14.39,5.25a20,20,0,0,0,15-6.87c4.38-5.43,5.52-13.53,5.52-23.35v-11.9c0-14.87,0-17.54-.19-20.59-.19-3.25-1-4.77-4.1-5.44a17.58,17.58,0,0,0-3.24-.28c-.38,0-.76-.19-.76-.58,0-.57.48-.76,1.53-.76,4.29,0,9.53.29,10.1.29s5.15-.29,8-.29c1,0,1.52.19,1.52.76,0,.39-.38.58-.76.58a14.59,14.59,0,0,0-2.38.28c-2.58.57-3.34,2.1-3.53,5.44-.19,3-.19,5.72-.19,20.59v10.19c0,10.3-1.15,21.74-8.77,28.51-6.86,6.1-14,7-19.64,7-3.24,0-12.86-.38-19.63-6.77-4.67-4.48-8.3-11.15-8.3-25.07V106.67c0-14.87,0-17.54-.19-20.59-.19-3.25-1-4.77-4.1-5.44a17.58,17.58,0,0,0-3.24-.28c-.38,0-.76-.19-.76-.58,0-.57.48-.76,1.53-.76,4.29,0,10.1.29,11,.29S757,79,759.91,79c1,0,1.52.19,1.52.76,0,.39-.38.58-.76.58a14.59,14.59,0,0,0-2.38.28c-2.58.38-3.34,2.1-3.53,5.44-.19,3-.19,5.72-.19,20.59Z" transform="translate(0)" style="fill:#505c41"/>
        <path d="M918.71,138.79c.38,3.43,1,8.77,5.15,10.1a18.8,18.8,0,0,0,5.91.86c.47,0,1,.1,1,.57s-.28.77-1.43.77c-2.09,0-13-.29-16.49-.58-2.19-.19-2.66-.47-2.66-.95s.19-.48.66-.67c.67-.28.57-1.71.38-3.43L906.7,95.7l-23.64,50.14c-2,4.2-2.29,5-3.15,5-.66,0-1.14-1-2.95-4.38-2.48-4.67-10.68-21.16-11.15-22.12C865,122.68,854,99.13,852.94,96.56L849,141.46c-.1,1.52-.19,2.86-.19,4.48,0,2.38,1.14,3.14,2.57,3.43a14.66,14.66,0,0,0,3.43.38c.58,0,1,.19,1,.48,0,.66-.48.86-1.43.86-3.53,0-8.39-.29-9.15-.29s-5.44.29-8,.29c-1,0-1.62-.1-1.62-.77,0-.38.48-.57.95-.57a12,12,0,0,0,2.86-.29c3.15-.57,3.34-4,3.81-7.91l6.87-62c.09-1,.47-1.9,1-1.9s1,.38,1.43,1.43l29.16,60,28-59.86c.38-.86.76-1.52,1.43-1.52s1,.76,1.14,2.57Z" transform="translate(0)" style="fill:#505c41"/>
    </g>
    <path d="M44.06,79.39c2.12,4.46.81,9.21,1.5,13.71,1.88,12.23,7.89,22.08,16.09,30.68,9.48,9.94,20.84,17.82,31,27,4.92,4.45,10,8.77,14.83,13.28,3.25,3,5.53,4.08,9.81.42,14.23-12.15,28.7-24,42.71-36.43,11.1-9.82,17.57-22.11,20-36.69a82.82,82.82,0,0,0,1.12-12.57C185.37,84.18,188,89,188,95.16c.06,10.64,0,21.14-4.65,31.13a64.5,64.5,0,0,1-22.94,26.3c-10.68,7.22-19.65,16.3-29.16,24.78-5.08,4.53-10.17,9-15.4,13.36-3.14,2.61-5.39,2.11-8.13-.4-10.62-9.76-21.28-19.49-32.07-29.06-4.58-4.06-9.76-7.44-14.24-11.59-12.78-11.82-22.95-25.16-24.54-43.42C35.86,94.65,38,85.76,44.06,79.39Z" transform="translate(0)" style="fill:#bcd164"/>
    <path d="M64,67.67c-.24,7.62.28,13.85,3.06,19.89,4.4,9.58,11.89,16.28,19.76,22.66,7.46,6,14.85,12.19,21.73,18.9,2.66,2.6,4.58,3.1,7.81.18,9.73-8.75,20-16.85,29.86-25.52,8-7.1,13.42-15.9,14.76-26.82.3-2.44.82-4.86,1.31-7.72A14,14,0,0,1,167,79c1.45,17.93-5.07,32.29-20.06,42.19-9.27,6.12-16.37,14.55-24.94,21.37a32,32,0,0,0-4.91,4.17c-3.73,4.5-6.93,2.8-10.33-.39C96.6,136.82,86.1,127.7,75.48,118.69,63.9,108.87,56.52,96.42,58,80.37A19.3,19.3,0,0,1,64,67.67Z" transform="translate(0)" style="fill:#bcd164"/>
    <path d="M113,97.92c9.14-10,23.06-14.84,24.15-30.38,4.73,6.62,3.85,12.95-3.29,21a117.6,117.6,0,0,1-19.17,17.32c-1,.73-1.72,1.3-3,.34-9.23-6.88-17.84-14.45-24.48-23.91-4.14-5.9-2.67-15.74,2.69-21.65a76.65,76.65,0,0,1,18.26-15.21C112,43.18,113,43.62,113,48.07,113,64.34,113,80.61,113,97.92Z" transform="translate(0)" style="fill:#bcd164"/>
</svg>