<?xml version="1.0" encoding="utf-8"?>
<!-- Generator: Adobe Illustrator 22.1.0, SVG Export Plug-In . SVG Version: 6.00 Build 0)  -->
<svg version="1.1" id="Layer_1" xmlns="http://www.w3.org/2000/svg" xmlns:xlink="http://www.w3.org/1999/xlink" x="0px" y="0px"
	 viewBox="0 0 941.3 238" style="enable-background:new 0 0 941.3 238;" xml:space="preserve">
<style type="text/css">
	.st0{fill:#202142;}
	.st1{fill:#FFFFFF;}
</style>
<g>
	<g>
		<path class="st0" d="M117.7,6.6C180,6.6,231.5,56.6,230.1,121.9c-1.3,59.3-49.2,111.1-115.7,109.5c-58.9-1.4-111.3-49-109.1-117
			C7.3,56.2,54.2,6.9,117.7,6.6z"/>
		<path class="st1" d="M49.3,85.9c2.1,4.5,0.8,9.2,1.5,13.7c1.9,12.2,7.9,22.1,16.1,30.7c9.5,9.9,20.8,17.8,31,27
			c4.9,4.5,10,8.8,14.8,13.3c3.2,3,5.5,4.1,9.8,0.4c14.2-12.1,28.7-24,42.7-36.4c11.1-9.8,17.6-22.1,20-36.7c0.6-3.9,1-7.7,1.1-12.6
			c4.3,5.4,6.9,10.2,6.9,16.4c0.1,10.6,0,21.1-4.7,31.1c-5.1,11-13.1,19.7-22.9,26.3c-10.7,7.2-19.7,16.3-29.2,24.8
			c-5.1,4.5-10.2,9-15.4,13.4c-3.1,2.6-5.4,2.1-8.1-0.4c-10.6-9.8-21.3-19.5-32.1-29.1c-4.6-4.1-9.8-7.4-14.2-11.6
			c-12.8-11.8-22.9-25.2-24.5-43.4C41.1,101.2,43.2,92.3,49.3,85.9z"/>
		<path class="st1" d="M69.2,74.2c-0.2,7.6,0.3,13.8,3.1,19.9c4.4,9.6,11.9,16.3,19.8,22.7c7.5,6.1,14.9,12.2,21.7,18.9
			c2.7,2.6,4.6,3.1,7.8,0.2c9.7-8.8,20-16.9,29.9-25.5c8-7.1,13.4-15.9,14.8-26.8c0.3-2.4,0.8-4.9,1.3-7.7c3,2.8,4.4,6,4.7,9.7
			c1.5,17.9-5.1,32.3-20.1,42.2c-9.3,6.1-16.4,14.6-24.9,21.4c-1.7,1.3-3.6,2.5-4.9,4.2c-3.7,4.5-6.9,2.8-10.3-0.4
			c-10.2-9.5-20.7-18.6-31.3-27.6c-11.5-9.8-18.9-22.2-17.5-38.3C63.6,82.5,65.1,78.4,69.2,74.2z"/>
		<path class="st1" d="M118.2,104.5c9.1-10,23.1-14.8,24.1-30.4c4.7,6.6,3.9,13-3.3,21c-5.7,6.5-12.1,12.3-19.2,17.3
			c-1,0.7-1.7,1.3-3,0.3c-9.2-6.9-17.8-14.4-24.5-23.9c-4.1-5.9-2.7-15.7,2.7-21.7c5.4-5.9,11.3-11.2,18.3-15.2
			c3.9-2.3,4.8-1.8,4.8,2.6C118.2,70.9,118.2,87.2,118.2,104.5z"/>
	</g>
	<g>
		<path class="st0" d="M272.7,94.6c-2.1-5.3-3.5-6.4-6.9-7.3c-1.4-0.4-3.1-0.4-3.6-0.4c-0.6,0-0.8-0.3-0.8-0.7c0-0.6,1-0.7,2.5-0.7
			c4.6,0,9.7,0.3,10.9,0.3c1,0,5.1-0.3,8.7-0.3c1.7,0,2.6,0.2,2.6,0.7s-0.3,0.7-1,0.7c-1,0-2.8,0.1-3.6,0.5c-1,0.5-1.2,1.2-1.2,1.9
			c0,0.9,0.9,3.4,1.9,6.1l19.4,50.6c5.5-12.8,18.3-46,20.4-52.9c0.5-1.4,0.9-2.8,0.9-3.6c0-0.8-0.3-1.7-1.2-2.2
			c-1.1-0.4-2.6-0.4-3.6-0.4c-0.6,0-1-0.1-1-0.6c0-0.6,0.6-0.8,2.1-0.8c3.8,0,8.2,0.3,9.3,0.3c0.6,0,4.7-0.3,7.4-0.3
			c1,0,1.6,0.2,1.6,0.7s-0.4,0.7-1.1,0.7c-0.7,0-2.8,0-4.6,1.1c-1.2,0.9-2.7,2.5-5.2,9c-1,2.7-5.8,14.1-10.7,25.8
			c-5.8,13.9-10.1,24.2-12.3,28.9c-2.7,5.7-3,7.2-4,7.2c-1.1,0-1.6-1.3-3.4-5.9L272.7,94.6z"/>
		<path class="st0" d="M369.7,113.2c0-14.9,0-17.5-0.2-20.6c-0.2-3.2-1-4.8-4.1-5.4c-0.7-0.2-1.9-0.2-2.8-0.3
			c-0.7-0.1-1.2-0.2-1.2-0.6c0-0.6,0.5-0.8,1.5-0.8c2.2,0,4.8,0,10.8,0.3c0.7,0,19.6,0,21.8-0.1c2.1-0.1,3.8-0.3,4.4-0.6
			c0.6-0.3,0.8-0.4,1-0.4s0.4,0.4,0.4,0.9c0,0.7-0.6,1.8-0.8,4.5c-0.1,1.4-0.2,3.2-0.4,5.7c-0.1,1-0.4,1.6-0.8,1.6
			c-0.6,0-0.8-0.5-0.8-1.2c0-1.2-0.2-2.4-0.5-3.1c-0.7-2.2-2.7-3.1-6.9-3.5c-1.6-0.2-12-0.3-13.1-0.3c-0.4,0-0.6,0.3-0.6,1v26.3
			c0,0.7,0.1,1,0.6,1c1.2,0,13,0,15.2-0.2c2.6-0.2,3.8-0.5,4.8-1.6c0.5-0.6,0.8-1,1.1-1c0.3,0,0.5,0.2,0.5,0.8s-0.5,2.2-0.8,5.3
			c-0.3,3-0.3,5.1-0.4,6.5c-0.1,1-0.3,1.4-0.7,1.4c-0.6,0-0.7-0.8-0.7-1.5c0-0.9-0.1-1.8-0.4-2.7c-0.4-1.4-1.5-2.8-5-3.1
			c-2.6-0.3-12-0.5-13.6-0.5c-0.5,0-0.7,0.3-0.7,0.7v8.4c0,3.2-0.1,14.3,0,16.3c0.2,3.9,0.8,6,3.1,7c1.6,0.7,4.2,0.9,7.9,0.9
			c2.9,0,6-0.1,8.6-0.9c3-1,4.1-3,4.9-7.1c0.2-1,0.4-1.4,0.9-1.4c0.6,0,0.6,0.8,0.6,1.4c0,0.8-0.8,7.2-1.2,9.2
			c-0.7,2.5-1.4,2.5-5.1,2.5c-7.1,0-10.2-0.2-13.9-0.3c-3.8-0.1-8.2-0.3-11.9-0.3c-2.3,0-4.6,0.4-7.1,0.3c-1,0-1.5-0.2-1.5-0.8
			c0-0.3,0.5-0.5,1-0.6c1-0.1,1.5-0.1,2.2-0.3c2-0.5,3.2-1.8,3.4-9c0.1-3.7,0.2-8.6,0.2-17.1V113.2z"/>
		<path class="st0" d="M443.8,113.2c0-14.9,0-17.5-0.2-20.6c-0.2-3.2-1-4.8-4.1-5.4c-0.8-0.2-2.4-0.3-3.2-0.3
			c-0.4,0-0.8-0.2-0.8-0.6c0-0.6,0.5-0.8,1.5-0.8c4.3,0,10.3,0.3,10.8,0.3c1,0,8.3-0.3,11.2-0.3c6,0,12.4,0.6,17.4,4.2
			c2.4,1.7,6.6,6.4,6.6,13c0,7.1-3,14.1-11.5,22c7.8,10,14.3,18.5,19.8,24.4c5.1,5.4,9.2,6.5,11.6,6.9c1.8,0.3,3.1,0.3,3.7,0.3
			c0.5,0,0.9,0.3,0.9,0.6c0,0.6-0.6,0.8-2.3,0.8h-6.8c-5.3,0-7.7-0.5-10.2-1.8c-4.1-2.2-7.4-6.9-12.9-14c-4-5.2-8.5-11.6-10.4-14.1
			c-0.4-0.4-0.7-0.6-1.2-0.6l-11.7-0.2c-0.5,0-0.7,0.3-0.7,0.8v2.3c0,9.2,0,16.7,0.5,20.7c0.3,2.8,0.9,4.9,3.7,5.2
			c1.3,0.2,3.4,0.4,4.3,0.4c0.6,0,0.8,0.3,0.8,0.6c0,0.5-0.5,0.8-1.5,0.8c-5.2,0-11.2-0.3-11.7-0.3c-0.1,0-6.1,0.3-9,0.3
			c-1,0-1.5-0.2-1.5-0.8c0-0.3,0.2-0.6,0.8-0.6c0.9,0,2-0.2,2.9-0.4c1.9-0.4,2.4-2.5,2.8-5.2c0.5-4,0.5-11.5,0.5-20.7V113.2z
			 M451.5,121.5c0,0.5,0.2,0.9,0.7,1.1c1.4,0.9,5.8,1.5,10,1.5c2.3,0,5-0.3,7.1-1.8c3.3-2.3,5.8-7.4,5.8-14.7
			c0-11.9-6.3-19.1-16.5-19.1c-2.9,0-5.4,0.3-6.4,0.6c-0.5,0.2-0.8,0.6-0.8,1.1V121.5z"/>
		<path class="st0" d="M533.8,113.2c0-14.9,0-17.5-0.2-20.6c-0.2-3.2-1.1-4.9-3.2-5.3c-1-0.3-2.3-0.4-3-0.4c-0.4,0-0.8-0.2-0.8-0.6
			c0-0.6,0.5-0.8,1.5-0.8c3.1,0,9.2,0.3,9.6,0.3s6.5-0.3,9.3-0.3c1,0,1.5,0.2,1.5,0.8c0,0.4-0.4,0.6-0.8,0.6c-0.7,0-1.2,0.1-2.4,0.3
			c-2.6,0.5-3.3,2.1-3.5,5.4c-0.2,3.1-0.2,5.7-0.2,20.6V130c0,9.2,0,16.7,0.5,20.7c0.3,2.8,0.9,4.9,3.7,5.2c1.3,0.2,3.3,0.4,3.9,0.4
			c0.9,0,1.1,0.3,1.1,0.6c0,0.5-0.4,0.8-1.4,0.8c-5.2,0-11.3-0.3-11.8-0.3s-6.5,0.3-9.3,0.3c-1,0-1.5-0.2-1.5-0.8
			c0-0.3,0.2-0.6,1-0.6c0.6,0,1.6-0.1,2.5-0.3c1.9-0.4,2.5-2.6,2.9-5.3c0.5-4,0.5-11.5,0.5-20.7V113.2z"/>
		<path class="st0" d="M593.9,113.2c0-14.9,0-17.5-0.2-20.6c-0.2-3.2-0.7-4.8-3.8-5.4c-0.8-0.2-2.4-0.3-3.2-0.3c-0.7,0-1-0.2-1-0.6
			c0-0.6,0.5-0.8,1.5-0.8c4.3,0,10.3,0.3,10.8,0.3c1.1,0,7.1-0.3,12.9-0.3c9.4,0,26.9-0.9,38.2,10.9c4.8,5,9.2,12.9,9.2,24.2
			c0,12-5,21.3-10.3,26.9c-4.1,4.3-12.7,11-28.9,11c-4.1,0-9.2-0.3-13.2-0.6c-4.2-0.3-7.4-0.6-7.9-0.6c-0.2,0-1.8,0-3.8,0.1
			c-1.9,0-4.1,0.2-5.5,0.2c-1,0-1.5-0.2-1.5-0.8c0-0.3,0.2-0.6,1-0.6c1-0.1,1.8-0.2,2.7-0.4c1.9-0.4,2.4-2.5,2.8-5.2
			c0.5-4,0.5-11.5,0.5-20.7V113.2z M601.9,123.5c0,10.1,0.1,18.9,0.2,20.7c0.1,2.4,0.3,6.2,1,7.2c1.2,1.8,5,3.8,16.2,3.8
			c8.9,0,17.1-3.2,22.7-8.9c5-4.9,7.6-14,7.6-22.8c0-12.1-5.2-19.9-9.2-24c-9-9.4-19.8-10.8-31.2-10.8c-1.9,0-5.4,0.3-6.2,0.7
			c-0.9,0.4-1.1,0.9-1.1,1.9c-0.1,3.2-0.1,13-0.1,20.3V123.5z"/>
		<path class="st0" d="M698,113.2c0-14.9,0-17.5-0.2-20.6c-0.2-3.2-1.1-4.9-3.2-5.3c-1-0.3-2.3-0.4-3-0.4c-0.4,0-0.8-0.2-0.8-0.6
			c0-0.6,0.5-0.8,1.5-0.8c3.1,0,9.2,0.3,9.6,0.3s6.5-0.3,9.3-0.3c1,0,1.5,0.2,1.5,0.8c0,0.4-0.4,0.6-0.8,0.6c-0.7,0-1.2,0.1-2.4,0.3
			c-2.6,0.5-3.3,2.1-3.5,5.4c-0.2,3.1-0.2,5.7-0.2,20.6V130c0,9.2,0,16.7,0.5,20.7c0.3,2.8,0.9,4.9,3.7,5.2c1.3,0.2,3.3,0.4,3.9,0.4
			c0.9,0,1.1,0.3,1.1,0.6c0,0.5-0.4,0.8-1.4,0.8c-5.2,0-11.3-0.3-11.8-0.3s-6.5,0.3-9.3,0.3c-1,0-1.5-0.2-1.5-0.8
			c0-0.3,0.2-0.6,1-0.6c0.6,0,1.6-0.1,2.5-0.3c1.9-0.4,2.5-2.6,2.9-5.3c0.5-4,0.5-11.5,0.5-20.7V113.2z"/>
		<path class="st0" d="M759.8,126.6c0,13.7,3,19.6,7.1,23.5c4.7,4.4,9,5.2,14.4,5.2c5.8,0,11.5-2.8,15-6.9
			c4.4-5.4,5.5-13.5,5.5-23.4v-11.9c0-14.9,0-17.5-0.2-20.6c-0.2-3.2-1-4.8-4.1-5.4c-0.8-0.2-2.4-0.3-3.2-0.3
			c-0.4,0-0.8-0.2-0.8-0.6c0-0.6,0.5-0.8,1.5-0.8c4.3,0,9.5,0.3,10.1,0.3c0.7,0,5.1-0.3,8-0.3c1,0,1.5,0.2,1.5,0.8
			c0,0.4-0.4,0.6-0.8,0.6c-0.7,0-1.2,0.1-2.4,0.3c-2.6,0.6-3.3,2.1-3.5,5.4c-0.2,3.1-0.2,5.7-0.2,20.6v10.2
			c0,10.3-1.1,21.7-8.8,28.5c-6.9,6.1-14,7.1-19.6,7.1c-3.2,0-12.9-0.4-19.6-6.8c-4.7-4.5-8.3-11.2-8.3-25.1v-13.9
			c0-14.9,0-17.5-0.2-20.6c-0.2-3.2-1-4.8-4.1-5.4c-0.8-0.2-2.4-0.3-3.2-0.3c-0.4,0-0.8-0.2-0.8-0.6c0-0.6,0.5-0.8,1.5-0.8
			c4.3,0,10.1,0.3,11,0.3c0.9,0,6.6-0.3,9.4-0.3c1,0,1.5,0.2,1.5,0.8c0,0.4-0.4,0.6-0.8,0.6c-0.7,0-1.2,0.1-2.4,0.3
			c-2.6,0.4-3.3,2.1-3.5,5.4c-0.2,3.1-0.2,5.7-0.2,20.6V126.6z"/>
		<path class="st0" d="M924,145.3c0.4,3.4,1,8.8,5.1,10.1c2.8,0.9,5,0.9,5.9,0.9c0.5,0,1,0.1,1,0.6c0,0.6-0.3,0.8-1.4,0.8
			c-2.1,0-13-0.3-16.5-0.6c-2.2-0.2-2.7-0.5-2.7-1c0-0.4,0.2-0.5,0.7-0.7c0.7-0.3,0.6-1.7,0.4-3.4l-4.6-49.8l-23.6,50.1
			c-2,4.2-2.3,5.1-3.1,5.1c-0.7,0-1.1-1-3-4.4c-2.5-4.7-10.7-21.2-11.2-22.1c-0.9-1.7-11.8-25.3-12.9-27.8l-3.9,44.9
			c-0.1,1.5-0.2,2.9-0.2,4.5c0,2.4,1.1,3.1,2.6,3.4c1.6,0.4,2.9,0.4,3.4,0.4s1,0.2,1,0.5c0,0.7-0.5,0.9-1.4,0.9
			c-3.5,0-8.4-0.3-9.2-0.3c-0.9,0-5.4,0.3-8,0.3c-1,0-1.6-0.1-1.6-0.8c0-0.4,0.5-0.6,1-0.6c0.8,0,1.4,0,2.9-0.3
			c3.1-0.6,3.3-4,3.8-7.9l6.9-62c0.1-1,0.5-1.9,1-1.9c0.6,0,1,0.4,1.4,1.4l29.2,60l28-59.9c0.4-0.9,0.8-1.5,1.4-1.5s1,0.8,1.1,2.6
			L924,145.3z"/>
	</g>
</g>
</svg>
