<svg id="65c1170e-14c7-44c6-9004-e315398af31d" data-name="Layer 1" xmlns="http://www.w3.org/2000/svg" viewBox="0 0 421.06 361.96"><title>logo-BKCM</title><g id="7748dfc9-dc33-462c-9baa-7004e428ce46" data-name="Layer 2"><g id="94a57b3e-10ad-4ee9-b8d2-8d01366d618b" data-name="Layer 1-2"><path d="M173.35,308v-.21q0-7.56-3.77-11.82a25.75,25.75,0,0,0-10.37-6.75,21.2,21.2,0,0,0,3.84-2.59,17.36,17.36,0,0,0,3.13-3.5,17.81,17.81,0,0,0,2.16-4.48,18.74,18.74,0,0,0,.8-5.72v-.22a17.28,17.28,0,0,0-6.63-14.25q-6.64-5.28-18.3-5.28H109.13v75.55h36a48.17,48.17,0,0,0,11.6-1.3,27,27,0,0,0,9-3.88,17.67,17.67,0,0,0,5.72-6.48,19.64,19.64,0,0,0,2-9.07Zm-20.72-32.27a6.52,6.52,0,0,1-3.24,6.1,17.32,17.32,0,0,1-8.74,1.89H125.32v-16h16.41c3.53,0,6.22.66,8.09,2a6.63,6.63,0,0,1,2.81,5.78v.23ZM156.84,306a6.81,6.81,0,0,1-3.13,6.21c-2.09,1.33-5,2-8.63,2H125.32V297.58h19.22c4.31,0,7.44.73,9.39,2.21a7.14,7.14,0,0,1,2.91,6Z" style="fill:#0091cd"/><polygon points="255.82 328.77 223.65 285.27 254.41 253.22 234.34 253.22 203.69 286.24 203.69 253.22 187.06 253.22 187.06 328.77 203.69 328.77 203.69 305.67 212.43 296.6 235.85 328.77 255.82 328.77" style="fill:#0091cd"/><path d="M332.23,316.57l-10.58-10.68a42.57,42.57,0,0,1-8.9,6.47,23,23,0,0,1-11,2.38,20.78,20.78,0,0,1-15.81-7,24.17,24.17,0,0,1-4.48-7.55,25.93,25.93,0,0,1-1.62-9.18v-.21a25.61,25.61,0,0,1,1.62-9.12,23.82,23.82,0,0,1,4.53-7.51,20.92,20.92,0,0,1,15.76-6.9,23,23,0,0,1,10.31,2.26,40,40,0,0,1,9,6.26l10.58-12.19a45.45,45.45,0,0,0-5.61-4.75,34.85,34.85,0,0,0-6.59-3.67,40.47,40.47,0,0,0-7.93-2.38,50.45,50.45,0,0,0-9.66-.86,40.45,40.45,0,0,0-16,3.08,37.57,37.57,0,0,0-12.42,8.41,39.31,39.31,0,0,0-11,27.58v.22a39.89,39.89,0,0,0,2.91,15.22A37.25,37.25,0,0,0,285.82,327a38.93,38.93,0,0,0,15.43,3,49.4,49.4,0,0,0,9.93-.91,36.1,36.1,0,0,0,8.15-2.7,35.38,35.38,0,0,0,6.85-4.27A53,53,0,0,0,332.23,316.57Z" style="fill:#939598"/><polygon points="421.06 328.77 421.06 253.22 403.14 253.22 383.28 285.16 363.42 253.22 345.51 253.22 345.51 328.77 361.8 328.77 361.8 279.77 382.85 311.71 383.28 311.71 404.55 279.44 404.55 328.77 421.06 328.77" style="fill:#939598"/><path d="M380.66,361.62v-4.19H370.21V340.68H365.6v20.94Zm18.52,0v-4.19H388.74V340.68h-4.61v20.94Zm21.88-3.38-2.94-3a12.05,12.05,0,0,1-2.46,1.8,6.6,6.6,0,0,1-3,.65,5.78,5.78,0,0,1-4.39-1.94,6.66,6.66,0,0,1-1.24-2.1,7.08,7.08,0,0,1-.45-2.54v-.06a7.07,7.07,0,0,1,.45-2.53,6.51,6.51,0,0,1,1.26-2.08,5.57,5.57,0,0,1,1.93-1.4,5.87,5.87,0,0,1,2.44-.51,6.55,6.55,0,0,1,2.86.62,11,11,0,0,1,2.49,1.74l2.94-3.38a12.37,12.37,0,0,0-1.56-1.32,9.76,9.76,0,0,0-1.82-1,12.08,12.08,0,0,0-2.2-.65,13.36,13.36,0,0,0-2.68-.24,11.2,11.2,0,0,0-4.43.85,10.48,10.48,0,0,0-3.44,2.33,10.91,10.91,0,0,0-3.06,7.65v.06a11.08,11.08,0,0,0,.81,4.22,10.47,10.47,0,0,0,2.25,3.43,10.61,10.61,0,0,0,3.41,2.29,11,11,0,0,0,4.28.83,13.4,13.4,0,0,0,2.75-.25,9.93,9.93,0,0,0,4.16-1.93A15.9,15.9,0,0,0,421.06,358.24Z" style="fill:#939598"/><polygon points="345.28 345.28 85.78 345.28 54.86 345.28 54.86 54.86 345.28 54.86 345.28 237.16 361.66 237.16 361.66 38.48 38.48 38.48 38.48 361.66 361.66 361.66 361.66 345.28 345.28 345.28" style="fill:#939598"/><polygon points="19.24 19.24 312.52 19.24 312.52 38.48 328.9 38.48 328.9 19.24 328.9 0 312.52 0 0 0 0 312.65 0 328.97 19.24 328.97 38.48 328.97 38.48 312.65 19.24 312.65 19.24 19.24" style="fill:#0091cd"/></g></g></svg>