<svg id="4574b551-987c-485f-94e9-e5eb35e8c9a4" data-name="Layer 1" xmlns="http://www.w3.org/2000/svg" viewBox="0 0 551.02 86.36"><title>autonomos</title><path d="M66.47,91.48a32.71,32.71,0,0,1-4.72-.4,17.16,17.16,0,0,1-10.63-5.79,17.66,17.66,0,0,1-4.37-9.5C46,69.91,47.81,64.68,51,59.87A38.39,38.39,0,0,1,65.53,47a38.8,38.8,0,0,1,13.65-4.13,48.34,48.34,0,0,1,6.59-.22.74.74,0,0,1,.77.5,25.51,25.51,0,0,1,2.38,9.89c0,1.06-.11,2.13-.16,3.2,0,.69-.51.84-1.06.88a26.68,26.68,0,0,0-9.51,2.45A27.39,27.39,0,0,0,69.55,66a22.48,22.48,0,0,0-5.63,11.41,20.92,20.92,0,0,0,.24,10.13A12.67,12.67,0,0,0,66.47,91.48Z" transform="translate(-9.58 -14.88)" style="fill:#bbb"/><path d="M69.58,29.87A11.15,11.15,0,0,1,71,27.52a17.81,17.81,0,0,1,11.63-7.8,18,18,0,0,1,16.4,5.06,29.74,29.74,0,0,1,8.41,15.78,39.42,39.42,0,0,1-5.3,30.25c-.25.4-.47.71-1.06.65a24.82,24.82,0,0,1-11.85-4.3c-.77-.54-1-1-.57-2,3.34-7.47,3.67-15.08.24-22.56a23,23,0,0,0-14-12.51,8.66,8.66,0,0,0-4.08-.35C70.45,29.84,70.09,29.84,69.58,29.87Z" transform="translate(-9.58 -14.88)" style="fill:#83a011"/><path d="M121.38,63.38a22.29,22.29,0,0,1,2.79,6.72,18,18,0,0,1-11.89,21,29.4,29.4,0,0,1-17.85.14A39,39,0,0,1,70.8,73.19c-.19-.32-.39-.63-.57-1-1.2-2.18-1.22-1.49.22-3.37a23.09,23.09,0,0,1,9-7.15,1.09,1.09,0,0,1,1.62.44,26.94,26.94,0,0,0,19.15,11.65,22.92,22.92,0,0,0,13.39-2.61,16.62,16.62,0,0,0,6.16-4.8A16.8,16.8,0,0,0,121.38,63.38Z" transform="translate(-9.58 -14.88)" style="fill:#908e8f"/><path d="M400.19,75.51c1.86-6.58,3.68-13.06,5.54-19.64-3.06,0-6,0-9,0-.47,0-.53.31-.62.64-1.21,4.3-2.42,8.58-3.63,12.87-.5,1.79-1,3.58-1.51,5.38a.87.87,0,0,1-1,.77c-2.78,0-5.57,0-8.35,0-.52,0-.78,0-.59-.69q3.56-12.46,7-24.94c.13-.45.34-.61.77-.57a2.29,2.29,0,0,0,.37,0h40.19a5.63,5.63,0,0,1,4.17,1.3,4.9,4.9,0,0,1,1.38,5c-1.22,4.6-2.54,9.17-3.82,13.76-.5,1.79-1,3.58-1.49,5.38a.81.81,0,0,1-.95.72q-4.12,0-8.25,0c-.72,0-.91-.13-.69-.88,1.48-5.13,2.92-10.27,4.37-15.41.31-1.08.6-2.17.93-3.36h-1.88c-2.26,0-4.53,0-6.79,0a.81.81,0,0,0-1,.69c-1.64,5.91-3.33,11.81-4.94,17.73a1.4,1.4,0,0,1-1.67,1.25C406,75.46,403.14,75.51,400.19,75.51Z" transform="translate(-9.58 -14.88)" style="fill:#7b797a"/><path d="M473.42,75.46c.53-1.89,1.06-3.73,1.56-5.58.13-.51.49-.45.85-.45h5.23c7,0,14.07,0,21.11,0,.74,0,1.09-.18,1.23-1a14.46,14.46,0,0,1,.72-2.55c.28-.75.08-.93-.69-.93-5.51,0-11,0-16.52,0a12.46,12.46,0,0,1-5.13-.61c-2.93-1.28-4-3.13-3.41-6.25a10.3,10.3,0,0,1,7.74-8.62,8.51,8.51,0,0,1,2.36-.27h30.46c.21,0,.42,0,.7.05-.56,2-1.12,4-1.66,5.94a.49.49,0,0,1-.55.38h-.82q-12.94,0-25.88,0c-.73,0-1.13.15-1.24.93a7.63,7.63,0,0,1-.51,1.75c-.29.73-.12,1,.68,1,3,0,6,0,9,0,3.27,0,6.54,0,9.82,0a8.47,8.47,0,0,1,5.26,1.57,3.63,3.63,0,0,1,1.49,3.71,27,27,0,0,1-1.11,4.24,10,10,0,0,1-9.59,6.69c-10.18.05-20.37,0-30.55,0C473.81,75.5,473.66,75.48,473.42,75.46Z" transform="translate(-9.58 -14.88)" style="fill:#7b797a"/><path d="M159.82,49.16c3.94,0,7.89,0,11.83,0,1.67,0,3.3.15,4.53,1.54a5.16,5.16,0,0,1,1.11,5c-1,3.89-2.16,7.76-3.25,11.64-.7,2.49-1.43,5-2.11,7.49-.16.62-.4.87-1.09.86-2.72,0-5.45-.06-8.17,0-.88,0-.91-.25-.69-1,.67-2.25,1.24-4.53,1.91-6.79.18-.61.05-.72-.54-.72-5.78,0-11.56,0-17.34,0-.58,0-.77.23-.91.74-.64,2.33-1.33,4.64-1.95,7-.15.56-.34.79-1,.79q-4.27-.06-8.53,0c-.61,0-.8-.11-.62-.75,1.82-6.33,3.57-12.69,5.45-19a9.65,9.65,0,0,1,9.41-6.81C151.87,49.15,155.85,49.16,159.82,49.16Z" transform="translate(-9.58 -14.88)" style="fill:#7b797a"/><path d="M332.06,55.87h-1c-5.56,0-11.13,0-16.69,0-.67,0-1,.11-1.2.85-1.67,6-3.41,12-5.1,18.06-.14.51-.33.76-.92.75-2.81,0-5.63,0-8.44,0-.6,0-.72-.13-.55-.72q3.49-12.27,7-24.57c.18-.64.41-.94,1.16-.93q15.18,0,30.36,0c2.26,0,4.09.7,5.12,2.84a5.78,5.78,0,0,1,.16,4.21c-1.71,6.11-3.45,12.22-5.15,18.33-.17.59-.39.84-1.06.83-2.78,0-5.56,0-8.34,0-.68,0-.81-.13-.61-.82,1.71-6,3.37-11.92,5.05-17.88C331.91,56.53,332,56.24,332.06,55.87Z" transform="translate(-9.58 -14.88)" style="fill:#7b797a"/><path d="M220.71,49.32l-1.91,6.76c-1.15,4.11-2.29,8.22-3.47,12.33A9.83,9.83,0,0,1,206,75.5q-11.92,0-23.84,0a5.73,5.73,0,0,1-4.32-1.42,4.8,4.8,0,0,1-1.23-4.9c1.17-4.36,2.42-8.7,3.63-13.05.57-2,1.17-4.05,1.7-6.09.16-.6.45-.74,1-.74,2.72,0,5.44,0,8.16,0,.77,0,.84.22.65.9-1.69,5.9-3.34,11.8-5,17.7-.29,1.06-.3,1.06.76,1.06,5.56,0,11.12,0,16.69,0a1,1,0,0,0,1.18-.88c1.65-5.93,3.37-11.85,5-17.79a1.17,1.17,0,0,1,1.39-1C214.75,49.35,217.68,49.32,220.71,49.32Z" transform="translate(-9.58 -14.88)" style="fill:#7b797a"/><path d="M242.35,49.32h18.07c1.11,0,1.1,0,.8,1-.46,1.58-.94,3.15-1.35,4.75a.9.9,0,0,1-1.06.8c-3.89,0-7.77,0-11.65,0-.87,0-1.24.2-1.49,1.09-1.6,5.86-3.3,11.69-4.92,17.54a1.16,1.16,0,0,1-1.36,1c-3-.06-6,0-9.08,0-.76,0-.84-.18-.64-.89,1.72-6,3.38-12,5.1-18,.2-.7,0-.81-.63-.8-3.91,0-7.82,0-11.74,0-.78,0-1-.11-.74-.94.51-1.56,1-3.15,1.36-4.75a1,1,0,0,1,1.17-.9C230.25,49.33,236.3,49.32,242.35,49.32Z" transform="translate(-9.58 -14.88)" style="fill:#7b797a"/><path d="M24.37,98.09c3.32.74,6.69.56,10,.56q251,0,501.91,0c8.93,0,15.49-4.25,19.57-12.19a20.07,20.07,0,0,0,2.12-9.3q0-21.19,0-42.39a39,39,0,0,0-.57-5.06c.43-.15.44-.16.64.36a18.23,18.23,0,0,1,.72,3.11,19.15,19.15,0,0,1,.21,3.47q0,20.48,0,40.95a26.21,26.21,0,0,1-.77,6.79,2,2,0,0,1-.11.35,22.2,22.2,0,0,1-3.88,7.21,21.43,21.43,0,0,1-9.15,6.49,23.19,23.19,0,0,1-8,1.25H31a21.07,21.07,0,0,1-5.7-.78C24.9,98.77,24.36,98.73,24.37,98.09Z" transform="translate(-9.58 -14.88)" style="fill:#555"/><path d="M549.76,17.91a30.36,30.36,0,0,0-5-3A7.6,7.6,0,0,1,548,16,22.62,22.62,0,0,1,560.6,36.39c0,14.28,0,28.57,0,42.85a21.38,21.38,0,0,1-4.42,12.92,22.18,22.18,0,0,1-13.39,8.6,17.8,17.8,0,0,1-3.79.48q-254.5,0-509,0a21.17,21.17,0,0,1-13.61-5.28A22.57,22.57,0,0,1,10.88,89a8.91,8.91,0,0,1-1.3-3.59,35.12,35.12,0,0,0,3.57,5.72,7.22,7.22,0,0,0,1.75,2.17A19.72,19.72,0,0,0,22,98.48a21.54,21.54,0,0,0,9.07,1.94H537.48a22.4,22.4,0,0,0,11.54-3,2.85,2.85,0,0,1,.52-.33,3.62,3.62,0,0,0,1.39-.91,4.45,4.45,0,0,1,1-.81,11.62,11.62,0,0,0,2.82-2.82,4.28,4.28,0,0,1,.76-1,2.41,2.41,0,0,0,.88-1.31,3.73,3.73,0,0,1,.68-1.11,20.75,20.75,0,0,0,2.57-7.86,36.23,36.23,0,0,0,.16-4.66q0-20.31,0-40.62a20.55,20.55,0,0,0-3-10.78,1.36,1.36,0,0,1-.34-.48,2.47,2.47,0,0,0-.89-1.35,4.44,4.44,0,0,1-.77-1,13,13,0,0,0-2.8-2.84,1,1,0,0,1-.28-.25A5.28,5.28,0,0,0,549.76,17.91Z" transform="translate(-9.58 -14.88)" style="fill:#dcdcdc"/><path d="M458.92,49.32H471c2.19,0,4,.68,5,2.82a5.78,5.78,0,0,1,.21,4c-.39,1.54-.85,3.06-1.26,4.59a.69.69,0,0,1-.78.59c-2.87,0-5.74,0-8.62,0-.65,0-.69-.25-.53-.78.4-1.31.75-2.64,1.14-4,.15-.48.21-.76-.5-.75q-8.66,0-17.33,0a.71.71,0,0,0-.81.63c-.38,1.38-.79,2.76-1.16,4.14a.82.82,0,0,1-.95.72c-2.81,0-5.62,0-8.44,0-.27,0-.79.18-.6-.45.69-2.27,1-4.7,2.24-6.75a9.35,9.35,0,0,1,8.24-4.8C450.91,49.29,454.92,49.32,458.92,49.32Z" transform="translate(-9.58 -14.88)" style="fill:#84a011"/><path d="M444,69h2.58c5.08,0,10.15,0,15.22,0,.68,0,1-.2,1.12-.85.33-1.33.75-2.64,1.09-4a.77.77,0,0,1,.89-.68q4.26,0,8.52,0c.59,0,.76.12.56.72-.69,2.14-.95,4.44-2.15,6.4a9.43,9.43,0,0,1-8.37,4.89c-8,0-16,0-24,0-2.18,0-4.05-.62-5-2.8a5.74,5.74,0,0,1-.19-4c.41-1.53.85-3.05,1.25-4.59.12-.49.39-.61.85-.61,2.84,0,5.69,0,8.53,0,.64,0,.69.2.52.76C444.93,65.75,444.52,67.29,444,69Z" transform="translate(-9.58 -14.88)" style="fill:#7b797a"/><path d="M364.1,55.87c-2.78,0-5.57,0-8.35,0-.83,0-1.09.3-1.27,1-.3,1.28-.73,2.52-1.05,3.8a.76.76,0,0,1-.88.68q-4.26,0-8.53,0c-.59,0-.66-.21-.51-.7.48-1.58.87-3.18,1.41-4.74a9.58,9.58,0,0,1,9.27-6.59h23.75c4.29,0,6.43,2.84,5.36,7-.39,1.48-.86,2.93-1.23,4.41a.72.72,0,0,1-.83.63c-2.84,0-5.69,0-8.53,0-.73,0-.72-.29-.56-.81.38-1.29.7-2.6,1.12-3.87.23-.71,0-.82-.65-.81-1.43,0-2.87,0-4.3,0Z" transform="translate(-9.58 -14.88)" style="fill:#84a013"/><path d="M283.36,49.31h12.11c4.17.07,6.32,2.88,5.27,6.91-.4,1.51-.87,3-1.26,4.5a.73.73,0,0,1-.84.62c-2.84,0-5.68,0-8.52,0-.62,0-.74-.17-.57-.74.41-1.34.75-2.7,1.17-4,.16-.53.08-.71-.5-.7q-8.7,0-17.42,0c-.52,0-.67.24-.79.67-.38,1.38-.8,2.75-1.15,4.14a.76.76,0,0,1-.89.67q-4.28,0-8.53,0c-.48,0-.69-.1-.53-.63.49-1.6.88-3.24,1.44-4.82a9.57,9.57,0,0,1,9.37-6.58Z" transform="translate(-9.58 -14.88)" style="fill:#84a012"/><path d="M358.6,75.5c-4,0-7.94,0-11.92,0a5.49,5.49,0,0,1-4-1.19,5.06,5.06,0,0,1-1.5-5.1c.4-1.72.95-3.41,1.4-5.12a.69.69,0,0,1,.76-.6c2.87,0,5.75,0,8.62,0,.58,0,.67.19.51.7-.41,1.34-.76,2.7-1.18,4-.15.5-.19.76.49.75q8.67,0,17.33,0a.74.74,0,0,0,.87-.68c.35-1.36.78-2.7,1.13-4.06.14-.51.33-.76.92-.75,2.84,0,5.69,0,8.53,0,.36,0,.78-.08.59.56-.53,1.72-.92,3.49-1.56,5.16a9.66,9.66,0,0,1-9.32,6.29C366.37,75.51,362.48,75.5,358.6,75.5Z" transform="translate(-9.58 -14.88)" style="fill:#7a7879"/><path d="M276,75.5c-3.95,0-7.89,0-11.83,0a5.56,5.56,0,0,1-4-1.18,5.11,5.11,0,0,1-1.5-5.19c.38-1.69.94-3.34,1.37-5,.13-.49.39-.61.85-.61q4.26,0,8.52,0c.56,0,.69.16.53.69-.42,1.37-.78,2.76-1.2,4.13-.16.52-.05.67.52.67q8.65,0,17.32,0a.76.76,0,0,0,.89-.67c.36-1.42.81-2.81,1.18-4.23a.66.66,0,0,1,.76-.58h8.71c.37,0,.69,0,.5.54-.57,1.71-.87,3.49-1.53,5.17a9.77,9.77,0,0,1-9.24,6.3C283.84,75.51,279.9,75.5,276,75.5Z" transform="translate(-9.58 -14.88)" style="fill:#7b797a"/><path d="M16.87,94.58c1.12,1,2.59,1.43,3.83,2.24a1,1,0,0,0,.37.27,23,23,0,0,0,9.67,2.49q253.74,0,507.49,0A20.79,20.79,0,0,0,558,85c0-.15,0-.31.08-.45h0a14.3,14.3,0,0,0,.88-4.92q0-22.14,0-44.3a14.21,14.21,0,0,0-1.4-6.37,24.23,24.23,0,0,0-1.5-3.33L553.78,22c.39-.41.62,0,.82.21a21.77,21.77,0,0,1,5.16,14.15c0,14.34,0,28.69,0,43a19.82,19.82,0,0,1-3,10.34,22,22,0,0,1-4.06,5,20.29,20.29,0,0,1-13.77,5.63q-254.38,0-508.77,0a20.1,20.1,0,0,1-10-2.88,18.3,18.3,0,0,1-3-2.09C16.86,95.21,16.37,95,16.87,94.58Z" transform="translate(-9.58 -14.88)" style="fill:#888"/><path d="M16.87,94.58c-.27.33.09.44.24.56A22.26,22.26,0,0,0,27.82,100a27.91,27.91,0,0,0,4.38.17H501c12.57,0,25.14,0,37.71,0a20.22,20.22,0,0,0,14-5.81,21.67,21.67,0,0,0,6.71-13.37,10.28,10.28,0,0,0,0-1.47V36A20.77,20.77,0,0,0,555,23.09c-.33-.43-.49-1.11-1.23-1.12l-2.4-2.76a.27.27,0,0,1,.4,0l.18.18a29.14,29.14,0,0,1,2.94,2.94l.73.92c.32.41.59.87.92,1.28l.19.37A22.67,22.67,0,0,1,560,36.72c0,14.07,0,28.13,0,42.2a20.53,20.53,0,0,1-2.54,9.89c-.12.22-.17.46-.29.67a2,2,0,0,0-.55.92c-.33.41-.6.87-.92,1.29l-.73.91A29.14,29.14,0,0,1,552,95.54l-.9.74c-.43.3-.88.58-1.3.91l-.35.19a22.69,22.69,0,0,1-11,3.21q-253.89,0-507.76,0a21.51,21.51,0,0,1-9-2.09,17.23,17.23,0,0,1-5.26-3.36,18.45,18.45,0,0,1-3.05-3.37c-.11-.16-.46-.31-.15-.59A36.51,36.51,0,0,0,16.87,94.58Z" transform="translate(-9.58 -14.88)" style="fill:#b6b6b6"/><path d="M558,84.54a.83.83,0,0,1,0,.78,21,21,0,0,1-9.14,11.38,20.27,20.27,0,0,1-9,2.92c-.73,0-1.45.14-2.18.14H31.27a21.87,21.87,0,0,1-10-2.4c-.21-.11-.66-.07-.54-.54l3.67,1.27c.09.26.31.34.56.42a22.18,22.18,0,0,0,4.92.88c.3,0,.61,0,.92,0q253.72,0,507.47,0A20,20,0,0,0,551,94.83a21,21,0,0,0,6.37-8.55A5.77,5.77,0,0,1,558,84.54Z" transform="translate(-9.58 -14.88)" style="fill:#636363"/><path d="M65.61,43.76c.27-2.92.54-5.78,1.93-8.37,1.5-2.79,4.28-3.67,7.57-2.45a19.21,19.21,0,0,1,5.66,3.48c.39.33.56.54.1,1a4.53,4.53,0,0,0-1.23,2.22.91.91,0,0,1-.91.8,41.71,41.71,0,0,0-12.79,3.32A1.62,1.62,0,0,1,65.61,43.76Z" transform="translate(-9.58 -14.88)" style="fill:#637b0d"/><path d="M80.44,87.79a23,23,0,0,1-7.06,2.49A5.82,5.82,0,0,1,68,88.86a7.1,7.1,0,0,1-1.83-4,20.37,20.37,0,0,1,.21-6.47c.08-.51.23-.66.77-.54a5.49,5.49,0,0,0,2.64,0c.35-.08.68-.16,1,.24A41.22,41.22,0,0,0,80.44,87.79Z" transform="translate(-9.58 -14.88)" style="fill:#7b797a"/><path d="M111.23,53a22,22,0,0,1,5.62,4.77c2.58,3.22,2.2,6.34-1.06,9a18.49,18.49,0,0,1-5.89,3.1c-.39.13-.53.08-.63-.32a5.76,5.76,0,0,0-1.5-2.49c-.21-.23-.38-.43-.21-.79A42.65,42.65,0,0,0,111.23,53Z" transform="translate(-9.58 -14.88)" style="fill:#646263"/><path d="M493.17,87.19c1.32,1.07,1.2,2.85-.26,4.41a3.61,3.61,0,0,1-2.62,1.13c-2.81.07-5.62,0-8.43.06-.41,0-.46-.15-.36-.48l3-9.62c.1-.31.24-.52.63-.52,2.6,0,5.19,0,7.78.08,1,0,1.94.17,2.3,1.29a3.84,3.84,0,0,1-1.29,3.25A8.13,8.13,0,0,1,493.17,87.19Z" transform="translate(-9.58 -14.88)" style="fill:#7b797a"/><path d="M503,92.74c-1.13,0-2.27.08-3.39,0-1.64-.14-2.27-1-1.87-2.43.09-.31.19-.48.54-.47.55,0,1.1,0,1.65,0,.18,0,.4,0,.47.2.25.82.91.78,1.56.77h3.86a1.91,1.91,0,0,0,1.28-.41,1.34,1.34,0,0,0,.56-1.45c-.17-.51-.72-.52-1.17-.52-1.5,0-3,0-4.5,0-2.47,0-3.07-.85-2.36-3.2a3.73,3.73,0,0,1,3.41-2.86,36.35,36.35,0,0,1,6.68,0,1.85,1.85,0,0,1,1.66,2.79,5.16,5.16,0,0,1-2.3.08c-.46-1.56-1.74-.82-2.67-.94a20,20,0,0,0-2.57,0,1.7,1.7,0,0,0-1.35.45,1.27,1.27,0,0,0-.39,1.33c.18.47.65.38,1,.39,1.95.05,3.91-.1,5.86.12,1.13.13,1.54.63,1.44,1.78a4.47,4.47,0,0,1-4.78,4.5c-.89,0-1.78,0-2.66,0Z" transform="translate(-9.58 -14.88)" style="fill:#7b797a"/><path d="M463.27,92.65l5.86-7c.85-1,1.69-2,2.53-3,.2-.24.37-.47.74-.46,1,0,2,0,2.93,0,.43,0,.5.26.57.56L478,92.29c.08.35,0,.53-.4.5-.15,0-.3,0-.45,0-2,0-2,0-2.4-2-.11-.57-.34-.76-.91-.74-1.59,0-3.18,0-4.76,0a1.13,1.13,0,0,0-1.16.55c-.07.13-.22.22-.29.35A3.39,3.39,0,0,1,463.27,92.65Z" transform="translate(-9.58 -14.88)" style="fill:#7b797a"/><path d="M450.83,92.79c1.05-3.42,2.08-6.71,3.06-10,.18-.61.55-.62,1-.62,1.69,0,1.7,0,1.22,1.56-.64,2.1-1.28,4.2-2,6.28-.18.57-.1.74.53.72,1.68,0,3.36,0,5,0,.6,0,.75.15.58.75-.38,1.32-.35,1.33-1.77,1.33Z" transform="translate(-9.58 -14.88)" style="fill:#7b797a"/><path d="M556,25.62c.78.42.9,1.27,1.21,2a23.12,23.12,0,0,1,1.92,9.86c0,13.93,0,27.86,0,41.79a21.05,21.05,0,0,1-.71,4.86c0,.23-.1.42-.36.45.07-1.27.56-2.48.61-3.76,0-.39.1-.78.1-1.18q0-22.23,0-44.45a20.88,20.88,0,0,0-1-5.36c0-.15-.16-.27-.34-.11Z" transform="translate(-9.58 -14.88)" style="fill:#676767"/><path d="M551.78,19.2h-.4l-1.62-1.3C550.71,17.91,551.18,18.65,551.78,19.2Z" transform="translate(-9.58 -14.88)" style="fill:#b9b9b9"/><path d="M156.33,61.6c-2.84,0-5.69,0-8.53,0-.81,0-.89-.21-.66-.92.47-1.42.87-2.86,1.26-4.31a.71.71,0,0,1,.83-.62c5.81,0,11.62,0,17.42,0,.69,0,.66.24.5.75-.44,1.46-.88,2.92-1.26,4.4a.8.8,0,0,1-.94.71C162.08,61.58,159.2,61.6,156.33,61.6Z" transform="translate(-9.58 -14.88)" style="fill:#fefefe"/><path d="M21.61,98.48c1.26.22,2.39.87,3.63,1.2a22.79,22.79,0,0,0,5.85.8q195.2,0,390.38,0,57.88,0,115.78,0a22.24,22.24,0,0,0,10.9-2.58,3.35,3.35,0,0,1,1.26-.53,12.48,12.48,0,0,1-4,2,21.09,21.09,0,0,1-7.51,1.3H31.1a22.29,22.29,0,0,1-8.72-1.74A6.8,6.8,0,0,1,21.61,98.48Z" transform="translate(-9.58 -14.88)" style="fill:#b9b9b9"/><path d="M557.1,89.48a23.17,23.17,0,0,1,1.29-3.09,21.22,21.22,0,0,0,1.29-5.67c.39-5.92.12-11.84.16-17.76,0-8.52,0-17.05,0-25.57a24,24,0,0,0-2.22-10.62,8.33,8.33,0,0,1-.9-1.88,12.08,12.08,0,0,1,2,3.95,20.87,20.87,0,0,1,1.3,7.51c0,14.4,0,28.79,0,43.19A18.46,18.46,0,0,1,557.1,89.48Z" transform="translate(-9.58 -14.88)" style="fill:#b9b9b9"/><path d="M552,95.54a29.14,29.14,0,0,1,2.94-2.94A9.27,9.27,0,0,1,552,95.54Z" transform="translate(-9.58 -14.88)" style="fill:#b9b9b9"/><path d="M554.9,22.32A27.2,27.2,0,0,1,552,19.38,9.27,9.27,0,0,1,554.9,22.32Z" transform="translate(-9.58 -14.88)" style="fill:#b9b9b9"/><path d="M555.63,91.69a2.24,2.24,0,0,1,.92-1.29A2.19,2.19,0,0,1,555.63,91.69Z" transform="translate(-9.58 -14.88)" style="fill:#b9b9b9"/><path d="M549.76,97.19a2.16,2.16,0,0,1,1.3-.91A2.23,2.23,0,0,1,549.76,97.19Z" transform="translate(-9.58 -14.88)" style="fill:#b9b9b9"/><path d="M556.55,24.52a2.22,2.22,0,0,1-.92-1.28A2.13,2.13,0,0,1,556.55,24.52Z" transform="translate(-9.58 -14.88)" style="fill:#b9b9b9"/><path d="M487.5,90.79c-.79,0-1.58,0-2.38,0-.46,0-.56-.14-.44-.59.47-1.81.45-1.82,2.31-1.82,1.07,0,2.14,0,3.21,0,.53,0,1.25-.21,1.37.63a1.63,1.63,0,0,1-1.41,1.72c-.88.05-1.77,0-2.66,0Z" transform="translate(-9.58 -14.88)" style="fill:#fdfdfd"/><path d="M488.61,86.51c-.7,0-1.4,0-2.1,0-.45,0-.66,0-.5-.61.49-1.7.46-1.71,2.21-1.71.95,0,1.89,0,2.84,0,.57,0,1.32-.19,1.43.71a1.73,1.73,0,0,1-1.42,1.57l-.18,0Z" transform="translate(-9.58 -14.88)" style="fill:#fcfcfc"/><path d="M473.35,84.08c.26,1.33.47,2.45.7,3.57.07.32,0,.48-.34.48h-3.77C471.13,86.71,472.17,85.47,473.35,84.08Z" transform="translate(-9.58 -14.88)" style="fill:#fbfbfb"/></svg>