<?xml version="1.0" encoding="utf-8"?>
<!-- Generator: Adobe Illustrator 22.0.0, SVG Export Plug-In . SVG Version: 6.00 Build 0)  -->
<svg version="1.1" id="Layer_1" xmlns="http://www.w3.org/2000/svg" xmlns:xlink="http://www.w3.org/1999/xlink" x="0px" y="0px"
	 viewBox="0 0 321.4 63.9" style="enable-background:new 0 0 321.4 63.9;" xml:space="preserve">
<style type="text/css">
	.st0{fill:#FFFFFF;}
</style>
<g id="HTp1Ag.tif_1_">
	<g>
		<path class="st0" d="M189.6,28.4c3.6-0.5,3.6-0.5,3.6-4.1c0-6.9,0-13.7,0-20.6c0-1.5,0.4-2.1,2-2c4.9,0.1,9.8,0,14.7,0.1
			c6.1,0.1,8.5,2.3,8.5,8.4c0.1,15,0.1,29.9,0,44.9c0,6-2.3,8.2-8.3,8.3c-5,0.1-9.9,0-14.9,0.1c-1.6,0-2-0.6-2-2.1
			c0.1-7.2,0-14.4,0.1-21.6c0-1.8-0.1-3-2.4-2.8c-0.4,0-1.1-0.8-1.2-1.2C189.5,33.4,189.6,30.9,189.6,28.4z M202.6,37.3
			c0,5.5,0,10.8,0,16.2c0,0.3,0.3,0.8,0.6,1c2.9,1.5,5.8-0.3,5.8-3.5c0-11.9,0-23.8,0-35.6c0-4.8,0-4.8-4.8-4.6
			c-1.3,0-1.6,0.6-1.6,1.8c0,2.7,0,5.4,0,8.2c0,2.4,0,4.9,0,7.3c1.5,0.1,2.7,0.2,4,0.3c0,3,0,5.7,0,8.7
			C205.3,37.1,204.1,37.1,202.6,37.3z"/>
		<path class="st0" d="M312.6,22.9c0-3.6,0-6.9,0-10.1c0-1.4-0.4-2.5-2.1-2.5c-1.4,0-2,0.6-2.2,2c-0.5,6.1,0.2,11.7,5.2,16
			c1.8,1.5,3.2,3.5,4.6,5.4c1.9,2.5,3,5.4,3.1,8.6c0.1,4.8,0.2,9.5,0,14.3c-0.2,5-2.4,7.1-7.4,7.3c-2.7,0.1-5.3,0.1-8,0
			c-4.1-0.2-6.4-2-6.6-5.9c-0.3-5.8-0.1-11.7-0.1-17.8c2.7,0,5.4,0,8.4,0c0,0.7,0.1,1.4,0.1,2.2c0,3.5,0,7,0,10.5
			c0,1.4,0.5,2.2,2.1,2.2c1.5,0,2.1-0.7,2.1-2c0-3.2,0-6.4-0.1-9.6c-0.1-2.7-1.7-4.8-3.5-6.8c-1.8-2-3.7-4-5.4-6.2
			c-2.5-3-3.8-6.5-3.9-10.4c-0.1-3.8-0.1-7.6,0.1-11.3c0.3-4.9,2.2-6.8,7-7.2c3.3-0.2,6.6,0,9.8,0.3c2.4,0.2,4.5,1.7,4.7,4.1
			c0.5,5.3,0.5,10.7,0.6,16.1c0,0.3-0.7,0.9-1.1,0.9C317.8,22.9,315.4,22.9,312.6,22.9z"/>
		<path class="st0" d="M8.8,39.9c0,4.4,0,8.5,0,12.6c0,1.4,0.3,2.5,2.1,2.5c1.3,0,2.1-0.5,2.1-1.8c0-3.6,0.3-7.2-0.3-10.7
			c-0.4-2.1-1.9-4.1-3.3-5.9c-1.7-2.3-3.9-4.4-5.7-6.7c-2.2-2.8-3.5-6.1-3.5-9.7C0,16.3-0.1,12.4,0.1,8.4c0.2-4.5,2.1-6.5,6.6-6.9
			c3.3-0.3,6.6-0.2,9.8,0.1c3.3,0.3,5.1,1.9,5.4,5.2c0.5,4.9,0.4,9.9,0.4,14.9c0,0.4-0.8,1.1-1.3,1.1c-2,0.1-4.1,0-6.1,0.1
			c-1.1,0-1.4-0.5-1.4-1.5c0-2.9,0-5.7,0-8.6c0-1.4-0.4-2.5-2.1-2.5c-1.7,0-2.2,0.9-2.2,2.4c0,2.1,0,4.2,0,6.3
			c0.1,2.6,1.3,4.8,3,6.8c1.9,2.2,3.8,4.3,5.7,6.4c2.8,3.3,4.3,7.2,4.4,11.5c0,4.2,0.1,8.4-0.1,12.6c-0.2,5.2-2.4,7.3-7.6,7.5
			c-2.7,0.1-5.5,0.1-8.2-0.1c-3.8-0.3-6-2.1-6.2-5.9C-0.1,52.3,0,46.7,0,41.1c0-0.4,0.8-1.1,1.3-1.1C3.6,39.8,6,39.9,8.8,39.9z"/>
		<path class="st0" d="M41.8,63.4c1.3-14,2.6-27.4,3.9-40.9c0.6-6.3,1.3-12.7,1.8-19c0.1-1.5,0.7-1.9,2.1-1.8c3.1,0.1,6.3,0.1,9.4,0
			c1.3,0,1.8,0.4,2,1.7c1.2,13.2,2.5,26.4,3.8,39.7c0.6,5.9,1.1,11.8,1.7,17.7c0.1,0.7,0,1.5,0,2.6c-2.9,0-5.6,0.1-8.4-0.1
			c-0.4,0-1-1-1.1-1.7c-0.3-2.1-0.4-4.1-0.6-6.4c-1.5,0-2.8-0.1-4.1,0.1c-0.5,0.1-1.2,0.8-1.3,1.3c-0.3,1.7-0.3,3.5-0.5,5.2
			c-0.1,0.5-0.5,1.4-0.8,1.4C47,63.5,44.5,63.4,41.8,63.4z M55.6,46.7c-0.6-10.4-1.3-20.6-1.9-30.8c-0.1,0-0.2,0-0.3,0
			c-0.6,10.2-1.2,20.4-1.8,30.8C53.1,46.7,54.2,46.7,55.6,46.7z"/>
		<path class="st0" d="M220.3,63.5c0.4-4.6,0.8-8.7,1.2-12.9c1.5-15.6,3-31.2,4.5-46.8c0.1-1.6,0.6-2.2,2.3-2.1
			c3.1,0.1,6.2,0.1,9.2,0c1.4,0,1.9,0.5,2,1.9c1.3,14.3,2.7,28.7,4.1,43c0.5,5.5,1,11,1.6,16.8c-3,0-5.9,0-8.7-0.1
			c-0.3,0-0.9-0.8-0.9-1.3c-0.2-1.7-0.4-3.3-0.4-5c-0.1-1.3-0.6-1.8-1.9-1.8c-4.5,0.1-3.6-0.4-4,3.6c-0.4,4.6-0.4,4.6-5,4.6
			C223.1,63.5,221.9,63.5,220.3,63.5z M232.3,16.3c-0.1,0-0.2,0-0.3,0c-0.6,10.1-1.2,20.2-1.8,30.4c1.4,0,2.5,0,3.9,0
			C233.5,36.5,232.9,26.4,232.3,16.3z"/>
		<path class="st0" d="M247.5,2.2c6.2,0,12.1-0.2,18,0.1c2.4,0.1,4,1.9,4.6,4.3c0.2,0.9,0.5,1.9,0.5,2.9c0,8.1,0.2,16.2-0.1,24.3
			c-0.1,5-2.4,7-7.4,7.2c-1.3,0.1-2.7,0.1-4,0c-1.6-0.1-2.2,0.4-2.2,2.1C257,49.1,256.9,55,257,61c0,2.1-0.6,2.7-2.6,2.5
			c-1.7-0.2-3.5-0.1-5.2,0c-1.3,0-1.8-0.4-1.7-1.7c0.1-0.7,0-1.4,0-2.1c0-18.3,0-36.7,0-55C247.5,3.9,247.5,3,247.5,2.2z M257.1,11
			c0,7.1,0,14,0,20.9c3.5,0.6,4.1,0.1,4.1-3.1c0-4.9,0-9.8,0-14.6C261.2,10.8,260.7,10.4,257.1,11z"/>
		<path class="st0" d="M282.8,63.4c-2.9,0-5.6,0.1-8.3-0.1c-0.4,0-1-1.3-1-2c-0.1-9.9,0-19.9,0-29.8c0-9,0-18,0-27.1
			c0-0.8,0-1.6,0-2.8c2.4,0,4.7,0,6.9,0c3.2,0,6.4-0.1,9.6,0.2c4.2,0.4,6.3,2.3,6.4,6.4c0.2,8.7,0.2,17.3,0,26
			c-0.1,4.2-2.3,6.1-6.5,6.6c-1.5,0.2-3.1,0.2-4.6,0.1c-1.8-0.1-2.4,0.4-2.4,2.3c0.1,5.9,0,11.7,0,17.6
			C282.9,61.7,282.8,62.5,282.8,63.4z M283.1,11c0,0.6-0.1,1.2-0.1,1.8c0,5.7,0.1,11.5-0.1,17.2c0,2.1,0.8,2.3,2.5,2.1
			c1.8-0.2,1.8-1.5,1.8-2.8c0-5.1,0-10.2,0-15.3C287.2,10.8,286.6,10.4,283.1,11z"/>
		<path class="st0" d="M86.8,1.8c5.5,0,10.9,0,16.4,0.1c0.4,0,1,0.7,1.1,1.1c0.1,2.5,0,5,0,7.8c-2.8,0-5.5,0-8.4,0c0,4,0,7.6,0,11.3
			c0,4.8,0,4.8,4.8,4.9c0.5,0,1,0.1,1.6,0.1c0,2.9,0,5.7,0,8.8c-2,0-4.1,0-6.4,0c0,2.7,0,5.1,0,7.6c0,3.1,0.1,6.2,0,9.2
			c0,1.4,0.4,2,1.9,1.9c2.1-0.1,4.2,0,6.5,0c0,2.8,0.1,5.3-0.1,7.7c0,0.4-0.8,1.1-1.3,1.1c-5,0.1-10.1,0.1-15.1,0
			c-0.4,0-1.3-0.9-1.3-1.4c-0.1-19.9,0-39.7,0-59.6C86.6,2.4,86.7,2.2,86.8,1.8z"/>
		<path class="st0" d="M84.5,10.7c-1.8,0-3.3,0-5,0c0,17.6,0,35,0,52.8c-3,0-5.9,0.1-8.7-0.1c-0.3,0-0.8-1.2-0.8-1.8
			c-0.1-4,0-8,0-12c0-12,0-24.1,0-36.1c0-0.8,0-1.7,0-2.9c-1.3,0-2.5,0-3.6,0c-1.1,0-1.5-0.4-1.5-1.5c0.1-2-0.1-4.1,0.1-6.1
			c0-0.5,0.8-1.3,1.3-1.3c5.7-0.1,11.3-0.1,17,0c0.4,0,1.2,0.7,1.2,1.1C84.6,5.4,84.5,7.8,84.5,10.7z"/>
		<path class="st0" d="M38.4,10.7c0,1.2,0,2.1,0,3c0,15.7,0,31.5,0,47.2c0,2.1-0.5,2.9-2.7,2.7c-1.5-0.2-3.1-0.1-4.6,0
			c-1.8,0.2-2.2-0.6-2.2-2.3c0.1-12.8,0-25.6,0-38.4c0-3.4-0.1-6.7,0-10.1c0-1.6-0.4-2.2-2.1-2.2c-3.1,0.1-3.1,0-3.1-3
			c0-1.5,0-2.9,0-4.4c0-1.1,0.4-1.5,1.5-1.5c5.6,0,11.2,0,16.8,0.1c0.5,0,1.3,0.8,1.4,1.2c0.1,2.1,0.1,4.2,0,6.3
			c0,0.5-0.8,1.2-1.4,1.3C41,10.8,39.8,10.7,38.4,10.7z"/>
		<path class="st0" d="M144.9,15c0,8.3-6.7,14.9-15,14.9c-8.4,0-15-6.7-14.9-15.2c0.1-8.3,6.7-14.9,15-14.8
			C138.3,0.1,144.9,6.8,144.9,15z M129.9,4.1c-5.9,0-10.8,4.9-10.8,10.8c-0.1,5.9,4.8,10.8,10.7,10.9c6,0.1,11-4.9,11-10.9
			C140.7,9,135.8,4.1,129.9,4.1z"/>
		<path class="st0" d="M139.3,46.6c4.4,0,8.5,0,12.8,0c0-3.4,0.1-6.6,0-9.9c-0.1-2.1,0.8-2.5,2.6-2.4c1.3,0.1,1.7,0.5,1.7,1.7
			c0,8.5,0,17.1,0,25.6c0,1.8-1,1.8-2.3,1.8c-1.4,0-2-0.5-2-1.9c0.1-3.1,0-6.2,0-9.2c0-1.3-0.4-1.7-1.7-1.7c-3.1,0.1-6.3,0.1-9.4,0
			c-1.5,0-1.8,0.6-1.7,1.9c0.1,3,0,6,0,9c0,1.6-0.7,2-2.2,2c-1.4,0-2.2-0.3-2.2-2c0.1-8.4,0.1-16.8,0-25.2c0-1.6,0.6-2,2.1-2
			c1.6,0,2.3,0.4,2.2,2.1C139.3,39.8,139.3,43.1,139.3,46.6z"/>
		<path class="st0" d="M165.5,46.7c3,0,5.6,0,8.3,0c1.3,0,2.6-0.2,2.7,1.9c0,2.3-1.3,2-2.8,2c-2.2,0-4.5-0.1-6.7,0
			c-0.5,0-1.4,0.6-1.4,1c-0.1,2.6-0.1,5.1-0.1,8c3.7,0,7.2,0.1,10.7,0c1.9-0.1,2.6,0.8,2.2,2.5c-0.1,0.5-0.9,1.3-1.4,1.3
			c-4.8,0.1-9.5,0.1-14.3,0c-0.5,0-1.4-1-1.4-1.5c-0.1-8.7-0.1-17.4,0-26c0-0.5,0.9-1.4,1.4-1.4c4.7-0.1,9.4,0,14.1-0.1
			c1.4,0,1.6,0.7,1.6,1.9c0,1.2-0.2,2-1.7,2c-3.1-0.1-6.2,0-9.2,0c-1.5,0-2.2,0.3-2.1,2C165.6,42.2,165.5,44.3,165.5,46.7z"/>
		<path class="st0" d="M151.8,13.9c3.4,0,6.5,0,9.6,0c1.4,0,2.4,0.1,2.4,2c0,1.9-1.1,1.9-2.4,1.9c-2.5,0-5,0.1-7.5,0
			c-1.5-0.1-2.1,0.4-2.1,2c0.1,2.7,0,5.3,0,8c0.1,1.6-0.7,1.8-2.1,1.8c-1.4,0-2.2-0.2-2.2-1.9c0.1-8.5,0-16.9,0-25.4
			c0-1.3,0.4-1.9,1.8-1.9c4.9,0,9.8,0.1,14.7,0c1.4,0,1.8,0.5,1.8,1.9c0,1.4-0.4,2-1.9,2c-3.4-0.1-6.8,0-10.3,0
			c-1.5,0-2,0.5-1.9,1.9C151.8,8.6,151.8,11.1,151.8,13.9z"/>
		<path class="st0" d="M125.4,50.7c0,3.4,0,6.9,0,10.3c0,1.5-0.2,2.5-2.1,2.5c-1.8,0-2.2-0.8-2.2-2.4c0.1-6.9,0-13.9,0.1-20.8
			c0-1.6-0.4-2.4-2.1-2.2c-1.1,0.1-2.2,0-3.4,0c-1.4,0.1-2.2-0.2-2.2-1.9c0-1.7,0.8-2,2.2-1.9c5.1,0.1,10.2,0.1,15.3,0
			c1.4,0,2,0.4,2.1,1.9c0,1.6-0.6,2-2.1,2c-1.7,0-4.2-0.5-5,0.4c-0.9,1.1-0.5,3.4-0.5,5.2C125.3,46.1,125.4,48.4,125.4,50.7z"/>
	</g>
</g>
</svg>
