<svg id="2cb5272a-51f5-42f4-b275-f7aa84e8215d" data-name="Layer 1" xmlns="http://www.w3.org/2000/svg" viewBox="0 0 300.1 77.67"><title>logo-stellar</title><g id="2f3821c2-6da9-4264-80ba-71439c747ee0" data-name="#5b6a72fe"><path d="M21.8,13.7A38,38,0,0,1,46.9,4.4,37.8,37.8,0,0,1,71.2,13,39,39,0,0,1,84.3,33.1a39.49,39.49,0,0,1-1.8,25.6A38.76,38.76,0,0,1,9.9,54.8,42.18,42.18,0,0,1,8.3,39.4c.2.5.7.9.5,1.5A38.29,38.29,0,1,0,52,5.4a37.21,37.21,0,0,0-25.4,5.4A38.24,38.24,0,0,0,10,33.4a19,19,0,0,0-.9,5.8,5.55,5.55,0,0,0-.6-.8A39.12,39.12,0,0,1,21.8,13.7Z" transform="translate(-8.2 -4.4)" style="fill:#5b6a72"/><path d="M61.8,14.1c1.9-.3,3.8-.8,5.7-.4,1,.7,1.1,2.1,1.4,3.1,1.2,5.6,1.2,12-2.1,17-2.1,2.8-4.4,5.5-6.7,8.1,3,5.2,1.1,11.8-2.3,16.3-.4-1.4-.5-2.9-1-4.3a14.51,14.51,0,0,0-3-4.7c-.6.5-1.2,1.3-2.1,1.3a3.84,3.84,0,0,1-2.5-.9L39.9,43a3.54,3.54,0,0,1-1.6-2,4.18,4.18,0,0,1,.5-2.4,15,15,0,0,0-9.8-.5c3.1-4.8,8.6-8.7,14.5-7.8,1.8-3,3.4-6,5.3-9,3.3-4,8.2-6.2,13-7.2m-2.2,2c-3.7,1.2-7.4,3.2-9.6,6.6-3.4,5.5-6.5,11.1-9.6,16.7a1.75,1.75,0,0,0-.3,1.7,7,7,0,0,0,1.6,1.4c2.9,2,5.7,4.1,8.6,6.1.6.4,1.6,1,2.1.2C56.7,43.9,60.9,39,65,33.9a14.56,14.56,0,0,0,2.9-6.6,25.64,25.64,0,0,0-1-12.3A22.69,22.69,0,0,0,59.6,16.1Z" transform="translate(-8.2 -4.4)" style="fill:#5b6a72"/><path d="M55.6,21.8a5.92,5.92,0,0,1,7.6,4.4,5.81,5.81,0,1,1-7.6-4.4m.3,1.4a4.34,4.34,0,0,0,1.5,8.4,4.45,4.45,0,0,0,4.4-5.1A4.38,4.38,0,0,0,55.9,23.2Z" transform="translate(-8.2 -4.4)" style="fill:#5b6a72"/><path d="M32,59.3a3.11,3.11,0,0,0,.6.4c-2.4,3.5-4.9,6.9-7.3,10.4-.3.3-.5,1.1-1.1.8-.4-.5.4-1,.6-1.4C27.1,66.2,29.5,62.7,32,59.3Z" transform="translate(-8.2 -4.4)" style="fill:#5b6a72"/><path d="M28.2,69.4c1.5-2.3,3.1-4.6,4.8-6.8l.7.1c-1.5,2.3-3.1,4.6-4.8,6.8Z" transform="translate(-8.2 -4.4)" style="fill:#5b6a72"/></g><g id="95b994e5-e320-47de-8ff7-e0b455915ea6" data-name="#dcf2f9ff"><path d="M59.6,16.1A22.69,22.69,0,0,1,66.9,15a25.64,25.64,0,0,1,1,12.3A13.57,13.57,0,0,1,65,33.9c-4.1,5.1-8.3,10-12.6,14.9-.6.8-1.5.3-2.1-.2-2.9-2-5.7-4.1-8.6-6.1a5.39,5.39,0,0,1-1.6-1.4c-.3-.6.1-1.2.3-1.7,3.1-5.6,6.3-11.2,9.6-16.7,2.2-3.4,5.9-5.4,9.6-6.6m-4,5.7a5.81,5.81,0,1,0,7.6,4.4A5.75,5.75,0,0,0,55.6,21.8Z" transform="translate(-8.2 -4.4)" style="fill:#dcf2f9"/></g><g id="2084bd9a-3b2f-4ae8-9e3e-3ecea1acded1" data-name="#fefefeff"><path d="M55.9,23.2a4.39,4.39,0,1,1,1.5,8.5A4.49,4.49,0,0,1,53.1,27,4.34,4.34,0,0,1,55.9,23.2Z" transform="translate(-8.2 -4.4)" style="fill:#fefefe"/></g><g id="ebf3b794-17db-48cb-820c-c541a7e3624d" data-name="#0eb8e8ff"><path d="M107.9,25.8a20.16,20.16,0,0,1,11.9.9,13,13,0,0,1,5.7,4.9L120,35.9c-1.2-1.8-2.9-3.5-5.1-3.9s-4.7-.5-6.6.7c-1.7,1-2,3.9-.3,5s3.9,1.6,5.9,2.1c3.5,1,7.4,1.6,10.1,4.4s2.8,6.9,2,10.3a9.94,9.94,0,0,1-7.5,6.9,23.46,23.46,0,0,1-12.6-.3,12.92,12.92,0,0,1-7-5.6c1.8-1.4,3.7-2.8,5.5-4.2a9.27,9.27,0,0,0,5.3,4c2.5.6,5.4.7,7.7-.6a3.6,3.6,0,0,0,.2-6c-2-1.3-4.4-1.6-6.7-2.3-3.2-.9-6.7-1.8-9.1-4.3s-2.6-6.5-1.6-9.8C101,28.8,104.4,26.5,107.9,25.8Z" transform="translate(-8.2 -4.4)" style="fill:#0eb8e8"/><path d="M128.2,26.1h28.9v6.6c-3.6-.1-7.2,0-10.8,0V61.5h-7.2V32.8H128.3C128.2,30.5,128.2,28.3,128.2,26.1Z" transform="translate(-8.2 -4.4)" style="fill:#0eb8e8"/><path d="M161.8,26.1h22.9v6.4H169V40h13.2v6.4H169v8.5h15.7v6.6H161.8Z" transform="translate(-8.2 -4.4)" style="fill:#0eb8e8"/><path d="M191.1,61.4V26.1h7.1c.1,9.6,0,19.2.1,28.7h14.8v6.6Z" transform="translate(-8.2 -4.4)" style="fill:#0eb8e8"/><path d="M217.5,26.1h7.2V54.9h14.8v6.6h-22Z" transform="translate(-8.2 -4.4)" style="fill:#0eb8e8"/><path d="M242.9,61.4c3.9-11.8,7.8-23.6,11.7-35.3H264c3.9,11.8,7.8,23.6,11.7,35.3h-7.3c-.9-2.4-1.6-4.8-2.4-7.2H252.4c-.7,2.4-1.5,4.8-2.3,7.2h-7.2m16.3-28c-1.6,4.8-3.2,9.7-4.8,14.6h9.5C262.4,43,260.7,38.2,259.2,33.4Z" transform="translate(-8.2 -4.4)" style="fill:#0eb8e8"/><path d="M280.1,26.1h14.3c3.1.2,6.5.6,8.9,2.8s2.9,5.8,2.7,8.9a10.35,10.35,0,0,1-3.2,7.5,11.58,11.58,0,0,1-4,2c3.2,4.7,6.3,9.5,9.5,14.2H300c-3-4.5-6-8.9-9-13.4h-3.6V61.5h-7.2c-.1-11.9-.1-23.7-.1-35.4m7.2,6.2v9.4c2.4-.1,4.8.1,7.1-.1,1.5-.1,3.3-.7,3.9-2.2a8.19,8.19,0,0,0,0-4.9c-.4-1.3-1.9-1.9-3.2-2.1C292.6,32.1,290,32.4,287.3,32.3Z" transform="translate(-8.2 -4.4)" style="fill:#0eb8e8"/></g><g id="d833e0ce-2eed-4dde-bb18-e07a3700ba11" data-name="#ed9e17ff"><path d="M40.2,43.2l9.3,6.6a15.57,15.57,0,0,1-6.8,6.4c-1.6.7-3.8.9-5-.6s-1.2-3.6-.9-5.4A15.3,15.3,0,0,1,40.2,43.2Z" transform="translate(-8.2 -4.4)" style="fill:#ed9e17"/></g></svg>